<svg width="1342" height="279" viewBox="0 0 1342 279" fill="none" xmlns="http://www.w3.org/2000/svg">
<g filter="url(#filter0_f_146_14666)">
<mask id="path-1-outside-1_146_14666" maskUnits="userSpaceOnUse" x="4" y="87" width="1316" height="170" fill="black">
<rect fill="white" x="4" y="87" width="1316" height="170"/>
<path d="M5 255.125V135.75H28.875V111.875H52.75V88H124.375V111.875H148.25V135.75H172.125V255.125H124.375V207.375H52.75V255.125H5ZM52.75 183.5H124.375V135.75H100.5V111.875H76.625V135.75H52.75V183.5ZM219.875 255.125V88H267.625V231.25H363.125V255.125H219.875ZM387 255.125V88H530.25V111.875H554.125V183.5H530.25V207.375H434.75V255.125H387ZM434.75 183.5H506.375V111.875H434.75V183.5ZM578 255.125V135.75H601.875V111.875H625.75V88H697.375V111.875H721.25V135.75H745.125V255.125H697.375V207.375H625.75V255.125H578ZM625.75 183.5H697.375V135.75H673.5V111.875H649.625V135.75H625.75V183.5ZM816.75 255.125V231.25H792.875V207.375H769V135.75H792.875V111.875H816.75V88H912.25V111.875H936.125V135.75H888.375V111.875H840.625V135.75H816.75V207.375H840.625V231.25H888.375V207.375H936.125V231.25H912.25V255.125H816.75ZM960 255.125V135.75H983.875V111.875H1007.75V88H1079.38V111.875H1103.25V135.75H1127.13V255.125H1079.38V207.375H1007.75V255.125H960ZM1007.75 183.5H1079.38V135.75H1055.5V111.875H1031.63V135.75H1007.75V183.5ZM1174.88 255.125V231.25H1151V207.375H1198.75V231.25H1270.38V183.5H1174.88V159.625H1151V111.875H1174.88V88H1294.25V111.875H1318.13V135.75H1270.38V111.875H1198.75V159.625H1294.25V183.5H1318.13V231.25H1294.25V255.125H1174.88Z"/>
</mask>
<path d="M5 255.125V135.75H28.875V111.875H52.75V88H124.375V111.875H148.25V135.75H172.125V255.125H124.375V207.375H52.75V255.125H5ZM52.75 183.5H124.375V135.75H100.5V111.875H76.625V135.75H52.75V183.5ZM219.875 255.125V88H267.625V231.25H363.125V255.125H219.875ZM387 255.125V88H530.25V111.875H554.125V183.5H530.25V207.375H434.75V255.125H387ZM434.75 183.5H506.375V111.875H434.75V183.5ZM578 255.125V135.75H601.875V111.875H625.75V88H697.375V111.875H721.25V135.75H745.125V255.125H697.375V207.375H625.75V255.125H578ZM625.75 183.5H697.375V135.75H673.5V111.875H649.625V135.75H625.75V183.5ZM816.75 255.125V231.25H792.875V207.375H769V135.75H792.875V111.875H816.75V88H912.25V111.875H936.125V135.75H888.375V111.875H840.625V135.75H816.75V207.375H840.625V231.25H888.375V207.375H936.125V231.25H912.25V255.125H816.75ZM960 255.125V135.75H983.875V111.875H1007.75V88H1079.38V111.875H1103.25V135.75H1127.13V255.125H1079.38V207.375H1007.75V255.125H960ZM1007.75 183.5H1079.38V135.75H1055.5V111.875H1031.63V135.75H1007.75V183.5ZM1174.88 255.125V231.25H1151V207.375H1198.75V231.25H1270.38V183.5H1174.88V159.625H1151V111.875H1174.88V88H1294.25V111.875H1318.13V135.75H1270.38V111.875H1198.75V159.625H1294.25V183.5H1318.13V231.25H1294.25V255.125H1174.88Z" fill="black"/>
<path d="M5 255.125H4V256.125H5V255.125ZM5 135.75V134.75H4V135.75H5ZM28.875 135.75V136.75H29.875V135.75H28.875ZM28.875 111.875V110.875H27.875V111.875H28.875ZM52.75 111.875V112.875H53.75V111.875H52.75ZM52.75 88V87H51.75V88H52.75ZM124.375 88H125.375V87H124.375V88ZM124.375 111.875H123.375V112.875H124.375V111.875ZM148.25 111.875H149.25V110.875H148.25V111.875ZM148.25 135.75H147.25V136.75H148.25V135.75ZM172.125 135.75H173.125V134.75H172.125V135.75ZM172.125 255.125V256.125H173.125V255.125H172.125ZM124.375 255.125H123.375V256.125H124.375V255.125ZM124.375 207.375H125.375V206.375H124.375V207.375ZM52.75 207.375V206.375H51.75V207.375H52.75ZM52.75 255.125V256.125H53.75V255.125H52.75ZM52.75 183.5H51.75V184.5H52.75V183.5ZM124.375 183.5V184.5H125.375V183.5H124.375ZM124.375 135.75H125.375V134.75H124.375V135.75ZM100.5 135.75H99.5V136.75H100.5V135.75ZM100.5 111.875H101.5V110.875H100.5V111.875ZM76.625 111.875V110.875H75.625V111.875H76.625ZM76.625 135.75V136.75H77.625V135.75H76.625ZM52.75 135.75V134.75H51.75V135.75H52.75ZM6 255.125V135.75H4V255.125H6ZM5 136.75H28.875V134.75H5V136.75ZM29.875 135.75V111.875H27.875V135.75H29.875ZM28.875 112.875H52.75V110.875H28.875V112.875ZM53.75 111.875V88H51.75V111.875H53.75ZM52.75 89H124.375V87H52.75V89ZM123.375 88V111.875H125.375V88H123.375ZM124.375 112.875H148.25V110.875H124.375V112.875ZM147.25 111.875V135.75H149.25V111.875H147.25ZM148.25 136.75H172.125V134.75H148.25V136.75ZM171.125 135.75V255.125H173.125V135.75H171.125ZM172.125 254.125H124.375V256.125H172.125V254.125ZM125.375 255.125V207.375H123.375V255.125H125.375ZM124.375 206.375H52.75V208.375H124.375V206.375ZM51.75 207.375V255.125H53.75V207.375H51.75ZM52.75 254.125H5V256.125H52.75V254.125ZM52.75 184.5H124.375V182.5H52.75V184.5ZM125.375 183.5V135.75H123.375V183.5H125.375ZM124.375 134.75H100.5V136.75H124.375V134.75ZM101.5 135.75V111.875H99.5V135.75H101.5ZM100.5 110.875H76.625V112.875H100.5V110.875ZM75.625 111.875V135.75H77.625V111.875H75.625ZM76.625 134.75H52.75V136.75H76.625V134.75ZM51.75 135.75V183.5H53.75V135.75H51.75ZM219.875 255.125H218.875V256.125H219.875V255.125ZM219.875 88V87H218.875V88H219.875ZM267.625 88H268.625V87H267.625V88ZM267.625 231.25H266.625V232.25H267.625V231.25ZM363.125 231.25H364.125V230.25H363.125V231.25ZM363.125 255.125V256.125H364.125V255.125H363.125ZM220.875 255.125V88H218.875V255.125H220.875ZM219.875 89H267.625V87H219.875V89ZM266.625 88V231.25H268.625V88H266.625ZM267.625 232.25H363.125V230.25H267.625V232.25ZM362.125 231.25V255.125H364.125V231.25H362.125ZM363.125 254.125H219.875V256.125H363.125V254.125ZM387 255.125H386V256.125H387V255.125ZM387 88V87H386V88H387ZM530.25 88H531.25V87H530.25V88ZM530.25 111.875H529.25V112.875H530.25V111.875ZM554.125 111.875H555.125V110.875H554.125V111.875ZM554.125 183.5V184.5H555.125V183.5H554.125ZM530.25 183.5V182.5H529.25V183.5H530.25ZM530.25 207.375V208.375H531.25V207.375H530.25ZM434.75 207.375V206.375H433.75V207.375H434.75ZM434.75 255.125V256.125H435.75V255.125H434.75ZM434.75 183.5H433.75V184.5H434.75V183.5ZM506.375 183.5V184.5H507.375V183.5H506.375ZM506.375 111.875H507.375V110.875H506.375V111.875ZM434.75 111.875V110.875H433.75V111.875H434.75ZM388 255.125V88H386V255.125H388ZM387 89H530.25V87H387V89ZM529.25 88V111.875H531.25V88H529.25ZM530.25 112.875H554.125V110.875H530.25V112.875ZM553.125 111.875V183.5H555.125V111.875H553.125ZM554.125 182.5H530.25V184.5H554.125V182.5ZM529.25 183.5V207.375H531.25V183.5H529.25ZM530.25 206.375H434.75V208.375H530.25V206.375ZM433.75 207.375V255.125H435.75V207.375H433.75ZM434.75 254.125H387V256.125H434.75V254.125ZM434.75 184.5H506.375V182.5H434.75V184.5ZM507.375 183.5V111.875H505.375V183.5H507.375ZM506.375 110.875H434.75V112.875H506.375V110.875ZM433.75 111.875V183.5H435.75V111.875H433.75ZM578 255.125H577V256.125H578V255.125ZM578 135.75V134.75H577V135.75H578ZM601.875 135.75V136.75H602.875V135.75H601.875ZM601.875 111.875V110.875H600.875V111.875H601.875ZM625.75 111.875V112.875H626.75V111.875H625.75ZM625.75 88V87H624.75V88H625.75ZM697.375 88H698.375V87H697.375V88ZM697.375 111.875H696.375V112.875H697.375V111.875ZM721.25 111.875H722.25V110.875H721.25V111.875ZM721.25 135.75H720.25V136.75H721.25V135.75ZM745.125 135.75H746.125V134.75H745.125V135.75ZM745.125 255.125V256.125H746.125V255.125H745.125ZM697.375 255.125H696.375V256.125H697.375V255.125ZM697.375 207.375H698.375V206.375H697.375V207.375ZM625.75 207.375V206.375H624.75V207.375H625.75ZM625.75 255.125V256.125H626.75V255.125H625.75ZM625.75 183.5H624.75V184.5H625.75V183.5ZM697.375 183.5V184.5H698.375V183.5H697.375ZM697.375 135.75H698.375V134.75H697.375V135.75ZM673.5 135.75H672.5V136.75H673.5V135.75ZM673.5 111.875H674.5V110.875H673.5V111.875ZM649.625 111.875V110.875H648.625V111.875H649.625ZM649.625 135.75V136.75H650.625V135.75H649.625ZM625.75 135.75V134.75H624.75V135.75H625.75ZM579 255.125V135.75H577V255.125H579ZM578 136.75H601.875V134.75H578V136.75ZM602.875 135.75V111.875H600.875V135.75H602.875ZM601.875 112.875H625.75V110.875H601.875V112.875ZM626.75 111.875V88H624.75V111.875H626.75ZM625.75 89H697.375V87H625.75V89ZM696.375 88V111.875H698.375V88H696.375ZM697.375 112.875H721.25V110.875H697.375V112.875ZM720.25 111.875V135.75H722.25V111.875H720.25ZM721.25 136.75H745.125V134.75H721.25V136.75ZM744.125 135.75V255.125H746.125V135.75H744.125ZM745.125 254.125H697.375V256.125H745.125V254.125ZM698.375 255.125V207.375H696.375V255.125H698.375ZM697.375 206.375H625.75V208.375H697.375V206.375ZM624.75 207.375V255.125H626.75V207.375H624.75ZM625.75 254.125H578V256.125H625.75V254.125ZM625.75 184.5H697.375V182.5H625.75V184.5ZM698.375 183.5V135.75H696.375V183.5H698.375ZM697.375 134.75H673.5V136.75H697.375V134.75ZM674.5 135.75V111.875H672.5V135.75H674.5ZM673.5 110.875H649.625V112.875H673.5V110.875ZM648.625 111.875V135.75H650.625V111.875H648.625ZM649.625 134.75H625.75V136.75H649.625V134.75ZM624.75 135.75V183.5H626.75V135.75H624.75ZM816.75 255.125H815.75V256.125H816.75V255.125ZM816.75 231.25H817.75V230.25H816.75V231.25ZM792.875 231.25H791.875V232.25H792.875V231.25ZM792.875 207.375H793.875V206.375H792.875V207.375ZM769 207.375H768V208.375H769V207.375ZM769 135.75V134.75H768V135.75H769ZM792.875 135.75V136.75H793.875V135.75H792.875ZM792.875 111.875V110.875H791.875V111.875H792.875ZM816.75 111.875V112.875H817.75V111.875H816.75ZM816.75 88V87H815.75V88H816.75ZM912.25 88H913.25V87H912.25V88ZM912.25 111.875H911.25V112.875H912.25V111.875ZM936.125 111.875H937.125V110.875H936.125V111.875ZM936.125 135.75V136.75H937.125V135.75H936.125ZM888.375 135.75H887.375V136.75H888.375V135.75ZM888.375 111.875H889.375V110.875H888.375V111.875ZM840.625 111.875V110.875H839.625V111.875H840.625ZM840.625 135.75V136.75H841.625V135.75H840.625ZM816.75 135.75V134.75H815.75V135.75H816.75ZM816.75 207.375H815.75V208.375H816.75V207.375ZM840.625 207.375H841.625V206.375H840.625V207.375ZM840.625 231.25H839.625V232.25H840.625V231.25ZM888.375 231.25V232.25H889.375V231.25H888.375ZM888.375 207.375V206.375H887.375V207.375H888.375ZM936.125 207.375H937.125V206.375H936.125V207.375ZM936.125 231.25V232.25H937.125V231.25H936.125ZM912.25 231.25V230.25H911.25V231.25H912.25ZM912.25 255.125V256.125H913.25V255.125H912.25ZM817.75 255.125V231.25H815.75V255.125H817.75ZM816.75 230.25H792.875V232.25H816.75V230.25ZM793.875 231.25V207.375H791.875V231.25H793.875ZM792.875 206.375H769V208.375H792.875V206.375ZM770 207.375V135.75H768V207.375H770ZM769 136.75H792.875V134.75H769V136.75ZM793.875 135.75V111.875H791.875V135.75H793.875ZM792.875 112.875H816.75V110.875H792.875V112.875ZM817.75 111.875V88H815.75V111.875H817.75ZM816.75 89H912.25V87H816.75V89ZM911.25 88V111.875H913.25V88H911.25ZM912.25 112.875H936.125V110.875H912.25V112.875ZM935.125 111.875V135.75H937.125V111.875H935.125ZM936.125 134.75H888.375V136.75H936.125V134.75ZM889.375 135.75V111.875H887.375V135.75H889.375ZM888.375 110.875H840.625V112.875H888.375V110.875ZM839.625 111.875V135.75H841.625V111.875H839.625ZM840.625 134.75H816.75V136.75H840.625V134.75ZM815.75 135.75V207.375H817.75V135.75H815.75ZM816.75 208.375H840.625V206.375H816.75V208.375ZM839.625 207.375V231.25H841.625V207.375H839.625ZM840.625 232.25H888.375V230.25H840.625V232.25ZM889.375 231.25V207.375H887.375V231.25H889.375ZM888.375 208.375H936.125V206.375H888.375V208.375ZM935.125 207.375V231.25H937.125V207.375H935.125ZM936.125 230.25H912.25V232.25H936.125V230.25ZM911.25 231.25V255.125H913.25V231.25H911.25ZM912.25 254.125H816.75V256.125H912.25V254.125ZM960 255.125H959V256.125H960V255.125ZM960 135.75V134.75H959V135.75H960ZM983.875 135.75V136.75H984.875V135.75H983.875ZM983.875 111.875V110.875H982.875V111.875H983.875ZM1007.75 111.875V112.875H1008.75V111.875H1007.75ZM1007.75 88V87H1006.75V88H1007.75ZM1079.38 88H1080.38V87H1079.38V88ZM1079.38 111.875H1078.38V112.875H1079.38V111.875ZM1103.25 111.875H1104.25V110.875H1103.25V111.875ZM1103.25 135.75H1102.25V136.75H1103.25V135.75ZM1127.12 135.75H1128.12V134.75H1127.12V135.75ZM1127.12 255.125V256.125H1128.12V255.125H1127.12ZM1079.38 255.125H1078.38V256.125H1079.38V255.125ZM1079.38 207.375H1080.38V206.375H1079.38V207.375ZM1007.75 207.375V206.375H1006.75V207.375H1007.75ZM1007.75 255.125V256.125H1008.75V255.125H1007.75ZM1007.75 183.5H1006.75V184.5H1007.75V183.5ZM1079.38 183.5V184.5H1080.38V183.5H1079.38ZM1079.38 135.75H1080.38V134.75H1079.38V135.75ZM1055.5 135.75H1054.5V136.75H1055.5V135.75ZM1055.5 111.875H1056.5V110.875H1055.5V111.875ZM1031.62 111.875V110.875H1030.62V111.875H1031.62ZM1031.62 135.75V136.75H1032.62V135.75H1031.62ZM1007.75 135.75V134.75H1006.75V135.75H1007.75ZM961 255.125V135.75H959V255.125H961ZM960 136.75H983.875V134.75H960V136.75ZM984.875 135.75V111.875H982.875V135.75H984.875ZM983.875 112.875H1007.75V110.875H983.875V112.875ZM1008.75 111.875V88H1006.75V111.875H1008.75ZM1007.75 89H1079.38V87H1007.75V89ZM1078.38 88V111.875H1080.38V88H1078.38ZM1079.38 112.875H1103.25V110.875H1079.38V112.875ZM1102.25 111.875V135.75H1104.25V111.875H1102.25ZM1103.25 136.75H1127.12V134.75H1103.25V136.75ZM1126.12 135.75V255.125H1128.12V135.75H1126.12ZM1127.12 254.125H1079.38V256.125H1127.12V254.125ZM1080.38 255.125V207.375H1078.38V255.125H1080.38ZM1079.38 206.375H1007.75V208.375H1079.38V206.375ZM1006.75 207.375V255.125H1008.75V207.375H1006.75ZM1007.75 254.125H960V256.125H1007.75V254.125ZM1007.75 184.5H1079.38V182.5H1007.75V184.5ZM1080.38 183.5V135.75H1078.38V183.5H1080.38ZM1079.38 134.75H1055.5V136.75H1079.38V134.75ZM1056.5 135.75V111.875H1054.5V135.75H1056.5ZM1055.5 110.875H1031.62V112.875H1055.5V110.875ZM1030.62 111.875V135.75H1032.62V111.875H1030.62ZM1031.62 134.75H1007.75V136.75H1031.62V134.75ZM1006.75 135.75V183.5H1008.75V135.75H1006.75ZM1174.88 255.125H1173.88V256.125H1174.88V255.125ZM1174.88 231.25H1175.88V230.25H1174.88V231.25ZM1151 231.25H1150V232.25H1151V231.25ZM1151 207.375V206.375H1150V207.375H1151ZM1198.75 207.375H1199.75V206.375H1198.75V207.375ZM1198.75 231.25H1197.75V232.25H1198.75V231.25ZM1270.38 231.25V232.25H1271.38V231.25H1270.38ZM1270.38 183.5H1271.38V182.5H1270.38V183.5ZM1174.88 183.5H1173.88V184.5H1174.88V183.5ZM1174.88 159.625H1175.88V158.625H1174.88V159.625ZM1151 159.625H1150V160.625H1151V159.625ZM1151 111.875V110.875H1150V111.875H1151ZM1174.88 111.875V112.875H1175.88V111.875H1174.88ZM1174.88 88V87H1173.88V88H1174.88ZM1294.25 88H1295.25V87H1294.25V88ZM1294.25 111.875H1293.25V112.875H1294.25V111.875ZM1318.12 111.875H1319.12V110.875H1318.12V111.875ZM1318.12 135.75V136.75H1319.12V135.75H1318.12ZM1270.38 135.75H1269.38V136.75H1270.38V135.75ZM1270.38 111.875H1271.38V110.875H1270.38V111.875ZM1198.75 111.875V110.875H1197.75V111.875H1198.75ZM1198.75 159.625H1197.75V160.625H1198.75V159.625ZM1294.25 159.625H1295.25V158.625H1294.25V159.625ZM1294.25 183.5H1293.25V184.5H1294.25V183.5ZM1318.12 183.5H1319.12V182.5H1318.12V183.5ZM1318.12 231.25V232.25H1319.12V231.25H1318.12ZM1294.25 231.25V230.25H1293.25V231.25H1294.25ZM1294.25 255.125V256.125H1295.25V255.125H1294.25ZM1175.88 255.125V231.25H1173.88V255.125H1175.88ZM1174.88 230.25H1151V232.25H1174.88V230.25ZM1152 231.25V207.375H1150V231.25H1152ZM1151 208.375H1198.75V206.375H1151V208.375ZM1197.75 207.375V231.25H1199.75V207.375H1197.75ZM1198.75 232.25H1270.38V230.25H1198.75V232.25ZM1271.38 231.25V183.5H1269.38V231.25H1271.38ZM1270.38 182.5H1174.88V184.5H1270.38V182.5ZM1175.88 183.5V159.625H1173.88V183.5H1175.88ZM1174.88 158.625H1151V160.625H1174.88V158.625ZM1152 159.625V111.875H1150V159.625H1152ZM1151 112.875H1174.88V110.875H1151V112.875ZM1175.88 111.875V88H1173.88V111.875H1175.88ZM1174.88 89H1294.25V87H1174.88V89ZM1293.25 88V111.875H1295.25V88H1293.25ZM1294.25 112.875H1318.12V110.875H1294.25V112.875ZM1317.12 111.875V135.75H1319.12V111.875H1317.12ZM1318.12 134.75H1270.38V136.75H1318.12V134.75ZM1271.38 135.75V111.875H1269.38V135.75H1271.38ZM1270.38 110.875H1198.75V112.875H1270.38V110.875ZM1197.75 111.875V159.625H1199.75V111.875H1197.75ZM1198.75 160.625H1294.25V158.625H1198.75V160.625ZM1293.25 159.625V183.5H1295.25V159.625H1293.25ZM1294.25 184.5H1318.12V182.5H1294.25V184.5ZM1317.12 183.5V231.25H1319.12V183.5H1317.12ZM1318.12 230.25H1294.25V232.25H1318.12V230.25ZM1293.25 231.25V255.125H1295.25V231.25H1293.25ZM1294.25 254.125H1174.88V256.125H1294.25V254.125Z" fill="#9A7AF2" mask="url(#path-1-outside-1_146_14666)"/>
</g>
<g filter="url(#filter1_f_146_14666)">
<mask id="path-3-outside-2_146_14666" maskUnits="userSpaceOnUse" x="4" y="43" width="1316" height="170" fill="black">
<rect fill="white" x="4" y="43" width="1316" height="170"/>
<path d="M5 211.125V91.75H28.875V67.875H52.75V44H124.375V67.875H148.25V91.75H172.125V211.125H124.375V163.375H52.75V211.125H5ZM52.75 139.5H124.375V91.75H100.5V67.875H76.625V91.75H52.75V139.5ZM219.875 211.125V44H267.625V187.25H363.125V211.125H219.875ZM387 211.125V44H530.25V67.875H554.125V139.5H530.25V163.375H434.75V211.125H387ZM434.75 139.5H506.375V67.875H434.75V139.5ZM578 211.125V91.75H601.875V67.875H625.75V44H697.375V67.875H721.25V91.75H745.125V211.125H697.375V163.375H625.75V211.125H578ZM625.75 139.5H697.375V91.75H673.5V67.875H649.625V91.75H625.75V139.5ZM816.75 211.125V187.25H792.875V163.375H769V91.75H792.875V67.875H816.75V44H912.25V67.875H936.125V91.75H888.375V67.875H840.625V91.75H816.75V163.375H840.625V187.25H888.375V163.375H936.125V187.25H912.25V211.125H816.75ZM960 211.125V91.75H983.875V67.875H1007.75V44H1079.38V67.875H1103.25V91.75H1127.13V211.125H1079.38V163.375H1007.75V211.125H960ZM1007.75 139.5H1079.38V91.75H1055.5V67.875H1031.63V91.75H1007.75V139.5ZM1174.88 211.125V187.25H1151V163.375H1198.75V187.25H1270.38V139.5H1174.88V115.625H1151V67.875H1174.88V44H1294.25V67.875H1318.13V91.75H1270.38V67.875H1198.75V115.625H1294.25V139.5H1318.13V187.25H1294.25V211.125H1174.88Z"/>
</mask>
<path d="M5 211.125V91.75H28.875V67.875H52.75V44H124.375V67.875H148.25V91.75H172.125V211.125H124.375V163.375H52.75V211.125H5ZM52.75 139.5H124.375V91.75H100.5V67.875H76.625V91.75H52.75V139.5ZM219.875 211.125V44H267.625V187.25H363.125V211.125H219.875ZM387 211.125V44H530.25V67.875H554.125V139.5H530.25V163.375H434.75V211.125H387ZM434.75 139.5H506.375V67.875H434.75V139.5ZM578 211.125V91.75H601.875V67.875H625.75V44H697.375V67.875H721.25V91.75H745.125V211.125H697.375V163.375H625.75V211.125H578ZM625.75 139.5H697.375V91.75H673.5V67.875H649.625V91.75H625.75V139.5ZM816.75 211.125V187.25H792.875V163.375H769V91.75H792.875V67.875H816.75V44H912.25V67.875H936.125V91.75H888.375V67.875H840.625V91.75H816.75V163.375H840.625V187.25H888.375V163.375H936.125V187.25H912.25V211.125H816.75ZM960 211.125V91.75H983.875V67.875H1007.75V44H1079.38V67.875H1103.25V91.75H1127.13V211.125H1079.38V163.375H1007.75V211.125H960ZM1007.75 139.5H1079.38V91.75H1055.5V67.875H1031.63V91.75H1007.75V139.5ZM1174.88 211.125V187.25H1151V163.375H1198.75V187.25H1270.38V139.5H1174.88V115.625H1151V67.875H1174.88V44H1294.25V67.875H1318.13V91.75H1270.38V67.875H1198.75V115.625H1294.25V139.5H1318.13V187.25H1294.25V211.125H1174.88Z" fill="black"/>
<path d="M5 211.125H4V212.125H5V211.125ZM5 91.75V90.75H4V91.75H5ZM28.875 91.75V92.75H29.875V91.75H28.875ZM28.875 67.875V66.875H27.875V67.875H28.875ZM52.75 67.875V68.875H53.75V67.875H52.75ZM52.75 44V43H51.75V44H52.75ZM124.375 44H125.375V43H124.375V44ZM124.375 67.875H123.375V68.875H124.375V67.875ZM148.25 67.875H149.25V66.875H148.25V67.875ZM148.25 91.75H147.25V92.75H148.25V91.75ZM172.125 91.75H173.125V90.75H172.125V91.75ZM172.125 211.125V212.125H173.125V211.125H172.125ZM124.375 211.125H123.375V212.125H124.375V211.125ZM124.375 163.375H125.375V162.375H124.375V163.375ZM52.75 163.375V162.375H51.75V163.375H52.75ZM52.75 211.125V212.125H53.75V211.125H52.75ZM52.75 139.5H51.75V140.5H52.75V139.5ZM124.375 139.5V140.5H125.375V139.5H124.375ZM124.375 91.75H125.375V90.75H124.375V91.75ZM100.5 91.75H99.5V92.75H100.5V91.75ZM100.5 67.875H101.5V66.875H100.5V67.875ZM76.625 67.875V66.875H75.625V67.875H76.625ZM76.625 91.75V92.75H77.625V91.75H76.625ZM52.75 91.75V90.75H51.75V91.75H52.75ZM6 211.125V91.75H4V211.125H6ZM5 92.75H28.875V90.75H5V92.75ZM29.875 91.75V67.875H27.875V91.75H29.875ZM28.875 68.875H52.75V66.875H28.875V68.875ZM53.75 67.875V44H51.75V67.875H53.75ZM52.75 45H124.375V43H52.75V45ZM123.375 44V67.875H125.375V44H123.375ZM124.375 68.875H148.25V66.875H124.375V68.875ZM147.25 67.875V91.75H149.25V67.875H147.25ZM148.25 92.75H172.125V90.75H148.25V92.75ZM171.125 91.75V211.125H173.125V91.75H171.125ZM172.125 210.125H124.375V212.125H172.125V210.125ZM125.375 211.125V163.375H123.375V211.125H125.375ZM124.375 162.375H52.75V164.375H124.375V162.375ZM51.75 163.375V211.125H53.75V163.375H51.75ZM52.75 210.125H5V212.125H52.75V210.125ZM52.75 140.5H124.375V138.5H52.75V140.5ZM125.375 139.5V91.75H123.375V139.5H125.375ZM124.375 90.75H100.5V92.75H124.375V90.75ZM101.5 91.75V67.875H99.5V91.75H101.5ZM100.5 66.875H76.625V68.875H100.5V66.875ZM75.625 67.875V91.75H77.625V67.875H75.625ZM76.625 90.75H52.75V92.75H76.625V90.75ZM51.75 91.75V139.5H53.75V91.75H51.75ZM219.875 211.125H218.875V212.125H219.875V211.125ZM219.875 44V43H218.875V44H219.875ZM267.625 44H268.625V43H267.625V44ZM267.625 187.25H266.625V188.25H267.625V187.25ZM363.125 187.25H364.125V186.25H363.125V187.25ZM363.125 211.125V212.125H364.125V211.125H363.125ZM220.875 211.125V44H218.875V211.125H220.875ZM219.875 45H267.625V43H219.875V45ZM266.625 44V187.25H268.625V44H266.625ZM267.625 188.25H363.125V186.25H267.625V188.25ZM362.125 187.25V211.125H364.125V187.25H362.125ZM363.125 210.125H219.875V212.125H363.125V210.125ZM387 211.125H386V212.125H387V211.125ZM387 44V43H386V44H387ZM530.25 44H531.25V43H530.25V44ZM530.25 67.875H529.25V68.875H530.25V67.875ZM554.125 67.875H555.125V66.875H554.125V67.875ZM554.125 139.5V140.5H555.125V139.5H554.125ZM530.25 139.5V138.5H529.25V139.5H530.25ZM530.25 163.375V164.375H531.25V163.375H530.25ZM434.75 163.375V162.375H433.75V163.375H434.75ZM434.75 211.125V212.125H435.75V211.125H434.75ZM434.75 139.5H433.75V140.5H434.75V139.5ZM506.375 139.5V140.5H507.375V139.5H506.375ZM506.375 67.875H507.375V66.875H506.375V67.875ZM434.75 67.875V66.875H433.75V67.875H434.75ZM388 211.125V44H386V211.125H388ZM387 45H530.25V43H387V45ZM529.25 44V67.875H531.25V44H529.25ZM530.25 68.875H554.125V66.875H530.25V68.875ZM553.125 67.875V139.5H555.125V67.875H553.125ZM554.125 138.5H530.25V140.5H554.125V138.5ZM529.25 139.5V163.375H531.25V139.5H529.25ZM530.25 162.375H434.75V164.375H530.25V162.375ZM433.75 163.375V211.125H435.75V163.375H433.75ZM434.75 210.125H387V212.125H434.75V210.125ZM434.75 140.5H506.375V138.5H434.75V140.5ZM507.375 139.5V67.875H505.375V139.5H507.375ZM506.375 66.875H434.75V68.875H506.375V66.875ZM433.75 67.875V139.5H435.75V67.875H433.75ZM578 211.125H577V212.125H578V211.125ZM578 91.75V90.75H577V91.75H578ZM601.875 91.75V92.75H602.875V91.75H601.875ZM601.875 67.875V66.875H600.875V67.875H601.875ZM625.75 67.875V68.875H626.75V67.875H625.75ZM625.75 44V43H624.75V44H625.75ZM697.375 44H698.375V43H697.375V44ZM697.375 67.875H696.375V68.875H697.375V67.875ZM721.25 67.875H722.25V66.875H721.25V67.875ZM721.25 91.75H720.25V92.75H721.25V91.75ZM745.125 91.75H746.125V90.75H745.125V91.75ZM745.125 211.125V212.125H746.125V211.125H745.125ZM697.375 211.125H696.375V212.125H697.375V211.125ZM697.375 163.375H698.375V162.375H697.375V163.375ZM625.75 163.375V162.375H624.75V163.375H625.75ZM625.75 211.125V212.125H626.75V211.125H625.75ZM625.75 139.5H624.75V140.5H625.75V139.5ZM697.375 139.5V140.5H698.375V139.5H697.375ZM697.375 91.75H698.375V90.75H697.375V91.75ZM673.5 91.75H672.5V92.75H673.5V91.75ZM673.5 67.875H674.5V66.875H673.5V67.875ZM649.625 67.875V66.875H648.625V67.875H649.625ZM649.625 91.75V92.75H650.625V91.75H649.625ZM625.75 91.75V90.75H624.75V91.75H625.75ZM579 211.125V91.75H577V211.125H579ZM578 92.75H601.875V90.75H578V92.75ZM602.875 91.75V67.875H600.875V91.75H602.875ZM601.875 68.875H625.75V66.875H601.875V68.875ZM626.75 67.875V44H624.75V67.875H626.75ZM625.75 45H697.375V43H625.75V45ZM696.375 44V67.875H698.375V44H696.375ZM697.375 68.875H721.25V66.875H697.375V68.875ZM720.25 67.875V91.75H722.25V67.875H720.25ZM721.25 92.75H745.125V90.75H721.25V92.75ZM744.125 91.75V211.125H746.125V91.75H744.125ZM745.125 210.125H697.375V212.125H745.125V210.125ZM698.375 211.125V163.375H696.375V211.125H698.375ZM697.375 162.375H625.75V164.375H697.375V162.375ZM624.75 163.375V211.125H626.75V163.375H624.75ZM625.75 210.125H578V212.125H625.75V210.125ZM625.75 140.5H697.375V138.5H625.75V140.5ZM698.375 139.5V91.75H696.375V139.5H698.375ZM697.375 90.75H673.5V92.75H697.375V90.75ZM674.5 91.75V67.875H672.5V91.75H674.5ZM673.5 66.875H649.625V68.875H673.5V66.875ZM648.625 67.875V91.75H650.625V67.875H648.625ZM649.625 90.75H625.75V92.75H649.625V90.75ZM624.75 91.75V139.5H626.75V91.75H624.75ZM816.75 211.125H815.75V212.125H816.75V211.125ZM816.75 187.25H817.75V186.25H816.75V187.25ZM792.875 187.25H791.875V188.25H792.875V187.25ZM792.875 163.375H793.875V162.375H792.875V163.375ZM769 163.375H768V164.375H769V163.375ZM769 91.75V90.75H768V91.75H769ZM792.875 91.75V92.75H793.875V91.75H792.875ZM792.875 67.875V66.875H791.875V67.875H792.875ZM816.75 67.875V68.875H817.75V67.875H816.75ZM816.75 44V43H815.75V44H816.75ZM912.25 44H913.25V43H912.25V44ZM912.25 67.875H911.25V68.875H912.25V67.875ZM936.125 67.875H937.125V66.875H936.125V67.875ZM936.125 91.75V92.75H937.125V91.75H936.125ZM888.375 91.75H887.375V92.75H888.375V91.75ZM888.375 67.875H889.375V66.875H888.375V67.875ZM840.625 67.875V66.875H839.625V67.875H840.625ZM840.625 91.75V92.75H841.625V91.75H840.625ZM816.75 91.75V90.75H815.75V91.75H816.75ZM816.75 163.375H815.75V164.375H816.75V163.375ZM840.625 163.375H841.625V162.375H840.625V163.375ZM840.625 187.25H839.625V188.25H840.625V187.25ZM888.375 187.25V188.25H889.375V187.25H888.375ZM888.375 163.375V162.375H887.375V163.375H888.375ZM936.125 163.375H937.125V162.375H936.125V163.375ZM936.125 187.25V188.25H937.125V187.25H936.125ZM912.25 187.25V186.25H911.25V187.25H912.25ZM912.25 211.125V212.125H913.25V211.125H912.25ZM817.75 211.125V187.25H815.75V211.125H817.75ZM816.75 186.25H792.875V188.25H816.75V186.25ZM793.875 187.25V163.375H791.875V187.25H793.875ZM792.875 162.375H769V164.375H792.875V162.375ZM770 163.375V91.75H768V163.375H770ZM769 92.75H792.875V90.75H769V92.75ZM793.875 91.75V67.875H791.875V91.75H793.875ZM792.875 68.875H816.75V66.875H792.875V68.875ZM817.75 67.875V44H815.75V67.875H817.75ZM816.75 45H912.25V43H816.75V45ZM911.25 44V67.875H913.25V44H911.25ZM912.25 68.875H936.125V66.875H912.25V68.875ZM935.125 67.875V91.75H937.125V67.875H935.125ZM936.125 90.75H888.375V92.75H936.125V90.75ZM889.375 91.75V67.875H887.375V91.75H889.375ZM888.375 66.875H840.625V68.875H888.375V66.875ZM839.625 67.875V91.75H841.625V67.875H839.625ZM840.625 90.75H816.75V92.75H840.625V90.75ZM815.75 91.75V163.375H817.75V91.75H815.75ZM816.75 164.375H840.625V162.375H816.75V164.375ZM839.625 163.375V187.25H841.625V163.375H839.625ZM840.625 188.25H888.375V186.25H840.625V188.25ZM889.375 187.25V163.375H887.375V187.25H889.375ZM888.375 164.375H936.125V162.375H888.375V164.375ZM935.125 163.375V187.25H937.125V163.375H935.125ZM936.125 186.25H912.25V188.25H936.125V186.25ZM911.25 187.25V211.125H913.25V187.25H911.25ZM912.25 210.125H816.75V212.125H912.25V210.125ZM960 211.125H959V212.125H960V211.125ZM960 91.75V90.75H959V91.75H960ZM983.875 91.75V92.75H984.875V91.75H983.875ZM983.875 67.875V66.875H982.875V67.875H983.875ZM1007.75 67.875V68.875H1008.75V67.875H1007.75ZM1007.75 44V43H1006.75V44H1007.75ZM1079.38 44H1080.38V43H1079.38V44ZM1079.38 67.875H1078.38V68.875H1079.38V67.875ZM1103.25 67.875H1104.25V66.875H1103.25V67.875ZM1103.25 91.75H1102.25V92.75H1103.25V91.75ZM1127.12 91.75H1128.12V90.75H1127.12V91.75ZM1127.12 211.125V212.125H1128.12V211.125H1127.12ZM1079.38 211.125H1078.38V212.125H1079.38V211.125ZM1079.38 163.375H1080.38V162.375H1079.38V163.375ZM1007.75 163.375V162.375H1006.75V163.375H1007.75ZM1007.75 211.125V212.125H1008.75V211.125H1007.75ZM1007.75 139.5H1006.75V140.5H1007.75V139.5ZM1079.38 139.5V140.5H1080.38V139.5H1079.38ZM1079.38 91.75H1080.38V90.75H1079.38V91.75ZM1055.5 91.75H1054.5V92.75H1055.5V91.75ZM1055.5 67.875H1056.5V66.875H1055.5V67.875ZM1031.62 67.875V66.875H1030.62V67.875H1031.62ZM1031.62 91.75V92.75H1032.62V91.75H1031.62ZM1007.75 91.75V90.75H1006.75V91.75H1007.75ZM961 211.125V91.75H959V211.125H961ZM960 92.75H983.875V90.75H960V92.75ZM984.875 91.75V67.875H982.875V91.75H984.875ZM983.875 68.875H1007.75V66.875H983.875V68.875ZM1008.75 67.875V44H1006.75V67.875H1008.75ZM1007.75 45H1079.38V43H1007.75V45ZM1078.38 44V67.875H1080.38V44H1078.38ZM1079.38 68.875H1103.25V66.875H1079.38V68.875ZM1102.25 67.875V91.75H1104.25V67.875H1102.25ZM1103.25 92.75H1127.12V90.75H1103.25V92.75ZM1126.12 91.75V211.125H1128.12V91.75H1126.12ZM1127.12 210.125H1079.38V212.125H1127.12V210.125ZM1080.38 211.125V163.375H1078.38V211.125H1080.38ZM1079.38 162.375H1007.75V164.375H1079.38V162.375ZM1006.75 163.375V211.125H1008.75V163.375H1006.75ZM1007.75 210.125H960V212.125H1007.75V210.125ZM1007.75 140.5H1079.38V138.5H1007.75V140.5ZM1080.38 139.5V91.75H1078.38V139.5H1080.38ZM1079.38 90.75H1055.5V92.75H1079.38V90.75ZM1056.5 91.75V67.875H1054.5V91.75H1056.5ZM1055.5 66.875H1031.62V68.875H1055.5V66.875ZM1030.62 67.875V91.75H1032.62V67.875H1030.62ZM1031.62 90.75H1007.75V92.75H1031.62V90.75ZM1006.75 91.75V139.5H1008.75V91.75H1006.75ZM1174.88 211.125H1173.88V212.125H1174.88V211.125ZM1174.88 187.25H1175.88V186.25H1174.88V187.25ZM1151 187.25H1150V188.25H1151V187.25ZM1151 163.375V162.375H1150V163.375H1151ZM1198.75 163.375H1199.75V162.375H1198.75V163.375ZM1198.75 187.25H1197.75V188.25H1198.75V187.25ZM1270.38 187.25V188.25H1271.38V187.25H1270.38ZM1270.38 139.5H1271.38V138.5H1270.38V139.5ZM1174.88 139.5H1173.88V140.5H1174.88V139.5ZM1174.88 115.625H1175.88V114.625H1174.88V115.625ZM1151 115.625H1150V116.625H1151V115.625ZM1151 67.875V66.875H1150V67.875H1151ZM1174.88 67.875V68.875H1175.88V67.875H1174.88ZM1174.88 44V43H1173.88V44H1174.88ZM1294.25 44H1295.25V43H1294.25V44ZM1294.25 67.875H1293.25V68.875H1294.25V67.875ZM1318.12 67.875H1319.12V66.875H1318.12V67.875ZM1318.12 91.75V92.75H1319.12V91.75H1318.12ZM1270.38 91.75H1269.38V92.75H1270.38V91.75ZM1270.38 67.875H1271.38V66.875H1270.38V67.875ZM1198.75 67.875V66.875H1197.75V67.875H1198.75ZM1198.75 115.625H1197.75V116.625H1198.75V115.625ZM1294.25 115.625H1295.25V114.625H1294.25V115.625ZM1294.25 139.5H1293.25V140.5H1294.25V139.5ZM1318.12 139.5H1319.12V138.5H1318.12V139.5ZM1318.12 187.25V188.25H1319.12V187.25H1318.12ZM1294.25 187.25V186.25H1293.25V187.25H1294.25ZM1294.25 211.125V212.125H1295.25V211.125H1294.25ZM1175.88 211.125V187.25H1173.88V211.125H1175.88ZM1174.88 186.25H1151V188.25H1174.88V186.25ZM1152 187.25V163.375H1150V187.25H1152ZM1151 164.375H1198.75V162.375H1151V164.375ZM1197.75 163.375V187.25H1199.75V163.375H1197.75ZM1198.75 188.25H1270.38V186.25H1198.75V188.25ZM1271.38 187.25V139.5H1269.38V187.25H1271.38ZM1270.38 138.5H1174.88V140.5H1270.38V138.5ZM1175.88 139.5V115.625H1173.88V139.5H1175.88ZM1174.88 114.625H1151V116.625H1174.88V114.625ZM1152 115.625V67.875H1150V115.625H1152ZM1151 68.875H1174.88V66.875H1151V68.875ZM1175.88 67.875V44H1173.88V67.875H1175.88ZM1174.88 45H1294.25V43H1174.88V45ZM1293.25 44V67.875H1295.25V44H1293.25ZM1294.25 68.875H1318.12V66.875H1294.25V68.875ZM1317.12 67.875V91.75H1319.12V67.875H1317.12ZM1318.12 90.75H1270.38V92.75H1318.12V90.75ZM1271.38 91.75V67.875H1269.38V91.75H1271.38ZM1270.38 66.875H1198.75V68.875H1270.38V66.875ZM1197.75 67.875V115.625H1199.75V67.875H1197.75ZM1198.75 116.625H1294.25V114.625H1198.75V116.625ZM1293.25 115.625V139.5H1295.25V115.625H1293.25ZM1294.25 140.5H1318.12V138.5H1294.25V140.5ZM1317.12 139.5V187.25H1319.12V139.5H1317.12ZM1318.12 186.25H1294.25V188.25H1318.12V186.25ZM1293.25 187.25V211.125H1295.25V187.25H1293.25ZM1294.25 210.125H1174.88V212.125H1294.25V210.125Z" fill="#9A7AF2" mask="url(#path-3-outside-2_146_14666)"/>
</g>
<path d="M5 167.125V47.75H28.875V23.875H52.75V0H124.375V23.875H148.25V47.75H172.125V167.125H124.375V119.375H52.75V167.125H5ZM52.75 95.5H124.375V47.75H100.5V23.875H76.625V47.75H52.75V95.5ZM219.875 167.125V0H267.625V143.25H363.125V167.125H219.875ZM387 167.125V0H530.25V23.875H554.125V95.5H530.25V119.375H434.75V167.125H387ZM434.75 95.5H506.375V23.875H434.75V95.5ZM578 167.125V47.75H601.875V23.875H625.75V0H697.375V23.875H721.25V47.75H745.125V167.125H697.375V119.375H625.75V167.125H578ZM625.75 95.5H697.375V47.75H673.5V23.875H649.625V47.75H625.75V95.5ZM816.75 167.125V143.25H792.875V119.375H769V47.75H792.875V23.875H816.75V0H912.25V23.875H936.125V47.75H888.375V23.875H840.625V47.75H816.75V119.375H840.625V143.25H888.375V119.375H936.125V143.25H912.25V167.125H816.75ZM960 167.125V47.75H983.875V23.875H1007.75V0H1079.38V23.875H1103.25V47.75H1127.13V167.125H1079.38V119.375H1007.75V167.125H960ZM1007.75 95.5H1079.38V47.75H1055.5V23.875H1031.63V47.75H1007.75V95.5ZM1174.88 167.125V143.25H1151V119.375H1198.75V143.25H1270.38V95.5H1174.88V71.625H1151V23.875H1174.88V0H1294.25V23.875H1318.13V47.75H1270.38V23.875H1198.75V71.625H1294.25V95.5H1318.13V143.25H1294.25V167.125H1174.88Z" fill="#A533C5"/>
<defs>
<filter id="filter0_f_146_14666" x="0" y="83" width="1323.12" height="177.125" filterUnits="userSpaceOnUse" color-interpolation-filters="sRGB">
<feFlood flood-opacity="0" result="BackgroundImageFix"/>
<feBlend mode="normal" in="SourceGraphic" in2="BackgroundImageFix" result="shape"/>
<feGaussianBlur stdDeviation="2.5" result="effect1_foregroundBlur_146_14666"/>
</filter>
<filter id="filter1_f_146_14666" x="2" y="41" width="1319.12" height="173.125" filterUnits="userSpaceOnUse" color-interpolation-filters="sRGB">
<feFlood flood-opacity="0" result="BackgroundImageFix"/>
<feBlend mode="normal" in="SourceGraphic" in2="BackgroundImageFix" result="shape"/>
<feGaussianBlur stdDeviation="1.5" result="effect1_foregroundBlur_146_14666"/>
</filter>
</defs>
</svg>
