<svg width="501" height="136" viewBox="0 0 501 136" fill="none" xmlns="http://www.w3.org/2000/svg">
<rect y="9.10236" width="501" height="117.795" fill="#9A7AF2"/>
<rect x="25.4492" width="450.102" height="136" fill="#9A7AF2"/>
<path d="M114 83.125V58.75H118.875V53.875H123.75V49H138.375V53.875H143.25V58.75H148.125V83.125H138.375V73.375H123.75V83.125H114ZM123.75 68.5H138.375V58.75H133.5V53.875H128.625V58.75H123.75V68.5ZM157.875 83.125V49H167.625V78.25H187.125V83.125H157.875ZM192 83.125V49H221.25V53.875H226.125V68.5H221.25V73.375H201.75V83.125H192ZM201.75 68.5H216.375V53.875H201.75V68.5ZM231 83.125V58.75H235.875V53.875H240.75V49H255.375V53.875H260.25V58.75H265.125V83.125H255.375V73.375H240.75V83.125H231ZM240.75 68.5H255.375V58.75H250.5V53.875H245.625V58.75H240.75V68.5ZM279.75 83.125V78.25H274.875V73.375H270V58.75H274.875V53.875H279.75V49H299.25V53.875H304.125V58.75H294.375V53.875H284.625V58.75H279.75V73.375H284.625V78.25H294.375V73.375H304.125V78.25H299.25V83.125H279.75ZM309 83.125V58.75H313.875V53.875H318.75V49H333.375V53.875H338.25V58.75H343.125V83.125H333.375V73.375H318.75V83.125H309ZM318.75 68.5H333.375V58.75H328.5V53.875H323.625V58.75H318.75V68.5ZM352.875 83.125V78.25H348V73.375H357.75V78.25H372.375V68.5H352.875V63.625H348V53.875H352.875V49H377.25V53.875H382.125V58.75H372.375V53.875H357.75V63.625H377.25V68.5H382.125V78.25H377.25V83.125H352.875Z" fill="black"/>
</svg>
