<svg width="501" height="136" viewBox="0 0 501 136" fill="none" xmlns="http://www.w3.org/2000/svg">
<rect y="9.10236" width="501" height="117.795" fill="#9A7AF2"/>
<rect x="25.4492" width="450.102" height="136" fill="#9A7AF2"/>
<path d="M133 83.125V58.75H137.875V53.875H142.75V49H157.375V53.875H162.25V58.75H167.125V83.125H157.375V73.375H142.75V83.125H133ZM142.75 68.5H157.375V58.75H152.5V53.875H147.625V58.75H142.75V68.5ZM172 83.125V49H181.75V53.875H186.625V58.75H191.5V63.625H196.375V49H206.125V83.125H196.375V73.375H191.5V68.5H186.625V63.625H181.75V83.125H172ZM220.75 83.125V78.25H215.875V73.375H211V58.75H215.875V53.875H220.75V49H245.125V53.875H225.625V58.75H220.75V73.375H225.625V78.25H235.375V68.5H230.5V63.625H245.125V83.125H220.75ZM250 83.125V49H284.125V53.875H259.75V63.625H279.25V68.5H259.75V78.25H284.125V83.125H250ZM293.875 83.125V49H303.625V78.25H323.125V83.125H293.875ZM332.875 83.125V78.25H328V73.375H337.75V78.25H352.375V68.5H332.875V63.625H328V53.875H332.875V49H357.25V53.875H362.125V58.75H352.375V53.875H337.75V63.625H357.25V68.5H362.125V78.25H357.25V83.125H332.875Z" fill="black"/>
</svg>
