<svg width="1259" height="297" viewBox="0 0 1259 297" fill="none" xmlns="http://www.w3.org/2000/svg">
<g filter="url(#filter0_f_146_14665)">
<mask id="path-1-outside-1_146_14665" maskUnits="userSpaceOnUse" x="4" y="87" width="1230" height="185" fill="black">
<rect fill="white" x="4" y="87" width="1230" height="185"/>
<path d="M5 270.875V140.25H31.125V114.125H57.25V88H135.625V114.125H161.75V140.25H187.875V270.875H135.625V218.625H57.25V270.875H5ZM57.25 192.5H135.625V140.25H109.5V114.125H83.375V140.25H57.25V192.5ZM214 270.875V88H266.25V114.125H292.375V140.25H318.5V166.375H344.625V88H396.875V270.875H344.625V218.625H318.5V192.5H292.375V166.375H266.25V270.875H214ZM475.25 270.875V244.75H449.125V218.625H423V140.25H449.125V114.125H475.25V88H605.875V114.125H501.375V140.25H475.25V218.625H501.375V244.75H553.625V192.5H527.5V166.375H605.875V270.875H475.25ZM632 270.875V88H814.875V114.125H684.25V166.375H788.75V192.5H684.25V244.75H814.875V270.875H632ZM867.125 270.875V88H919.375V244.75H1023.88V270.875H867.125ZM1076.12 270.875V244.75H1050V218.625H1102.25V244.75H1180.62V192.5H1076.12V166.375H1050V114.125H1076.12V88H1206.75V114.125H1232.88V140.25H1180.62V114.125H1102.25V166.375H1206.75V192.5H1232.88V244.75H1206.75V270.875H1076.12Z"/>
</mask>
<path d="M5 270.875V140.25H31.125V114.125H57.25V88H135.625V114.125H161.75V140.25H187.875V270.875H135.625V218.625H57.25V270.875H5ZM57.25 192.5H135.625V140.25H109.5V114.125H83.375V140.25H57.25V192.5ZM214 270.875V88H266.25V114.125H292.375V140.25H318.5V166.375H344.625V88H396.875V270.875H344.625V218.625H318.5V192.5H292.375V166.375H266.25V270.875H214ZM475.25 270.875V244.75H449.125V218.625H423V140.25H449.125V114.125H475.25V88H605.875V114.125H501.375V140.25H475.25V218.625H501.375V244.75H553.625V192.5H527.5V166.375H605.875V270.875H475.25ZM632 270.875V88H814.875V114.125H684.25V166.375H788.75V192.5H684.25V244.75H814.875V270.875H632ZM867.125 270.875V88H919.375V244.75H1023.88V270.875H867.125ZM1076.12 270.875V244.75H1050V218.625H1102.25V244.75H1180.62V192.5H1076.12V166.375H1050V114.125H1076.12V88H1206.75V114.125H1232.88V140.25H1180.62V114.125H1102.25V166.375H1206.75V192.5H1232.88V244.75H1206.75V270.875H1076.12Z" fill="black"/>
<path d="M5 270.875H4V271.875H5V270.875ZM5 140.25V139.25H4V140.25H5ZM31.125 140.25V141.25H32.125V140.25H31.125ZM31.125 114.125V113.125H30.125V114.125H31.125ZM57.25 114.125V115.125H58.25V114.125H57.25ZM57.25 88V87H56.25V88H57.25ZM135.625 88H136.625V87H135.625V88ZM135.625 114.125H134.625V115.125H135.625V114.125ZM161.75 114.125H162.75V113.125H161.75V114.125ZM161.75 140.25H160.75V141.25H161.75V140.25ZM187.875 140.25H188.875V139.25H187.875V140.25ZM187.875 270.875V271.875H188.875V270.875H187.875ZM135.625 270.875H134.625V271.875H135.625V270.875ZM135.625 218.625H136.625V217.625H135.625V218.625ZM57.25 218.625V217.625H56.25V218.625H57.25ZM57.25 270.875V271.875H58.25V270.875H57.25ZM57.25 192.5H56.25V193.5H57.25V192.5ZM135.625 192.5V193.5H136.625V192.5H135.625ZM135.625 140.25H136.625V139.25H135.625V140.25ZM109.5 140.25H108.5V141.25H109.5V140.25ZM109.5 114.125H110.5V113.125H109.5V114.125ZM83.375 114.125V113.125H82.375V114.125H83.375ZM83.375 140.25V141.25H84.375V140.25H83.375ZM57.25 140.25V139.25H56.25V140.25H57.25ZM6 270.875V140.25H4V270.875H6ZM5 141.25H31.125V139.25H5V141.25ZM32.125 140.25V114.125H30.125V140.25H32.125ZM31.125 115.125H57.25V113.125H31.125V115.125ZM58.25 114.125V88H56.25V114.125H58.25ZM57.25 89H135.625V87H57.25V89ZM134.625 88V114.125H136.625V88H134.625ZM135.625 115.125H161.75V113.125H135.625V115.125ZM160.75 114.125V140.25H162.75V114.125H160.75ZM161.75 141.25H187.875V139.25H161.75V141.25ZM186.875 140.25V270.875H188.875V140.25H186.875ZM187.875 269.875H135.625V271.875H187.875V269.875ZM136.625 270.875V218.625H134.625V270.875H136.625ZM135.625 217.625H57.25V219.625H135.625V217.625ZM56.25 218.625V270.875H58.25V218.625H56.25ZM57.25 269.875H5V271.875H57.25V269.875ZM57.25 193.5H135.625V191.5H57.25V193.5ZM136.625 192.5V140.25H134.625V192.5H136.625ZM135.625 139.25H109.5V141.25H135.625V139.25ZM110.5 140.25V114.125H108.5V140.25H110.5ZM109.5 113.125H83.375V115.125H109.5V113.125ZM82.375 114.125V140.25H84.375V114.125H82.375ZM83.375 139.25H57.25V141.25H83.375V139.25ZM56.25 140.25V192.5H58.25V140.25H56.25ZM214 270.875H213V271.875H214V270.875ZM214 88V87H213V88H214ZM266.25 88H267.25V87H266.25V88ZM266.25 114.125H265.25V115.125H266.25V114.125ZM292.375 114.125H293.375V113.125H292.375V114.125ZM292.375 140.25H291.375V141.25H292.375V140.25ZM318.5 140.25H319.5V139.25H318.5V140.25ZM318.5 166.375H317.5V167.375H318.5V166.375ZM344.625 166.375V167.375H345.625V166.375H344.625ZM344.625 88V87H343.625V88H344.625ZM396.875 88H397.875V87H396.875V88ZM396.875 270.875V271.875H397.875V270.875H396.875ZM344.625 270.875H343.625V271.875H344.625V270.875ZM344.625 218.625H345.625V217.625H344.625V218.625ZM318.5 218.625H317.5V219.625H318.5V218.625ZM318.5 192.5H319.5V191.5H318.5V192.5ZM292.375 192.5H291.375V193.5H292.375V192.5ZM292.375 166.375H293.375V165.375H292.375V166.375ZM266.25 166.375V165.375H265.25V166.375H266.25ZM266.25 270.875V271.875H267.25V270.875H266.25ZM215 270.875V88H213V270.875H215ZM214 89H266.25V87H214V89ZM265.25 88V114.125H267.25V88H265.25ZM266.25 115.125H292.375V113.125H266.25V115.125ZM291.375 114.125V140.25H293.375V114.125H291.375ZM292.375 141.25H318.5V139.25H292.375V141.25ZM317.5 140.25V166.375H319.5V140.25H317.5ZM318.5 167.375H344.625V165.375H318.5V167.375ZM345.625 166.375V88H343.625V166.375H345.625ZM344.625 89H396.875V87H344.625V89ZM395.875 88V270.875H397.875V88H395.875ZM396.875 269.875H344.625V271.875H396.875V269.875ZM345.625 270.875V218.625H343.625V270.875H345.625ZM344.625 217.625H318.5V219.625H344.625V217.625ZM319.5 218.625V192.5H317.5V218.625H319.5ZM318.5 191.5H292.375V193.5H318.5V191.5ZM293.375 192.5V166.375H291.375V192.5H293.375ZM292.375 165.375H266.25V167.375H292.375V165.375ZM265.25 166.375V270.875H267.25V166.375H265.25ZM266.25 269.875H214V271.875H266.25V269.875ZM475.25 270.875H474.25V271.875H475.25V270.875ZM475.25 244.75H476.25V243.75H475.25V244.75ZM449.125 244.75H448.125V245.75H449.125V244.75ZM449.125 218.625H450.125V217.625H449.125V218.625ZM423 218.625H422V219.625H423V218.625ZM423 140.25V139.25H422V140.25H423ZM449.125 140.25V141.25H450.125V140.25H449.125ZM449.125 114.125V113.125H448.125V114.125H449.125ZM475.25 114.125V115.125H476.25V114.125H475.25ZM475.25 88V87H474.25V88H475.25ZM605.875 88H606.875V87H605.875V88ZM605.875 114.125V115.125H606.875V114.125H605.875ZM501.375 114.125V113.125H500.375V114.125H501.375ZM501.375 140.25V141.25H502.375V140.25H501.375ZM475.25 140.25V139.25H474.25V140.25H475.25ZM475.25 218.625H474.25V219.625H475.25V218.625ZM501.375 218.625H502.375V217.625H501.375V218.625ZM501.375 244.75H500.375V245.75H501.375V244.75ZM553.625 244.75V245.75H554.625V244.75H553.625ZM553.625 192.5H554.625V191.5H553.625V192.5ZM527.5 192.5H526.5V193.5H527.5V192.5ZM527.5 166.375V165.375H526.5V166.375H527.5ZM605.875 166.375H606.875V165.375H605.875V166.375ZM605.875 270.875V271.875H606.875V270.875H605.875ZM476.25 270.875V244.75H474.25V270.875H476.25ZM475.25 243.75H449.125V245.75H475.25V243.75ZM450.125 244.75V218.625H448.125V244.75H450.125ZM449.125 217.625H423V219.625H449.125V217.625ZM424 218.625V140.25H422V218.625H424ZM423 141.25H449.125V139.25H423V141.25ZM450.125 140.25V114.125H448.125V140.25H450.125ZM449.125 115.125H475.25V113.125H449.125V115.125ZM476.25 114.125V88H474.25V114.125H476.25ZM475.25 89H605.875V87H475.25V89ZM604.875 88V114.125H606.875V88H604.875ZM605.875 113.125H501.375V115.125H605.875V113.125ZM500.375 114.125V140.25H502.375V114.125H500.375ZM501.375 139.25H475.25V141.25H501.375V139.25ZM474.25 140.25V218.625H476.25V140.25H474.25ZM475.25 219.625H501.375V217.625H475.25V219.625ZM500.375 218.625V244.75H502.375V218.625H500.375ZM501.375 245.75H553.625V243.75H501.375V245.75ZM554.625 244.75V192.5H552.625V244.75H554.625ZM553.625 191.5H527.5V193.5H553.625V191.5ZM528.5 192.5V166.375H526.5V192.5H528.5ZM527.5 167.375H605.875V165.375H527.5V167.375ZM604.875 166.375V270.875H606.875V166.375H604.875ZM605.875 269.875H475.25V271.875H605.875V269.875ZM632 270.875H631V271.875H632V270.875ZM632 88V87H631V88H632ZM814.875 88H815.875V87H814.875V88ZM814.875 114.125V115.125H815.875V114.125H814.875ZM684.25 114.125V113.125H683.25V114.125H684.25ZM684.25 166.375H683.25V167.375H684.25V166.375ZM788.75 166.375H789.75V165.375H788.75V166.375ZM788.75 192.5V193.5H789.75V192.5H788.75ZM684.25 192.5V191.5H683.25V192.5H684.25ZM684.25 244.75H683.25V245.75H684.25V244.75ZM814.875 244.75H815.875V243.75H814.875V244.75ZM814.875 270.875V271.875H815.875V270.875H814.875ZM633 270.875V88H631V270.875H633ZM632 89H814.875V87H632V89ZM813.875 88V114.125H815.875V88H813.875ZM814.875 113.125H684.25V115.125H814.875V113.125ZM683.25 114.125V166.375H685.25V114.125H683.25ZM684.25 167.375H788.75V165.375H684.25V167.375ZM787.75 166.375V192.5H789.75V166.375H787.75ZM788.75 191.5H684.25V193.5H788.75V191.5ZM683.25 192.5V244.75H685.25V192.5H683.25ZM684.25 245.75H814.875V243.75H684.25V245.75ZM813.875 244.75V270.875H815.875V244.75H813.875ZM814.875 269.875H632V271.875H814.875V269.875ZM867.125 270.875H866.125V271.875H867.125V270.875ZM867.125 88V87H866.125V88H867.125ZM919.375 88H920.375V87H919.375V88ZM919.375 244.75H918.375V245.75H919.375V244.75ZM1023.88 244.75H1024.88V243.75H1023.88V244.75ZM1023.88 270.875V271.875H1024.88V270.875H1023.88ZM868.125 270.875V88H866.125V270.875H868.125ZM867.125 89H919.375V87H867.125V89ZM918.375 88V244.75H920.375V88H918.375ZM919.375 245.75H1023.88V243.75H919.375V245.75ZM1022.88 244.75V270.875H1024.88V244.75H1022.88ZM1023.88 269.875H867.125V271.875H1023.88V269.875ZM1076.12 270.875H1075.12V271.875H1076.12V270.875ZM1076.12 244.75H1077.12V243.75H1076.12V244.75ZM1050 244.75H1049V245.75H1050V244.75ZM1050 218.625V217.625H1049V218.625H1050ZM1102.25 218.625H1103.25V217.625H1102.25V218.625ZM1102.25 244.75H1101.25V245.75H1102.25V244.75ZM1180.62 244.75V245.75H1181.62V244.75H1180.62ZM1180.62 192.5H1181.62V191.5H1180.62V192.5ZM1076.12 192.5H1075.12V193.5H1076.12V192.5ZM1076.12 166.375H1077.12V165.375H1076.12V166.375ZM1050 166.375H1049V167.375H1050V166.375ZM1050 114.125V113.125H1049V114.125H1050ZM1076.12 114.125V115.125H1077.12V114.125H1076.12ZM1076.12 88V87H1075.12V88H1076.12ZM1206.75 88H1207.75V87H1206.75V88ZM1206.75 114.125H1205.75V115.125H1206.75V114.125ZM1232.88 114.125H1233.88V113.125H1232.88V114.125ZM1232.88 140.25V141.25H1233.88V140.25H1232.88ZM1180.62 140.25H1179.62V141.25H1180.62V140.25ZM1180.62 114.125H1181.62V113.125H1180.62V114.125ZM1102.25 114.125V113.125H1101.25V114.125H1102.25ZM1102.25 166.375H1101.25V167.375H1102.25V166.375ZM1206.75 166.375H1207.75V165.375H1206.75V166.375ZM1206.75 192.5H1205.75V193.5H1206.75V192.5ZM1232.88 192.5H1233.88V191.5H1232.88V192.5ZM1232.88 244.75V245.75H1233.88V244.75H1232.88ZM1206.75 244.75V243.75H1205.75V244.75H1206.75ZM1206.75 270.875V271.875H1207.75V270.875H1206.75ZM1077.12 270.875V244.75H1075.12V270.875H1077.12ZM1076.12 243.75H1050V245.75H1076.12V243.75ZM1051 244.75V218.625H1049V244.75H1051ZM1050 219.625H1102.25V217.625H1050V219.625ZM1101.25 218.625V244.75H1103.25V218.625H1101.25ZM1102.25 245.75H1180.62V243.75H1102.25V245.75ZM1181.62 244.75V192.5H1179.62V244.75H1181.62ZM1180.62 191.5H1076.12V193.5H1180.62V191.5ZM1077.12 192.5V166.375H1075.12V192.5H1077.12ZM1076.12 165.375H1050V167.375H1076.12V165.375ZM1051 166.375V114.125H1049V166.375H1051ZM1050 115.125H1076.12V113.125H1050V115.125ZM1077.12 114.125V88H1075.12V114.125H1077.12ZM1076.12 89H1206.75V87H1076.12V89ZM1205.75 88V114.125H1207.75V88H1205.75ZM1206.75 115.125H1232.88V113.125H1206.75V115.125ZM1231.88 114.125V140.25H1233.88V114.125H1231.88ZM1232.88 139.25H1180.62V141.25H1232.88V139.25ZM1181.62 140.25V114.125H1179.62V140.25H1181.62ZM1180.62 113.125H1102.25V115.125H1180.62V113.125ZM1101.25 114.125V166.375H1103.25V114.125H1101.25ZM1102.25 167.375H1206.75V165.375H1102.25V167.375ZM1205.75 166.375V192.5H1207.75V166.375H1205.75ZM1206.75 193.5H1232.88V191.5H1206.75V193.5ZM1231.88 192.5V244.75H1233.88V192.5H1231.88ZM1232.88 243.75H1206.75V245.75H1232.88V243.75ZM1205.75 244.75V270.875H1207.75V244.75H1205.75ZM1206.75 269.875H1076.12V271.875H1206.75V269.875Z" fill="#9A7AF2" mask="url(#path-1-outside-1_146_14665)"/>
</g>
<g filter="url(#filter1_f_146_14665)">
<mask id="path-3-outside-2_146_14665" maskUnits="userSpaceOnUse" x="4" y="43" width="1230" height="185" fill="black">
<rect fill="white" x="4" y="43" width="1230" height="185"/>
<path d="M5 226.875V96.25H31.125V70.125H57.25V44H135.625V70.125H161.75V96.25H187.875V226.875H135.625V174.625H57.25V226.875H5ZM57.25 148.5H135.625V96.25H109.5V70.125H83.375V96.25H57.25V148.5ZM214 226.875V44H266.25V70.125H292.375V96.25H318.5V122.375H344.625V44H396.875V226.875H344.625V174.625H318.5V148.5H292.375V122.375H266.25V226.875H214ZM475.25 226.875V200.75H449.125V174.625H423V96.25H449.125V70.125H475.25V44H605.875V70.125H501.375V96.25H475.25V174.625H501.375V200.75H553.625V148.5H527.5V122.375H605.875V226.875H475.25ZM632 226.875V44H814.875V70.125H684.25V122.375H788.75V148.5H684.25V200.75H814.875V226.875H632ZM867.125 226.875V44H919.375V200.75H1023.88V226.875H867.125ZM1076.12 226.875V200.75H1050V174.625H1102.25V200.75H1180.62V148.5H1076.12V122.375H1050V70.125H1076.12V44H1206.75V70.125H1232.88V96.25H1180.62V70.125H1102.25V122.375H1206.75V148.5H1232.88V200.75H1206.75V226.875H1076.12Z"/>
</mask>
<path d="M5 226.875V96.25H31.125V70.125H57.25V44H135.625V70.125H161.75V96.25H187.875V226.875H135.625V174.625H57.25V226.875H5ZM57.25 148.5H135.625V96.25H109.5V70.125H83.375V96.25H57.25V148.5ZM214 226.875V44H266.25V70.125H292.375V96.25H318.5V122.375H344.625V44H396.875V226.875H344.625V174.625H318.5V148.5H292.375V122.375H266.25V226.875H214ZM475.25 226.875V200.75H449.125V174.625H423V96.25H449.125V70.125H475.25V44H605.875V70.125H501.375V96.25H475.25V174.625H501.375V200.75H553.625V148.5H527.5V122.375H605.875V226.875H475.25ZM632 226.875V44H814.875V70.125H684.25V122.375H788.75V148.5H684.25V200.75H814.875V226.875H632ZM867.125 226.875V44H919.375V200.75H1023.88V226.875H867.125ZM1076.12 226.875V200.75H1050V174.625H1102.25V200.75H1180.62V148.5H1076.12V122.375H1050V70.125H1076.12V44H1206.75V70.125H1232.88V96.25H1180.62V70.125H1102.25V122.375H1206.75V148.5H1232.88V200.75H1206.75V226.875H1076.12Z" fill="black"/>
<path d="M5 226.875H4V227.875H5V226.875ZM5 96.25V95.25H4V96.25H5ZM31.125 96.25V97.25H32.125V96.25H31.125ZM31.125 70.125V69.125H30.125V70.125H31.125ZM57.25 70.125V71.125H58.25V70.125H57.25ZM57.25 44V43H56.25V44H57.25ZM135.625 44H136.625V43H135.625V44ZM135.625 70.125H134.625V71.125H135.625V70.125ZM161.75 70.125H162.75V69.125H161.75V70.125ZM161.75 96.25H160.75V97.25H161.75V96.25ZM187.875 96.25H188.875V95.25H187.875V96.25ZM187.875 226.875V227.875H188.875V226.875H187.875ZM135.625 226.875H134.625V227.875H135.625V226.875ZM135.625 174.625H136.625V173.625H135.625V174.625ZM57.25 174.625V173.625H56.25V174.625H57.25ZM57.25 226.875V227.875H58.25V226.875H57.25ZM57.25 148.5H56.25V149.5H57.25V148.5ZM135.625 148.5V149.5H136.625V148.5H135.625ZM135.625 96.25H136.625V95.25H135.625V96.25ZM109.5 96.25H108.5V97.25H109.5V96.25ZM109.5 70.125H110.5V69.125H109.5V70.125ZM83.375 70.125V69.125H82.375V70.125H83.375ZM83.375 96.25V97.25H84.375V96.25H83.375ZM57.25 96.25V95.25H56.25V96.25H57.25ZM6 226.875V96.25H4V226.875H6ZM5 97.25H31.125V95.25H5V97.25ZM32.125 96.25V70.125H30.125V96.25H32.125ZM31.125 71.125H57.25V69.125H31.125V71.125ZM58.25 70.125V44H56.25V70.125H58.25ZM57.25 45H135.625V43H57.25V45ZM134.625 44V70.125H136.625V44H134.625ZM135.625 71.125H161.75V69.125H135.625V71.125ZM160.75 70.125V96.25H162.75V70.125H160.75ZM161.75 97.25H187.875V95.25H161.75V97.25ZM186.875 96.25V226.875H188.875V96.25H186.875ZM187.875 225.875H135.625V227.875H187.875V225.875ZM136.625 226.875V174.625H134.625V226.875H136.625ZM135.625 173.625H57.25V175.625H135.625V173.625ZM56.25 174.625V226.875H58.25V174.625H56.25ZM57.25 225.875H5V227.875H57.25V225.875ZM57.25 149.5H135.625V147.5H57.25V149.5ZM136.625 148.5V96.25H134.625V148.5H136.625ZM135.625 95.25H109.5V97.25H135.625V95.25ZM110.5 96.25V70.125H108.5V96.25H110.5ZM109.5 69.125H83.375V71.125H109.5V69.125ZM82.375 70.125V96.25H84.375V70.125H82.375ZM83.375 95.25H57.25V97.25H83.375V95.25ZM56.25 96.25V148.5H58.25V96.25H56.25ZM214 226.875H213V227.875H214V226.875ZM214 44V43H213V44H214ZM266.25 44H267.25V43H266.25V44ZM266.25 70.125H265.25V71.125H266.25V70.125ZM292.375 70.125H293.375V69.125H292.375V70.125ZM292.375 96.25H291.375V97.25H292.375V96.25ZM318.5 96.25H319.5V95.25H318.5V96.25ZM318.5 122.375H317.5V123.375H318.5V122.375ZM344.625 122.375V123.375H345.625V122.375H344.625ZM344.625 44V43H343.625V44H344.625ZM396.875 44H397.875V43H396.875V44ZM396.875 226.875V227.875H397.875V226.875H396.875ZM344.625 226.875H343.625V227.875H344.625V226.875ZM344.625 174.625H345.625V173.625H344.625V174.625ZM318.5 174.625H317.5V175.625H318.5V174.625ZM318.5 148.5H319.5V147.5H318.5V148.5ZM292.375 148.5H291.375V149.5H292.375V148.5ZM292.375 122.375H293.375V121.375H292.375V122.375ZM266.25 122.375V121.375H265.25V122.375H266.25ZM266.25 226.875V227.875H267.25V226.875H266.25ZM215 226.875V44H213V226.875H215ZM214 45H266.25V43H214V45ZM265.25 44V70.125H267.25V44H265.25ZM266.25 71.125H292.375V69.125H266.25V71.125ZM291.375 70.125V96.25H293.375V70.125H291.375ZM292.375 97.25H318.5V95.25H292.375V97.25ZM317.5 96.25V122.375H319.5V96.25H317.5ZM318.5 123.375H344.625V121.375H318.5V123.375ZM345.625 122.375V44H343.625V122.375H345.625ZM344.625 45H396.875V43H344.625V45ZM395.875 44V226.875H397.875V44H395.875ZM396.875 225.875H344.625V227.875H396.875V225.875ZM345.625 226.875V174.625H343.625V226.875H345.625ZM344.625 173.625H318.5V175.625H344.625V173.625ZM319.5 174.625V148.5H317.5V174.625H319.5ZM318.5 147.5H292.375V149.5H318.5V147.5ZM293.375 148.5V122.375H291.375V148.5H293.375ZM292.375 121.375H266.25V123.375H292.375V121.375ZM265.25 122.375V226.875H267.25V122.375H265.25ZM266.25 225.875H214V227.875H266.25V225.875ZM475.25 226.875H474.25V227.875H475.25V226.875ZM475.25 200.75H476.25V199.75H475.25V200.75ZM449.125 200.75H448.125V201.75H449.125V200.75ZM449.125 174.625H450.125V173.625H449.125V174.625ZM423 174.625H422V175.625H423V174.625ZM423 96.25V95.25H422V96.25H423ZM449.125 96.25V97.25H450.125V96.25H449.125ZM449.125 70.125V69.125H448.125V70.125H449.125ZM475.25 70.125V71.125H476.25V70.125H475.25ZM475.25 44V43H474.25V44H475.25ZM605.875 44H606.875V43H605.875V44ZM605.875 70.125V71.125H606.875V70.125H605.875ZM501.375 70.125V69.125H500.375V70.125H501.375ZM501.375 96.25V97.25H502.375V96.25H501.375ZM475.25 96.25V95.25H474.25V96.25H475.25ZM475.25 174.625H474.25V175.625H475.25V174.625ZM501.375 174.625H502.375V173.625H501.375V174.625ZM501.375 200.75H500.375V201.75H501.375V200.75ZM553.625 200.75V201.75H554.625V200.75H553.625ZM553.625 148.5H554.625V147.5H553.625V148.5ZM527.5 148.5H526.5V149.5H527.5V148.5ZM527.5 122.375V121.375H526.5V122.375H527.5ZM605.875 122.375H606.875V121.375H605.875V122.375ZM605.875 226.875V227.875H606.875V226.875H605.875ZM476.25 226.875V200.75H474.25V226.875H476.25ZM475.25 199.75H449.125V201.75H475.25V199.75ZM450.125 200.75V174.625H448.125V200.75H450.125ZM449.125 173.625H423V175.625H449.125V173.625ZM424 174.625V96.25H422V174.625H424ZM423 97.25H449.125V95.25H423V97.25ZM450.125 96.25V70.125H448.125V96.25H450.125ZM449.125 71.125H475.25V69.125H449.125V71.125ZM476.25 70.125V44H474.25V70.125H476.25ZM475.25 45H605.875V43H475.25V45ZM604.875 44V70.125H606.875V44H604.875ZM605.875 69.125H501.375V71.125H605.875V69.125ZM500.375 70.125V96.25H502.375V70.125H500.375ZM501.375 95.25H475.25V97.25H501.375V95.25ZM474.25 96.25V174.625H476.25V96.25H474.25ZM475.25 175.625H501.375V173.625H475.25V175.625ZM500.375 174.625V200.75H502.375V174.625H500.375ZM501.375 201.75H553.625V199.75H501.375V201.75ZM554.625 200.75V148.5H552.625V200.75H554.625ZM553.625 147.5H527.5V149.5H553.625V147.5ZM528.5 148.5V122.375H526.5V148.5H528.5ZM527.5 123.375H605.875V121.375H527.5V123.375ZM604.875 122.375V226.875H606.875V122.375H604.875ZM605.875 225.875H475.25V227.875H605.875V225.875ZM632 226.875H631V227.875H632V226.875ZM632 44V43H631V44H632ZM814.875 44H815.875V43H814.875V44ZM814.875 70.125V71.125H815.875V70.125H814.875ZM684.25 70.125V69.125H683.25V70.125H684.25ZM684.25 122.375H683.25V123.375H684.25V122.375ZM788.75 122.375H789.75V121.375H788.75V122.375ZM788.75 148.5V149.5H789.75V148.5H788.75ZM684.25 148.5V147.5H683.25V148.5H684.25ZM684.25 200.75H683.25V201.75H684.25V200.75ZM814.875 200.75H815.875V199.75H814.875V200.75ZM814.875 226.875V227.875H815.875V226.875H814.875ZM633 226.875V44H631V226.875H633ZM632 45H814.875V43H632V45ZM813.875 44V70.125H815.875V44H813.875ZM814.875 69.125H684.25V71.125H814.875V69.125ZM683.25 70.125V122.375H685.25V70.125H683.25ZM684.25 123.375H788.75V121.375H684.25V123.375ZM787.75 122.375V148.5H789.75V122.375H787.75ZM788.75 147.5H684.25V149.5H788.75V147.5ZM683.25 148.5V200.75H685.25V148.5H683.25ZM684.25 201.75H814.875V199.75H684.25V201.75ZM813.875 200.75V226.875H815.875V200.75H813.875ZM814.875 225.875H632V227.875H814.875V225.875ZM867.125 226.875H866.125V227.875H867.125V226.875ZM867.125 44V43H866.125V44H867.125ZM919.375 44H920.375V43H919.375V44ZM919.375 200.75H918.375V201.75H919.375V200.75ZM1023.88 200.75H1024.88V199.75H1023.88V200.75ZM1023.88 226.875V227.875H1024.88V226.875H1023.88ZM868.125 226.875V44H866.125V226.875H868.125ZM867.125 45H919.375V43H867.125V45ZM918.375 44V200.75H920.375V44H918.375ZM919.375 201.75H1023.88V199.75H919.375V201.75ZM1022.88 200.75V226.875H1024.88V200.75H1022.88ZM1023.88 225.875H867.125V227.875H1023.88V225.875ZM1076.12 226.875H1075.12V227.875H1076.12V226.875ZM1076.12 200.75H1077.12V199.75H1076.12V200.75ZM1050 200.75H1049V201.75H1050V200.75ZM1050 174.625V173.625H1049V174.625H1050ZM1102.25 174.625H1103.25V173.625H1102.25V174.625ZM1102.25 200.75H1101.25V201.75H1102.25V200.75ZM1180.62 200.75V201.75H1181.62V200.75H1180.62ZM1180.62 148.5H1181.62V147.5H1180.62V148.5ZM1076.12 148.5H1075.12V149.5H1076.12V148.5ZM1076.12 122.375H1077.12V121.375H1076.12V122.375ZM1050 122.375H1049V123.375H1050V122.375ZM1050 70.125V69.125H1049V70.125H1050ZM1076.12 70.125V71.125H1077.12V70.125H1076.12ZM1076.12 44V43H1075.12V44H1076.12ZM1206.75 44H1207.75V43H1206.75V44ZM1206.75 70.125H1205.75V71.125H1206.75V70.125ZM1232.88 70.125H1233.88V69.125H1232.88V70.125ZM1232.88 96.25V97.25H1233.88V96.25H1232.88ZM1180.62 96.25H1179.62V97.25H1180.62V96.25ZM1180.62 70.125H1181.62V69.125H1180.62V70.125ZM1102.25 70.125V69.125H1101.25V70.125H1102.25ZM1102.25 122.375H1101.25V123.375H1102.25V122.375ZM1206.75 122.375H1207.75V121.375H1206.75V122.375ZM1206.75 148.5H1205.75V149.5H1206.75V148.5ZM1232.88 148.5H1233.88V147.5H1232.88V148.5ZM1232.88 200.75V201.75H1233.88V200.75H1232.88ZM1206.75 200.75V199.75H1205.75V200.75H1206.75ZM1206.75 226.875V227.875H1207.75V226.875H1206.75ZM1077.12 226.875V200.75H1075.12V226.875H1077.12ZM1076.12 199.75H1050V201.75H1076.12V199.75ZM1051 200.75V174.625H1049V200.75H1051ZM1050 175.625H1102.25V173.625H1050V175.625ZM1101.25 174.625V200.75H1103.25V174.625H1101.25ZM1102.25 201.75H1180.62V199.75H1102.25V201.75ZM1181.62 200.75V148.5H1179.62V200.75H1181.62ZM1180.62 147.5H1076.12V149.5H1180.62V147.5ZM1077.12 148.5V122.375H1075.12V148.5H1077.12ZM1076.12 121.375H1050V123.375H1076.12V121.375ZM1051 122.375V70.125H1049V122.375H1051ZM1050 71.125H1076.12V69.125H1050V71.125ZM1077.12 70.125V44H1075.12V70.125H1077.12ZM1076.12 45H1206.75V43H1076.12V45ZM1205.75 44V70.125H1207.75V44H1205.75ZM1206.75 71.125H1232.88V69.125H1206.75V71.125ZM1231.88 70.125V96.25H1233.88V70.125H1231.88ZM1232.88 95.25H1180.62V97.25H1232.88V95.25ZM1181.62 96.25V70.125H1179.62V96.25H1181.62ZM1180.62 69.125H1102.25V71.125H1180.62V69.125ZM1101.25 70.125V122.375H1103.25V70.125H1101.25ZM1102.25 123.375H1206.75V121.375H1102.25V123.375ZM1205.75 122.375V148.5H1207.75V122.375H1205.75ZM1206.75 149.5H1232.88V147.5H1206.75V149.5ZM1231.88 148.5V200.75H1233.88V148.5H1231.88ZM1232.88 199.75H1206.75V201.75H1232.88V199.75ZM1205.75 200.75V226.875H1207.75V200.75H1205.75ZM1206.75 225.875H1076.12V227.875H1206.75V225.875Z" fill="#9A7AF2" mask="url(#path-3-outside-2_146_14665)"/>
</g>
<path d="M5 182.875V52.25H31.125V26.125H57.25V0H135.625V26.125H161.75V52.25H187.875V182.875H135.625V130.625H57.25V182.875H5ZM57.25 104.5H135.625V52.25H109.5V26.125H83.375V52.25H57.25V104.5ZM214 182.875V0H266.25V26.125H292.375V52.25H318.5V78.375H344.625V0H396.875V182.875H344.625V130.625H318.5V104.5H292.375V78.375H266.25V182.875H214ZM475.25 182.875V156.75H449.125V130.625H423V52.25H449.125V26.125H475.25V0H605.875V26.125H501.375V52.25H475.25V130.625H501.375V156.75H553.625V104.5H527.5V78.375H605.875V182.875H475.25ZM632 182.875V0H814.875V26.125H684.25V78.375H788.75V104.5H684.25V156.75H814.875V182.875H632ZM867.125 182.875V0H919.375V156.75H1023.88V182.875H867.125ZM1076.12 182.875V156.75H1050V130.625H1102.25V156.75H1180.62V104.5H1076.12V78.375H1050V26.125H1076.12V0H1206.75V26.125H1232.88V52.25H1180.62V26.125H1102.25V78.375H1206.75V104.5H1232.88V156.75H1206.75V182.875H1076.12Z" fill="#A533C5"/>
<defs>
<filter id="filter0_f_146_14665" x="0" y="83" width="1237.88" height="192.875" filterUnits="userSpaceOnUse" color-interpolation-filters="sRGB">
<feFlood flood-opacity="0" result="BackgroundImageFix"/>
<feBlend mode="normal" in="SourceGraphic" in2="BackgroundImageFix" result="shape"/>
<feGaussianBlur stdDeviation="2.5" result="effect1_foregroundBlur_146_14665"/>
</filter>
<filter id="filter1_f_146_14665" x="2" y="41" width="1233.88" height="188.875" filterUnits="userSpaceOnUse" color-interpolation-filters="sRGB">
<feFlood flood-opacity="0" result="BackgroundImageFix"/>
<feBlend mode="normal" in="SourceGraphic" in2="BackgroundImageFix" result="shape"/>
<feGaussianBlur stdDeviation="1.5" result="effect1_foregroundBlur_146_14665"/>
</filter>
</defs>
</svg>
