<svg width="501" height="136" viewBox="0 0 501 136" fill="none" xmlns="http://www.w3.org/2000/svg">
<rect y="9.10236" width="501" height="117.795" fill="#9A7AF2"/>
<rect x="25.4492" width="450.102" height="136" fill="#9A7AF2"/>
<path d="M89.625 83.125V53.875H79.875V49H109.125V53.875H99.375V83.125H89.625ZM114 83.125V49H123.75V63.625H138.375V49H148.125V83.125H138.375V68.5H123.75V83.125H114ZM153 83.125V49H187.125V53.875H162.75V63.625H182.25V68.5H162.75V78.25H187.125V83.125H153ZM231 83.125V49H260.25V53.875H265.125V63.625H260.25V68.5H265.125V78.25H260.25V83.125H231ZM240.75 63.625H255.375V53.875H240.75V63.625ZM240.75 78.25H255.375V68.5H240.75V78.25ZM270 83.125V49H304.125V53.875H279.75V63.625H299.25V68.5H279.75V78.25H304.125V83.125H270ZM309 83.125V58.75H313.875V53.875H318.75V49H333.375V53.875H338.25V58.75H343.125V83.125H333.375V73.375H318.75V83.125H309ZM318.75 68.5H333.375V58.75H328.5V53.875H323.625V58.75H318.75V68.5ZM348 83.125V49H377.25V53.875H382.125V68.5H372.375V73.375H377.25V78.25H382.125V83.125H367.5V78.25H362.625V73.375H357.75V83.125H348ZM357.75 68.5H367.5V63.625H372.375V53.875H357.75V68.5ZM391.875 83.125V78.25H387V73.375H396.75V78.25H411.375V68.5H391.875V63.625H387V53.875H391.875V49H416.25V53.875H421.125V58.75H411.375V53.875H396.75V63.625H416.25V68.5H421.125V78.25H416.25V83.125H391.875Z" fill="black"/>
</svg>
