<svg width="960" height="279" viewBox="0 0 960 279" fill="none" xmlns="http://www.w3.org/2000/svg">
<g filter="url(#filter0_f_146_14667)">
<mask id="path-1-outside-1_146_14667" maskUnits="userSpaceOnUse" x="4" y="87" width="934" height="170" fill="black">
<rect fill="white" x="4" y="87" width="934" height="170"/>
<path d="M5 255.125V88H148.25V111.875H172.125V159.625H148.25V183.5H172.125V231.25H148.25V255.125H5ZM52.75 159.625H124.375V111.875H52.75V159.625ZM52.75 231.25H124.375V183.5H52.75V231.25ZM196 255.125V88H363.125V111.875H243.75V159.625H339.25V183.5H243.75V231.25H363.125V255.125H196ZM387 255.125V135.75H410.875V111.875H434.75V88H506.375V111.875H530.25V135.75H554.125V255.125H506.375V207.375H434.75V255.125H387ZM434.75 183.5H506.375V135.75H482.5V111.875H458.625V135.75H434.75V183.5ZM578 255.125V88H721.25V111.875H745.125V183.5H697.375V207.375H721.25V231.25H745.125V255.125H673.5V231.25H649.625V207.375H625.75V255.125H578ZM625.75 183.5H673.5V159.625H697.375V111.875H625.75V183.5ZM792.875 255.125V231.25H769V207.375H816.75V231.25H888.375V183.5H792.875V159.625H769V111.875H792.875V88H912.25V111.875H936.125V135.75H888.375V111.875H816.75V159.625H912.25V183.5H936.125V231.25H912.25V255.125H792.875Z"/>
</mask>
<path d="M5 255.125V88H148.25V111.875H172.125V159.625H148.25V183.5H172.125V231.25H148.25V255.125H5ZM52.75 159.625H124.375V111.875H52.75V159.625ZM52.75 231.25H124.375V183.5H52.75V231.25ZM196 255.125V88H363.125V111.875H243.75V159.625H339.25V183.5H243.75V231.25H363.125V255.125H196ZM387 255.125V135.75H410.875V111.875H434.75V88H506.375V111.875H530.25V135.75H554.125V255.125H506.375V207.375H434.75V255.125H387ZM434.75 183.5H506.375V135.75H482.5V111.875H458.625V135.75H434.75V183.5ZM578 255.125V88H721.25V111.875H745.125V183.5H697.375V207.375H721.25V231.25H745.125V255.125H673.5V231.25H649.625V207.375H625.75V255.125H578ZM625.75 183.5H673.5V159.625H697.375V111.875H625.75V183.5ZM792.875 255.125V231.25H769V207.375H816.75V231.25H888.375V183.5H792.875V159.625H769V111.875H792.875V88H912.25V111.875H936.125V135.75H888.375V111.875H816.75V159.625H912.25V183.5H936.125V231.25H912.25V255.125H792.875Z" fill="black"/>
<path d="M5 255.125H4V256.125H5V255.125ZM5 88V87H4V88H5ZM148.25 88H149.25V87H148.25V88ZM148.25 111.875H147.25V112.875H148.25V111.875ZM172.125 111.875H173.125V110.875H172.125V111.875ZM172.125 159.625V160.625H173.125V159.625H172.125ZM148.25 159.625V158.625H147.25V159.625H148.25ZM148.25 183.5H147.25V184.5H148.25V183.5ZM172.125 183.5H173.125V182.5H172.125V183.5ZM172.125 231.25V232.25H173.125V231.25H172.125ZM148.25 231.25V230.25H147.25V231.25H148.25ZM148.25 255.125V256.125H149.25V255.125H148.25ZM52.75 159.625H51.75V160.625H52.75V159.625ZM124.375 159.625V160.625H125.375V159.625H124.375ZM124.375 111.875H125.375V110.875H124.375V111.875ZM52.75 111.875V110.875H51.75V111.875H52.75ZM52.75 231.25H51.75V232.25H52.75V231.25ZM124.375 231.25V232.25H125.375V231.25H124.375ZM124.375 183.5H125.375V182.5H124.375V183.5ZM52.75 183.5V182.5H51.75V183.5H52.75ZM6 255.125V88H4V255.125H6ZM5 89H148.25V87H5V89ZM147.25 88V111.875H149.25V88H147.25ZM148.25 112.875H172.125V110.875H148.25V112.875ZM171.125 111.875V159.625H173.125V111.875H171.125ZM172.125 158.625H148.25V160.625H172.125V158.625ZM147.25 159.625V183.5H149.25V159.625H147.25ZM148.25 184.5H172.125V182.5H148.25V184.5ZM171.125 183.5V231.25H173.125V183.5H171.125ZM172.125 230.25H148.25V232.25H172.125V230.25ZM147.25 231.25V255.125H149.25V231.25H147.25ZM148.25 254.125H5V256.125H148.25V254.125ZM52.75 160.625H124.375V158.625H52.75V160.625ZM125.375 159.625V111.875H123.375V159.625H125.375ZM124.375 110.875H52.75V112.875H124.375V110.875ZM51.75 111.875V159.625H53.75V111.875H51.75ZM52.75 232.25H124.375V230.25H52.75V232.25ZM125.375 231.25V183.5H123.375V231.25H125.375ZM124.375 182.5H52.75V184.5H124.375V182.5ZM51.75 183.5V231.25H53.75V183.5H51.75ZM196 255.125H195V256.125H196V255.125ZM196 88V87H195V88H196ZM363.125 88H364.125V87H363.125V88ZM363.125 111.875V112.875H364.125V111.875H363.125ZM243.75 111.875V110.875H242.75V111.875H243.75ZM243.75 159.625H242.75V160.625H243.75V159.625ZM339.25 159.625H340.25V158.625H339.25V159.625ZM339.25 183.5V184.5H340.25V183.5H339.25ZM243.75 183.5V182.5H242.75V183.5H243.75ZM243.75 231.25H242.75V232.25H243.75V231.25ZM363.125 231.25H364.125V230.25H363.125V231.25ZM363.125 255.125V256.125H364.125V255.125H363.125ZM197 255.125V88H195V255.125H197ZM196 89H363.125V87H196V89ZM362.125 88V111.875H364.125V88H362.125ZM363.125 110.875H243.75V112.875H363.125V110.875ZM242.75 111.875V159.625H244.75V111.875H242.75ZM243.75 160.625H339.25V158.625H243.75V160.625ZM338.25 159.625V183.5H340.25V159.625H338.25ZM339.25 182.5H243.75V184.5H339.25V182.5ZM242.75 183.5V231.25H244.75V183.5H242.75ZM243.75 232.25H363.125V230.25H243.75V232.25ZM362.125 231.25V255.125H364.125V231.25H362.125ZM363.125 254.125H196V256.125H363.125V254.125ZM387 255.125H386V256.125H387V255.125ZM387 135.75V134.75H386V135.75H387ZM410.875 135.75V136.75H411.875V135.75H410.875ZM410.875 111.875V110.875H409.875V111.875H410.875ZM434.75 111.875V112.875H435.75V111.875H434.75ZM434.75 88V87H433.75V88H434.75ZM506.375 88H507.375V87H506.375V88ZM506.375 111.875H505.375V112.875H506.375V111.875ZM530.25 111.875H531.25V110.875H530.25V111.875ZM530.25 135.75H529.25V136.75H530.25V135.75ZM554.125 135.75H555.125V134.75H554.125V135.75ZM554.125 255.125V256.125H555.125V255.125H554.125ZM506.375 255.125H505.375V256.125H506.375V255.125ZM506.375 207.375H507.375V206.375H506.375V207.375ZM434.75 207.375V206.375H433.75V207.375H434.75ZM434.75 255.125V256.125H435.75V255.125H434.75ZM434.75 183.5H433.75V184.5H434.75V183.5ZM506.375 183.5V184.5H507.375V183.5H506.375ZM506.375 135.75H507.375V134.75H506.375V135.75ZM482.5 135.75H481.5V136.75H482.5V135.75ZM482.5 111.875H483.5V110.875H482.5V111.875ZM458.625 111.875V110.875H457.625V111.875H458.625ZM458.625 135.75V136.75H459.625V135.75H458.625ZM434.75 135.75V134.75H433.75V135.75H434.75ZM388 255.125V135.75H386V255.125H388ZM387 136.75H410.875V134.75H387V136.75ZM411.875 135.75V111.875H409.875V135.75H411.875ZM410.875 112.875H434.75V110.875H410.875V112.875ZM435.75 111.875V88H433.75V111.875H435.75ZM434.75 89H506.375V87H434.75V89ZM505.375 88V111.875H507.375V88H505.375ZM506.375 112.875H530.25V110.875H506.375V112.875ZM529.25 111.875V135.75H531.25V111.875H529.25ZM530.25 136.75H554.125V134.75H530.25V136.75ZM553.125 135.75V255.125H555.125V135.75H553.125ZM554.125 254.125H506.375V256.125H554.125V254.125ZM507.375 255.125V207.375H505.375V255.125H507.375ZM506.375 206.375H434.75V208.375H506.375V206.375ZM433.75 207.375V255.125H435.75V207.375H433.75ZM434.75 254.125H387V256.125H434.75V254.125ZM434.75 184.5H506.375V182.5H434.75V184.5ZM507.375 183.5V135.75H505.375V183.5H507.375ZM506.375 134.75H482.5V136.75H506.375V134.75ZM483.5 135.75V111.875H481.5V135.75H483.5ZM482.5 110.875H458.625V112.875H482.5V110.875ZM457.625 111.875V135.75H459.625V111.875H457.625ZM458.625 134.75H434.75V136.75H458.625V134.75ZM433.75 135.75V183.5H435.75V135.75H433.75ZM578 255.125H577V256.125H578V255.125ZM578 88V87H577V88H578ZM721.25 88H722.25V87H721.25V88ZM721.25 111.875H720.25V112.875H721.25V111.875ZM745.125 111.875H746.125V110.875H745.125V111.875ZM745.125 183.5V184.5H746.125V183.5H745.125ZM697.375 183.5V182.5H696.375V183.5H697.375ZM697.375 207.375H696.375V208.375H697.375V207.375ZM721.25 207.375H722.25V206.375H721.25V207.375ZM721.25 231.25H720.25V232.25H721.25V231.25ZM745.125 231.25H746.125V230.25H745.125V231.25ZM745.125 255.125V256.125H746.125V255.125H745.125ZM673.5 255.125H672.5V256.125H673.5V255.125ZM673.5 231.25H674.5V230.25H673.5V231.25ZM649.625 231.25H648.625V232.25H649.625V231.25ZM649.625 207.375H650.625V206.375H649.625V207.375ZM625.75 207.375V206.375H624.75V207.375H625.75ZM625.75 255.125V256.125H626.75V255.125H625.75ZM625.75 183.5H624.75V184.5H625.75V183.5ZM673.5 183.5V184.5H674.5V183.5H673.5ZM673.5 159.625V158.625H672.5V159.625H673.5ZM697.375 159.625V160.625H698.375V159.625H697.375ZM697.375 111.875H698.375V110.875H697.375V111.875ZM625.75 111.875V110.875H624.75V111.875H625.75ZM579 255.125V88H577V255.125H579ZM578 89H721.25V87H578V89ZM720.25 88V111.875H722.25V88H720.25ZM721.25 112.875H745.125V110.875H721.25V112.875ZM744.125 111.875V183.5H746.125V111.875H744.125ZM745.125 182.5H697.375V184.5H745.125V182.5ZM696.375 183.5V207.375H698.375V183.5H696.375ZM697.375 208.375H721.25V206.375H697.375V208.375ZM720.25 207.375V231.25H722.25V207.375H720.25ZM721.25 232.25H745.125V230.25H721.25V232.25ZM744.125 231.25V255.125H746.125V231.25H744.125ZM745.125 254.125H673.5V256.125H745.125V254.125ZM674.5 255.125V231.25H672.5V255.125H674.5ZM673.5 230.25H649.625V232.25H673.5V230.25ZM650.625 231.25V207.375H648.625V231.25H650.625ZM649.625 206.375H625.75V208.375H649.625V206.375ZM624.75 207.375V255.125H626.75V207.375H624.75ZM625.75 254.125H578V256.125H625.75V254.125ZM625.75 184.5H673.5V182.5H625.75V184.5ZM674.5 183.5V159.625H672.5V183.5H674.5ZM673.5 160.625H697.375V158.625H673.5V160.625ZM698.375 159.625V111.875H696.375V159.625H698.375ZM697.375 110.875H625.75V112.875H697.375V110.875ZM624.75 111.875V183.5H626.75V111.875H624.75ZM792.875 255.125H791.875V256.125H792.875V255.125ZM792.875 231.25H793.875V230.25H792.875V231.25ZM769 231.25H768V232.25H769V231.25ZM769 207.375V206.375H768V207.375H769ZM816.75 207.375H817.75V206.375H816.75V207.375ZM816.75 231.25H815.75V232.25H816.75V231.25ZM888.375 231.25V232.25H889.375V231.25H888.375ZM888.375 183.5H889.375V182.5H888.375V183.5ZM792.875 183.5H791.875V184.5H792.875V183.5ZM792.875 159.625H793.875V158.625H792.875V159.625ZM769 159.625H768V160.625H769V159.625ZM769 111.875V110.875H768V111.875H769ZM792.875 111.875V112.875H793.875V111.875H792.875ZM792.875 88V87H791.875V88H792.875ZM912.25 88H913.25V87H912.25V88ZM912.25 111.875H911.25V112.875H912.25V111.875ZM936.125 111.875H937.125V110.875H936.125V111.875ZM936.125 135.75V136.75H937.125V135.75H936.125ZM888.375 135.75H887.375V136.75H888.375V135.75ZM888.375 111.875H889.375V110.875H888.375V111.875ZM816.75 111.875V110.875H815.75V111.875H816.75ZM816.75 159.625H815.75V160.625H816.75V159.625ZM912.25 159.625H913.25V158.625H912.25V159.625ZM912.25 183.5H911.25V184.5H912.25V183.5ZM936.125 183.5H937.125V182.5H936.125V183.5ZM936.125 231.25V232.25H937.125V231.25H936.125ZM912.25 231.25V230.25H911.25V231.25H912.25ZM912.25 255.125V256.125H913.25V255.125H912.25ZM793.875 255.125V231.25H791.875V255.125H793.875ZM792.875 230.25H769V232.25H792.875V230.25ZM770 231.25V207.375H768V231.25H770ZM769 208.375H816.75V206.375H769V208.375ZM815.75 207.375V231.25H817.75V207.375H815.75ZM816.75 232.25H888.375V230.25H816.75V232.25ZM889.375 231.25V183.5H887.375V231.25H889.375ZM888.375 182.5H792.875V184.5H888.375V182.5ZM793.875 183.5V159.625H791.875V183.5H793.875ZM792.875 158.625H769V160.625H792.875V158.625ZM770 159.625V111.875H768V159.625H770ZM769 112.875H792.875V110.875H769V112.875ZM793.875 111.875V88H791.875V111.875H793.875ZM792.875 89H912.25V87H792.875V89ZM911.25 88V111.875H913.25V88H911.25ZM912.25 112.875H936.125V110.875H912.25V112.875ZM935.125 111.875V135.75H937.125V111.875H935.125ZM936.125 134.75H888.375V136.75H936.125V134.75ZM889.375 135.75V111.875H887.375V135.75H889.375ZM888.375 110.875H816.75V112.875H888.375V110.875ZM815.75 111.875V159.625H817.75V111.875H815.75ZM816.75 160.625H912.25V158.625H816.75V160.625ZM911.25 159.625V183.5H913.25V159.625H911.25ZM912.25 184.5H936.125V182.5H912.25V184.5ZM935.125 183.5V231.25H937.125V183.5H935.125ZM936.125 230.25H912.25V232.25H936.125V230.25ZM911.25 231.25V255.125H913.25V231.25H911.25ZM912.25 254.125H792.875V256.125H912.25V254.125Z" fill="#9A7AF2" mask="url(#path-1-outside-1_146_14667)"/>
</g>
<g filter="url(#filter1_f_146_14667)">
<mask id="path-3-outside-2_146_14667" maskUnits="userSpaceOnUse" x="4" y="43" width="934" height="170" fill="black">
<rect fill="white" x="4" y="43" width="934" height="170"/>
<path d="M5 211.125V44H148.25V67.875H172.125V115.625H148.25V139.5H172.125V187.25H148.25V211.125H5ZM52.75 115.625H124.375V67.875H52.75V115.625ZM52.75 187.25H124.375V139.5H52.75V187.25ZM196 211.125V44H363.125V67.875H243.75V115.625H339.25V139.5H243.75V187.25H363.125V211.125H196ZM387 211.125V91.75H410.875V67.875H434.75V44H506.375V67.875H530.25V91.75H554.125V211.125H506.375V163.375H434.75V211.125H387ZM434.75 139.5H506.375V91.75H482.5V67.875H458.625V91.75H434.75V139.5ZM578 211.125V44H721.25V67.875H745.125V139.5H697.375V163.375H721.25V187.25H745.125V211.125H673.5V187.25H649.625V163.375H625.75V211.125H578ZM625.75 139.5H673.5V115.625H697.375V67.875H625.75V139.5ZM792.875 211.125V187.25H769V163.375H816.75V187.25H888.375V139.5H792.875V115.625H769V67.875H792.875V44H912.25V67.875H936.125V91.75H888.375V67.875H816.75V115.625H912.25V139.5H936.125V187.25H912.25V211.125H792.875Z"/>
</mask>
<path d="M5 211.125V44H148.25V67.875H172.125V115.625H148.25V139.5H172.125V187.25H148.25V211.125H5ZM52.75 115.625H124.375V67.875H52.75V115.625ZM52.75 187.25H124.375V139.5H52.75V187.25ZM196 211.125V44H363.125V67.875H243.75V115.625H339.25V139.5H243.75V187.25H363.125V211.125H196ZM387 211.125V91.75H410.875V67.875H434.75V44H506.375V67.875H530.25V91.75H554.125V211.125H506.375V163.375H434.75V211.125H387ZM434.75 139.5H506.375V91.75H482.5V67.875H458.625V91.75H434.75V139.5ZM578 211.125V44H721.25V67.875H745.125V139.5H697.375V163.375H721.25V187.25H745.125V211.125H673.5V187.25H649.625V163.375H625.75V211.125H578ZM625.75 139.5H673.5V115.625H697.375V67.875H625.75V139.5ZM792.875 211.125V187.25H769V163.375H816.75V187.25H888.375V139.5H792.875V115.625H769V67.875H792.875V44H912.25V67.875H936.125V91.75H888.375V67.875H816.75V115.625H912.25V139.5H936.125V187.25H912.25V211.125H792.875Z" fill="black"/>
<path d="M5 211.125H4V212.125H5V211.125ZM5 44V43H4V44H5ZM148.25 44H149.25V43H148.25V44ZM148.25 67.875H147.25V68.875H148.25V67.875ZM172.125 67.875H173.125V66.875H172.125V67.875ZM172.125 115.625V116.625H173.125V115.625H172.125ZM148.25 115.625V114.625H147.25V115.625H148.25ZM148.25 139.5H147.25V140.5H148.25V139.5ZM172.125 139.5H173.125V138.5H172.125V139.5ZM172.125 187.25V188.25H173.125V187.25H172.125ZM148.25 187.25V186.25H147.25V187.25H148.25ZM148.25 211.125V212.125H149.25V211.125H148.25ZM52.75 115.625H51.75V116.625H52.75V115.625ZM124.375 115.625V116.625H125.375V115.625H124.375ZM124.375 67.875H125.375V66.875H124.375V67.875ZM52.75 67.875V66.875H51.75V67.875H52.75ZM52.75 187.25H51.75V188.25H52.75V187.25ZM124.375 187.25V188.25H125.375V187.25H124.375ZM124.375 139.5H125.375V138.5H124.375V139.5ZM52.75 139.5V138.5H51.75V139.5H52.75ZM6 211.125V44H4V211.125H6ZM5 45H148.25V43H5V45ZM147.25 44V67.875H149.25V44H147.25ZM148.25 68.875H172.125V66.875H148.25V68.875ZM171.125 67.875V115.625H173.125V67.875H171.125ZM172.125 114.625H148.25V116.625H172.125V114.625ZM147.25 115.625V139.5H149.25V115.625H147.25ZM148.25 140.5H172.125V138.5H148.25V140.5ZM171.125 139.5V187.25H173.125V139.5H171.125ZM172.125 186.25H148.25V188.25H172.125V186.25ZM147.25 187.25V211.125H149.25V187.25H147.25ZM148.25 210.125H5V212.125H148.25V210.125ZM52.75 116.625H124.375V114.625H52.75V116.625ZM125.375 115.625V67.875H123.375V115.625H125.375ZM124.375 66.875H52.75V68.875H124.375V66.875ZM51.75 67.875V115.625H53.75V67.875H51.75ZM52.75 188.25H124.375V186.25H52.75V188.25ZM125.375 187.25V139.5H123.375V187.25H125.375ZM124.375 138.5H52.75V140.5H124.375V138.5ZM51.75 139.5V187.25H53.75V139.5H51.75ZM196 211.125H195V212.125H196V211.125ZM196 44V43H195V44H196ZM363.125 44H364.125V43H363.125V44ZM363.125 67.875V68.875H364.125V67.875H363.125ZM243.75 67.875V66.875H242.75V67.875H243.75ZM243.75 115.625H242.75V116.625H243.75V115.625ZM339.25 115.625H340.25V114.625H339.25V115.625ZM339.25 139.5V140.5H340.25V139.5H339.25ZM243.75 139.5V138.5H242.75V139.5H243.75ZM243.75 187.25H242.75V188.25H243.75V187.25ZM363.125 187.25H364.125V186.25H363.125V187.25ZM363.125 211.125V212.125H364.125V211.125H363.125ZM197 211.125V44H195V211.125H197ZM196 45H363.125V43H196V45ZM362.125 44V67.875H364.125V44H362.125ZM363.125 66.875H243.75V68.875H363.125V66.875ZM242.75 67.875V115.625H244.75V67.875H242.75ZM243.75 116.625H339.25V114.625H243.75V116.625ZM338.25 115.625V139.5H340.25V115.625H338.25ZM339.25 138.5H243.75V140.5H339.25V138.5ZM242.75 139.5V187.25H244.75V139.5H242.75ZM243.75 188.25H363.125V186.25H243.75V188.25ZM362.125 187.25V211.125H364.125V187.25H362.125ZM363.125 210.125H196V212.125H363.125V210.125ZM387 211.125H386V212.125H387V211.125ZM387 91.75V90.75H386V91.75H387ZM410.875 91.75V92.75H411.875V91.75H410.875ZM410.875 67.875V66.875H409.875V67.875H410.875ZM434.75 67.875V68.875H435.75V67.875H434.75ZM434.75 44V43H433.75V44H434.75ZM506.375 44H507.375V43H506.375V44ZM506.375 67.875H505.375V68.875H506.375V67.875ZM530.25 67.875H531.25V66.875H530.25V67.875ZM530.25 91.75H529.25V92.75H530.25V91.75ZM554.125 91.75H555.125V90.75H554.125V91.75ZM554.125 211.125V212.125H555.125V211.125H554.125ZM506.375 211.125H505.375V212.125H506.375V211.125ZM506.375 163.375H507.375V162.375H506.375V163.375ZM434.75 163.375V162.375H433.75V163.375H434.75ZM434.75 211.125V212.125H435.75V211.125H434.75ZM434.75 139.5H433.75V140.5H434.75V139.5ZM506.375 139.5V140.5H507.375V139.5H506.375ZM506.375 91.75H507.375V90.75H506.375V91.75ZM482.5 91.75H481.5V92.75H482.5V91.75ZM482.5 67.875H483.5V66.875H482.5V67.875ZM458.625 67.875V66.875H457.625V67.875H458.625ZM458.625 91.75V92.75H459.625V91.75H458.625ZM434.75 91.75V90.75H433.75V91.75H434.75ZM388 211.125V91.75H386V211.125H388ZM387 92.75H410.875V90.75H387V92.75ZM411.875 91.75V67.875H409.875V91.75H411.875ZM410.875 68.875H434.75V66.875H410.875V68.875ZM435.75 67.875V44H433.75V67.875H435.75ZM434.75 45H506.375V43H434.75V45ZM505.375 44V67.875H507.375V44H505.375ZM506.375 68.875H530.25V66.875H506.375V68.875ZM529.25 67.875V91.75H531.25V67.875H529.25ZM530.25 92.75H554.125V90.75H530.25V92.75ZM553.125 91.75V211.125H555.125V91.75H553.125ZM554.125 210.125H506.375V212.125H554.125V210.125ZM507.375 211.125V163.375H505.375V211.125H507.375ZM506.375 162.375H434.75V164.375H506.375V162.375ZM433.75 163.375V211.125H435.75V163.375H433.75ZM434.75 210.125H387V212.125H434.75V210.125ZM434.75 140.5H506.375V138.5H434.75V140.5ZM507.375 139.5V91.75H505.375V139.5H507.375ZM506.375 90.75H482.5V92.75H506.375V90.75ZM483.5 91.75V67.875H481.5V91.75H483.5ZM482.5 66.875H458.625V68.875H482.5V66.875ZM457.625 67.875V91.75H459.625V67.875H457.625ZM458.625 90.75H434.75V92.75H458.625V90.75ZM433.75 91.75V139.5H435.75V91.75H433.75ZM578 211.125H577V212.125H578V211.125ZM578 44V43H577V44H578ZM721.25 44H722.25V43H721.25V44ZM721.25 67.875H720.25V68.875H721.25V67.875ZM745.125 67.875H746.125V66.875H745.125V67.875ZM745.125 139.5V140.5H746.125V139.5H745.125ZM697.375 139.5V138.5H696.375V139.5H697.375ZM697.375 163.375H696.375V164.375H697.375V163.375ZM721.25 163.375H722.25V162.375H721.25V163.375ZM721.25 187.25H720.25V188.25H721.25V187.25ZM745.125 187.25H746.125V186.25H745.125V187.25ZM745.125 211.125V212.125H746.125V211.125H745.125ZM673.5 211.125H672.5V212.125H673.5V211.125ZM673.5 187.25H674.5V186.25H673.5V187.25ZM649.625 187.25H648.625V188.25H649.625V187.25ZM649.625 163.375H650.625V162.375H649.625V163.375ZM625.75 163.375V162.375H624.75V163.375H625.75ZM625.75 211.125V212.125H626.75V211.125H625.75ZM625.75 139.5H624.75V140.5H625.75V139.5ZM673.5 139.5V140.5H674.5V139.5H673.5ZM673.5 115.625V114.625H672.5V115.625H673.5ZM697.375 115.625V116.625H698.375V115.625H697.375ZM697.375 67.875H698.375V66.875H697.375V67.875ZM625.75 67.875V66.875H624.75V67.875H625.75ZM579 211.125V44H577V211.125H579ZM578 45H721.25V43H578V45ZM720.25 44V67.875H722.25V44H720.25ZM721.25 68.875H745.125V66.875H721.25V68.875ZM744.125 67.875V139.5H746.125V67.875H744.125ZM745.125 138.5H697.375V140.5H745.125V138.5ZM696.375 139.5V163.375H698.375V139.5H696.375ZM697.375 164.375H721.25V162.375H697.375V164.375ZM720.25 163.375V187.25H722.25V163.375H720.25ZM721.25 188.25H745.125V186.25H721.25V188.25ZM744.125 187.25V211.125H746.125V187.25H744.125ZM745.125 210.125H673.5V212.125H745.125V210.125ZM674.5 211.125V187.25H672.5V211.125H674.5ZM673.5 186.25H649.625V188.25H673.5V186.25ZM650.625 187.25V163.375H648.625V187.25H650.625ZM649.625 162.375H625.75V164.375H649.625V162.375ZM624.75 163.375V211.125H626.75V163.375H624.75ZM625.75 210.125H578V212.125H625.75V210.125ZM625.75 140.5H673.5V138.5H625.75V140.5ZM674.5 139.5V115.625H672.5V139.5H674.5ZM673.5 116.625H697.375V114.625H673.5V116.625ZM698.375 115.625V67.875H696.375V115.625H698.375ZM697.375 66.875H625.75V68.875H697.375V66.875ZM624.75 67.875V139.5H626.75V67.875H624.75ZM792.875 211.125H791.875V212.125H792.875V211.125ZM792.875 187.25H793.875V186.25H792.875V187.25ZM769 187.25H768V188.25H769V187.25ZM769 163.375V162.375H768V163.375H769ZM816.75 163.375H817.75V162.375H816.75V163.375ZM816.75 187.25H815.75V188.25H816.75V187.25ZM888.375 187.25V188.25H889.375V187.25H888.375ZM888.375 139.5H889.375V138.5H888.375V139.5ZM792.875 139.5H791.875V140.5H792.875V139.5ZM792.875 115.625H793.875V114.625H792.875V115.625ZM769 115.625H768V116.625H769V115.625ZM769 67.875V66.875H768V67.875H769ZM792.875 67.875V68.875H793.875V67.875H792.875ZM792.875 44V43H791.875V44H792.875ZM912.25 44H913.25V43H912.25V44ZM912.25 67.875H911.25V68.875H912.25V67.875ZM936.125 67.875H937.125V66.875H936.125V67.875ZM936.125 91.75V92.75H937.125V91.75H936.125ZM888.375 91.75H887.375V92.75H888.375V91.75ZM888.375 67.875H889.375V66.875H888.375V67.875ZM816.75 67.875V66.875H815.75V67.875H816.75ZM816.75 115.625H815.75V116.625H816.75V115.625ZM912.25 115.625H913.25V114.625H912.25V115.625ZM912.25 139.5H911.25V140.5H912.25V139.5ZM936.125 139.5H937.125V138.5H936.125V139.5ZM936.125 187.25V188.25H937.125V187.25H936.125ZM912.25 187.25V186.25H911.25V187.25H912.25ZM912.25 211.125V212.125H913.25V211.125H912.25ZM793.875 211.125V187.25H791.875V211.125H793.875ZM792.875 186.25H769V188.25H792.875V186.25ZM770 187.25V163.375H768V187.25H770ZM769 164.375H816.75V162.375H769V164.375ZM815.75 163.375V187.25H817.75V163.375H815.75ZM816.75 188.25H888.375V186.25H816.75V188.25ZM889.375 187.25V139.5H887.375V187.25H889.375ZM888.375 138.5H792.875V140.5H888.375V138.5ZM793.875 139.5V115.625H791.875V139.5H793.875ZM792.875 114.625H769V116.625H792.875V114.625ZM770 115.625V67.875H768V115.625H770ZM769 68.875H792.875V66.875H769V68.875ZM793.875 67.875V44H791.875V67.875H793.875ZM792.875 45H912.25V43H792.875V45ZM911.25 44V67.875H913.25V44H911.25ZM912.25 68.875H936.125V66.875H912.25V68.875ZM935.125 67.875V91.75H937.125V67.875H935.125ZM936.125 90.75H888.375V92.75H936.125V90.75ZM889.375 91.75V67.875H887.375V91.75H889.375ZM888.375 66.875H816.75V68.875H888.375V66.875ZM815.75 67.875V115.625H817.75V67.875H815.75ZM816.75 116.625H912.25V114.625H816.75V116.625ZM911.25 115.625V139.5H913.25V115.625H911.25ZM912.25 140.5H936.125V138.5H912.25V140.5ZM935.125 139.5V187.25H937.125V139.5H935.125ZM936.125 186.25H912.25V188.25H936.125V186.25ZM911.25 187.25V211.125H913.25V187.25H911.25ZM912.25 210.125H792.875V212.125H912.25V210.125Z" fill="#9A7AF2" mask="url(#path-3-outside-2_146_14667)"/>
</g>
<path d="M5 167.125V0H148.25V23.875H172.125V71.625H148.25V95.5H172.125V143.25H148.25V167.125H5ZM52.75 71.625H124.375V23.875H52.75V71.625ZM52.75 143.25H124.375V95.5H52.75V143.25ZM196 167.125V0H363.125V23.875H243.75V71.625H339.25V95.5H243.75V143.25H363.125V167.125H196ZM387 167.125V47.75H410.875V23.875H434.75V0H506.375V23.875H530.25V47.75H554.125V167.125H506.375V119.375H434.75V167.125H387ZM434.75 95.5H506.375V47.75H482.5V23.875H458.625V47.75H434.75V95.5ZM578 167.125V0H721.25V23.875H745.125V95.5H697.375V119.375H721.25V143.25H745.125V167.125H673.5V143.25H649.625V119.375H625.75V167.125H578ZM625.75 95.5H673.5V71.625H697.375V23.875H625.75V95.5ZM792.875 167.125V143.25H769V119.375H816.75V143.25H888.375V95.5H792.875V71.625H769V23.875H792.875V0H912.25V23.875H936.125V47.75H888.375V23.875H816.75V71.625H912.25V95.5H936.125V143.25H912.25V167.125H792.875Z" fill="#A533C5"/>
<defs>
<filter id="filter0_f_146_14667" x="0" y="83" width="941.125" height="177.125" filterUnits="userSpaceOnUse" color-interpolation-filters="sRGB">
<feFlood flood-opacity="0" result="BackgroundImageFix"/>
<feBlend mode="normal" in="SourceGraphic" in2="BackgroundImageFix" result="shape"/>
<feGaussianBlur stdDeviation="2.5" result="effect1_foregroundBlur_146_14667"/>
</filter>
<filter id="filter1_f_146_14667" x="2" y="41" width="937.125" height="173.125" filterUnits="userSpaceOnUse" color-interpolation-filters="sRGB">
<feFlood flood-opacity="0" result="BackgroundImageFix"/>
<feBlend mode="normal" in="SourceGraphic" in2="BackgroundImageFix" result="shape"/>
<feGaussianBlur stdDeviation="1.5" result="effect1_foregroundBlur_146_14667"/>
</filter>
</defs>
</svg>
