<svg width="1065" height="104" viewBox="0 0 1065 104" fill="none" xmlns="http://www.w3.org/2000/svg">
<rect y="17" width="1065" height="70" fill="#783CC8"/>
<rect x="20" width="1028" height="104" fill="#783CC8"/>
<mask id="path-3-inside-1_58_7573" fill="white">
<path fill-rule="evenodd" clip-rule="evenodd" d="M972.49 96.3831H95.0704V81.8732H78V22.1267H95.0704V7.61686H972.49V22.1267H987V81.8732H972.49V96.3831Z"/>
</mask>
<path fill-rule="evenodd" clip-rule="evenodd" d="M972.49 96.3831H95.0704V81.8732H78V22.1267H95.0704V7.61686H972.49V22.1267H987V81.8732H972.49V96.3831Z" fill="#783CC8"/>
<path d="M95.0704 96.3831V98.3831H93.0704V96.3831H95.0704ZM972.49 96.3831H974.49V98.3831H972.49V96.3831ZM95.0704 81.8732V79.8732H97.0704V81.8732H95.0704ZM78 81.8732V83.8732H76V81.8732H78ZM78 22.1267H76V20.1267H78V22.1267ZM95.0704 22.1267H97.0704V24.1267H95.0704V22.1267ZM95.0704 7.61686H93.0704V5.61686H95.0704V7.61686ZM972.49 7.61686V5.61686H974.49V7.61686H972.49ZM972.49 22.1267V24.1267H970.49V22.1267H972.49ZM987 22.1267V20.1267H989V22.1267H987ZM987 81.8732H989V83.8732H987V81.8732ZM972.49 81.8732H970.49V79.8732H972.49V81.8732ZM95.0704 94.3831H972.49V98.3831H95.0704V94.3831ZM97.0704 81.8732V96.3831H93.0704V81.8732H97.0704ZM78 79.8732H95.0704V83.8732H78V79.8732ZM80 22.1267V81.8732H76V22.1267H80ZM95.0704 24.1267H78V20.1267H95.0704V24.1267ZM97.0704 7.61686V22.1267H93.0704V7.61686H97.0704ZM972.49 9.61686H95.0704V5.61686H972.49V9.61686ZM970.49 22.1267V7.61686H974.49V22.1267H970.49ZM987 24.1267H972.49V20.1267H987V24.1267ZM985 81.8732V22.1267H989V81.8732H985ZM972.49 79.8732H987V83.8732H972.49V79.8732ZM970.49 96.3831V81.8732H974.49V96.3831H970.49Z" fill="black" mask="url(#path-3-inside-1_58_7573)"/>
<g filter="url(#filter0_d_58_7573)">
<path d="M285 59.5V47H287.5V44.5H290V42H297.5V44.5H300V47H302.5V59.5H297.5V54.5H290V59.5H285ZM290 52H297.5V47H295V44.5H292.5V47H290V52ZM305 59.5V42H320V44.5H322.5V49.5H320V52H322.5V57H320V59.5H305ZM310 49.5H317.5V44.5H310V49.5ZM310 57H317.5V52H310V57ZM327.5 59.5V57H325V44.5H327.5V42H340V44.5H342.5V57H340V59.5H327.5ZM330 57H337.5V44.5H330V57ZM347.5 59.5V57H345V42H350V57H357.5V42H362.5V57H360V59.5H347.5ZM372.5 59.5V44.5H367.5V42H382.5V44.5H377.5V59.5H372.5Z" fill="black"/>
<path d="M412.5 59.5V42H417.5V57H427.5V59.5H412.5ZM432.5 59.5V57H430V44.5H432.5V42H445V44.5H447.5V57H445V59.5H432.5ZM435 57H442.5V44.5H435V57ZM450 59.5V42H465V44.5H467.5V52H462.5V54.5H465V57H467.5V59.5H460V57H457.5V54.5H455V59.5H450ZM455 52H460V49.5H462.5V44.5H455V52ZM470 59.5V42H487.5V44.5H475V49.5H485V52H475V57H487.5V59.5H470Z" fill="black"/>
<path d="M522.5 59.5V44.5H517.5V42H532.5V44.5H527.5V59.5H522.5ZM537.5 59.5V57H535V42H540V52H542.5V42H545V52H547.5V42H552.5V57H550V59.5H547.5V57H545V54.5H542.5V57H540V59.5H537.5ZM557.5 59.5V57H562.5V44.5H557.5V42H572.5V44.5H567.5V57H572.5V59.5H557.5ZM582.5 59.5V44.5H577.5V42H592.5V44.5H587.5V59.5H582.5ZM602.5 59.5V44.5H597.5V42H612.5V44.5H607.5V59.5H602.5ZM615 59.5V42H632.5V44.5H620V49.5H630V52H620V57H632.5V59.5H615ZM635 59.5V42H650V44.5H652.5V52H647.5V54.5H650V57H652.5V59.5H645V57H642.5V54.5H640V59.5H635ZM640 52H645V49.5H647.5V44.5H640V52Z" fill="black"/>
<path d="M687.5 59.5V44.5H682.5V42H697.5V44.5H692.5V59.5H687.5ZM700 59.5V42H717.5V44.5H705V49.5H715V52H705V57H717.5V59.5H700ZM722.5 59.5V42H727.5V57H737.5V59.5H722.5ZM740 59.5V42H757.5V44.5H745V49.5H755V52H745V57H757.5V59.5H740ZM765 59.5V57H762.5V54.5H760V47H762.5V44.5H765V42H777.5V44.5H767.5V47H765V54.5H767.5V57H772.5V52H770V49.5H777.5V59.5H765ZM780 59.5V42H795V44.5H797.5V52H792.5V54.5H795V57H797.5V59.5H790V57H787.5V54.5H785V59.5H780ZM785 52H790V49.5H792.5V44.5H785V52ZM800 59.5V47H802.5V44.5H805V42H812.5V44.5H815V47H817.5V59.5H812.5V54.5H805V59.5H800ZM805 52H812.5V47H810V44.5H807.5V47H805V52ZM820 59.5V42H825V44.5H827.5V47H830V44.5H832.5V42H837.5V59.5H832.5V49.5H830V54.5H827.5V49.5H825V59.5H820Z" fill="black"/>
<path d="M865 59.5V54.5H867.5V52H870V49.5H867.5V47H865V42H870V47H872.5V49.5H875V47H877.5V42H882.5V47H880V49.5H877.5V52H880V54.5H882.5V59.5H877.5V54.5H875V52H872.5V54.5H870V59.5H865Z" fill="black"/>
<path d="M180 59.5V42H185V49.5H192.5V42H197.5V59.5H192.5V52H185V59.5H180ZM202.5 59.5V57H200V44.5H202.5V42H215V44.5H217.5V57H215V59.5H202.5ZM205 57H212.5V44.5H205V57ZM220 59.5V42H225V44.5H227.5V47H230V44.5H232.5V42H237.5V59.5H232.5V49.5H230V54.5H227.5V49.5H225V59.5H220ZM240 59.5V42H257.5V44.5H245V49.5H255V52H245V57H257.5V59.5H240Z" fill="black"/>
</g>
<defs>
<filter id="filter0_d_58_7573" x="180" y="42" width="719.5" height="32.5" filterUnits="userSpaceOnUse" color-interpolation-filters="sRGB">
<feFlood flood-opacity="0" result="BackgroundImageFix"/>
<feColorMatrix in="SourceAlpha" type="matrix" values="0 0 0 0 0 0 0 0 0 0 0 0 0 0 0 0 0 0 127 0" result="hardAlpha"/>
<feOffset dx="13" dy="11"/>
<feGaussianBlur stdDeviation="2"/>
<feComposite in2="hardAlpha" operator="out"/>
<feColorMatrix type="matrix" values="0 0 0 0 0 0 0 0 0 0 0 0 0 0 0 0 0 0 0.25 0"/>
<feBlend mode="normal" in2="BackgroundImageFix" result="effect1_dropShadow_58_7573"/>
<feBlend mode="normal" in="SourceGraphic" in2="effect1_dropShadow_58_7573" result="shape"/>
</filter>
</defs>
</svg>
