<svg width="482" height="210" viewBox="0 0 482 210" fill="none" xmlns="http://www.w3.org/2000/svg">
<g filter="url(#filter0_f_176_2183)">
<mask id="path-1-outside-1_176_2183" maskUnits="userSpaceOnUse" x="53" y="92" width="375" height="104" fill="black">
<rect fill="white" x="53" y="92" width="375" height="104"/>
<path d="M54.9258 98.2422V93.3711H88.7969V98.2422H83.9258V103H79.0547V185.242H88.7969V180.371H108.055V175.5H117.684V170.742H132.184V165.871H137.055V175.5H132.184V185.242H127.426V194.871H117.684V190H54.9258V185.242H59.7969V98.2422H54.9258ZM175.684 98.2422V93.3711H219.184V98.2422H223.941V103H228.812V107.871H233.684V117.5H238.441V132H243.312V151.371H238.441V165.871H233.684V175.5H228.812V180.371H223.941V185.242H214.312V190H199.812V194.871H185.312V190H165.941V185.242H161.184V180.371H151.441V170.742H146.684V165.871H141.812V122.371H146.684V112.742H151.441V107.871H156.312V103H161.184V98.2422H165.941V103H170.812V98.2422H175.684ZM165.941 107.871L165.828 103H161.07L161.184 107.871H165.941ZM199.812 112.742V107.871H185.312V112.742H175.684V122.371H170.812V132H175.684V136.871H180.441V141.742H185.312V136.871H190.184V132H185.312V127.242H180.441V122.371H185.312V117.5H194.941V122.371H199.812V136.871H194.941V141.742H190.184V146.5H175.684V141.742H170.812V136.871H165.941V132H161.184V117.5H156.312V151.371H161.184V161H165.941V165.871H170.812V170.742H175.684V175.5H180.441V180.371H194.941V185.242H204.684V180.371H219.184V170.742H223.941V161H228.812V141.742H223.941V127.242H219.184V122.371H214.312V117.5H209.441V112.742H199.812ZM249.656 98.2422V93.3711H307.656V98.2422H322.156V103H331.785V107.871H336.656V127.242H331.785V132H327.027V136.871H317.285V141.742H307.656V151.371H312.527V156.129H317.285V165.871H322.156V170.629H327.027V180.371H331.785V185.129H336.656V190H302.785V175.5H298.027V165.871H293.156V156.129H288.285V146.5H283.527V141.742H273.785V185.129H278.656V190H249.656V185.129H254.527V98.2422H249.656ZM293.156 107.871V103H273.785V132H307.656V127.242H312.527V112.742H307.656V107.871H293.156ZM339.602 98.2422V93.3711H412.102V103H416.973V107.871H421.73V117.5H407.23V112.742H397.602V107.871H387.973V103H363.73V132H392.73V127.242H402.473V122.371H407.23V136.871H412.102V146.5H416.973V156.242H412.102V151.371H407.23V146.5H397.602V141.742H368.602V136.871H363.73V185.242H378.23V180.371H392.73V175.5H402.473V170.742H416.973V165.871H426.602V175.5H421.73V180.371H416.973V194.871H412.102V190H339.602V185.242H344.473V98.2422H339.602Z"/>
</mask>
<path d="M54.9258 98.2422V93.3711H88.7969V98.2422H83.9258V103H79.0547V185.242H88.7969V180.371H108.055V175.5H117.684V170.742H132.184V165.871H137.055V175.5H132.184V185.242H127.426V194.871H117.684V190H54.9258V185.242H59.7969V98.2422H54.9258ZM175.684 98.2422V93.3711H219.184V98.2422H223.941V103H228.812V107.871H233.684V117.5H238.441V132H243.312V151.371H238.441V165.871H233.684V175.5H228.812V180.371H223.941V185.242H214.312V190H199.812V194.871H185.312V190H165.941V185.242H161.184V180.371H151.441V170.742H146.684V165.871H141.812V122.371H146.684V112.742H151.441V107.871H156.312V103H161.184V98.2422H165.941V103H170.812V98.2422H175.684ZM165.941 107.871L165.828 103H161.07L161.184 107.871H165.941ZM199.812 112.742V107.871H185.312V112.742H175.684V122.371H170.812V132H175.684V136.871H180.441V141.742H185.312V136.871H190.184V132H185.312V127.242H180.441V122.371H185.312V117.5H194.941V122.371H199.812V136.871H194.941V141.742H190.184V146.5H175.684V141.742H170.812V136.871H165.941V132H161.184V117.5H156.312V151.371H161.184V161H165.941V165.871H170.812V170.742H175.684V175.5H180.441V180.371H194.941V185.242H204.684V180.371H219.184V170.742H223.941V161H228.812V141.742H223.941V127.242H219.184V122.371H214.312V117.5H209.441V112.742H199.812ZM249.656 98.2422V93.3711H307.656V98.2422H322.156V103H331.785V107.871H336.656V127.242H331.785V132H327.027V136.871H317.285V141.742H307.656V151.371H312.527V156.129H317.285V165.871H322.156V170.629H327.027V180.371H331.785V185.129H336.656V190H302.785V175.5H298.027V165.871H293.156V156.129H288.285V146.5H283.527V141.742H273.785V185.129H278.656V190H249.656V185.129H254.527V98.2422H249.656ZM293.156 107.871V103H273.785V132H307.656V127.242H312.527V112.742H307.656V107.871H293.156ZM339.602 98.2422V93.3711H412.102V103H416.973V107.871H421.73V117.5H407.23V112.742H397.602V107.871H387.973V103H363.73V132H392.73V127.242H402.473V122.371H407.23V136.871H412.102V146.5H416.973V156.242H412.102V151.371H407.23V146.5H397.602V141.742H368.602V136.871H363.73V185.242H378.23V180.371H392.73V175.5H402.473V170.742H416.973V165.871H426.602V175.5H421.73V180.371H416.973V194.871H412.102V190H339.602V185.242H344.473V98.2422H339.602Z" fill="black"/>
<path d="M54.9258 98.2422H53.9258V99.2422H54.9258V98.2422ZM54.9258 93.3711V92.3711H53.9258V93.3711H54.9258ZM88.7969 93.3711H89.7969V92.3711H88.7969V93.3711ZM88.7969 98.2422V99.2422H89.7969V98.2422H88.7969ZM83.9258 98.2422V97.2422H82.9258V98.2422H83.9258ZM83.9258 103V104H84.9258V103H83.9258ZM79.0547 103V102H78.0547V103H79.0547ZM79.0547 185.242H78.0547V186.242H79.0547V185.242ZM88.7969 185.242V186.242H89.7969V185.242H88.7969ZM88.7969 180.371V179.371H87.7969V180.371H88.7969ZM108.055 180.371V181.371H109.055V180.371H108.055ZM108.055 175.5V174.5H107.055V175.5H108.055ZM117.684 175.5V176.5H118.684V175.5H117.684ZM117.684 170.742V169.742H116.684V170.742H117.684ZM132.184 170.742V171.742H133.184V170.742H132.184ZM132.184 165.871V164.871H131.184V165.871H132.184ZM137.055 165.871H138.055V164.871H137.055V165.871ZM137.055 175.5V176.5H138.055V175.5H137.055ZM132.184 175.5V174.5H131.184V175.5H132.184ZM132.184 185.242V186.242H133.184V185.242H132.184ZM127.426 185.242V184.242H126.426V185.242H127.426ZM127.426 194.871V195.871H128.426V194.871H127.426ZM117.684 194.871H116.684V195.871H117.684V194.871ZM117.684 190H118.684V189H117.684V190ZM54.9258 190H53.9258V191H54.9258V190ZM54.9258 185.242V184.242H53.9258V185.242H54.9258ZM59.7969 185.242V186.242H60.7969V185.242H59.7969ZM59.7969 98.2422H60.7969V97.2422H59.7969V98.2422ZM55.9258 98.2422V93.3711H53.9258V98.2422H55.9258ZM54.9258 94.3711H88.7969V92.3711H54.9258V94.3711ZM87.7969 93.3711V98.2422H89.7969V93.3711H87.7969ZM88.7969 97.2422H83.9258V99.2422H88.7969V97.2422ZM82.9258 98.2422V103H84.9258V98.2422H82.9258ZM83.9258 102H79.0547V104H83.9258V102ZM78.0547 103V185.242H80.0547V103H78.0547ZM79.0547 186.242H88.7969V184.242H79.0547V186.242ZM89.7969 185.242V180.371H87.7969V185.242H89.7969ZM88.7969 181.371H108.055V179.371H88.7969V181.371ZM109.055 180.371V175.5H107.055V180.371H109.055ZM108.055 176.5H117.684V174.5H108.055V176.5ZM118.684 175.5V170.742H116.684V175.5H118.684ZM117.684 171.742H132.184V169.742H117.684V171.742ZM133.184 170.742V165.871H131.184V170.742H133.184ZM132.184 166.871H137.055V164.871H132.184V166.871ZM136.055 165.871V175.5H138.055V165.871H136.055ZM137.055 174.5H132.184V176.5H137.055V174.5ZM131.184 175.5V185.242H133.184V175.5H131.184ZM132.184 184.242H127.426V186.242H132.184V184.242ZM126.426 185.242V194.871H128.426V185.242H126.426ZM127.426 193.871H117.684V195.871H127.426V193.871ZM118.684 194.871V190H116.684V194.871H118.684ZM117.684 189H54.9258V191H117.684V189ZM55.9258 190V185.242H53.9258V190H55.9258ZM54.9258 186.242H59.7969V184.242H54.9258V186.242ZM60.7969 185.242V98.2422H58.7969V185.242H60.7969ZM59.7969 97.2422H54.9258V99.2422H59.7969V97.2422ZM175.684 98.2422V99.2422H176.684V98.2422H175.684ZM175.684 93.3711V92.3711H174.684V93.3711H175.684ZM219.184 93.3711H220.184V92.3711H219.184V93.3711ZM219.184 98.2422H218.184V99.2422H219.184V98.2422ZM223.941 98.2422H224.941V97.2422H223.941V98.2422ZM223.941 103H222.941V104H223.941V103ZM228.812 103H229.812V102H228.812V103ZM228.812 107.871H227.812V108.871H228.812V107.871ZM233.684 107.871H234.684V106.871H233.684V107.871ZM233.684 117.5H232.684V118.5H233.684V117.5ZM238.441 117.5H239.441V116.5H238.441V117.5ZM238.441 132H237.441V133H238.441V132ZM243.312 132H244.312V131H243.312V132ZM243.312 151.371V152.371H244.312V151.371H243.312ZM238.441 151.371V150.371H237.441V151.371H238.441ZM238.441 165.871V166.871H239.441V165.871H238.441ZM233.684 165.871V164.871H232.684V165.871H233.684ZM233.684 175.5V176.5H234.684V175.5H233.684ZM228.812 175.5V174.5H227.812V175.5H228.812ZM228.812 180.371V181.371H229.812V180.371H228.812ZM223.941 180.371V179.371H222.941V180.371H223.941ZM223.941 185.242V186.242H224.941V185.242H223.941ZM214.312 185.242V184.242H213.312V185.242H214.312ZM214.312 190V191H215.312V190H214.312ZM199.812 190V189H198.812V190H199.812ZM199.812 194.871V195.871H200.812V194.871H199.812ZM185.312 194.871H184.312V195.871H185.312V194.871ZM185.312 190H186.312V189H185.312V190ZM165.941 190H164.941V191H165.941V190ZM165.941 185.242H166.941V184.242H165.941V185.242ZM161.184 185.242H160.184V186.242H161.184V185.242ZM161.184 180.371H162.184V179.371H161.184V180.371ZM151.441 180.371H150.441V181.371H151.441V180.371ZM151.441 170.742H152.441V169.742H151.441V170.742ZM146.684 170.742H145.684V171.742H146.684V170.742ZM146.684 165.871H147.684V164.871H146.684V165.871ZM141.812 165.871H140.812V166.871H141.812V165.871ZM141.812 122.371V121.371H140.812V122.371H141.812ZM146.684 122.371V123.371H147.684V122.371H146.684ZM146.684 112.742V111.742H145.684V112.742H146.684ZM151.441 112.742V113.742H152.441V112.742H151.441ZM151.441 107.871V106.871H150.441V107.871H151.441ZM156.312 107.871V108.871H157.312V107.871H156.312ZM156.312 103V102H155.312V103H156.312ZM161.184 103V104H162.184V103H161.184ZM161.184 98.2422V97.2422H160.184V98.2422H161.184ZM165.941 98.2422H166.941V97.2422H165.941V98.2422ZM165.941 103H164.941V104H165.941V103ZM170.812 103V104H171.812V103H170.812ZM170.812 98.2422V97.2422H169.812V98.2422H170.812ZM165.941 107.871V108.871H166.965L166.941 107.848L165.941 107.871ZM165.828 103L166.828 102.977L166.805 102H165.828V103ZM161.07 103V102H160.047L160.071 103.023L161.07 103ZM161.184 107.871L160.184 107.894L160.207 108.871H161.184V107.871ZM199.812 112.742H198.812V113.742H199.812V112.742ZM199.812 107.871H200.812V106.871H199.812V107.871ZM185.312 107.871V106.871H184.312V107.871H185.312ZM185.312 112.742V113.742H186.312V112.742H185.312ZM175.684 112.742V111.742H174.684V112.742H175.684ZM175.684 122.371V123.371H176.684V122.371H175.684ZM170.812 122.371V121.371H169.812V122.371H170.812ZM170.812 132H169.812V133H170.812V132ZM175.684 132H176.684V131H175.684V132ZM175.684 136.871H174.684V137.871H175.684V136.871ZM180.441 136.871H181.441V135.871H180.441V136.871ZM180.441 141.742H179.441V142.742H180.441V141.742ZM185.312 141.742V142.742H186.312V141.742H185.312ZM185.312 136.871V135.871H184.312V136.871H185.312ZM190.184 136.871V137.871H191.184V136.871H190.184ZM190.184 132H191.184V131H190.184V132ZM185.312 132H184.312V133H185.312V132ZM185.312 127.242H186.312V126.242H185.312V127.242ZM180.441 127.242H179.441V128.242H180.441V127.242ZM180.441 122.371V121.371H179.441V122.371H180.441ZM185.312 122.371V123.371H186.312V122.371H185.312ZM185.312 117.5V116.5H184.312V117.5H185.312ZM194.941 117.5H195.941V116.5H194.941V117.5ZM194.941 122.371H193.941V123.371H194.941V122.371ZM199.812 122.371H200.812V121.371H199.812V122.371ZM199.812 136.871V137.871H200.812V136.871H199.812ZM194.941 136.871V135.871H193.941V136.871H194.941ZM194.941 141.742V142.742H195.941V141.742H194.941ZM190.184 141.742V140.742H189.184V141.742H190.184ZM190.184 146.5V147.5H191.184V146.5H190.184ZM175.684 146.5H174.684V147.5H175.684V146.5ZM175.684 141.742H176.684V140.742H175.684V141.742ZM170.812 141.742H169.812V142.742H170.812V141.742ZM170.812 136.871H171.812V135.871H170.812V136.871ZM165.941 136.871H164.941V137.871H165.941V136.871ZM165.941 132H166.941V131H165.941V132ZM161.184 132H160.184V133H161.184V132ZM161.184 117.5H162.184V116.5H161.184V117.5ZM156.312 117.5V116.5H155.312V117.5H156.312ZM156.312 151.371H155.312V152.371H156.312V151.371ZM161.184 151.371H162.184V150.371H161.184V151.371ZM161.184 161H160.184V162H161.184V161ZM165.941 161H166.941V160H165.941V161ZM165.941 165.871H164.941V166.871H165.941V165.871ZM170.812 165.871H171.812V164.871H170.812V165.871ZM170.812 170.742H169.812V171.742H170.812V170.742ZM175.684 170.742H176.684V169.742H175.684V170.742ZM175.684 175.5H174.684V176.5H175.684V175.5ZM180.441 175.5H181.441V174.5H180.441V175.5ZM180.441 180.371H179.441V181.371H180.441V180.371ZM194.941 180.371H195.941V179.371H194.941V180.371ZM194.941 185.242H193.941V186.242H194.941V185.242ZM204.684 185.242V186.242H205.684V185.242H204.684ZM204.684 180.371V179.371H203.684V180.371H204.684ZM219.184 180.371V181.371H220.184V180.371H219.184ZM219.184 170.742V169.742H218.184V170.742H219.184ZM223.941 170.742V171.742H224.941V170.742H223.941ZM223.941 161V160H222.941V161H223.941ZM228.812 161V162H229.812V161H228.812ZM228.812 141.742H229.812V140.742H228.812V141.742ZM223.941 141.742H222.941V142.742H223.941V141.742ZM223.941 127.242H224.941V126.242H223.941V127.242ZM219.184 127.242H218.184V128.242H219.184V127.242ZM219.184 122.371H220.184V121.371H219.184V122.371ZM214.312 122.371H213.312V123.371H214.312V122.371ZM214.312 117.5H215.312V116.5H214.312V117.5ZM209.441 117.5H208.441V118.5H209.441V117.5ZM209.441 112.742H210.441V111.742H209.441V112.742ZM176.684 98.2422V93.3711H174.684V98.2422H176.684ZM175.684 94.3711H219.184V92.3711H175.684V94.3711ZM218.184 93.3711V98.2422H220.184V93.3711H218.184ZM219.184 99.2422H223.941V97.2422H219.184V99.2422ZM222.941 98.2422V103H224.941V98.2422H222.941ZM223.941 104H228.812V102H223.941V104ZM227.812 103V107.871H229.812V103H227.812ZM228.812 108.871H233.684V106.871H228.812V108.871ZM232.684 107.871V117.5H234.684V107.871H232.684ZM233.684 118.5H238.441V116.5H233.684V118.5ZM237.441 117.5V132H239.441V117.5H237.441ZM238.441 133H243.312V131H238.441V133ZM242.312 132V151.371H244.312V132H242.312ZM243.312 150.371H238.441V152.371H243.312V150.371ZM237.441 151.371V165.871H239.441V151.371H237.441ZM238.441 164.871H233.684V166.871H238.441V164.871ZM232.684 165.871V175.5H234.684V165.871H232.684ZM233.684 174.5H228.812V176.5H233.684V174.5ZM227.812 175.5V180.371H229.812V175.5H227.812ZM228.812 179.371H223.941V181.371H228.812V179.371ZM222.941 180.371V185.242H224.941V180.371H222.941ZM223.941 184.242H214.312V186.242H223.941V184.242ZM213.312 185.242V190H215.312V185.242H213.312ZM214.312 189H199.812V191H214.312V189ZM198.812 190V194.871H200.812V190H198.812ZM199.812 193.871H185.312V195.871H199.812V193.871ZM186.312 194.871V190H184.312V194.871H186.312ZM185.312 189H165.941V191H185.312V189ZM166.941 190V185.242H164.941V190H166.941ZM165.941 184.242H161.184V186.242H165.941V184.242ZM162.184 185.242V180.371H160.184V185.242H162.184ZM161.184 179.371H151.441V181.371H161.184V179.371ZM152.441 180.371V170.742H150.441V180.371H152.441ZM151.441 169.742H146.684V171.742H151.441V169.742ZM147.684 170.742V165.871H145.684V170.742H147.684ZM146.684 164.871H141.812V166.871H146.684V164.871ZM142.812 165.871V122.371H140.812V165.871H142.812ZM141.812 123.371H146.684V121.371H141.812V123.371ZM147.684 122.371V112.742H145.684V122.371H147.684ZM146.684 113.742H151.441V111.742H146.684V113.742ZM152.441 112.742V107.871H150.441V112.742H152.441ZM151.441 108.871H156.312V106.871H151.441V108.871ZM157.312 107.871V103H155.312V107.871H157.312ZM156.312 104H161.184V102H156.312V104ZM162.184 103V98.2422H160.184V103H162.184ZM161.184 99.2422H165.941V97.2422H161.184V99.2422ZM164.941 98.2422V103H166.941V98.2422H164.941ZM165.941 104H170.812V102H165.941V104ZM171.812 103V98.2422H169.812V103H171.812ZM170.812 99.2422H175.684V97.2422H170.812V99.2422ZM166.941 107.848L166.828 102.977L164.828 103.023L164.942 107.894L166.941 107.848ZM165.828 102H161.07V104H165.828V102ZM160.071 103.023L160.184 107.894L162.183 107.848L162.07 102.977L160.071 103.023ZM161.184 108.871H165.941V106.871H161.184V108.871ZM200.812 112.742V107.871H198.812V112.742H200.812ZM199.812 106.871H185.312V108.871H199.812V106.871ZM184.312 107.871V112.742H186.312V107.871H184.312ZM185.312 111.742H175.684V113.742H185.312V111.742ZM174.684 112.742V122.371H176.684V112.742H174.684ZM175.684 121.371H170.812V123.371H175.684V121.371ZM169.812 122.371V132H171.812V122.371H169.812ZM170.812 133H175.684V131H170.812V133ZM174.684 132V136.871H176.684V132H174.684ZM175.684 137.871H180.441V135.871H175.684V137.871ZM179.441 136.871V141.742H181.441V136.871H179.441ZM180.441 142.742H185.312V140.742H180.441V142.742ZM186.312 141.742V136.871H184.312V141.742H186.312ZM185.312 137.871H190.184V135.871H185.312V137.871ZM191.184 136.871V132H189.184V136.871H191.184ZM190.184 131H185.312V133H190.184V131ZM186.312 132V127.242H184.312V132H186.312ZM185.312 126.242H180.441V128.242H185.312V126.242ZM181.441 127.242V122.371H179.441V127.242H181.441ZM180.441 123.371H185.312V121.371H180.441V123.371ZM186.312 122.371V117.5H184.312V122.371H186.312ZM185.312 118.5H194.941V116.5H185.312V118.5ZM193.941 117.5V122.371H195.941V117.5H193.941ZM194.941 123.371H199.812V121.371H194.941V123.371ZM198.812 122.371V136.871H200.812V122.371H198.812ZM199.812 135.871H194.941V137.871H199.812V135.871ZM193.941 136.871V141.742H195.941V136.871H193.941ZM194.941 140.742H190.184V142.742H194.941V140.742ZM189.184 141.742V146.5H191.184V141.742H189.184ZM190.184 145.5H175.684V147.5H190.184V145.5ZM176.684 146.5V141.742H174.684V146.5H176.684ZM175.684 140.742H170.812V142.742H175.684V140.742ZM171.812 141.742V136.871H169.812V141.742H171.812ZM170.812 135.871H165.941V137.871H170.812V135.871ZM166.941 136.871V132H164.941V136.871H166.941ZM165.941 131H161.184V133H165.941V131ZM162.184 132V117.5H160.184V132H162.184ZM161.184 116.5H156.312V118.5H161.184V116.5ZM155.312 117.5V151.371H157.312V117.5H155.312ZM156.312 152.371H161.184V150.371H156.312V152.371ZM160.184 151.371V161H162.184V151.371H160.184ZM161.184 162H165.941V160H161.184V162ZM164.941 161V165.871H166.941V161H164.941ZM165.941 166.871H170.812V164.871H165.941V166.871ZM169.812 165.871V170.742H171.812V165.871H169.812ZM170.812 171.742H175.684V169.742H170.812V171.742ZM174.684 170.742V175.5H176.684V170.742H174.684ZM175.684 176.5H180.441V174.5H175.684V176.5ZM179.441 175.5V180.371H181.441V175.5H179.441ZM180.441 181.371H194.941V179.371H180.441V181.371ZM193.941 180.371V185.242H195.941V180.371H193.941ZM194.941 186.242H204.684V184.242H194.941V186.242ZM205.684 185.242V180.371H203.684V185.242H205.684ZM204.684 181.371H219.184V179.371H204.684V181.371ZM220.184 180.371V170.742H218.184V180.371H220.184ZM219.184 171.742H223.941V169.742H219.184V171.742ZM224.941 170.742V161H222.941V170.742H224.941ZM223.941 162H228.812V160H223.941V162ZM229.812 161V141.742H227.812V161H229.812ZM228.812 140.742H223.941V142.742H228.812V140.742ZM224.941 141.742V127.242H222.941V141.742H224.941ZM223.941 126.242H219.184V128.242H223.941V126.242ZM220.184 127.242V122.371H218.184V127.242H220.184ZM219.184 121.371H214.312V123.371H219.184V121.371ZM215.312 122.371V117.5H213.312V122.371H215.312ZM214.312 116.5H209.441V118.5H214.312V116.5ZM210.441 117.5V112.742H208.441V117.5H210.441ZM209.441 111.742H199.812V113.742H209.441V111.742ZM249.656 98.2422H248.656V99.2422H249.656V98.2422ZM249.656 93.3711V92.3711H248.656V93.3711H249.656ZM307.656 93.3711H308.656V92.3711H307.656V93.3711ZM307.656 98.2422H306.656V99.2422H307.656V98.2422ZM322.156 98.2422H323.156V97.2422H322.156V98.2422ZM322.156 103H321.156V104H322.156V103ZM331.785 103H332.785V102H331.785V103ZM331.785 107.871H330.785V108.871H331.785V107.871ZM336.656 107.871H337.656V106.871H336.656V107.871ZM336.656 127.242V128.242H337.656V127.242H336.656ZM331.785 127.242V126.242H330.785V127.242H331.785ZM331.785 132V133H332.785V132H331.785ZM327.027 132V131H326.027V132H327.027ZM327.027 136.871V137.871H328.027V136.871H327.027ZM317.285 136.871V135.871H316.285V136.871H317.285ZM317.285 141.742V142.742H318.285V141.742H317.285ZM307.656 141.742V140.742H306.656V141.742H307.656ZM307.656 151.371H306.656V152.371H307.656V151.371ZM312.527 151.371H313.527V150.371H312.527V151.371ZM312.527 156.129H311.527V157.129H312.527V156.129ZM317.285 156.129H318.285V155.129H317.285V156.129ZM317.285 165.871H316.285V166.871H317.285V165.871ZM322.156 165.871H323.156V164.871H322.156V165.871ZM322.156 170.629H321.156V171.629H322.156V170.629ZM327.027 170.629H328.027V169.629H327.027V170.629ZM327.027 180.371H326.027V181.371H327.027V180.371ZM331.785 180.371H332.785V179.371H331.785V180.371ZM331.785 185.129H330.785V186.129H331.785V185.129ZM336.656 185.129H337.656V184.129H336.656V185.129ZM336.656 190V191H337.656V190H336.656ZM302.785 190H301.785V191H302.785V190ZM302.785 175.5H303.785V174.5H302.785V175.5ZM298.027 175.5H297.027V176.5H298.027V175.5ZM298.027 165.871H299.027V164.871H298.027V165.871ZM293.156 165.871H292.156V166.871H293.156V165.871ZM293.156 156.129H294.156V155.129H293.156V156.129ZM288.285 156.129H287.285V157.129H288.285V156.129ZM288.285 146.5H289.285V145.5H288.285V146.5ZM283.527 146.5H282.527V147.5H283.527V146.5ZM283.527 141.742H284.527V140.742H283.527V141.742ZM273.785 141.742V140.742H272.785V141.742H273.785ZM273.785 185.129H272.785V186.129H273.785V185.129ZM278.656 185.129H279.656V184.129H278.656V185.129ZM278.656 190V191H279.656V190H278.656ZM249.656 190H248.656V191H249.656V190ZM249.656 185.129V184.129H248.656V185.129H249.656ZM254.527 185.129V186.129H255.527V185.129H254.527ZM254.527 98.2422H255.527V97.2422H254.527V98.2422ZM293.156 107.871H292.156V108.871H293.156V107.871ZM293.156 103H294.156V102H293.156V103ZM273.785 103V102H272.785V103H273.785ZM273.785 132H272.785V133H273.785V132ZM307.656 132V133H308.656V132H307.656ZM307.656 127.242V126.242H306.656V127.242H307.656ZM312.527 127.242V128.242H313.527V127.242H312.527ZM312.527 112.742H313.527V111.742H312.527V112.742ZM307.656 112.742H306.656V113.742H307.656V112.742ZM307.656 107.871H308.656V106.871H307.656V107.871ZM250.656 98.2422V93.3711H248.656V98.2422H250.656ZM249.656 94.3711H307.656V92.3711H249.656V94.3711ZM306.656 93.3711V98.2422H308.656V93.3711H306.656ZM307.656 99.2422H322.156V97.2422H307.656V99.2422ZM321.156 98.2422V103H323.156V98.2422H321.156ZM322.156 104H331.785V102H322.156V104ZM330.785 103V107.871H332.785V103H330.785ZM331.785 108.871H336.656V106.871H331.785V108.871ZM335.656 107.871V127.242H337.656V107.871H335.656ZM336.656 126.242H331.785V128.242H336.656V126.242ZM330.785 127.242V132H332.785V127.242H330.785ZM331.785 131H327.027V133H331.785V131ZM326.027 132V136.871H328.027V132H326.027ZM327.027 135.871H317.285V137.871H327.027V135.871ZM316.285 136.871V141.742H318.285V136.871H316.285ZM317.285 140.742H307.656V142.742H317.285V140.742ZM306.656 141.742V151.371H308.656V141.742H306.656ZM307.656 152.371H312.527V150.371H307.656V152.371ZM311.527 151.371V156.129H313.527V151.371H311.527ZM312.527 157.129H317.285V155.129H312.527V157.129ZM316.285 156.129V165.871H318.285V156.129H316.285ZM317.285 166.871H322.156V164.871H317.285V166.871ZM321.156 165.871V170.629H323.156V165.871H321.156ZM322.156 171.629H327.027V169.629H322.156V171.629ZM326.027 170.629V180.371H328.027V170.629H326.027ZM327.027 181.371H331.785V179.371H327.027V181.371ZM330.785 180.371V185.129H332.785V180.371H330.785ZM331.785 186.129H336.656V184.129H331.785V186.129ZM335.656 185.129V190H337.656V185.129H335.656ZM336.656 189H302.785V191H336.656V189ZM303.785 190V175.5H301.785V190H303.785ZM302.785 174.5H298.027V176.5H302.785V174.5ZM299.027 175.5V165.871H297.027V175.5H299.027ZM298.027 164.871H293.156V166.871H298.027V164.871ZM294.156 165.871V156.129H292.156V165.871H294.156ZM293.156 155.129H288.285V157.129H293.156V155.129ZM289.285 156.129V146.5H287.285V156.129H289.285ZM288.285 145.5H283.527V147.5H288.285V145.5ZM284.527 146.5V141.742H282.527V146.5H284.527ZM283.527 140.742H273.785V142.742H283.527V140.742ZM272.785 141.742V185.129H274.785V141.742H272.785ZM273.785 186.129H278.656V184.129H273.785V186.129ZM277.656 185.129V190H279.656V185.129H277.656ZM278.656 189H249.656V191H278.656V189ZM250.656 190V185.129H248.656V190H250.656ZM249.656 186.129H254.527V184.129H249.656V186.129ZM255.527 185.129V98.2422H253.527V185.129H255.527ZM254.527 97.2422H249.656V99.2422H254.527V97.2422ZM294.156 107.871V103H292.156V107.871H294.156ZM293.156 102H273.785V104H293.156V102ZM272.785 103V132H274.785V103H272.785ZM273.785 133H307.656V131H273.785V133ZM308.656 132V127.242H306.656V132H308.656ZM307.656 128.242H312.527V126.242H307.656V128.242ZM313.527 127.242V112.742H311.527V127.242H313.527ZM312.527 111.742H307.656V113.742H312.527V111.742ZM308.656 112.742V107.871H306.656V112.742H308.656ZM307.656 106.871H293.156V108.871H307.656V106.871ZM339.602 98.2422H338.602V99.2422H339.602V98.2422ZM339.602 93.3711V92.3711H338.602V93.3711H339.602ZM412.102 93.3711H413.102V92.3711H412.102V93.3711ZM412.102 103H411.102V104H412.102V103ZM416.973 103H417.973V102H416.973V103ZM416.973 107.871H415.973V108.871H416.973V107.871ZM421.73 107.871H422.73V106.871H421.73V107.871ZM421.73 117.5V118.5H422.73V117.5H421.73ZM407.23 117.5H406.23V118.5H407.23V117.5ZM407.23 112.742H408.23V111.742H407.23V112.742ZM397.602 112.742H396.602V113.742H397.602V112.742ZM397.602 107.871H398.602V106.871H397.602V107.871ZM387.973 107.871H386.973V108.871H387.973V107.871ZM387.973 103H388.973V102H387.973V103ZM363.73 103V102H362.73V103H363.73ZM363.73 132H362.73V133H363.73V132ZM392.73 132V133H393.73V132H392.73ZM392.73 127.242V126.242H391.73V127.242H392.73ZM402.473 127.242V128.242H403.473V127.242H402.473ZM402.473 122.371V121.371H401.473V122.371H402.473ZM407.23 122.371H408.23V121.371H407.23V122.371ZM407.23 136.871H406.23V137.871H407.23V136.871ZM412.102 136.871H413.102V135.871H412.102V136.871ZM412.102 146.5H411.102V147.5H412.102V146.5ZM416.973 146.5H417.973V145.5H416.973V146.5ZM416.973 156.242V157.242H417.973V156.242H416.973ZM412.102 156.242H411.102V157.242H412.102V156.242ZM412.102 151.371H413.102V150.371H412.102V151.371ZM407.23 151.371H406.23V152.371H407.23V151.371ZM407.23 146.5H408.23V145.5H407.23V146.5ZM397.602 146.5H396.602V147.5H397.602V146.5ZM397.602 141.742H398.602V140.742H397.602V141.742ZM368.602 141.742H367.602V142.742H368.602V141.742ZM368.602 136.871H369.602V135.871H368.602V136.871ZM363.73 136.871V135.871H362.73V136.871H363.73ZM363.73 185.242H362.73V186.242H363.73V185.242ZM378.23 185.242V186.242H379.23V185.242H378.23ZM378.23 180.371V179.371H377.23V180.371H378.23ZM392.73 180.371V181.371H393.73V180.371H392.73ZM392.73 175.5V174.5H391.73V175.5H392.73ZM402.473 175.5V176.5H403.473V175.5H402.473ZM402.473 170.742V169.742H401.473V170.742H402.473ZM416.973 170.742V171.742H417.973V170.742H416.973ZM416.973 165.871V164.871H415.973V165.871H416.973ZM426.602 165.871H427.602V164.871H426.602V165.871ZM426.602 175.5V176.5H427.602V175.5H426.602ZM421.73 175.5V174.5H420.73V175.5H421.73ZM421.73 180.371V181.371H422.73V180.371H421.73ZM416.973 180.371V179.371H415.973V180.371H416.973ZM416.973 194.871V195.871H417.973V194.871H416.973ZM412.102 194.871H411.102V195.871H412.102V194.871ZM412.102 190H413.102V189H412.102V190ZM339.602 190H338.602V191H339.602V190ZM339.602 185.242V184.242H338.602V185.242H339.602ZM344.473 185.242V186.242H345.473V185.242H344.473ZM344.473 98.2422H345.473V97.2422H344.473V98.2422ZM340.602 98.2422V93.3711H338.602V98.2422H340.602ZM339.602 94.3711H412.102V92.3711H339.602V94.3711ZM411.102 93.3711V103H413.102V93.3711H411.102ZM412.102 104H416.973V102H412.102V104ZM415.973 103V107.871H417.973V103H415.973ZM416.973 108.871H421.73V106.871H416.973V108.871ZM420.73 107.871V117.5H422.73V107.871H420.73ZM421.73 116.5H407.23V118.5H421.73V116.5ZM408.23 117.5V112.742H406.23V117.5H408.23ZM407.23 111.742H397.602V113.742H407.23V111.742ZM398.602 112.742V107.871H396.602V112.742H398.602ZM397.602 106.871H387.973V108.871H397.602V106.871ZM388.973 107.871V103H386.973V107.871H388.973ZM387.973 102H363.73V104H387.973V102ZM362.73 103V132H364.73V103H362.73ZM363.73 133H392.73V131H363.73V133ZM393.73 132V127.242H391.73V132H393.73ZM392.73 128.242H402.473V126.242H392.73V128.242ZM403.473 127.242V122.371H401.473V127.242H403.473ZM402.473 123.371H407.23V121.371H402.473V123.371ZM406.23 122.371V136.871H408.23V122.371H406.23ZM407.23 137.871H412.102V135.871H407.23V137.871ZM411.102 136.871V146.5H413.102V136.871H411.102ZM412.102 147.5H416.973V145.5H412.102V147.5ZM415.973 146.5V156.242H417.973V146.5H415.973ZM416.973 155.242H412.102V157.242H416.973V155.242ZM413.102 156.242V151.371H411.102V156.242H413.102ZM412.102 150.371H407.23V152.371H412.102V150.371ZM408.23 151.371V146.5H406.23V151.371H408.23ZM407.23 145.5H397.602V147.5H407.23V145.5ZM398.602 146.5V141.742H396.602V146.5H398.602ZM397.602 140.742H368.602V142.742H397.602V140.742ZM369.602 141.742V136.871H367.602V141.742H369.602ZM368.602 135.871H363.73V137.871H368.602V135.871ZM362.73 136.871V185.242H364.73V136.871H362.73ZM363.73 186.242H378.23V184.242H363.73V186.242ZM379.23 185.242V180.371H377.23V185.242H379.23ZM378.23 181.371H392.73V179.371H378.23V181.371ZM393.73 180.371V175.5H391.73V180.371H393.73ZM392.73 176.5H402.473V174.5H392.73V176.5ZM403.473 175.5V170.742H401.473V175.5H403.473ZM402.473 171.742H416.973V169.742H402.473V171.742ZM417.973 170.742V165.871H415.973V170.742H417.973ZM416.973 166.871H426.602V164.871H416.973V166.871ZM425.602 165.871V175.5H427.602V165.871H425.602ZM426.602 174.5H421.73V176.5H426.602V174.5ZM420.73 175.5V180.371H422.73V175.5H420.73ZM421.73 179.371H416.973V181.371H421.73V179.371ZM415.973 180.371V194.871H417.973V180.371H415.973ZM416.973 193.871H412.102V195.871H416.973V193.871ZM413.102 194.871V190H411.102V194.871H413.102ZM412.102 189H339.602V191H412.102V189ZM340.602 190V185.242H338.602V190H340.602ZM339.602 186.242H344.473V184.242H339.602V186.242ZM345.473 185.242V98.2422H343.473V185.242H345.473ZM344.473 97.2422H339.602V99.2422H344.473V97.2422Z" fill="#9A7AF2" mask="url(#path-1-outside-1_176_2183)"/>
</g>
<g filter="url(#filter1_f_176_2183)">
<mask id="path-3-outside-2_176_2183" maskUnits="userSpaceOnUse" x="33" y="48" width="416" height="116" fill="black">
<rect fill="white" x="33" y="48" width="416" height="116"/>
<path d="M34.0166 54.959V49.542H71.6836V54.959H66.2666V60.25H60.8496V151.709H71.6836V146.292H93.0996V140.875H103.808V135.584H119.933V130.167H125.35V140.875H119.933V151.709H114.642V162.417H103.808V157H34.0166V151.709H39.4336V54.959H34.0166ZM168.308 54.959V49.542H216.683V54.959H221.974V60.25H227.391V65.667H232.808V76.375H238.099V92.5H243.516V114.042H238.099V130.167H232.808V140.875H227.391V146.292H221.974V151.709H211.266V157H195.141V162.417H179.016V157H157.474V151.709H152.183V146.292H141.349V135.584H136.058V130.167H130.641V81.792H136.058V71.084H141.349V65.667H146.766V60.25H152.183V54.959H157.474V60.25H162.891V54.959H168.308ZM157.474 65.667L157.348 60.25H152.057L152.183 65.667H157.474ZM195.141 71.084V65.667H179.016V71.084H168.308V81.792H162.891V92.5H168.308V97.917H173.599V103.334H179.016V97.917H184.433V92.5H179.016V87.209H173.599V81.792H179.016V76.375H189.724V81.792H195.141V97.917H189.724V103.334H184.433V108.625H168.308V103.334H162.891V97.917H157.474V92.5H152.183V76.375H146.766V114.042H152.183V124.75H157.474V130.167H162.891V135.584H168.308V140.875H173.599V146.292H189.724V151.709H200.558V146.292H216.683V135.584H221.974V124.75H227.391V103.334H221.974V87.209H216.683V81.792H211.266V76.375H205.849V71.084H195.141ZM250.57 54.959V49.542H315.07V54.959H331.195V60.25H341.903V65.667H347.32V87.209H341.903V92.5H336.612V97.917H325.778V103.334H315.07V114.042H320.487V119.333H325.778V130.167H331.195V135.458H336.612V146.292H341.903V151.583H347.32V157H309.653V140.875H304.362V130.167H298.945V119.333H293.528V108.625H288.237V103.334H277.403V151.583H282.82V157H250.57V151.583H255.987V54.959H250.57ZM298.945 65.667V60.25H277.403V92.5H315.07V87.209H320.487V71.084H315.07V65.667H298.945ZM350.596 54.959V49.542H431.221V60.25H436.638V65.667H441.929V76.375H425.804V71.084H415.096V65.667H404.388V60.25H377.429V92.5H409.679V87.209H420.513V81.792H425.804V97.917H431.221V108.625H436.638V119.459H431.221V114.042H425.804V108.625H415.096V103.334H382.846V97.917H377.429V151.709H393.554V146.292H409.679V140.875H420.513V135.584H436.638V130.167H447.346V140.875H441.929V146.292H436.638V162.417H431.221V157H350.596V151.709H356.013V54.959H350.596Z"/>
</mask>
<path d="M34.0166 54.959V49.542H71.6836V54.959H66.2666V60.25H60.8496V151.709H71.6836V146.292H93.0996V140.875H103.808V135.584H119.933V130.167H125.35V140.875H119.933V151.709H114.642V162.417H103.808V157H34.0166V151.709H39.4336V54.959H34.0166ZM168.308 54.959V49.542H216.683V54.959H221.974V60.25H227.391V65.667H232.808V76.375H238.099V92.5H243.516V114.042H238.099V130.167H232.808V140.875H227.391V146.292H221.974V151.709H211.266V157H195.141V162.417H179.016V157H157.474V151.709H152.183V146.292H141.349V135.584H136.058V130.167H130.641V81.792H136.058V71.084H141.349V65.667H146.766V60.25H152.183V54.959H157.474V60.25H162.891V54.959H168.308ZM157.474 65.667L157.348 60.25H152.057L152.183 65.667H157.474ZM195.141 71.084V65.667H179.016V71.084H168.308V81.792H162.891V92.5H168.308V97.917H173.599V103.334H179.016V97.917H184.433V92.5H179.016V87.209H173.599V81.792H179.016V76.375H189.724V81.792H195.141V97.917H189.724V103.334H184.433V108.625H168.308V103.334H162.891V97.917H157.474V92.5H152.183V76.375H146.766V114.042H152.183V124.75H157.474V130.167H162.891V135.584H168.308V140.875H173.599V146.292H189.724V151.709H200.558V146.292H216.683V135.584H221.974V124.75H227.391V103.334H221.974V87.209H216.683V81.792H211.266V76.375H205.849V71.084H195.141ZM250.57 54.959V49.542H315.07V54.959H331.195V60.25H341.903V65.667H347.32V87.209H341.903V92.5H336.612V97.917H325.778V103.334H315.07V114.042H320.487V119.333H325.778V130.167H331.195V135.458H336.612V146.292H341.903V151.583H347.32V157H309.653V140.875H304.362V130.167H298.945V119.333H293.528V108.625H288.237V103.334H277.403V151.583H282.82V157H250.57V151.583H255.987V54.959H250.57ZM298.945 65.667V60.25H277.403V92.5H315.07V87.209H320.487V71.084H315.07V65.667H298.945ZM350.596 54.959V49.542H431.221V60.25H436.638V65.667H441.929V76.375H425.804V71.084H415.096V65.667H404.388V60.25H377.429V92.5H409.679V87.209H420.513V81.792H425.804V97.917H431.221V108.625H436.638V119.459H431.221V114.042H425.804V108.625H415.096V103.334H382.846V97.917H377.429V151.709H393.554V146.292H409.679V140.875H420.513V135.584H436.638V130.167H447.346V140.875H441.929V146.292H436.638V162.417H431.221V157H350.596V151.709H356.013V54.959H350.596Z" fill="black"/>
<path d="M34.0166 54.959H33.0166V55.959H34.0166V54.959ZM34.0166 49.542V48.542H33.0166V49.542H34.0166ZM71.6836 49.542H72.6836V48.542H71.6836V49.542ZM71.6836 54.959V55.959H72.6836V54.959H71.6836ZM66.2666 54.959V53.959H65.2666V54.959H66.2666ZM66.2666 60.25V61.25H67.2666V60.25H66.2666ZM60.8496 60.25V59.25H59.8496V60.25H60.8496ZM60.8496 151.709H59.8496V152.709H60.8496V151.709ZM71.6836 151.709V152.709H72.6836V151.709H71.6836ZM71.6836 146.292V145.292H70.6836V146.292H71.6836ZM93.0996 146.292V147.292H94.0996V146.292H93.0996ZM93.0996 140.875V139.875H92.0996V140.875H93.0996ZM103.808 140.875V141.875H104.808V140.875H103.808ZM103.808 135.584V134.584H102.808V135.584H103.808ZM119.933 135.584V136.584H120.933V135.584H119.933ZM119.933 130.167V129.167H118.933V130.167H119.933ZM125.35 130.167H126.35V129.167H125.35V130.167ZM125.35 140.875V141.875H126.35V140.875H125.35ZM119.933 140.875V139.875H118.933V140.875H119.933ZM119.933 151.709V152.709H120.933V151.709H119.933ZM114.642 151.709V150.709H113.642V151.709H114.642ZM114.642 162.417V163.417H115.642V162.417H114.642ZM103.808 162.417H102.808V163.417H103.808V162.417ZM103.808 157H104.808V156H103.808V157ZM34.0166 157H33.0166V158H34.0166V157ZM34.0166 151.709V150.709H33.0166V151.709H34.0166ZM39.4336 151.709V152.709H40.4336V151.709H39.4336ZM39.4336 54.959H40.4336V53.959H39.4336V54.959ZM35.0166 54.959V49.542H33.0166V54.959H35.0166ZM34.0166 50.542H71.6836V48.542H34.0166V50.542ZM70.6836 49.542V54.959H72.6836V49.542H70.6836ZM71.6836 53.959H66.2666V55.959H71.6836V53.959ZM65.2666 54.959V60.25H67.2666V54.959H65.2666ZM66.2666 59.25H60.8496V61.25H66.2666V59.25ZM59.8496 60.25V151.709H61.8496V60.25H59.8496ZM60.8496 152.709H71.6836V150.709H60.8496V152.709ZM72.6836 151.709V146.292H70.6836V151.709H72.6836ZM71.6836 147.292H93.0996V145.292H71.6836V147.292ZM94.0996 146.292V140.875H92.0996V146.292H94.0996ZM93.0996 141.875H103.808V139.875H93.0996V141.875ZM104.808 140.875V135.584H102.808V140.875H104.808ZM103.808 136.584H119.933V134.584H103.808V136.584ZM120.933 135.584V130.167H118.933V135.584H120.933ZM119.933 131.167H125.35V129.167H119.933V131.167ZM124.35 130.167V140.875H126.35V130.167H124.35ZM125.35 139.875H119.933V141.875H125.35V139.875ZM118.933 140.875V151.709H120.933V140.875H118.933ZM119.933 150.709H114.642V152.709H119.933V150.709ZM113.642 151.709V162.417H115.642V151.709H113.642ZM114.642 161.417H103.808V163.417H114.642V161.417ZM104.808 162.417V157H102.808V162.417H104.808ZM103.808 156H34.0166V158H103.808V156ZM35.0166 157V151.709H33.0166V157H35.0166ZM34.0166 152.709H39.4336V150.709H34.0166V152.709ZM40.4336 151.709V54.959H38.4336V151.709H40.4336ZM39.4336 53.959H34.0166V55.959H39.4336V53.959ZM168.308 54.959V55.959H169.308V54.959H168.308ZM168.308 49.542V48.542H167.308V49.542H168.308ZM216.683 49.542H217.683V48.542H216.683V49.542ZM216.683 54.959H215.683V55.959H216.683V54.959ZM221.974 54.959H222.974V53.959H221.974V54.959ZM221.974 60.25H220.974V61.25H221.974V60.25ZM227.391 60.25H228.391V59.25H227.391V60.25ZM227.391 65.667H226.391V66.667H227.391V65.667ZM232.808 65.667H233.808V64.667H232.808V65.667ZM232.808 76.375H231.808V77.375H232.808V76.375ZM238.099 76.375H239.099V75.375H238.099V76.375ZM238.099 92.5H237.099V93.5H238.099V92.5ZM243.516 92.5H244.516V91.5H243.516V92.5ZM243.516 114.042V115.042H244.516V114.042H243.516ZM238.099 114.042V113.042H237.099V114.042H238.099ZM238.099 130.167V131.167H239.099V130.167H238.099ZM232.808 130.167V129.167H231.808V130.167H232.808ZM232.808 140.875V141.875H233.808V140.875H232.808ZM227.391 140.875V139.875H226.391V140.875H227.391ZM227.391 146.292V147.292H228.391V146.292H227.391ZM221.974 146.292V145.292H220.974V146.292H221.974ZM221.974 151.709V152.709H222.974V151.709H221.974ZM211.266 151.709V150.709H210.266V151.709H211.266ZM211.266 157V158H212.266V157H211.266ZM195.141 157V156H194.141V157H195.141ZM195.141 162.417V163.417H196.141V162.417H195.141ZM179.016 162.417H178.016V163.417H179.016V162.417ZM179.016 157H180.016V156H179.016V157ZM157.474 157H156.474V158H157.474V157ZM157.474 151.709H158.474V150.709H157.474V151.709ZM152.183 151.709H151.183V152.709H152.183V151.709ZM152.183 146.292H153.183V145.292H152.183V146.292ZM141.349 146.292H140.349V147.292H141.349V146.292ZM141.349 135.584H142.349V134.584H141.349V135.584ZM136.058 135.584H135.058V136.584H136.058V135.584ZM136.058 130.167H137.058V129.167H136.058V130.167ZM130.641 130.167H129.641V131.167H130.641V130.167ZM130.641 81.792V80.792H129.641V81.792H130.641ZM136.058 81.792V82.792H137.058V81.792H136.058ZM136.058 71.084V70.084H135.058V71.084H136.058ZM141.349 71.084V72.084H142.349V71.084H141.349ZM141.349 65.667V64.667H140.349V65.667H141.349ZM146.766 65.667V66.667H147.766V65.667H146.766ZM146.766 60.25V59.25H145.766V60.25H146.766ZM152.183 60.25V61.25H153.183V60.25H152.183ZM152.183 54.959V53.959H151.183V54.959H152.183ZM157.474 54.959H158.474V53.959H157.474V54.959ZM157.474 60.25H156.474V61.25H157.474V60.25ZM162.891 60.25V61.25H163.891V60.25H162.891ZM162.891 54.959V53.959H161.891V54.959H162.891ZM157.474 65.667V66.667H158.497L158.473 65.6437L157.474 65.667ZM157.348 60.25L158.347 60.2268L158.325 59.25H157.348V60.25ZM152.057 60.25V59.25H151.033L151.057 60.2732L152.057 60.25ZM152.183 65.667L151.183 65.6902L151.206 66.667H152.183V65.667ZM195.141 71.084H194.141V72.084H195.141V71.084ZM195.141 65.667H196.141V64.667H195.141V65.667ZM179.016 65.667V64.667H178.016V65.667H179.016ZM179.016 71.084V72.084H180.016V71.084H179.016ZM168.308 71.084V70.084H167.308V71.084H168.308ZM168.308 81.792V82.792H169.308V81.792H168.308ZM162.891 81.792V80.792H161.891V81.792H162.891ZM162.891 92.5H161.891V93.5H162.891V92.5ZM168.308 92.5H169.308V91.5H168.308V92.5ZM168.308 97.917H167.308V98.917H168.308V97.917ZM173.599 97.917H174.599V96.917H173.599V97.917ZM173.599 103.334H172.599V104.334H173.599V103.334ZM179.016 103.334V104.334H180.016V103.334H179.016ZM179.016 97.917V96.917H178.016V97.917H179.016ZM184.433 97.917V98.917H185.433V97.917H184.433ZM184.433 92.5H185.433V91.5H184.433V92.5ZM179.016 92.5H178.016V93.5H179.016V92.5ZM179.016 87.209H180.016V86.209H179.016V87.209ZM173.599 87.209H172.599V88.209H173.599V87.209ZM173.599 81.792V80.792H172.599V81.792H173.599ZM179.016 81.792V82.792H180.016V81.792H179.016ZM179.016 76.375V75.375H178.016V76.375H179.016ZM189.724 76.375H190.724V75.375H189.724V76.375ZM189.724 81.792H188.724V82.792H189.724V81.792ZM195.141 81.792H196.141V80.792H195.141V81.792ZM195.141 97.917V98.917H196.141V97.917H195.141ZM189.724 97.917V96.917H188.724V97.917H189.724ZM189.724 103.334V104.334H190.724V103.334H189.724ZM184.433 103.334V102.334H183.433V103.334H184.433ZM184.433 108.625V109.625H185.433V108.625H184.433ZM168.308 108.625H167.308V109.625H168.308V108.625ZM168.308 103.334H169.308V102.334H168.308V103.334ZM162.891 103.334H161.891V104.334H162.891V103.334ZM162.891 97.917H163.891V96.917H162.891V97.917ZM157.474 97.917H156.474V98.917H157.474V97.917ZM157.474 92.5H158.474V91.5H157.474V92.5ZM152.183 92.5H151.183V93.5H152.183V92.5ZM152.183 76.375H153.183V75.375H152.183V76.375ZM146.766 76.375V75.375H145.766V76.375H146.766ZM146.766 114.042H145.766V115.042H146.766V114.042ZM152.183 114.042H153.183V113.042H152.183V114.042ZM152.183 124.75H151.183V125.75H152.183V124.75ZM157.474 124.75H158.474V123.75H157.474V124.75ZM157.474 130.167H156.474V131.167H157.474V130.167ZM162.891 130.167H163.891V129.167H162.891V130.167ZM162.891 135.584H161.891V136.584H162.891V135.584ZM168.308 135.584H169.308V134.584H168.308V135.584ZM168.308 140.875H167.308V141.875H168.308V140.875ZM173.599 140.875H174.599V139.875H173.599V140.875ZM173.599 146.292H172.599V147.292H173.599V146.292ZM189.724 146.292H190.724V145.292H189.724V146.292ZM189.724 151.709H188.724V152.709H189.724V151.709ZM200.558 151.709V152.709H201.558V151.709H200.558ZM200.558 146.292V145.292H199.558V146.292H200.558ZM216.683 146.292V147.292H217.683V146.292H216.683ZM216.683 135.584V134.584H215.683V135.584H216.683ZM221.974 135.584V136.584H222.974V135.584H221.974ZM221.974 124.75V123.75H220.974V124.75H221.974ZM227.391 124.75V125.75H228.391V124.75H227.391ZM227.391 103.334H228.391V102.334H227.391V103.334ZM221.974 103.334H220.974V104.334H221.974V103.334ZM221.974 87.209H222.974V86.209H221.974V87.209ZM216.683 87.209H215.683V88.209H216.683V87.209ZM216.683 81.792H217.683V80.792H216.683V81.792ZM211.266 81.792H210.266V82.792H211.266V81.792ZM211.266 76.375H212.266V75.375H211.266V76.375ZM205.849 76.375H204.849V77.375H205.849V76.375ZM205.849 71.084H206.849V70.084H205.849V71.084ZM169.308 54.959V49.542H167.308V54.959H169.308ZM168.308 50.542H216.683V48.542H168.308V50.542ZM215.683 49.542V54.959H217.683V49.542H215.683ZM216.683 55.959H221.974V53.959H216.683V55.959ZM220.974 54.959V60.25H222.974V54.959H220.974ZM221.974 61.25H227.391V59.25H221.974V61.25ZM226.391 60.25V65.667H228.391V60.25H226.391ZM227.391 66.667H232.808V64.667H227.391V66.667ZM231.808 65.667V76.375H233.808V65.667H231.808ZM232.808 77.375H238.099V75.375H232.808V77.375ZM237.099 76.375V92.5H239.099V76.375H237.099ZM238.099 93.5H243.516V91.5H238.099V93.5ZM242.516 92.5V114.042H244.516V92.5H242.516ZM243.516 113.042H238.099V115.042H243.516V113.042ZM237.099 114.042V130.167H239.099V114.042H237.099ZM238.099 129.167H232.808V131.167H238.099V129.167ZM231.808 130.167V140.875H233.808V130.167H231.808ZM232.808 139.875H227.391V141.875H232.808V139.875ZM226.391 140.875V146.292H228.391V140.875H226.391ZM227.391 145.292H221.974V147.292H227.391V145.292ZM220.974 146.292V151.709H222.974V146.292H220.974ZM221.974 150.709H211.266V152.709H221.974V150.709ZM210.266 151.709V157H212.266V151.709H210.266ZM211.266 156H195.141V158H211.266V156ZM194.141 157V162.417H196.141V157H194.141ZM195.141 161.417H179.016V163.417H195.141V161.417ZM180.016 162.417V157H178.016V162.417H180.016ZM179.016 156H157.474V158H179.016V156ZM158.474 157V151.709H156.474V157H158.474ZM157.474 150.709H152.183V152.709H157.474V150.709ZM153.183 151.709V146.292H151.183V151.709H153.183ZM152.183 145.292H141.349V147.292H152.183V145.292ZM142.349 146.292V135.584H140.349V146.292H142.349ZM141.349 134.584H136.058V136.584H141.349V134.584ZM137.058 135.584V130.167H135.058V135.584H137.058ZM136.058 129.167H130.641V131.167H136.058V129.167ZM131.641 130.167V81.792H129.641V130.167H131.641ZM130.641 82.792H136.058V80.792H130.641V82.792ZM137.058 81.792V71.084H135.058V81.792H137.058ZM136.058 72.084H141.349V70.084H136.058V72.084ZM142.349 71.084V65.667H140.349V71.084H142.349ZM141.349 66.667H146.766V64.667H141.349V66.667ZM147.766 65.667V60.25H145.766V65.667H147.766ZM146.766 61.25H152.183V59.25H146.766V61.25ZM153.183 60.25V54.959H151.183V60.25H153.183ZM152.183 55.959H157.474V53.959H152.183V55.959ZM156.474 54.959V60.25H158.474V54.959H156.474ZM157.474 61.25H162.891V59.25H157.474V61.25ZM163.891 60.25V54.959H161.891V60.25H163.891ZM162.891 55.959H168.308V53.959H162.891V55.959ZM158.473 65.6437L158.347 60.2268L156.348 60.2732L156.474 65.6902L158.473 65.6437ZM157.348 59.25H152.057V61.25H157.348V59.25ZM151.057 60.2732L151.183 65.6902L153.182 65.6437L153.056 60.2268L151.057 60.2732ZM152.183 66.667H157.474V64.667H152.183V66.667ZM196.141 71.084V65.667H194.141V71.084H196.141ZM195.141 64.667H179.016V66.667H195.141V64.667ZM178.016 65.667V71.084H180.016V65.667H178.016ZM179.016 70.084H168.308V72.084H179.016V70.084ZM167.308 71.084V81.792H169.308V71.084H167.308ZM168.308 80.792H162.891V82.792H168.308V80.792ZM161.891 81.792V92.5H163.891V81.792H161.891ZM162.891 93.5H168.308V91.5H162.891V93.5ZM167.308 92.5V97.917H169.308V92.5H167.308ZM168.308 98.917H173.599V96.917H168.308V98.917ZM172.599 97.917V103.334H174.599V97.917H172.599ZM173.599 104.334H179.016V102.334H173.599V104.334ZM180.016 103.334V97.917H178.016V103.334H180.016ZM179.016 98.917H184.433V96.917H179.016V98.917ZM185.433 97.917V92.5H183.433V97.917H185.433ZM184.433 91.5H179.016V93.5H184.433V91.5ZM180.016 92.5V87.209H178.016V92.5H180.016ZM179.016 86.209H173.599V88.209H179.016V86.209ZM174.599 87.209V81.792H172.599V87.209H174.599ZM173.599 82.792H179.016V80.792H173.599V82.792ZM180.016 81.792V76.375H178.016V81.792H180.016ZM179.016 77.375H189.724V75.375H179.016V77.375ZM188.724 76.375V81.792H190.724V76.375H188.724ZM189.724 82.792H195.141V80.792H189.724V82.792ZM194.141 81.792V97.917H196.141V81.792H194.141ZM195.141 96.917H189.724V98.917H195.141V96.917ZM188.724 97.917V103.334H190.724V97.917H188.724ZM189.724 102.334H184.433V104.334H189.724V102.334ZM183.433 103.334V108.625H185.433V103.334H183.433ZM184.433 107.625H168.308V109.625H184.433V107.625ZM169.308 108.625V103.334H167.308V108.625H169.308ZM168.308 102.334H162.891V104.334H168.308V102.334ZM163.891 103.334V97.917H161.891V103.334H163.891ZM162.891 96.917H157.474V98.917H162.891V96.917ZM158.474 97.917V92.5H156.474V97.917H158.474ZM157.474 91.5H152.183V93.5H157.474V91.5ZM153.183 92.5V76.375H151.183V92.5H153.183ZM152.183 75.375H146.766V77.375H152.183V75.375ZM145.766 76.375V114.042H147.766V76.375H145.766ZM146.766 115.042H152.183V113.042H146.766V115.042ZM151.183 114.042V124.75H153.183V114.042H151.183ZM152.183 125.75H157.474V123.75H152.183V125.75ZM156.474 124.75V130.167H158.474V124.75H156.474ZM157.474 131.167H162.891V129.167H157.474V131.167ZM161.891 130.167V135.584H163.891V130.167H161.891ZM162.891 136.584H168.308V134.584H162.891V136.584ZM167.308 135.584V140.875H169.308V135.584H167.308ZM168.308 141.875H173.599V139.875H168.308V141.875ZM172.599 140.875V146.292H174.599V140.875H172.599ZM173.599 147.292H189.724V145.292H173.599V147.292ZM188.724 146.292V151.709H190.724V146.292H188.724ZM189.724 152.709H200.558V150.709H189.724V152.709ZM201.558 151.709V146.292H199.558V151.709H201.558ZM200.558 147.292H216.683V145.292H200.558V147.292ZM217.683 146.292V135.584H215.683V146.292H217.683ZM216.683 136.584H221.974V134.584H216.683V136.584ZM222.974 135.584V124.75H220.974V135.584H222.974ZM221.974 125.75H227.391V123.75H221.974V125.75ZM228.391 124.75V103.334H226.391V124.75H228.391ZM227.391 102.334H221.974V104.334H227.391V102.334ZM222.974 103.334V87.209H220.974V103.334H222.974ZM221.974 86.209H216.683V88.209H221.974V86.209ZM217.683 87.209V81.792H215.683V87.209H217.683ZM216.683 80.792H211.266V82.792H216.683V80.792ZM212.266 81.792V76.375H210.266V81.792H212.266ZM211.266 75.375H205.849V77.375H211.266V75.375ZM206.849 76.375V71.084H204.849V76.375H206.849ZM205.849 70.084H195.141V72.084H205.849V70.084ZM250.57 54.959H249.57V55.959H250.57V54.959ZM250.57 49.542V48.542H249.57V49.542H250.57ZM315.07 49.542H316.07V48.542H315.07V49.542ZM315.07 54.959H314.07V55.959H315.07V54.959ZM331.195 54.959H332.195V53.959H331.195V54.959ZM331.195 60.25H330.195V61.25H331.195V60.25ZM341.903 60.25H342.903V59.25H341.903V60.25ZM341.903 65.667H340.903V66.667H341.903V65.667ZM347.32 65.667H348.32V64.667H347.32V65.667ZM347.32 87.209V88.209H348.32V87.209H347.32ZM341.903 87.209V86.209H340.903V87.209H341.903ZM341.903 92.5V93.5H342.903V92.5H341.903ZM336.612 92.5V91.5H335.612V92.5H336.612ZM336.612 97.917V98.917H337.612V97.917H336.612ZM325.778 97.917V96.917H324.778V97.917H325.778ZM325.778 103.334V104.334H326.778V103.334H325.778ZM315.07 103.334V102.334H314.07V103.334H315.07ZM315.07 114.042H314.07V115.042H315.07V114.042ZM320.487 114.042H321.487V113.042H320.487V114.042ZM320.487 119.333H319.487V120.333H320.487V119.333ZM325.778 119.333H326.778V118.333H325.778V119.333ZM325.778 130.167H324.778V131.167H325.778V130.167ZM331.195 130.167H332.195V129.167H331.195V130.167ZM331.195 135.458H330.195V136.458H331.195V135.458ZM336.612 135.458H337.612V134.458H336.612V135.458ZM336.612 146.292H335.612V147.292H336.612V146.292ZM341.903 146.292H342.903V145.292H341.903V146.292ZM341.903 151.583H340.903V152.583H341.903V151.583ZM347.32 151.583H348.32V150.583H347.32V151.583ZM347.32 157V158H348.32V157H347.32ZM309.653 157H308.653V158H309.653V157ZM309.653 140.875H310.653V139.875H309.653V140.875ZM304.362 140.875H303.362V141.875H304.362V140.875ZM304.362 130.167H305.362V129.167H304.362V130.167ZM298.945 130.167H297.945V131.167H298.945V130.167ZM298.945 119.333H299.945V118.333H298.945V119.333ZM293.528 119.333H292.528V120.333H293.528V119.333ZM293.528 108.625H294.528V107.625H293.528V108.625ZM288.237 108.625H287.237V109.625H288.237V108.625ZM288.237 103.334H289.237V102.334H288.237V103.334ZM277.403 103.334V102.334H276.403V103.334H277.403ZM277.403 151.583H276.403V152.583H277.403V151.583ZM282.82 151.583H283.82V150.583H282.82V151.583ZM282.82 157V158H283.82V157H282.82ZM250.57 157H249.57V158H250.57V157ZM250.57 151.583V150.583H249.57V151.583H250.57ZM255.987 151.583V152.583H256.987V151.583H255.987ZM255.987 54.959H256.987V53.959H255.987V54.959ZM298.945 65.667H297.945V66.667H298.945V65.667ZM298.945 60.25H299.945V59.25H298.945V60.25ZM277.403 60.25V59.25H276.403V60.25H277.403ZM277.403 92.5H276.403V93.5H277.403V92.5ZM315.07 92.5V93.5H316.07V92.5H315.07ZM315.07 87.209V86.209H314.07V87.209H315.07ZM320.487 87.209V88.209H321.487V87.209H320.487ZM320.487 71.084H321.487V70.084H320.487V71.084ZM315.07 71.084H314.07V72.084H315.07V71.084ZM315.07 65.667H316.07V64.667H315.07V65.667ZM251.57 54.959V49.542H249.57V54.959H251.57ZM250.57 50.542H315.07V48.542H250.57V50.542ZM314.07 49.542V54.959H316.07V49.542H314.07ZM315.07 55.959H331.195V53.959H315.07V55.959ZM330.195 54.959V60.25H332.195V54.959H330.195ZM331.195 61.25H341.903V59.25H331.195V61.25ZM340.903 60.25V65.667H342.903V60.25H340.903ZM341.903 66.667H347.32V64.667H341.903V66.667ZM346.32 65.667V87.209H348.32V65.667H346.32ZM347.32 86.209H341.903V88.209H347.32V86.209ZM340.903 87.209V92.5H342.903V87.209H340.903ZM341.903 91.5H336.612V93.5H341.903V91.5ZM335.612 92.5V97.917H337.612V92.5H335.612ZM336.612 96.917H325.778V98.917H336.612V96.917ZM324.778 97.917V103.334H326.778V97.917H324.778ZM325.778 102.334H315.07V104.334H325.778V102.334ZM314.07 103.334V114.042H316.07V103.334H314.07ZM315.07 115.042H320.487V113.042H315.07V115.042ZM319.487 114.042V119.333H321.487V114.042H319.487ZM320.487 120.333H325.778V118.333H320.487V120.333ZM324.778 119.333V130.167H326.778V119.333H324.778ZM325.778 131.167H331.195V129.167H325.778V131.167ZM330.195 130.167V135.458H332.195V130.167H330.195ZM331.195 136.458H336.612V134.458H331.195V136.458ZM335.612 135.458V146.292H337.612V135.458H335.612ZM336.612 147.292H341.903V145.292H336.612V147.292ZM340.903 146.292V151.583H342.903V146.292H340.903ZM341.903 152.583H347.32V150.583H341.903V152.583ZM346.32 151.583V157H348.32V151.583H346.32ZM347.32 156H309.653V158H347.32V156ZM310.653 157V140.875H308.653V157H310.653ZM309.653 139.875H304.362V141.875H309.653V139.875ZM305.362 140.875V130.167H303.362V140.875H305.362ZM304.362 129.167H298.945V131.167H304.362V129.167ZM299.945 130.167V119.333H297.945V130.167H299.945ZM298.945 118.333H293.528V120.333H298.945V118.333ZM294.528 119.333V108.625H292.528V119.333H294.528ZM293.528 107.625H288.237V109.625H293.528V107.625ZM289.237 108.625V103.334H287.237V108.625H289.237ZM288.237 102.334H277.403V104.334H288.237V102.334ZM276.403 103.334V151.583H278.403V103.334H276.403ZM277.403 152.583H282.82V150.583H277.403V152.583ZM281.82 151.583V157H283.82V151.583H281.82ZM282.82 156H250.57V158H282.82V156ZM251.57 157V151.583H249.57V157H251.57ZM250.57 152.583H255.987V150.583H250.57V152.583ZM256.987 151.583V54.959H254.987V151.583H256.987ZM255.987 53.959H250.57V55.959H255.987V53.959ZM299.945 65.667V60.25H297.945V65.667H299.945ZM298.945 59.25H277.403V61.25H298.945V59.25ZM276.403 60.25V92.5H278.403V60.25H276.403ZM277.403 93.5H315.07V91.5H277.403V93.5ZM316.07 92.5V87.209H314.07V92.5H316.07ZM315.07 88.209H320.487V86.209H315.07V88.209ZM321.487 87.209V71.084H319.487V87.209H321.487ZM320.487 70.084H315.07V72.084H320.487V70.084ZM316.07 71.084V65.667H314.07V71.084H316.07ZM315.07 64.667H298.945V66.667H315.07V64.667ZM350.596 54.959H349.596V55.959H350.596V54.959ZM350.596 49.542V48.542H349.596V49.542H350.596ZM431.221 49.542H432.221V48.542H431.221V49.542ZM431.221 60.25H430.221V61.25H431.221V60.25ZM436.638 60.25H437.638V59.25H436.638V60.25ZM436.638 65.667H435.638V66.667H436.638V65.667ZM441.929 65.667H442.929V64.667H441.929V65.667ZM441.929 76.375V77.375H442.929V76.375H441.929ZM425.804 76.375H424.804V77.375H425.804V76.375ZM425.804 71.084H426.804V70.084H425.804V71.084ZM415.096 71.084H414.096V72.084H415.096V71.084ZM415.096 65.667H416.096V64.667H415.096V65.667ZM404.388 65.667H403.388V66.667H404.388V65.667ZM404.388 60.25H405.388V59.25H404.388V60.25ZM377.429 60.25V59.25H376.429V60.25H377.429ZM377.429 92.5H376.429V93.5H377.429V92.5ZM409.679 92.5V93.5H410.679V92.5H409.679ZM409.679 87.209V86.209H408.679V87.209H409.679ZM420.513 87.209V88.209H421.513V87.209H420.513ZM420.513 81.792V80.792H419.513V81.792H420.513ZM425.804 81.792H426.804V80.792H425.804V81.792ZM425.804 97.917H424.804V98.917H425.804V97.917ZM431.221 97.917H432.221V96.917H431.221V97.917ZM431.221 108.625H430.221V109.625H431.221V108.625ZM436.638 108.625H437.638V107.625H436.638V108.625ZM436.638 119.459V120.459H437.638V119.459H436.638ZM431.221 119.459H430.221V120.459H431.221V119.459ZM431.221 114.042H432.221V113.042H431.221V114.042ZM425.804 114.042H424.804V115.042H425.804V114.042ZM425.804 108.625H426.804V107.625H425.804V108.625ZM415.096 108.625H414.096V109.625H415.096V108.625ZM415.096 103.334H416.096V102.334H415.096V103.334ZM382.846 103.334H381.846V104.334H382.846V103.334ZM382.846 97.917H383.846V96.917H382.846V97.917ZM377.429 97.917V96.917H376.429V97.917H377.429ZM377.429 151.709H376.429V152.709H377.429V151.709ZM393.554 151.709V152.709H394.554V151.709H393.554ZM393.554 146.292V145.292H392.554V146.292H393.554ZM409.679 146.292V147.292H410.679V146.292H409.679ZM409.679 140.875V139.875H408.679V140.875H409.679ZM420.513 140.875V141.875H421.513V140.875H420.513ZM420.513 135.584V134.584H419.513V135.584H420.513ZM436.638 135.584V136.584H437.638V135.584H436.638ZM436.638 130.167V129.167H435.638V130.167H436.638ZM447.346 130.167H448.346V129.167H447.346V130.167ZM447.346 140.875V141.875H448.346V140.875H447.346ZM441.929 140.875V139.875H440.929V140.875H441.929ZM441.929 146.292V147.292H442.929V146.292H441.929ZM436.638 146.292V145.292H435.638V146.292H436.638ZM436.638 162.417V163.417H437.638V162.417H436.638ZM431.221 162.417H430.221V163.417H431.221V162.417ZM431.221 157H432.221V156H431.221V157ZM350.596 157H349.596V158H350.596V157ZM350.596 151.709V150.709H349.596V151.709H350.596ZM356.013 151.709V152.709H357.013V151.709H356.013ZM356.013 54.959H357.013V53.959H356.013V54.959ZM351.596 54.959V49.542H349.596V54.959H351.596ZM350.596 50.542H431.221V48.542H350.596V50.542ZM430.221 49.542V60.25H432.221V49.542H430.221ZM431.221 61.25H436.638V59.25H431.221V61.25ZM435.638 60.25V65.667H437.638V60.25H435.638ZM436.638 66.667H441.929V64.667H436.638V66.667ZM440.929 65.667V76.375H442.929V65.667H440.929ZM441.929 75.375H425.804V77.375H441.929V75.375ZM426.804 76.375V71.084H424.804V76.375H426.804ZM425.804 70.084H415.096V72.084H425.804V70.084ZM416.096 71.084V65.667H414.096V71.084H416.096ZM415.096 64.667H404.388V66.667H415.096V64.667ZM405.388 65.667V60.25H403.388V65.667H405.388ZM404.388 59.25H377.429V61.25H404.388V59.25ZM376.429 60.25V92.5H378.429V60.25H376.429ZM377.429 93.5H409.679V91.5H377.429V93.5ZM410.679 92.5V87.209H408.679V92.5H410.679ZM409.679 88.209H420.513V86.209H409.679V88.209ZM421.513 87.209V81.792H419.513V87.209H421.513ZM420.513 82.792H425.804V80.792H420.513V82.792ZM424.804 81.792V97.917H426.804V81.792H424.804ZM425.804 98.917H431.221V96.917H425.804V98.917ZM430.221 97.917V108.625H432.221V97.917H430.221ZM431.221 109.625H436.638V107.625H431.221V109.625ZM435.638 108.625V119.459H437.638V108.625H435.638ZM436.638 118.459H431.221V120.459H436.638V118.459ZM432.221 119.459V114.042H430.221V119.459H432.221ZM431.221 113.042H425.804V115.042H431.221V113.042ZM426.804 114.042V108.625H424.804V114.042H426.804ZM425.804 107.625H415.096V109.625H425.804V107.625ZM416.096 108.625V103.334H414.096V108.625H416.096ZM415.096 102.334H382.846V104.334H415.096V102.334ZM383.846 103.334V97.917H381.846V103.334H383.846ZM382.846 96.917H377.429V98.917H382.846V96.917ZM376.429 97.917V151.709H378.429V97.917H376.429ZM377.429 152.709H393.554V150.709H377.429V152.709ZM394.554 151.709V146.292H392.554V151.709H394.554ZM393.554 147.292H409.679V145.292H393.554V147.292ZM410.679 146.292V140.875H408.679V146.292H410.679ZM409.679 141.875H420.513V139.875H409.679V141.875ZM421.513 140.875V135.584H419.513V140.875H421.513ZM420.513 136.584H436.638V134.584H420.513V136.584ZM437.638 135.584V130.167H435.638V135.584H437.638ZM436.638 131.167H447.346V129.167H436.638V131.167ZM446.346 130.167V140.875H448.346V130.167H446.346ZM447.346 139.875H441.929V141.875H447.346V139.875ZM440.929 140.875V146.292H442.929V140.875H440.929ZM441.929 145.292H436.638V147.292H441.929V145.292ZM435.638 146.292V162.417H437.638V146.292H435.638ZM436.638 161.417H431.221V163.417H436.638V161.417ZM432.221 162.417V157H430.221V162.417H432.221ZM431.221 156H350.596V158H431.221V156ZM351.596 157V151.709H349.596V157H351.596ZM350.596 152.709H356.013V150.709H350.596V152.709ZM357.013 151.709V54.959H355.013V151.709H357.013ZM356.013 53.959H350.596V55.959H356.013V53.959Z" fill="#9A7AF2" mask="url(#path-3-outside-2_176_2183)"/>
</g>
<path d="M1.34863 13.1387V6.88184H44.8555V13.1387H38.5986V19.25H32.3418V124.889H44.8555V118.632H69.5918V112.375H81.96V106.264H100.585V100.007H106.842V112.375H100.585V124.889H94.4736V137.257H81.96V131H1.34863V124.889H7.60547V13.1387H1.34863ZM156.46 13.1387V6.88184H212.335V13.1387H218.446V19.25H224.703V25.5068H230.96V37.875H237.071V56.5H243.328V81.3818H237.071V100.007H230.96V112.375H224.703V118.632H218.446V124.889H206.078V131H187.453V137.257H168.828V131H143.946V124.889H137.835V118.632H125.321V106.264H119.21V100.007H112.953V44.1318H119.21V31.7637H125.321V25.5068H131.578V19.25H137.835V13.1387H143.946V19.25H150.203V13.1387H156.46ZM143.946 25.5068L143.801 19.25H137.689L137.835 25.5068H143.946ZM187.453 31.7637V25.5068H168.828V31.7637H156.46V44.1318H150.203V56.5H156.46V62.7568H162.571V69.0137H168.828V62.7568H175.085V56.5H168.828V50.3887H162.571V44.1318H168.828V37.875H181.196V44.1318H187.453V62.7568H181.196V69.0137H175.085V75.125H156.46V69.0137H150.203V62.7568H143.946V56.5H137.835V37.875H131.578V81.3818H137.835V93.75H143.946V100.007H150.203V106.264H156.46V112.375H162.571V118.632H181.196V124.889H193.71V118.632H212.335V106.264H218.446V93.75H224.703V69.0137H218.446V50.3887H212.335V44.1318H206.078V37.875H199.821V31.7637H187.453ZM251.477 13.1387V6.88184H325.977V13.1387H344.602V19.25H356.97V25.5068H363.227V50.3887H356.97V56.5H350.858V62.7568H338.345V69.0137H325.977V81.3818H332.233V87.4932H338.345V100.007H344.602V106.118H350.858V118.632H356.97V124.743H363.227V131H319.72V112.375H313.608V100.007H307.352V87.4932H301.095V75.125H294.983V69.0137H282.47V124.743H288.727V131H251.477V124.743H257.733V13.1387H251.477ZM307.352 25.5068V19.25H282.47V56.5H325.977V50.3887H332.233V31.7637H325.977V25.5068H307.352ZM367.01 13.1387V6.88184H460.135V19.25H466.392V25.5068H472.503V37.875H453.878V31.7637H441.51V25.5068H429.142V19.25H398.003V56.5H435.253V50.3887H447.767V44.1318H453.878V62.7568H460.135V75.125H466.392V87.6387H460.135V81.3818H453.878V75.125H441.51V69.0137H404.26V62.7568H398.003V124.889H416.628V118.632H435.253V112.375H447.767V106.264H466.392V100.007H478.76V112.375H472.503V118.632H466.392V137.257H460.135V131H367.01V124.889H373.267V13.1387H367.01Z" fill="#9A7AF2"/>
<defs>
<filter id="filter0_f_176_2183" x="49.9258" y="88.3711" width="381.676" height="111.5" filterUnits="userSpaceOnUse" color-interpolation-filters="sRGB">
<feFlood flood-opacity="0" result="BackgroundImageFix"/>
<feBlend mode="normal" in="SourceGraphic" in2="BackgroundImageFix" result="shape"/>
<feGaussianBlur stdDeviation="2.5" result="effect1_foregroundBlur_176_2183"/>
</filter>
<filter id="filter1_f_176_2183" x="31.0166" y="46.542" width="419.329" height="118.875" filterUnits="userSpaceOnUse" color-interpolation-filters="sRGB">
<feFlood flood-opacity="0" result="BackgroundImageFix"/>
<feBlend mode="normal" in="SourceGraphic" in2="BackgroundImageFix" result="shape"/>
<feGaussianBlur stdDeviation="1.5" result="effect1_foregroundBlur_176_2183"/>
</filter>
</defs>
</svg>
