<svg width="596" height="204" viewBox="0 0 596 204" fill="none" xmlns="http://www.w3.org/2000/svg">
<g filter="url(#filter0_f_58_7374)">
<mask id="path-1-outside-1_58_7374" maskUnits="userSpaceOnUse" x="79" y="87" width="438" height="104" fill="black">
<rect fill="white" x="79" y="87" width="438" height="104"/>
<path d="M80.5 189.5V88H109.5V175H167.5V189.5H80.5ZM196.5 189.5V175H182V102.5H196.5V88H269V102.5H283.5V175H269V189.5H196.5ZM211 175H254.5V102.5H211V175ZM298 189.5V88H385V102.5H399.5V146H370.5V160.5H385V175H399.5V189.5H356V175H341.5V160.5H327V189.5H298ZM327 146H356V131.5H370.5V102.5H327V146ZM414 189.5V88H515.5V102.5H443V131.5H501V146H443V175H515.5V189.5H414Z"/>
</mask>
<path d="M80.5 189.5V88H109.5V175H167.5V189.5H80.5ZM196.5 189.5V175H182V102.5H196.5V88H269V102.5H283.5V175H269V189.5H196.5ZM211 175H254.5V102.5H211V175ZM298 189.5V88H385V102.5H399.5V146H370.5V160.5H385V175H399.5V189.5H356V175H341.5V160.5H327V189.5H298ZM327 146H356V131.5H370.5V102.5H327V146ZM414 189.5V88H515.5V102.5H443V131.5H501V146H443V175H515.5V189.5H414Z" fill="black"/>
<path d="M80.5 189.5H79.5V190.5H80.5V189.5ZM80.5 88V87H79.5V88H80.5ZM109.5 88H110.5V87H109.5V88ZM109.5 175H108.5V176H109.5V175ZM167.5 175H168.5V174H167.5V175ZM167.5 189.5V190.5H168.5V189.5H167.5ZM81.5 189.5V88H79.5V189.5H81.5ZM80.5 89H109.5V87H80.5V89ZM108.5 88V175H110.5V88H108.5ZM109.5 176H167.5V174H109.5V176ZM166.5 175V189.5H168.5V175H166.5ZM167.5 188.5H80.5V190.5H167.5V188.5ZM196.5 189.5H195.5V190.5H196.5V189.5ZM196.5 175H197.5V174H196.5V175ZM182 175H181V176H182V175ZM182 102.5V101.5H181V102.5H182ZM196.5 102.5V103.5H197.5V102.5H196.5ZM196.5 88V87H195.5V88H196.5ZM269 88H270V87H269V88ZM269 102.5H268V103.5H269V102.5ZM283.5 102.5H284.5V101.5H283.5V102.5ZM283.5 175V176H284.5V175H283.5ZM269 175V174H268V175H269ZM269 189.5V190.5H270V189.5H269ZM211 175H210V176H211V175ZM254.5 175V176H255.5V175H254.5ZM254.5 102.5H255.5V101.5H254.5V102.5ZM211 102.5V101.5H210V102.5H211ZM197.5 189.5V175H195.5V189.5H197.5ZM196.5 174H182V176H196.5V174ZM183 175V102.5H181V175H183ZM182 103.5H196.5V101.5H182V103.5ZM197.5 102.5V88H195.5V102.5H197.5ZM196.5 89H269V87H196.5V89ZM268 88V102.5H270V88H268ZM269 103.5H283.5V101.5H269V103.5ZM282.5 102.5V175H284.5V102.5H282.5ZM283.5 174H269V176H283.5V174ZM268 175V189.5H270V175H268ZM269 188.5H196.5V190.5H269V188.5ZM211 176H254.5V174H211V176ZM255.5 175V102.5H253.5V175H255.5ZM254.5 101.5H211V103.5H254.5V101.5ZM210 102.5V175H212V102.5H210ZM298 189.5H297V190.5H298V189.5ZM298 88V87H297V88H298ZM385 88H386V87H385V88ZM385 102.5H384V103.5H385V102.5ZM399.5 102.5H400.5V101.5H399.5V102.5ZM399.5 146V147H400.5V146H399.5ZM370.5 146V145H369.5V146H370.5ZM370.5 160.5H369.5V161.5H370.5V160.5ZM385 160.5H386V159.5H385V160.5ZM385 175H384V176H385V175ZM399.5 175H400.5V174H399.5V175ZM399.5 189.5V190.5H400.5V189.5H399.5ZM356 189.5H355V190.5H356V189.5ZM356 175H357V174H356V175ZM341.5 175H340.5V176H341.5V175ZM341.5 160.5H342.5V159.5H341.5V160.5ZM327 160.5V159.5H326V160.5H327ZM327 189.5V190.5H328V189.5H327ZM327 146H326V147H327V146ZM356 146V147H357V146H356ZM356 131.5V130.5H355V131.5H356ZM370.5 131.5V132.5H371.5V131.5H370.5ZM370.5 102.5H371.5V101.5H370.5V102.5ZM327 102.5V101.5H326V102.5H327ZM299 189.5V88H297V189.5H299ZM298 89H385V87H298V89ZM384 88V102.5H386V88H384ZM385 103.5H399.5V101.5H385V103.5ZM398.5 102.5V146H400.5V102.5H398.5ZM399.5 145H370.5V147H399.5V145ZM369.5 146V160.5H371.5V146H369.5ZM370.5 161.5H385V159.5H370.5V161.5ZM384 160.5V175H386V160.5H384ZM385 176H399.5V174H385V176ZM398.5 175V189.5H400.5V175H398.5ZM399.5 188.5H356V190.5H399.5V188.5ZM357 189.5V175H355V189.5H357ZM356 174H341.5V176H356V174ZM342.5 175V160.5H340.5V175H342.5ZM341.5 159.5H327V161.5H341.5V159.5ZM326 160.5V189.5H328V160.5H326ZM327 188.5H298V190.5H327V188.5ZM327 147H356V145H327V147ZM357 146V131.5H355V146H357ZM356 132.5H370.5V130.5H356V132.5ZM371.5 131.5V102.5H369.5V131.5H371.5ZM370.5 101.5H327V103.5H370.5V101.5ZM326 102.5V146H328V102.5H326ZM414 189.5H413V190.5H414V189.5ZM414 88V87H413V88H414ZM515.5 88H516.5V87H515.5V88ZM515.5 102.5V103.5H516.5V102.5H515.5ZM443 102.5V101.5H442V102.5H443ZM443 131.5H442V132.5H443V131.5ZM501 131.5H502V130.5H501V131.5ZM501 146V147H502V146H501ZM443 146V145H442V146H443ZM443 175H442V176H443V175ZM515.5 175H516.5V174H515.5V175ZM515.5 189.5V190.5H516.5V189.5H515.5ZM415 189.5V88H413V189.5H415ZM414 89H515.5V87H414V89ZM514.5 88V102.5H516.5V88H514.5ZM515.5 101.5H443V103.5H515.5V101.5ZM442 102.5V131.5H444V102.5H442ZM443 132.5H501V130.5H443V132.5ZM500 131.5V146H502V131.5H500ZM501 145H443V147H501V145ZM442 146V175H444V146H442ZM443 176H515.5V174H443V176ZM514.5 175V189.5H516.5V175H514.5ZM515.5 188.5H414V190.5H515.5V188.5Z" fill="#9A7AF2" mask="url(#path-1-outside-1_58_7374)"/>
</g>
<g filter="url(#filter1_f_58_7374)">
<mask id="path-3-outside-2_58_7374" maskUnits="userSpaceOnUse" x="55" y="43" width="486" height="115" fill="black">
<rect fill="white" x="55" y="43" width="486" height="115"/>
<path d="M56.125 156.875V44H88.375V140.75H152.875V156.875H56.125ZM185.125 156.875V140.75H169V60.125H185.125V44H265.75V60.125H281.875V140.75H265.75V156.875H185.125ZM201.25 140.75H249.625V60.125H201.25V140.75ZM298 156.875V44H394.75V60.125H410.875V108.5H378.625V124.625H394.75V140.75H410.875V156.875H362.5V140.75H346.375V124.625H330.25V156.875H298ZM330.25 108.5H362.5V92.375H378.625V60.125H330.25V108.5ZM427 156.875V44H539.875V60.125H459.25V92.375H523.75V108.5H459.25V140.75H539.875V156.875H427Z"/>
</mask>
<path d="M56.125 156.875V44H88.375V140.75H152.875V156.875H56.125ZM185.125 156.875V140.75H169V60.125H185.125V44H265.75V60.125H281.875V140.75H265.75V156.875H185.125ZM201.25 140.75H249.625V60.125H201.25V140.75ZM298 156.875V44H394.75V60.125H410.875V108.5H378.625V124.625H394.75V140.75H410.875V156.875H362.5V140.75H346.375V124.625H330.25V156.875H298ZM330.25 108.5H362.5V92.375H378.625V60.125H330.25V108.5ZM427 156.875V44H539.875V60.125H459.25V92.375H523.75V108.5H459.25V140.75H539.875V156.875H427Z" fill="black"/>
<path d="M56.125 156.875H55.125V157.875H56.125V156.875ZM56.125 44V43H55.125V44H56.125ZM88.375 44H89.375V43H88.375V44ZM88.375 140.75H87.375V141.75H88.375V140.75ZM152.875 140.75H153.875V139.75H152.875V140.75ZM152.875 156.875V157.875H153.875V156.875H152.875ZM57.125 156.875V44H55.125V156.875H57.125ZM56.125 45H88.375V43H56.125V45ZM87.375 44V140.75H89.375V44H87.375ZM88.375 141.75H152.875V139.75H88.375V141.75ZM151.875 140.75V156.875H153.875V140.75H151.875ZM152.875 155.875H56.125V157.875H152.875V155.875ZM185.125 156.875H184.125V157.875H185.125V156.875ZM185.125 140.75H186.125V139.75H185.125V140.75ZM169 140.75H168V141.75H169V140.75ZM169 60.125V59.125H168V60.125H169ZM185.125 60.125V61.125H186.125V60.125H185.125ZM185.125 44V43H184.125V44H185.125ZM265.75 44H266.75V43H265.75V44ZM265.75 60.125H264.75V61.125H265.75V60.125ZM281.875 60.125H282.875V59.125H281.875V60.125ZM281.875 140.75V141.75H282.875V140.75H281.875ZM265.75 140.75V139.75H264.75V140.75H265.75ZM265.75 156.875V157.875H266.75V156.875H265.75ZM201.25 140.75H200.25V141.75H201.25V140.75ZM249.625 140.75V141.75H250.625V140.75H249.625ZM249.625 60.125H250.625V59.125H249.625V60.125ZM201.25 60.125V59.125H200.25V60.125H201.25ZM186.125 156.875V140.75H184.125V156.875H186.125ZM185.125 139.75H169V141.75H185.125V139.75ZM170 140.75V60.125H168V140.75H170ZM169 61.125H185.125V59.125H169V61.125ZM186.125 60.125V44H184.125V60.125H186.125ZM185.125 45H265.75V43H185.125V45ZM264.75 44V60.125H266.75V44H264.75ZM265.75 61.125H281.875V59.125H265.75V61.125ZM280.875 60.125V140.75H282.875V60.125H280.875ZM281.875 139.75H265.75V141.75H281.875V139.75ZM264.75 140.75V156.875H266.75V140.75H264.75ZM265.75 155.875H185.125V157.875H265.75V155.875ZM201.25 141.75H249.625V139.75H201.25V141.75ZM250.625 140.75V60.125H248.625V140.75H250.625ZM249.625 59.125H201.25V61.125H249.625V59.125ZM200.25 60.125V140.75H202.25V60.125H200.25ZM298 156.875H297V157.875H298V156.875ZM298 44V43H297V44H298ZM394.75 44H395.75V43H394.75V44ZM394.75 60.125H393.75V61.125H394.75V60.125ZM410.875 60.125H411.875V59.125H410.875V60.125ZM410.875 108.5V109.5H411.875V108.5H410.875ZM378.625 108.5V107.5H377.625V108.5H378.625ZM378.625 124.625H377.625V125.625H378.625V124.625ZM394.75 124.625H395.75V123.625H394.75V124.625ZM394.75 140.75H393.75V141.75H394.75V140.75ZM410.875 140.75H411.875V139.75H410.875V140.75ZM410.875 156.875V157.875H411.875V156.875H410.875ZM362.5 156.875H361.5V157.875H362.5V156.875ZM362.5 140.75H363.5V139.75H362.5V140.75ZM346.375 140.75H345.375V141.75H346.375V140.75ZM346.375 124.625H347.375V123.625H346.375V124.625ZM330.25 124.625V123.625H329.25V124.625H330.25ZM330.25 156.875V157.875H331.25V156.875H330.25ZM330.25 108.5H329.25V109.5H330.25V108.5ZM362.5 108.5V109.5H363.5V108.5H362.5ZM362.5 92.375V91.375H361.5V92.375H362.5ZM378.625 92.375V93.375H379.625V92.375H378.625ZM378.625 60.125H379.625V59.125H378.625V60.125ZM330.25 60.125V59.125H329.25V60.125H330.25ZM299 156.875V44H297V156.875H299ZM298 45H394.75V43H298V45ZM393.75 44V60.125H395.75V44H393.75ZM394.75 61.125H410.875V59.125H394.75V61.125ZM409.875 60.125V108.5H411.875V60.125H409.875ZM410.875 107.5H378.625V109.5H410.875V107.5ZM377.625 108.5V124.625H379.625V108.5H377.625ZM378.625 125.625H394.75V123.625H378.625V125.625ZM393.75 124.625V140.75H395.75V124.625H393.75ZM394.75 141.75H410.875V139.75H394.75V141.75ZM409.875 140.75V156.875H411.875V140.75H409.875ZM410.875 155.875H362.5V157.875H410.875V155.875ZM363.5 156.875V140.75H361.5V156.875H363.5ZM362.5 139.75H346.375V141.75H362.5V139.75ZM347.375 140.75V124.625H345.375V140.75H347.375ZM346.375 123.625H330.25V125.625H346.375V123.625ZM329.25 124.625V156.875H331.25V124.625H329.25ZM330.25 155.875H298V157.875H330.25V155.875ZM330.25 109.5H362.5V107.5H330.25V109.5ZM363.5 108.5V92.375H361.5V108.5H363.5ZM362.5 93.375H378.625V91.375H362.5V93.375ZM379.625 92.375V60.125H377.625V92.375H379.625ZM378.625 59.125H330.25V61.125H378.625V59.125ZM329.25 60.125V108.5H331.25V60.125H329.25ZM427 156.875H426V157.875H427V156.875ZM427 44V43H426V44H427ZM539.875 44H540.875V43H539.875V44ZM539.875 60.125V61.125H540.875V60.125H539.875ZM459.25 60.125V59.125H458.25V60.125H459.25ZM459.25 92.375H458.25V93.375H459.25V92.375ZM523.75 92.375H524.75V91.375H523.75V92.375ZM523.75 108.5V109.5H524.75V108.5H523.75ZM459.25 108.5V107.5H458.25V108.5H459.25ZM459.25 140.75H458.25V141.75H459.25V140.75ZM539.875 140.75H540.875V139.75H539.875V140.75ZM539.875 156.875V157.875H540.875V156.875H539.875ZM428 156.875V44H426V156.875H428ZM427 45H539.875V43H427V45ZM538.875 44V60.125H540.875V44H538.875ZM539.875 59.125H459.25V61.125H539.875V59.125ZM458.25 60.125V92.375H460.25V60.125H458.25ZM459.25 93.375H523.75V91.375H459.25V93.375ZM522.75 92.375V108.5H524.75V92.375H522.75ZM523.75 107.5H459.25V109.5H523.75V107.5ZM458.25 108.5V140.75H460.25V108.5H458.25ZM459.25 141.75H539.875V139.75H459.25V141.75ZM538.875 140.75V156.875H540.875V140.75H538.875ZM539.875 155.875H427V157.875H539.875V155.875Z" fill="#9A7AF2" mask="url(#path-3-outside-2_58_7374)"/>
</g>
<path d="M18.625 130.375V0H55.875V111.75H130.375V130.375H18.625ZM167.625 130.375V111.75H149V18.625H167.625V0H260.75V18.625H279.375V111.75H260.75V130.375H167.625ZM186.25 111.75H242.125V18.625H186.25V111.75ZM298 130.375V0H409.75V18.625H428.375V74.5H391.125V93.125H409.75V111.75H428.375V130.375H372.5V111.75H353.875V93.125H335.25V130.375H298ZM335.25 74.5H372.5V55.875H391.125V18.625H335.25V74.5ZM447 130.375V0H577.375V18.625H484.25V55.875H558.75V74.5H484.25V111.75H577.375V130.375H447Z" fill="#9A7AF2"/>
<defs>
<filter id="filter0_f_58_7374" x="75.5" y="83" width="445" height="111.5" filterUnits="userSpaceOnUse" color-interpolation-filters="sRGB">
<feFlood flood-opacity="0" result="BackgroundImageFix"/>
<feBlend mode="normal" in="SourceGraphic" in2="BackgroundImageFix" result="shape"/>
<feGaussianBlur stdDeviation="2.5" result="effect1_foregroundBlur_58_7374"/>
</filter>
<filter id="filter1_f_58_7374" x="53.125" y="41" width="489.75" height="118.875" filterUnits="userSpaceOnUse" color-interpolation-filters="sRGB">
<feFlood flood-opacity="0" result="BackgroundImageFix"/>
<feBlend mode="normal" in="SourceGraphic" in2="BackgroundImageFix" result="shape"/>
<feGaussianBlur stdDeviation="1.5" result="effect1_foregroundBlur_58_7374"/>
</filter>
</defs>
</svg>
