<svg width="1165" height="204" viewBox="0 0 1165 204" fill="none" xmlns="http://www.w3.org/2000/svg">
<g filter="url(#filter0_f_165_892)">
<mask id="path-1-outside-1_165_892" maskUnits="userSpaceOnUse" x="4" y="87" width="1148" height="104" fill="black">
<rect fill="white" x="4" y="87" width="1148" height="104"/>
<path d="M5 189.5V88H34V102.5H48.5V117H63V102.5H77.5V88H106.5V189.5H77.5V131.5H63V160.5H48.5V131.5H34V189.5H5ZM135.5 189.5V175H121V102.5H135.5V88H208V102.5H222.5V175H208V189.5H135.5ZM150 175H193.5V102.5H150V175ZM251.5 189.5V175H237V102.5H251.5V88H324V102.5H338.5V175H324V189.5H251.5ZM266 175H309.5V102.5H266V175ZM353 189.5V88H382V102.5H396.5V117H411V131.5H425.5V88H454.5V189.5H425.5V160.5H411V146H396.5V131.5H382V189.5H353ZM469 189.5V88H556V102.5H570.5V131.5H556V146H570.5V175H556V189.5H469ZM498 131.5H541.5V102.5H498V131.5ZM498 175H541.5V146H498V175ZM585 189.5V88H686.5V102.5H614V131.5H672V146H614V175H686.5V189.5H585ZM701 189.5V117H715.5V102.5H730V88H773.5V102.5H788V117H802.5V189.5H773.5V160.5H730V189.5H701ZM730 146H773.5V117H759V102.5H744.5V117H730V146ZM831.5 189.5V175H817V160.5H846V175H889.5V146H831.5V131.5H817V102.5H831.5V88H904V102.5H918.5V117H889.5V102.5H846V131.5H904V146H918.5V175H904V189.5H831.5ZM976.5 189.5V102.5H947.5V88H1034.5V102.5H1005.5V189.5H976.5ZM1063.5 189.5V175H1049V160.5H1078V175H1121.5V146H1063.5V131.5H1049V102.5H1063.5V88H1136V102.5H1150.5V117H1121.5V102.5H1078V131.5H1136V146H1150.5V175H1136V189.5H1063.5Z"/>
</mask>
<path d="M5 189.5V88H34V102.5H48.5V117H63V102.5H77.5V88H106.5V189.5H77.5V131.5H63V160.5H48.5V131.5H34V189.5H5ZM135.5 189.5V175H121V102.5H135.5V88H208V102.5H222.5V175H208V189.5H135.5ZM150 175H193.5V102.5H150V175ZM251.5 189.5V175H237V102.5H251.5V88H324V102.5H338.5V175H324V189.5H251.5ZM266 175H309.5V102.5H266V175ZM353 189.5V88H382V102.5H396.5V117H411V131.5H425.5V88H454.5V189.5H425.5V160.5H411V146H396.5V131.5H382V189.5H353ZM469 189.5V88H556V102.5H570.5V131.5H556V146H570.5V175H556V189.5H469ZM498 131.5H541.5V102.5H498V131.5ZM498 175H541.5V146H498V175ZM585 189.5V88H686.5V102.5H614V131.5H672V146H614V175H686.5V189.5H585ZM701 189.5V117H715.5V102.5H730V88H773.5V102.5H788V117H802.5V189.5H773.5V160.5H730V189.5H701ZM730 146H773.5V117H759V102.5H744.5V117H730V146ZM831.5 189.5V175H817V160.5H846V175H889.5V146H831.5V131.5H817V102.5H831.5V88H904V102.5H918.5V117H889.5V102.5H846V131.5H904V146H918.5V175H904V189.5H831.5ZM976.5 189.5V102.5H947.5V88H1034.5V102.5H1005.5V189.5H976.5ZM1063.5 189.5V175H1049V160.5H1078V175H1121.5V146H1063.5V131.5H1049V102.5H1063.5V88H1136V102.5H1150.5V117H1121.5V102.5H1078V131.5H1136V146H1150.5V175H1136V189.5H1063.5Z" fill="black"/>
<path d="M5 189.5H4V190.5H5V189.5ZM5 88V87H4V88H5ZM34 88H35V87H34V88ZM34 102.5H33V103.5H34V102.5ZM48.5 102.5H49.5V101.5H48.5V102.5ZM48.5 117H47.5V118H48.5V117ZM63 117V118H64V117H63ZM63 102.5V101.5H62V102.5H63ZM77.5 102.5V103.5H78.5V102.5H77.5ZM77.5 88V87H76.5V88H77.5ZM106.5 88H107.5V87H106.5V88ZM106.5 189.5V190.5H107.5V189.5H106.5ZM77.5 189.5H76.5V190.5H77.5V189.5ZM77.5 131.5H78.5V130.5H77.5V131.5ZM63 131.5V130.5H62V131.5H63ZM63 160.5V161.5H64V160.5H63ZM48.5 160.5H47.5V161.5H48.5V160.5ZM48.5 131.5H49.5V130.5H48.5V131.5ZM34 131.5V130.5H33V131.5H34ZM34 189.5V190.5H35V189.5H34ZM6 189.5V88H4V189.5H6ZM5 89H34V87H5V89ZM33 88V102.5H35V88H33ZM34 103.5H48.5V101.5H34V103.5ZM47.5 102.5V117H49.5V102.5H47.5ZM48.5 118H63V116H48.5V118ZM64 117V102.5H62V117H64ZM63 103.5H77.5V101.5H63V103.5ZM78.5 102.5V88H76.5V102.5H78.5ZM77.5 89H106.5V87H77.5V89ZM105.5 88V189.5H107.5V88H105.5ZM106.5 188.5H77.5V190.5H106.5V188.5ZM78.5 189.5V131.5H76.5V189.5H78.5ZM77.5 130.5H63V132.5H77.5V130.5ZM62 131.5V160.5H64V131.5H62ZM63 159.5H48.5V161.5H63V159.5ZM49.5 160.5V131.5H47.5V160.5H49.5ZM48.5 130.5H34V132.5H48.5V130.5ZM33 131.5V189.5H35V131.5H33ZM34 188.5H5V190.5H34V188.5ZM135.5 189.5H134.5V190.5H135.5V189.5ZM135.5 175H136.5V174H135.5V175ZM121 175H120V176H121V175ZM121 102.5V101.5H120V102.5H121ZM135.5 102.5V103.5H136.5V102.5H135.5ZM135.5 88V87H134.5V88H135.5ZM208 88H209V87H208V88ZM208 102.5H207V103.5H208V102.5ZM222.5 102.5H223.5V101.5H222.5V102.5ZM222.5 175V176H223.5V175H222.5ZM208 175V174H207V175H208ZM208 189.5V190.5H209V189.5H208ZM150 175H149V176H150V175ZM193.5 175V176H194.5V175H193.5ZM193.5 102.5H194.5V101.5H193.5V102.5ZM150 102.5V101.5H149V102.5H150ZM136.5 189.5V175H134.5V189.5H136.5ZM135.5 174H121V176H135.5V174ZM122 175V102.5H120V175H122ZM121 103.5H135.5V101.5H121V103.5ZM136.5 102.5V88H134.5V102.5H136.5ZM135.5 89H208V87H135.5V89ZM207 88V102.5H209V88H207ZM208 103.5H222.5V101.5H208V103.5ZM221.5 102.5V175H223.5V102.5H221.5ZM222.5 174H208V176H222.5V174ZM207 175V189.5H209V175H207ZM208 188.5H135.5V190.5H208V188.5ZM150 176H193.5V174H150V176ZM194.5 175V102.5H192.5V175H194.5ZM193.5 101.5H150V103.5H193.5V101.5ZM149 102.5V175H151V102.5H149ZM251.5 189.5H250.5V190.5H251.5V189.5ZM251.5 175H252.5V174H251.5V175ZM237 175H236V176H237V175ZM237 102.5V101.5H236V102.5H237ZM251.5 102.5V103.5H252.5V102.5H251.5ZM251.5 88V87H250.5V88H251.5ZM324 88H325V87H324V88ZM324 102.5H323V103.5H324V102.5ZM338.5 102.5H339.5V101.5H338.5V102.5ZM338.5 175V176H339.5V175H338.5ZM324 175V174H323V175H324ZM324 189.5V190.5H325V189.5H324ZM266 175H265V176H266V175ZM309.5 175V176H310.5V175H309.5ZM309.5 102.5H310.5V101.5H309.5V102.5ZM266 102.5V101.5H265V102.5H266ZM252.5 189.5V175H250.5V189.5H252.5ZM251.5 174H237V176H251.5V174ZM238 175V102.5H236V175H238ZM237 103.5H251.5V101.5H237V103.5ZM252.5 102.5V88H250.5V102.5H252.5ZM251.5 89H324V87H251.5V89ZM323 88V102.5H325V88H323ZM324 103.5H338.5V101.5H324V103.5ZM337.5 102.5V175H339.5V102.5H337.5ZM338.5 174H324V176H338.5V174ZM323 175V189.5H325V175H323ZM324 188.5H251.5V190.5H324V188.5ZM266 176H309.5V174H266V176ZM310.5 175V102.5H308.5V175H310.5ZM309.5 101.5H266V103.5H309.5V101.5ZM265 102.5V175H267V102.5H265ZM353 189.5H352V190.5H353V189.5ZM353 88V87H352V88H353ZM382 88H383V87H382V88ZM382 102.5H381V103.5H382V102.5ZM396.5 102.5H397.5V101.5H396.5V102.5ZM396.5 117H395.5V118H396.5V117ZM411 117H412V116H411V117ZM411 131.5H410V132.5H411V131.5ZM425.5 131.5V132.5H426.5V131.5H425.5ZM425.5 88V87H424.5V88H425.5ZM454.5 88H455.5V87H454.5V88ZM454.5 189.5V190.5H455.5V189.5H454.5ZM425.5 189.5H424.5V190.5H425.5V189.5ZM425.5 160.5H426.5V159.5H425.5V160.5ZM411 160.5H410V161.5H411V160.5ZM411 146H412V145H411V146ZM396.5 146H395.5V147H396.5V146ZM396.5 131.5H397.5V130.5H396.5V131.5ZM382 131.5V130.5H381V131.5H382ZM382 189.5V190.5H383V189.5H382ZM354 189.5V88H352V189.5H354ZM353 89H382V87H353V89ZM381 88V102.5H383V88H381ZM382 103.5H396.5V101.5H382V103.5ZM395.5 102.5V117H397.5V102.5H395.5ZM396.5 118H411V116H396.5V118ZM410 117V131.5H412V117H410ZM411 132.5H425.5V130.5H411V132.5ZM426.5 131.5V88H424.5V131.5H426.5ZM425.5 89H454.5V87H425.5V89ZM453.5 88V189.5H455.5V88H453.5ZM454.5 188.5H425.5V190.5H454.5V188.5ZM426.5 189.5V160.5H424.5V189.5H426.5ZM425.5 159.5H411V161.5H425.5V159.5ZM412 160.5V146H410V160.5H412ZM411 145H396.5V147H411V145ZM397.5 146V131.5H395.5V146H397.5ZM396.5 130.5H382V132.5H396.5V130.5ZM381 131.5V189.5H383V131.5H381ZM382 188.5H353V190.5H382V188.5ZM469 189.5H468V190.5H469V189.5ZM469 88V87H468V88H469ZM556 88H557V87H556V88ZM556 102.5H555V103.5H556V102.5ZM570.5 102.5H571.5V101.5H570.5V102.5ZM570.5 131.5V132.5H571.5V131.5H570.5ZM556 131.5V130.5H555V131.5H556ZM556 146H555V147H556V146ZM570.5 146H571.5V145H570.5V146ZM570.5 175V176H571.5V175H570.5ZM556 175V174H555V175H556ZM556 189.5V190.5H557V189.5H556ZM498 131.5H497V132.5H498V131.5ZM541.5 131.5V132.5H542.5V131.5H541.5ZM541.5 102.5H542.5V101.5H541.5V102.5ZM498 102.5V101.5H497V102.5H498ZM498 175H497V176H498V175ZM541.5 175V176H542.5V175H541.5ZM541.5 146H542.5V145H541.5V146ZM498 146V145H497V146H498ZM470 189.5V88H468V189.5H470ZM469 89H556V87H469V89ZM555 88V102.5H557V88H555ZM556 103.5H570.5V101.5H556V103.5ZM569.5 102.5V131.5H571.5V102.5H569.5ZM570.5 130.5H556V132.5H570.5V130.5ZM555 131.5V146H557V131.5H555ZM556 147H570.5V145H556V147ZM569.5 146V175H571.5V146H569.5ZM570.5 174H556V176H570.5V174ZM555 175V189.5H557V175H555ZM556 188.5H469V190.5H556V188.5ZM498 132.5H541.5V130.5H498V132.5ZM542.5 131.5V102.5H540.5V131.5H542.5ZM541.5 101.5H498V103.5H541.5V101.5ZM497 102.5V131.5H499V102.5H497ZM498 176H541.5V174H498V176ZM542.5 175V146H540.5V175H542.5ZM541.5 145H498V147H541.5V145ZM497 146V175H499V146H497ZM585 189.5H584V190.5H585V189.5ZM585 88V87H584V88H585ZM686.5 88H687.5V87H686.5V88ZM686.5 102.5V103.5H687.5V102.5H686.5ZM614 102.5V101.5H613V102.5H614ZM614 131.5H613V132.5H614V131.5ZM672 131.5H673V130.5H672V131.5ZM672 146V147H673V146H672ZM614 146V145H613V146H614ZM614 175H613V176H614V175ZM686.5 175H687.5V174H686.5V175ZM686.5 189.5V190.5H687.5V189.5H686.5ZM586 189.5V88H584V189.5H586ZM585 89H686.5V87H585V89ZM685.5 88V102.5H687.5V88H685.5ZM686.5 101.5H614V103.5H686.5V101.5ZM613 102.5V131.5H615V102.5H613ZM614 132.5H672V130.5H614V132.5ZM671 131.5V146H673V131.5H671ZM672 145H614V147H672V145ZM613 146V175H615V146H613ZM614 176H686.5V174H614V176ZM685.5 175V189.5H687.5V175H685.5ZM686.5 188.5H585V190.5H686.5V188.5ZM701 189.5H700V190.5H701V189.5ZM701 117V116H700V117H701ZM715.5 117V118H716.5V117H715.5ZM715.5 102.5V101.5H714.5V102.5H715.5ZM730 102.5V103.5H731V102.5H730ZM730 88V87H729V88H730ZM773.5 88H774.5V87H773.5V88ZM773.5 102.5H772.5V103.5H773.5V102.5ZM788 102.5H789V101.5H788V102.5ZM788 117H787V118H788V117ZM802.5 117H803.5V116H802.5V117ZM802.5 189.5V190.5H803.5V189.5H802.5ZM773.5 189.5H772.5V190.5H773.5V189.5ZM773.5 160.5H774.5V159.5H773.5V160.5ZM730 160.5V159.5H729V160.5H730ZM730 189.5V190.5H731V189.5H730ZM730 146H729V147H730V146ZM773.5 146V147H774.5V146H773.5ZM773.5 117H774.5V116H773.5V117ZM759 117H758V118H759V117ZM759 102.5H760V101.5H759V102.5ZM744.5 102.5V101.5H743.5V102.5H744.5ZM744.5 117V118H745.5V117H744.5ZM730 117V116H729V117H730ZM702 189.5V117H700V189.5H702ZM701 118H715.5V116H701V118ZM716.5 117V102.5H714.5V117H716.5ZM715.5 103.5H730V101.5H715.5V103.5ZM731 102.5V88H729V102.5H731ZM730 89H773.5V87H730V89ZM772.5 88V102.5H774.5V88H772.5ZM773.5 103.5H788V101.5H773.5V103.5ZM787 102.5V117H789V102.5H787ZM788 118H802.5V116H788V118ZM801.5 117V189.5H803.5V117H801.5ZM802.5 188.5H773.5V190.5H802.5V188.5ZM774.5 189.5V160.5H772.5V189.5H774.5ZM773.5 159.5H730V161.5H773.5V159.5ZM729 160.5V189.5H731V160.5H729ZM730 188.5H701V190.5H730V188.5ZM730 147H773.5V145H730V147ZM774.5 146V117H772.5V146H774.5ZM773.5 116H759V118H773.5V116ZM760 117V102.5H758V117H760ZM759 101.5H744.5V103.5H759V101.5ZM743.5 102.5V117H745.5V102.5H743.5ZM744.5 116H730V118H744.5V116ZM729 117V146H731V117H729ZM831.5 189.5H830.5V190.5H831.5V189.5ZM831.5 175H832.5V174H831.5V175ZM817 175H816V176H817V175ZM817 160.5V159.5H816V160.5H817ZM846 160.5H847V159.5H846V160.5ZM846 175H845V176H846V175ZM889.5 175V176H890.5V175H889.5ZM889.5 146H890.5V145H889.5V146ZM831.5 146H830.5V147H831.5V146ZM831.5 131.5H832.5V130.5H831.5V131.5ZM817 131.5H816V132.5H817V131.5ZM817 102.5V101.5H816V102.5H817ZM831.5 102.5V103.5H832.5V102.5H831.5ZM831.5 88V87H830.5V88H831.5ZM904 88H905V87H904V88ZM904 102.5H903V103.5H904V102.5ZM918.5 102.5H919.5V101.5H918.5V102.5ZM918.5 117V118H919.5V117H918.5ZM889.5 117H888.5V118H889.5V117ZM889.5 102.5H890.5V101.5H889.5V102.5ZM846 102.5V101.5H845V102.5H846ZM846 131.5H845V132.5H846V131.5ZM904 131.5H905V130.5H904V131.5ZM904 146H903V147H904V146ZM918.5 146H919.5V145H918.5V146ZM918.5 175V176H919.5V175H918.5ZM904 175V174H903V175H904ZM904 189.5V190.5H905V189.5H904ZM832.5 189.5V175H830.5V189.5H832.5ZM831.5 174H817V176H831.5V174ZM818 175V160.5H816V175H818ZM817 161.5H846V159.5H817V161.5ZM845 160.5V175H847V160.5H845ZM846 176H889.5V174H846V176ZM890.5 175V146H888.5V175H890.5ZM889.5 145H831.5V147H889.5V145ZM832.5 146V131.5H830.5V146H832.5ZM831.5 130.5H817V132.5H831.5V130.5ZM818 131.5V102.5H816V131.5H818ZM817 103.5H831.5V101.5H817V103.5ZM832.5 102.5V88H830.5V102.5H832.5ZM831.5 89H904V87H831.5V89ZM903 88V102.5H905V88H903ZM904 103.5H918.5V101.5H904V103.5ZM917.5 102.5V117H919.5V102.5H917.5ZM918.5 116H889.5V118H918.5V116ZM890.5 117V102.5H888.5V117H890.5ZM889.5 101.5H846V103.5H889.5V101.5ZM845 102.5V131.5H847V102.5H845ZM846 132.5H904V130.5H846V132.5ZM903 131.5V146H905V131.5H903ZM904 147H918.5V145H904V147ZM917.5 146V175H919.5V146H917.5ZM918.5 174H904V176H918.5V174ZM903 175V189.5H905V175H903ZM904 188.5H831.5V190.5H904V188.5ZM976.5 189.5H975.5V190.5H976.5V189.5ZM976.5 102.5H977.5V101.5H976.5V102.5ZM947.5 102.5H946.5V103.5H947.5V102.5ZM947.5 88V87H946.5V88H947.5ZM1034.5 88H1035.5V87H1034.5V88ZM1034.5 102.5V103.5H1035.5V102.5H1034.5ZM1005.5 102.5V101.5H1004.5V102.5H1005.5ZM1005.5 189.5V190.5H1006.5V189.5H1005.5ZM977.5 189.5V102.5H975.5V189.5H977.5ZM976.5 101.5H947.5V103.5H976.5V101.5ZM948.5 102.5V88H946.5V102.5H948.5ZM947.5 89H1034.5V87H947.5V89ZM1033.5 88V102.5H1035.5V88H1033.5ZM1034.5 101.5H1005.5V103.5H1034.5V101.5ZM1004.5 102.5V189.5H1006.5V102.5H1004.5ZM1005.5 188.5H976.5V190.5H1005.5V188.5ZM1063.5 189.5H1062.5V190.5H1063.5V189.5ZM1063.5 175H1064.5V174H1063.5V175ZM1049 175H1048V176H1049V175ZM1049 160.5V159.5H1048V160.5H1049ZM1078 160.5H1079V159.5H1078V160.5ZM1078 175H1077V176H1078V175ZM1121.5 175V176H1122.5V175H1121.5ZM1121.5 146H1122.5V145H1121.5V146ZM1063.5 146H1062.5V147H1063.5V146ZM1063.5 131.5H1064.5V130.5H1063.5V131.5ZM1049 131.5H1048V132.5H1049V131.5ZM1049 102.5V101.5H1048V102.5H1049ZM1063.5 102.5V103.5H1064.5V102.5H1063.5ZM1063.5 88V87H1062.5V88H1063.5ZM1136 88H1137V87H1136V88ZM1136 102.5H1135V103.5H1136V102.5ZM1150.5 102.5H1151.5V101.5H1150.5V102.5ZM1150.5 117V118H1151.5V117H1150.5ZM1121.5 117H1120.5V118H1121.5V117ZM1121.5 102.5H1122.5V101.5H1121.5V102.5ZM1078 102.5V101.5H1077V102.5H1078ZM1078 131.5H1077V132.5H1078V131.5ZM1136 131.5H1137V130.5H1136V131.5ZM1136 146H1135V147H1136V146ZM1150.5 146H1151.5V145H1150.5V146ZM1150.5 175V176H1151.5V175H1150.5ZM1136 175V174H1135V175H1136ZM1136 189.5V190.5H1137V189.5H1136ZM1064.5 189.5V175H1062.5V189.5H1064.5ZM1063.5 174H1049V176H1063.5V174ZM1050 175V160.5H1048V175H1050ZM1049 161.5H1078V159.5H1049V161.5ZM1077 160.5V175H1079V160.5H1077ZM1078 176H1121.5V174H1078V176ZM1122.5 175V146H1120.5V175H1122.5ZM1121.5 145H1063.5V147H1121.5V145ZM1064.5 146V131.5H1062.5V146H1064.5ZM1063.5 130.5H1049V132.5H1063.5V130.5ZM1050 131.5V102.5H1048V131.5H1050ZM1049 103.5H1063.5V101.5H1049V103.5ZM1064.5 102.5V88H1062.5V102.5H1064.5ZM1063.5 89H1136V87H1063.5V89ZM1135 88V102.5H1137V88H1135ZM1136 103.5H1150.5V101.5H1136V103.5ZM1149.5 102.5V117H1151.5V102.5H1149.5ZM1150.5 116H1121.5V118H1150.5V116ZM1122.5 117V102.5H1120.5V117H1122.5ZM1121.5 101.5H1078V103.5H1121.5V101.5ZM1077 102.5V131.5H1079V102.5H1077ZM1078 132.5H1136V130.5H1078V132.5ZM1135 131.5V146H1137V131.5H1135ZM1136 147H1150.5V145H1136V147ZM1149.5 146V175H1151.5V146H1149.5ZM1150.5 174H1136V176H1150.5V174ZM1135 175V189.5H1137V175H1135ZM1136 188.5H1063.5V190.5H1136V188.5Z" fill="#9A7AF2" mask="url(#path-1-outside-1_165_892)"/>
</g>
<g filter="url(#filter1_f_165_892)">
<mask id="path-3-outside-2_165_892" maskUnits="userSpaceOnUse" x="4" y="43" width="1148" height="104" fill="black">
<rect fill="white" x="4" y="43" width="1148" height="104"/>
<path d="M5 145.5V44H34V58.5H48.5V73H63V58.5H77.5V44H106.5V145.5H77.5V87.5H63V116.5H48.5V87.5H34V145.5H5ZM135.5 145.5V131H121V58.5H135.5V44H208V58.5H222.5V131H208V145.5H135.5ZM150 131H193.5V58.5H150V131ZM251.5 145.5V131H237V58.5H251.5V44H324V58.5H338.5V131H324V145.5H251.5ZM266 131H309.5V58.5H266V131ZM353 145.5V44H382V58.5H396.5V73H411V87.5H425.5V44H454.5V145.5H425.5V116.5H411V102H396.5V87.5H382V145.5H353ZM469 145.5V44H556V58.5H570.5V87.5H556V102H570.5V131H556V145.5H469ZM498 87.5H541.5V58.5H498V87.5ZM498 131H541.5V102H498V131ZM585 145.5V44H686.5V58.5H614V87.5H672V102H614V131H686.5V145.5H585ZM701 145.5V73H715.5V58.5H730V44H773.5V58.5H788V73H802.5V145.5H773.5V116.5H730V145.5H701ZM730 102H773.5V73H759V58.5H744.5V73H730V102ZM831.5 145.5V131H817V116.5H846V131H889.5V102H831.5V87.5H817V58.5H831.5V44H904V58.5H918.5V73H889.5V58.5H846V87.5H904V102H918.5V131H904V145.5H831.5ZM976.5 145.5V58.5H947.5V44H1034.5V58.5H1005.5V145.5H976.5ZM1063.5 145.5V131H1049V116.5H1078V131H1121.5V102H1063.5V87.5H1049V58.5H1063.5V44H1136V58.5H1150.5V73H1121.5V58.5H1078V87.5H1136V102H1150.5V131H1136V145.5H1063.5Z"/>
</mask>
<path d="M5 145.5V44H34V58.5H48.5V73H63V58.5H77.5V44H106.5V145.5H77.5V87.5H63V116.5H48.5V87.5H34V145.5H5ZM135.5 145.5V131H121V58.5H135.5V44H208V58.5H222.5V131H208V145.5H135.5ZM150 131H193.5V58.5H150V131ZM251.5 145.5V131H237V58.5H251.5V44H324V58.5H338.5V131H324V145.5H251.5ZM266 131H309.5V58.5H266V131ZM353 145.5V44H382V58.5H396.5V73H411V87.5H425.5V44H454.5V145.5H425.5V116.5H411V102H396.5V87.5H382V145.5H353ZM469 145.5V44H556V58.5H570.5V87.5H556V102H570.5V131H556V145.5H469ZM498 87.5H541.5V58.5H498V87.5ZM498 131H541.5V102H498V131ZM585 145.5V44H686.5V58.5H614V87.5H672V102H614V131H686.5V145.5H585ZM701 145.5V73H715.5V58.5H730V44H773.5V58.5H788V73H802.5V145.5H773.5V116.5H730V145.5H701ZM730 102H773.5V73H759V58.5H744.5V73H730V102ZM831.5 145.5V131H817V116.5H846V131H889.5V102H831.5V87.5H817V58.5H831.5V44H904V58.5H918.5V73H889.5V58.5H846V87.5H904V102H918.5V131H904V145.5H831.5ZM976.5 145.5V58.5H947.5V44H1034.5V58.5H1005.5V145.5H976.5ZM1063.5 145.5V131H1049V116.5H1078V131H1121.5V102H1063.5V87.5H1049V58.5H1063.5V44H1136V58.5H1150.5V73H1121.5V58.5H1078V87.5H1136V102H1150.5V131H1136V145.5H1063.5Z" fill="black"/>
<path d="M5 145.5H4V146.5H5V145.5ZM5 44V43H4V44H5ZM34 44H35V43H34V44ZM34 58.5H33V59.5H34V58.5ZM48.5 58.5H49.5V57.5H48.5V58.5ZM48.5 73H47.5V74H48.5V73ZM63 73V74H64V73H63ZM63 58.5V57.5H62V58.5H63ZM77.5 58.5V59.5H78.5V58.5H77.5ZM77.5 44V43H76.5V44H77.5ZM106.5 44H107.5V43H106.5V44ZM106.5 145.5V146.5H107.5V145.5H106.5ZM77.5 145.5H76.5V146.5H77.5V145.5ZM77.5 87.5H78.5V86.5H77.5V87.5ZM63 87.5V86.5H62V87.5H63ZM63 116.5V117.5H64V116.5H63ZM48.5 116.5H47.5V117.5H48.5V116.5ZM48.5 87.5H49.5V86.5H48.5V87.5ZM34 87.5V86.5H33V87.5H34ZM34 145.5V146.5H35V145.5H34ZM6 145.5V44H4V145.5H6ZM5 45H34V43H5V45ZM33 44V58.5H35V44H33ZM34 59.5H48.5V57.5H34V59.5ZM47.5 58.5V73H49.5V58.5H47.5ZM48.5 74H63V72H48.5V74ZM64 73V58.5H62V73H64ZM63 59.5H77.5V57.5H63V59.5ZM78.5 58.5V44H76.5V58.5H78.5ZM77.5 45H106.5V43H77.5V45ZM105.5 44V145.5H107.5V44H105.5ZM106.5 144.5H77.5V146.5H106.5V144.5ZM78.5 145.5V87.5H76.5V145.5H78.5ZM77.5 86.5H63V88.5H77.5V86.5ZM62 87.5V116.5H64V87.5H62ZM63 115.5H48.5V117.5H63V115.5ZM49.5 116.5V87.5H47.5V116.5H49.5ZM48.5 86.5H34V88.5H48.5V86.5ZM33 87.5V145.5H35V87.5H33ZM34 144.5H5V146.5H34V144.5ZM135.5 145.5H134.5V146.5H135.5V145.5ZM135.5 131H136.5V130H135.5V131ZM121 131H120V132H121V131ZM121 58.5V57.5H120V58.5H121ZM135.5 58.5V59.5H136.5V58.5H135.5ZM135.5 44V43H134.5V44H135.5ZM208 44H209V43H208V44ZM208 58.5H207V59.5H208V58.5ZM222.5 58.5H223.5V57.5H222.5V58.5ZM222.5 131V132H223.5V131H222.5ZM208 131V130H207V131H208ZM208 145.5V146.5H209V145.5H208ZM150 131H149V132H150V131ZM193.5 131V132H194.5V131H193.5ZM193.5 58.5H194.5V57.5H193.5V58.5ZM150 58.5V57.5H149V58.5H150ZM136.5 145.5V131H134.5V145.5H136.5ZM135.5 130H121V132H135.5V130ZM122 131V58.5H120V131H122ZM121 59.5H135.5V57.5H121V59.5ZM136.5 58.5V44H134.5V58.5H136.5ZM135.5 45H208V43H135.5V45ZM207 44V58.5H209V44H207ZM208 59.5H222.5V57.5H208V59.5ZM221.5 58.5V131H223.5V58.5H221.5ZM222.5 130H208V132H222.5V130ZM207 131V145.5H209V131H207ZM208 144.5H135.5V146.5H208V144.5ZM150 132H193.5V130H150V132ZM194.5 131V58.5H192.5V131H194.5ZM193.5 57.5H150V59.5H193.5V57.5ZM149 58.5V131H151V58.5H149ZM251.5 145.5H250.5V146.5H251.5V145.5ZM251.5 131H252.5V130H251.5V131ZM237 131H236V132H237V131ZM237 58.5V57.5H236V58.5H237ZM251.5 58.5V59.5H252.5V58.5H251.5ZM251.5 44V43H250.5V44H251.5ZM324 44H325V43H324V44ZM324 58.5H323V59.5H324V58.5ZM338.5 58.5H339.5V57.5H338.5V58.5ZM338.5 131V132H339.5V131H338.5ZM324 131V130H323V131H324ZM324 145.5V146.5H325V145.5H324ZM266 131H265V132H266V131ZM309.5 131V132H310.5V131H309.5ZM309.5 58.5H310.5V57.5H309.5V58.5ZM266 58.5V57.5H265V58.5H266ZM252.5 145.5V131H250.5V145.5H252.5ZM251.5 130H237V132H251.5V130ZM238 131V58.5H236V131H238ZM237 59.5H251.5V57.5H237V59.5ZM252.5 58.5V44H250.5V58.5H252.5ZM251.5 45H324V43H251.5V45ZM323 44V58.5H325V44H323ZM324 59.5H338.5V57.5H324V59.5ZM337.5 58.5V131H339.5V58.5H337.5ZM338.5 130H324V132H338.5V130ZM323 131V145.5H325V131H323ZM324 144.5H251.5V146.5H324V144.5ZM266 132H309.5V130H266V132ZM310.5 131V58.5H308.5V131H310.5ZM309.5 57.5H266V59.5H309.5V57.5ZM265 58.5V131H267V58.5H265ZM353 145.5H352V146.5H353V145.5ZM353 44V43H352V44H353ZM382 44H383V43H382V44ZM382 58.5H381V59.5H382V58.5ZM396.5 58.5H397.5V57.5H396.5V58.5ZM396.5 73H395.5V74H396.5V73ZM411 73H412V72H411V73ZM411 87.5H410V88.5H411V87.5ZM425.5 87.5V88.5H426.5V87.5H425.5ZM425.5 44V43H424.5V44H425.5ZM454.5 44H455.5V43H454.5V44ZM454.5 145.5V146.5H455.5V145.5H454.5ZM425.5 145.5H424.5V146.5H425.5V145.5ZM425.5 116.5H426.5V115.5H425.5V116.5ZM411 116.5H410V117.5H411V116.5ZM411 102H412V101H411V102ZM396.5 102H395.5V103H396.5V102ZM396.5 87.5H397.5V86.5H396.5V87.5ZM382 87.5V86.5H381V87.5H382ZM382 145.5V146.5H383V145.5H382ZM354 145.5V44H352V145.5H354ZM353 45H382V43H353V45ZM381 44V58.5H383V44H381ZM382 59.5H396.5V57.5H382V59.5ZM395.5 58.5V73H397.5V58.5H395.5ZM396.5 74H411V72H396.5V74ZM410 73V87.5H412V73H410ZM411 88.5H425.5V86.5H411V88.5ZM426.5 87.5V44H424.5V87.5H426.5ZM425.5 45H454.5V43H425.5V45ZM453.5 44V145.5H455.5V44H453.5ZM454.5 144.5H425.5V146.5H454.5V144.5ZM426.5 145.5V116.5H424.5V145.5H426.5ZM425.5 115.5H411V117.5H425.5V115.5ZM412 116.5V102H410V116.5H412ZM411 101H396.5V103H411V101ZM397.5 102V87.5H395.5V102H397.5ZM396.5 86.5H382V88.5H396.5V86.5ZM381 87.5V145.5H383V87.5H381ZM382 144.5H353V146.5H382V144.5ZM469 145.5H468V146.5H469V145.5ZM469 44V43H468V44H469ZM556 44H557V43H556V44ZM556 58.5H555V59.5H556V58.5ZM570.5 58.5H571.5V57.5H570.5V58.5ZM570.5 87.5V88.5H571.5V87.5H570.5ZM556 87.5V86.5H555V87.5H556ZM556 102H555V103H556V102ZM570.5 102H571.5V101H570.5V102ZM570.5 131V132H571.5V131H570.5ZM556 131V130H555V131H556ZM556 145.5V146.5H557V145.5H556ZM498 87.5H497V88.5H498V87.5ZM541.5 87.5V88.5H542.5V87.5H541.5ZM541.5 58.5H542.5V57.5H541.5V58.5ZM498 58.5V57.5H497V58.5H498ZM498 131H497V132H498V131ZM541.5 131V132H542.5V131H541.5ZM541.5 102H542.5V101H541.5V102ZM498 102V101H497V102H498ZM470 145.5V44H468V145.5H470ZM469 45H556V43H469V45ZM555 44V58.5H557V44H555ZM556 59.5H570.5V57.5H556V59.5ZM569.5 58.5V87.5H571.5V58.5H569.5ZM570.5 86.5H556V88.5H570.5V86.5ZM555 87.5V102H557V87.5H555ZM556 103H570.5V101H556V103ZM569.5 102V131H571.5V102H569.5ZM570.5 130H556V132H570.5V130ZM555 131V145.5H557V131H555ZM556 144.5H469V146.5H556V144.5ZM498 88.5H541.5V86.5H498V88.5ZM542.5 87.5V58.5H540.5V87.5H542.5ZM541.5 57.5H498V59.5H541.5V57.5ZM497 58.5V87.5H499V58.5H497ZM498 132H541.5V130H498V132ZM542.5 131V102H540.5V131H542.5ZM541.5 101H498V103H541.5V101ZM497 102V131H499V102H497ZM585 145.5H584V146.5H585V145.5ZM585 44V43H584V44H585ZM686.5 44H687.5V43H686.5V44ZM686.5 58.5V59.5H687.5V58.5H686.5ZM614 58.5V57.5H613V58.5H614ZM614 87.5H613V88.5H614V87.5ZM672 87.5H673V86.5H672V87.5ZM672 102V103H673V102H672ZM614 102V101H613V102H614ZM614 131H613V132H614V131ZM686.5 131H687.5V130H686.5V131ZM686.5 145.5V146.5H687.5V145.5H686.5ZM586 145.5V44H584V145.5H586ZM585 45H686.5V43H585V45ZM685.5 44V58.5H687.5V44H685.5ZM686.5 57.5H614V59.5H686.5V57.5ZM613 58.5V87.5H615V58.5H613ZM614 88.5H672V86.5H614V88.5ZM671 87.5V102H673V87.5H671ZM672 101H614V103H672V101ZM613 102V131H615V102H613ZM614 132H686.5V130H614V132ZM685.5 131V145.5H687.5V131H685.5ZM686.5 144.5H585V146.5H686.5V144.5ZM701 145.5H700V146.5H701V145.5ZM701 73V72H700V73H701ZM715.5 73V74H716.5V73H715.5ZM715.5 58.5V57.5H714.5V58.5H715.5ZM730 58.5V59.5H731V58.5H730ZM730 44V43H729V44H730ZM773.5 44H774.5V43H773.5V44ZM773.5 58.5H772.5V59.5H773.5V58.5ZM788 58.5H789V57.5H788V58.5ZM788 73H787V74H788V73ZM802.5 73H803.5V72H802.5V73ZM802.5 145.5V146.5H803.5V145.5H802.5ZM773.5 145.5H772.5V146.5H773.5V145.5ZM773.5 116.5H774.5V115.5H773.5V116.5ZM730 116.5V115.5H729V116.5H730ZM730 145.5V146.5H731V145.5H730ZM730 102H729V103H730V102ZM773.5 102V103H774.5V102H773.5ZM773.5 73H774.5V72H773.5V73ZM759 73H758V74H759V73ZM759 58.5H760V57.5H759V58.5ZM744.5 58.5V57.5H743.5V58.5H744.5ZM744.5 73V74H745.5V73H744.5ZM730 73V72H729V73H730ZM702 145.5V73H700V145.5H702ZM701 74H715.5V72H701V74ZM716.5 73V58.5H714.5V73H716.5ZM715.5 59.5H730V57.5H715.5V59.5ZM731 58.5V44H729V58.5H731ZM730 45H773.5V43H730V45ZM772.5 44V58.5H774.5V44H772.5ZM773.5 59.5H788V57.5H773.5V59.5ZM787 58.5V73H789V58.5H787ZM788 74H802.5V72H788V74ZM801.5 73V145.5H803.5V73H801.5ZM802.5 144.5H773.5V146.5H802.5V144.5ZM774.5 145.5V116.5H772.5V145.5H774.5ZM773.5 115.5H730V117.5H773.5V115.5ZM729 116.5V145.5H731V116.5H729ZM730 144.5H701V146.5H730V144.5ZM730 103H773.5V101H730V103ZM774.5 102V73H772.5V102H774.5ZM773.5 72H759V74H773.5V72ZM760 73V58.5H758V73H760ZM759 57.5H744.5V59.5H759V57.5ZM743.5 58.5V73H745.5V58.5H743.5ZM744.5 72H730V74H744.5V72ZM729 73V102H731V73H729ZM831.5 145.5H830.5V146.5H831.5V145.5ZM831.5 131H832.5V130H831.5V131ZM817 131H816V132H817V131ZM817 116.5V115.5H816V116.5H817ZM846 116.5H847V115.5H846V116.5ZM846 131H845V132H846V131ZM889.5 131V132H890.5V131H889.5ZM889.5 102H890.5V101H889.5V102ZM831.5 102H830.5V103H831.5V102ZM831.5 87.5H832.5V86.5H831.5V87.5ZM817 87.5H816V88.5H817V87.5ZM817 58.5V57.5H816V58.5H817ZM831.5 58.5V59.5H832.5V58.5H831.5ZM831.5 44V43H830.5V44H831.5ZM904 44H905V43H904V44ZM904 58.5H903V59.5H904V58.5ZM918.5 58.5H919.5V57.5H918.5V58.5ZM918.5 73V74H919.5V73H918.5ZM889.5 73H888.5V74H889.5V73ZM889.5 58.5H890.5V57.5H889.5V58.5ZM846 58.5V57.5H845V58.5H846ZM846 87.5H845V88.5H846V87.5ZM904 87.5H905V86.5H904V87.5ZM904 102H903V103H904V102ZM918.5 102H919.5V101H918.5V102ZM918.5 131V132H919.5V131H918.5ZM904 131V130H903V131H904ZM904 145.5V146.5H905V145.5H904ZM832.5 145.5V131H830.5V145.5H832.5ZM831.5 130H817V132H831.5V130ZM818 131V116.5H816V131H818ZM817 117.5H846V115.5H817V117.5ZM845 116.5V131H847V116.5H845ZM846 132H889.5V130H846V132ZM890.5 131V102H888.5V131H890.5ZM889.5 101H831.5V103H889.5V101ZM832.5 102V87.5H830.5V102H832.5ZM831.5 86.5H817V88.5H831.5V86.5ZM818 87.5V58.5H816V87.5H818ZM817 59.5H831.5V57.5H817V59.5ZM832.5 58.5V44H830.5V58.5H832.5ZM831.5 45H904V43H831.5V45ZM903 44V58.5H905V44H903ZM904 59.5H918.5V57.5H904V59.5ZM917.5 58.5V73H919.5V58.5H917.5ZM918.5 72H889.5V74H918.5V72ZM890.5 73V58.5H888.5V73H890.5ZM889.5 57.5H846V59.5H889.5V57.5ZM845 58.5V87.5H847V58.5H845ZM846 88.5H904V86.5H846V88.5ZM903 87.5V102H905V87.5H903ZM904 103H918.5V101H904V103ZM917.5 102V131H919.5V102H917.5ZM918.5 130H904V132H918.5V130ZM903 131V145.5H905V131H903ZM904 144.5H831.5V146.5H904V144.5ZM976.5 145.5H975.5V146.5H976.5V145.5ZM976.5 58.5H977.5V57.5H976.5V58.5ZM947.5 58.5H946.5V59.5H947.5V58.5ZM947.5 44V43H946.5V44H947.5ZM1034.5 44H1035.5V43H1034.5V44ZM1034.5 58.5V59.5H1035.5V58.5H1034.5ZM1005.5 58.5V57.5H1004.5V58.5H1005.5ZM1005.5 145.5V146.5H1006.5V145.5H1005.5ZM977.5 145.5V58.5H975.5V145.5H977.5ZM976.5 57.5H947.5V59.5H976.5V57.5ZM948.5 58.5V44H946.5V58.5H948.5ZM947.5 45H1034.5V43H947.5V45ZM1033.5 44V58.5H1035.5V44H1033.5ZM1034.5 57.5H1005.5V59.5H1034.5V57.5ZM1004.5 58.5V145.5H1006.5V58.5H1004.5ZM1005.5 144.5H976.5V146.5H1005.5V144.5ZM1063.5 145.5H1062.5V146.5H1063.5V145.5ZM1063.5 131H1064.5V130H1063.5V131ZM1049 131H1048V132H1049V131ZM1049 116.5V115.5H1048V116.5H1049ZM1078 116.5H1079V115.5H1078V116.5ZM1078 131H1077V132H1078V131ZM1121.5 131V132H1122.5V131H1121.5ZM1121.5 102H1122.5V101H1121.5V102ZM1063.5 102H1062.5V103H1063.5V102ZM1063.5 87.5H1064.5V86.5H1063.5V87.5ZM1049 87.5H1048V88.5H1049V87.5ZM1049 58.5V57.5H1048V58.5H1049ZM1063.5 58.5V59.5H1064.5V58.5H1063.5ZM1063.5 44V43H1062.5V44H1063.5ZM1136 44H1137V43H1136V44ZM1136 58.5H1135V59.5H1136V58.5ZM1150.5 58.5H1151.5V57.5H1150.5V58.5ZM1150.5 73V74H1151.5V73H1150.5ZM1121.5 73H1120.5V74H1121.5V73ZM1121.5 58.5H1122.5V57.5H1121.5V58.5ZM1078 58.5V57.5H1077V58.5H1078ZM1078 87.5H1077V88.5H1078V87.5ZM1136 87.5H1137V86.5H1136V87.5ZM1136 102H1135V103H1136V102ZM1150.5 102H1151.5V101H1150.5V102ZM1150.5 131V132H1151.5V131H1150.5ZM1136 131V130H1135V131H1136ZM1136 145.5V146.5H1137V145.5H1136ZM1064.5 145.5V131H1062.5V145.5H1064.5ZM1063.5 130H1049V132H1063.5V130ZM1050 131V116.5H1048V131H1050ZM1049 117.5H1078V115.5H1049V117.5ZM1077 116.5V131H1079V116.5H1077ZM1078 132H1121.5V130H1078V132ZM1122.5 131V102H1120.5V131H1122.5ZM1121.5 101H1063.5V103H1121.5V101ZM1064.5 102V87.5H1062.5V102H1064.5ZM1063.5 86.5H1049V88.5H1063.5V86.5ZM1050 87.5V58.5H1048V87.5H1050ZM1049 59.5H1063.5V57.5H1049V59.5ZM1064.5 58.5V44H1062.5V58.5H1064.5ZM1063.5 45H1136V43H1063.5V45ZM1135 44V58.5H1137V44H1135ZM1136 59.5H1150.5V57.5H1136V59.5ZM1149.5 58.5V73H1151.5V58.5H1149.5ZM1150.5 72H1121.5V74H1150.5V72ZM1122.5 73V58.5H1120.5V73H1122.5ZM1121.5 57.5H1078V59.5H1121.5V57.5ZM1077 58.5V87.5H1079V58.5H1077ZM1078 88.5H1136V86.5H1078V88.5ZM1135 87.5V102H1137V87.5H1135ZM1136 103H1150.5V101H1136V103ZM1149.5 102V131H1151.5V102H1149.5ZM1150.5 130H1136V132H1150.5V130ZM1135 131V145.5H1137V131H1135ZM1136 144.5H1063.5V146.5H1136V144.5Z" fill="#9A7AF2" mask="url(#path-3-outside-2_165_892)"/>
</g>
<path d="M5 101.5V0H34V14.5H48.5V29H63V14.5H77.5V0H106.5V101.5H77.5V43.5H63V72.5H48.5V43.5H34V101.5H5ZM135.5 101.5V87H121V14.5H135.5V0H208V14.5H222.5V87H208V101.5H135.5ZM150 87H193.5V14.5H150V87ZM251.5 101.5V87H237V14.5H251.5V0H324V14.5H338.5V87H324V101.5H251.5ZM266 87H309.5V14.5H266V87ZM353 101.5V0H382V14.5H396.5V29H411V43.5H425.5V0H454.5V101.5H425.5V72.5H411V58H396.5V43.5H382V101.5H353ZM469 101.5V0H556V14.5H570.5V43.5H556V58H570.5V87H556V101.5H469ZM498 43.5H541.5V14.5H498V43.5ZM498 87H541.5V58H498V87ZM585 101.5V0H686.5V14.5H614V43.5H672V58H614V87H686.5V101.5H585ZM701 101.5V29H715.5V14.5H730V0H773.5V14.5H788V29H802.5V101.5H773.5V72.5H730V101.5H701ZM730 58H773.5V29H759V14.5H744.5V29H730V58ZM831.5 101.5V87H817V72.5H846V87H889.5V58H831.5V43.5H817V14.5H831.5V0H904V14.5H918.5V29H889.5V14.5H846V43.5H904V58H918.5V87H904V101.5H831.5ZM976.5 101.5V14.5H947.5V0H1034.5V14.5H1005.5V101.5H976.5ZM1063.5 101.5V87H1049V72.5H1078V87H1121.5V58H1063.5V43.5H1049V14.5H1063.5V0H1136V14.5H1150.5V29H1121.5V14.5H1078V43.5H1136V58H1150.5V87H1136V101.5H1063.5Z" fill="#9A7AF2"/>
<defs>
<filter id="filter0_f_165_892" x="0" y="83" width="1155.5" height="111.5" filterUnits="userSpaceOnUse" color-interpolation-filters="sRGB">
<feFlood flood-opacity="0" result="BackgroundImageFix"/>
<feBlend mode="normal" in="SourceGraphic" in2="BackgroundImageFix" result="shape"/>
<feGaussianBlur stdDeviation="2.5" result="effect1_foregroundBlur_165_892"/>
</filter>
<filter id="filter1_f_165_892" x="2" y="41" width="1151.5" height="107.5" filterUnits="userSpaceOnUse" color-interpolation-filters="sRGB">
<feFlood flood-opacity="0" result="BackgroundImageFix"/>
<feBlend mode="normal" in="SourceGraphic" in2="BackgroundImageFix" result="shape"/>
<feGaussianBlur stdDeviation="1.5" result="effect1_foregroundBlur_165_892"/>
</filter>
</defs>
</svg>
