<svg width="1281" height="204" viewBox="0 0 1281 204" fill="none" xmlns="http://www.w3.org/2000/svg">
<g filter="url(#filter0_f_58_7370)">
<mask id="path-1-outside-1_58_7370" maskUnits="userSpaceOnUse" x="4" y="87" width="1264" height="104" fill="black">
<rect fill="white" x="4" y="87" width="1264" height="104"/>
<path d="M5 189.5V88H34V102.5H48.5V117H63V102.5H77.5V88H106.5V189.5H77.5V131.5H63V160.5H48.5V131.5H34V189.5H5ZM135.5 189.5V175H121V102.5H135.5V88H208V102.5H222.5V175H208V189.5H135.5ZM150 175H193.5V102.5H150V175ZM251.5 189.5V175H237V102.5H251.5V88H324V102.5H338.5V175H324V189.5H251.5ZM266 175H309.5V102.5H266V175ZM353 189.5V88H382V102.5H396.5V117H411V131.5H425.5V88H454.5V189.5H425.5V160.5H411V146H396.5V131.5H382V189.5H353ZM585 189.5V88H672V102.5H686.5V131.5H672V146H686.5V175H672V189.5H585ZM614 131.5H657.5V102.5H614V131.5ZM614 175H657.5V146H614V175ZM701 189.5V88H802.5V102.5H730V131.5H788V146H730V175H802.5V189.5H701ZM817 189.5V117H831.5V102.5H846V88H889.5V102.5H904V117H918.5V189.5H889.5V160.5H846V189.5H817ZM846 146H889.5V117H875V102.5H860.5V117H846V146ZM947.5 189.5V175H933V160.5H962V175H1005.5V146H947.5V131.5H933V102.5H947.5V88H1020V102.5H1034.5V117H1005.5V102.5H962V131.5H1020V146H1034.5V175H1020V189.5H947.5ZM1092.5 189.5V102.5H1063.5V88H1150.5V102.5H1121.5V189.5H1092.5ZM1179.5 189.5V175H1165V160.5H1194V175H1237.5V146H1179.5V131.5H1165V102.5H1179.5V88H1252V102.5H1266.5V117H1237.5V102.5H1194V131.5H1252V146H1266.5V175H1252V189.5H1179.5Z"/>
</mask>
<path d="M5 189.5V88H34V102.5H48.5V117H63V102.5H77.5V88H106.5V189.5H77.5V131.5H63V160.5H48.5V131.5H34V189.5H5ZM135.5 189.5V175H121V102.5H135.5V88H208V102.5H222.5V175H208V189.5H135.5ZM150 175H193.5V102.5H150V175ZM251.5 189.5V175H237V102.5H251.5V88H324V102.5H338.5V175H324V189.5H251.5ZM266 175H309.5V102.5H266V175ZM353 189.5V88H382V102.5H396.5V117H411V131.5H425.5V88H454.5V189.5H425.5V160.5H411V146H396.5V131.5H382V189.5H353ZM585 189.5V88H672V102.5H686.5V131.5H672V146H686.5V175H672V189.5H585ZM614 131.5H657.5V102.5H614V131.5ZM614 175H657.5V146H614V175ZM701 189.5V88H802.5V102.5H730V131.5H788V146H730V175H802.5V189.5H701ZM817 189.5V117H831.5V102.5H846V88H889.5V102.5H904V117H918.5V189.5H889.5V160.5H846V189.5H817ZM846 146H889.5V117H875V102.5H860.5V117H846V146ZM947.5 189.5V175H933V160.5H962V175H1005.5V146H947.5V131.5H933V102.5H947.5V88H1020V102.5H1034.5V117H1005.5V102.5H962V131.5H1020V146H1034.5V175H1020V189.5H947.5ZM1092.5 189.5V102.5H1063.5V88H1150.5V102.5H1121.5V189.5H1092.5ZM1179.5 189.5V175H1165V160.5H1194V175H1237.5V146H1179.5V131.5H1165V102.5H1179.5V88H1252V102.5H1266.5V117H1237.5V102.5H1194V131.5H1252V146H1266.5V175H1252V189.5H1179.5Z" fill="black"/>
<path d="M5 189.5H4V190.5H5V189.5ZM5 88V87H4V88H5ZM34 88H35V87H34V88ZM34 102.5H33V103.5H34V102.5ZM48.5 102.5H49.5V101.5H48.5V102.5ZM48.5 117H47.5V118H48.5V117ZM63 117V118H64V117H63ZM63 102.5V101.5H62V102.5H63ZM77.5 102.5V103.5H78.5V102.5H77.5ZM77.5 88V87H76.5V88H77.5ZM106.5 88H107.5V87H106.5V88ZM106.5 189.5V190.5H107.5V189.5H106.5ZM77.5 189.5H76.5V190.5H77.5V189.5ZM77.5 131.5H78.5V130.5H77.5V131.5ZM63 131.5V130.5H62V131.5H63ZM63 160.5V161.5H64V160.5H63ZM48.5 160.5H47.5V161.5H48.5V160.5ZM48.5 131.5H49.5V130.5H48.5V131.5ZM34 131.5V130.5H33V131.5H34ZM34 189.5V190.5H35V189.5H34ZM6 189.5V88H4V189.5H6ZM5 89H34V87H5V89ZM33 88V102.5H35V88H33ZM34 103.5H48.5V101.5H34V103.5ZM47.5 102.5V117H49.5V102.5H47.5ZM48.5 118H63V116H48.5V118ZM64 117V102.5H62V117H64ZM63 103.5H77.5V101.5H63V103.5ZM78.5 102.5V88H76.5V102.5H78.5ZM77.5 89H106.5V87H77.5V89ZM105.5 88V189.5H107.5V88H105.5ZM106.5 188.5H77.5V190.5H106.5V188.5ZM78.5 189.5V131.5H76.5V189.5H78.5ZM77.5 130.5H63V132.5H77.5V130.5ZM62 131.5V160.5H64V131.5H62ZM63 159.5H48.5V161.5H63V159.5ZM49.5 160.5V131.5H47.5V160.5H49.5ZM48.5 130.5H34V132.5H48.5V130.5ZM33 131.5V189.5H35V131.5H33ZM34 188.5H5V190.5H34V188.5ZM135.5 189.5H134.5V190.5H135.5V189.5ZM135.5 175H136.5V174H135.5V175ZM121 175H120V176H121V175ZM121 102.5V101.5H120V102.5H121ZM135.5 102.5V103.5H136.5V102.5H135.5ZM135.5 88V87H134.5V88H135.5ZM208 88H209V87H208V88ZM208 102.5H207V103.5H208V102.5ZM222.5 102.5H223.5V101.5H222.5V102.5ZM222.5 175V176H223.5V175H222.5ZM208 175V174H207V175H208ZM208 189.5V190.5H209V189.5H208ZM150 175H149V176H150V175ZM193.5 175V176H194.5V175H193.5ZM193.5 102.5H194.5V101.5H193.5V102.5ZM150 102.5V101.5H149V102.5H150ZM136.5 189.5V175H134.5V189.5H136.5ZM135.5 174H121V176H135.5V174ZM122 175V102.5H120V175H122ZM121 103.5H135.5V101.5H121V103.5ZM136.5 102.5V88H134.5V102.5H136.5ZM135.5 89H208V87H135.5V89ZM207 88V102.5H209V88H207ZM208 103.5H222.5V101.5H208V103.5ZM221.5 102.5V175H223.5V102.5H221.5ZM222.5 174H208V176H222.5V174ZM207 175V189.5H209V175H207ZM208 188.5H135.5V190.5H208V188.5ZM150 176H193.5V174H150V176ZM194.5 175V102.5H192.5V175H194.5ZM193.5 101.5H150V103.5H193.5V101.5ZM149 102.5V175H151V102.5H149ZM251.5 189.5H250.5V190.5H251.5V189.5ZM251.5 175H252.5V174H251.5V175ZM237 175H236V176H237V175ZM237 102.5V101.5H236V102.5H237ZM251.5 102.5V103.5H252.5V102.5H251.5ZM251.5 88V87H250.5V88H251.5ZM324 88H325V87H324V88ZM324 102.5H323V103.5H324V102.5ZM338.5 102.5H339.5V101.5H338.5V102.5ZM338.5 175V176H339.5V175H338.5ZM324 175V174H323V175H324ZM324 189.5V190.5H325V189.5H324ZM266 175H265V176H266V175ZM309.5 175V176H310.5V175H309.5ZM309.5 102.5H310.5V101.5H309.5V102.5ZM266 102.5V101.5H265V102.5H266ZM252.5 189.5V175H250.5V189.5H252.5ZM251.5 174H237V176H251.5V174ZM238 175V102.5H236V175H238ZM237 103.5H251.5V101.5H237V103.5ZM252.5 102.5V88H250.5V102.5H252.5ZM251.5 89H324V87H251.5V89ZM323 88V102.5H325V88H323ZM324 103.5H338.5V101.5H324V103.5ZM337.5 102.5V175H339.5V102.5H337.5ZM338.5 174H324V176H338.5V174ZM323 175V189.5H325V175H323ZM324 188.5H251.5V190.5H324V188.5ZM266 176H309.5V174H266V176ZM310.5 175V102.5H308.5V175H310.5ZM309.5 101.5H266V103.5H309.5V101.5ZM265 102.5V175H267V102.5H265ZM353 189.5H352V190.5H353V189.5ZM353 88V87H352V88H353ZM382 88H383V87H382V88ZM382 102.5H381V103.5H382V102.5ZM396.5 102.5H397.5V101.5H396.5V102.5ZM396.5 117H395.5V118H396.5V117ZM411 117H412V116H411V117ZM411 131.5H410V132.5H411V131.5ZM425.5 131.5V132.5H426.5V131.5H425.5ZM425.5 88V87H424.5V88H425.5ZM454.5 88H455.5V87H454.5V88ZM454.5 189.5V190.5H455.5V189.5H454.5ZM425.5 189.5H424.5V190.5H425.5V189.5ZM425.5 160.5H426.5V159.5H425.5V160.5ZM411 160.5H410V161.5H411V160.5ZM411 146H412V145H411V146ZM396.5 146H395.5V147H396.5V146ZM396.5 131.5H397.5V130.5H396.5V131.5ZM382 131.5V130.5H381V131.5H382ZM382 189.5V190.5H383V189.5H382ZM354 189.5V88H352V189.5H354ZM353 89H382V87H353V89ZM381 88V102.5H383V88H381ZM382 103.5H396.5V101.5H382V103.5ZM395.5 102.5V117H397.5V102.5H395.5ZM396.5 118H411V116H396.5V118ZM410 117V131.5H412V117H410ZM411 132.5H425.5V130.5H411V132.5ZM426.5 131.5V88H424.5V131.5H426.5ZM425.5 89H454.5V87H425.5V89ZM453.5 88V189.5H455.5V88H453.5ZM454.5 188.5H425.5V190.5H454.5V188.5ZM426.5 189.5V160.5H424.5V189.5H426.5ZM425.5 159.5H411V161.5H425.5V159.5ZM412 160.5V146H410V160.5H412ZM411 145H396.5V147H411V145ZM397.5 146V131.5H395.5V146H397.5ZM396.5 130.5H382V132.5H396.5V130.5ZM381 131.5V189.5H383V131.5H381ZM382 188.5H353V190.5H382V188.5ZM585 189.5H584V190.5H585V189.5ZM585 88V87H584V88H585ZM672 88H673V87H672V88ZM672 102.5H671V103.5H672V102.5ZM686.5 102.5H687.5V101.5H686.5V102.5ZM686.5 131.5V132.5H687.5V131.5H686.5ZM672 131.5V130.5H671V131.5H672ZM672 146H671V147H672V146ZM686.5 146H687.5V145H686.5V146ZM686.5 175V176H687.5V175H686.5ZM672 175V174H671V175H672ZM672 189.5V190.5H673V189.5H672ZM614 131.5H613V132.5H614V131.5ZM657.5 131.5V132.5H658.5V131.5H657.5ZM657.5 102.5H658.5V101.5H657.5V102.5ZM614 102.5V101.5H613V102.5H614ZM614 175H613V176H614V175ZM657.5 175V176H658.5V175H657.5ZM657.5 146H658.5V145H657.5V146ZM614 146V145H613V146H614ZM586 189.5V88H584V189.5H586ZM585 89H672V87H585V89ZM671 88V102.5H673V88H671ZM672 103.5H686.5V101.5H672V103.5ZM685.5 102.5V131.5H687.5V102.5H685.5ZM686.5 130.5H672V132.5H686.5V130.5ZM671 131.5V146H673V131.5H671ZM672 147H686.5V145H672V147ZM685.5 146V175H687.5V146H685.5ZM686.5 174H672V176H686.5V174ZM671 175V189.5H673V175H671ZM672 188.5H585V190.5H672V188.5ZM614 132.5H657.5V130.5H614V132.5ZM658.5 131.5V102.5H656.5V131.5H658.5ZM657.5 101.5H614V103.5H657.5V101.5ZM613 102.5V131.5H615V102.5H613ZM614 176H657.5V174H614V176ZM658.5 175V146H656.5V175H658.5ZM657.5 145H614V147H657.5V145ZM613 146V175H615V146H613ZM701 189.5H700V190.5H701V189.5ZM701 88V87H700V88H701ZM802.5 88H803.5V87H802.5V88ZM802.5 102.5V103.5H803.5V102.5H802.5ZM730 102.5V101.5H729V102.5H730ZM730 131.5H729V132.5H730V131.5ZM788 131.5H789V130.5H788V131.5ZM788 146V147H789V146H788ZM730 146V145H729V146H730ZM730 175H729V176H730V175ZM802.5 175H803.5V174H802.5V175ZM802.5 189.5V190.5H803.5V189.5H802.5ZM702 189.5V88H700V189.5H702ZM701 89H802.5V87H701V89ZM801.5 88V102.5H803.5V88H801.5ZM802.5 101.5H730V103.5H802.5V101.5ZM729 102.5V131.5H731V102.5H729ZM730 132.5H788V130.5H730V132.5ZM787 131.5V146H789V131.5H787ZM788 145H730V147H788V145ZM729 146V175H731V146H729ZM730 176H802.5V174H730V176ZM801.5 175V189.5H803.5V175H801.5ZM802.5 188.5H701V190.5H802.5V188.5ZM817 189.5H816V190.5H817V189.5ZM817 117V116H816V117H817ZM831.5 117V118H832.5V117H831.5ZM831.5 102.5V101.5H830.5V102.5H831.5ZM846 102.5V103.5H847V102.5H846ZM846 88V87H845V88H846ZM889.5 88H890.5V87H889.5V88ZM889.5 102.5H888.5V103.5H889.5V102.5ZM904 102.5H905V101.5H904V102.5ZM904 117H903V118H904V117ZM918.5 117H919.5V116H918.5V117ZM918.5 189.5V190.5H919.5V189.5H918.5ZM889.5 189.5H888.5V190.5H889.5V189.5ZM889.5 160.5H890.5V159.5H889.5V160.5ZM846 160.5V159.5H845V160.5H846ZM846 189.5V190.5H847V189.5H846ZM846 146H845V147H846V146ZM889.5 146V147H890.5V146H889.5ZM889.5 117H890.5V116H889.5V117ZM875 117H874V118H875V117ZM875 102.5H876V101.5H875V102.5ZM860.5 102.5V101.5H859.5V102.5H860.5ZM860.5 117V118H861.5V117H860.5ZM846 117V116H845V117H846ZM818 189.5V117H816V189.5H818ZM817 118H831.5V116H817V118ZM832.5 117V102.5H830.5V117H832.5ZM831.5 103.5H846V101.5H831.5V103.5ZM847 102.5V88H845V102.5H847ZM846 89H889.5V87H846V89ZM888.5 88V102.5H890.5V88H888.5ZM889.5 103.5H904V101.5H889.5V103.5ZM903 102.5V117H905V102.5H903ZM904 118H918.5V116H904V118ZM917.5 117V189.5H919.5V117H917.5ZM918.5 188.5H889.5V190.5H918.5V188.5ZM890.5 189.5V160.5H888.5V189.5H890.5ZM889.5 159.5H846V161.5H889.5V159.5ZM845 160.5V189.5H847V160.5H845ZM846 188.5H817V190.5H846V188.5ZM846 147H889.5V145H846V147ZM890.5 146V117H888.5V146H890.5ZM889.5 116H875V118H889.5V116ZM876 117V102.5H874V117H876ZM875 101.5H860.5V103.5H875V101.5ZM859.5 102.5V117H861.5V102.5H859.5ZM860.5 116H846V118H860.5V116ZM845 117V146H847V117H845ZM947.5 189.5H946.5V190.5H947.5V189.5ZM947.5 175H948.5V174H947.5V175ZM933 175H932V176H933V175ZM933 160.5V159.5H932V160.5H933ZM962 160.5H963V159.5H962V160.5ZM962 175H961V176H962V175ZM1005.5 175V176H1006.5V175H1005.5ZM1005.5 146H1006.5V145H1005.5V146ZM947.5 146H946.5V147H947.5V146ZM947.5 131.5H948.5V130.5H947.5V131.5ZM933 131.5H932V132.5H933V131.5ZM933 102.5V101.5H932V102.5H933ZM947.5 102.5V103.5H948.5V102.5H947.5ZM947.5 88V87H946.5V88H947.5ZM1020 88H1021V87H1020V88ZM1020 102.5H1019V103.5H1020V102.5ZM1034.5 102.5H1035.5V101.5H1034.5V102.5ZM1034.5 117V118H1035.5V117H1034.5ZM1005.5 117H1004.5V118H1005.5V117ZM1005.5 102.5H1006.5V101.5H1005.5V102.5ZM962 102.5V101.5H961V102.5H962ZM962 131.5H961V132.5H962V131.5ZM1020 131.5H1021V130.5H1020V131.5ZM1020 146H1019V147H1020V146ZM1034.5 146H1035.5V145H1034.5V146ZM1034.5 175V176H1035.5V175H1034.5ZM1020 175V174H1019V175H1020ZM1020 189.5V190.5H1021V189.5H1020ZM948.5 189.5V175H946.5V189.5H948.5ZM947.5 174H933V176H947.5V174ZM934 175V160.5H932V175H934ZM933 161.5H962V159.5H933V161.5ZM961 160.5V175H963V160.5H961ZM962 176H1005.5V174H962V176ZM1006.5 175V146H1004.5V175H1006.5ZM1005.5 145H947.5V147H1005.5V145ZM948.5 146V131.5H946.5V146H948.5ZM947.5 130.5H933V132.5H947.5V130.5ZM934 131.5V102.5H932V131.5H934ZM933 103.5H947.5V101.5H933V103.5ZM948.5 102.5V88H946.5V102.5H948.5ZM947.5 89H1020V87H947.5V89ZM1019 88V102.5H1021V88H1019ZM1020 103.5H1034.5V101.5H1020V103.5ZM1033.5 102.5V117H1035.5V102.5H1033.5ZM1034.5 116H1005.5V118H1034.5V116ZM1006.5 117V102.5H1004.5V117H1006.5ZM1005.5 101.5H962V103.5H1005.5V101.5ZM961 102.5V131.5H963V102.5H961ZM962 132.5H1020V130.5H962V132.5ZM1019 131.5V146H1021V131.5H1019ZM1020 147H1034.5V145H1020V147ZM1033.5 146V175H1035.5V146H1033.5ZM1034.5 174H1020V176H1034.5V174ZM1019 175V189.5H1021V175H1019ZM1020 188.5H947.5V190.5H1020V188.5ZM1092.5 189.5H1091.5V190.5H1092.5V189.5ZM1092.5 102.5H1093.5V101.5H1092.5V102.5ZM1063.5 102.5H1062.5V103.5H1063.5V102.5ZM1063.5 88V87H1062.5V88H1063.5ZM1150.5 88H1151.5V87H1150.5V88ZM1150.5 102.5V103.5H1151.5V102.5H1150.5ZM1121.5 102.5V101.5H1120.5V102.5H1121.5ZM1121.5 189.5V190.5H1122.5V189.5H1121.5ZM1093.5 189.5V102.5H1091.5V189.5H1093.5ZM1092.5 101.5H1063.5V103.5H1092.5V101.5ZM1064.5 102.5V88H1062.5V102.5H1064.5ZM1063.5 89H1150.5V87H1063.5V89ZM1149.5 88V102.5H1151.5V88H1149.5ZM1150.5 101.5H1121.5V103.5H1150.5V101.5ZM1120.5 102.5V189.5H1122.5V102.5H1120.5ZM1121.5 188.5H1092.5V190.5H1121.5V188.5ZM1179.5 189.5H1178.5V190.5H1179.5V189.5ZM1179.5 175H1180.5V174H1179.5V175ZM1165 175H1164V176H1165V175ZM1165 160.5V159.5H1164V160.5H1165ZM1194 160.5H1195V159.5H1194V160.5ZM1194 175H1193V176H1194V175ZM1237.5 175V176H1238.5V175H1237.5ZM1237.5 146H1238.5V145H1237.5V146ZM1179.5 146H1178.5V147H1179.5V146ZM1179.5 131.5H1180.5V130.5H1179.5V131.5ZM1165 131.5H1164V132.5H1165V131.5ZM1165 102.5V101.5H1164V102.5H1165ZM1179.5 102.5V103.5H1180.5V102.5H1179.5ZM1179.5 88V87H1178.5V88H1179.5ZM1252 88H1253V87H1252V88ZM1252 102.5H1251V103.5H1252V102.5ZM1266.5 102.5H1267.5V101.5H1266.5V102.5ZM1266.5 117V118H1267.5V117H1266.5ZM1237.5 117H1236.5V118H1237.5V117ZM1237.5 102.5H1238.5V101.5H1237.5V102.5ZM1194 102.5V101.5H1193V102.5H1194ZM1194 131.5H1193V132.5H1194V131.5ZM1252 131.5H1253V130.5H1252V131.5ZM1252 146H1251V147H1252V146ZM1266.5 146H1267.5V145H1266.5V146ZM1266.5 175V176H1267.5V175H1266.5ZM1252 175V174H1251V175H1252ZM1252 189.5V190.5H1253V189.5H1252ZM1180.5 189.5V175H1178.5V189.5H1180.5ZM1179.5 174H1165V176H1179.5V174ZM1166 175V160.5H1164V175H1166ZM1165 161.5H1194V159.5H1165V161.5ZM1193 160.5V175H1195V160.5H1193ZM1194 176H1237.5V174H1194V176ZM1238.5 175V146H1236.5V175H1238.5ZM1237.5 145H1179.5V147H1237.5V145ZM1180.5 146V131.5H1178.5V146H1180.5ZM1179.5 130.5H1165V132.5H1179.5V130.5ZM1166 131.5V102.5H1164V131.5H1166ZM1165 103.5H1179.5V101.5H1165V103.5ZM1180.5 102.5V88H1178.5V102.5H1180.5ZM1179.5 89H1252V87H1179.5V89ZM1251 88V102.5H1253V88H1251ZM1252 103.5H1266.5V101.5H1252V103.5ZM1265.5 102.5V117H1267.5V102.5H1265.5ZM1266.5 116H1237.5V118H1266.5V116ZM1238.5 117V102.5H1236.5V117H1238.5ZM1237.5 101.5H1194V103.5H1237.5V101.5ZM1193 102.5V131.5H1195V102.5H1193ZM1194 132.5H1252V130.5H1194V132.5ZM1251 131.5V146H1253V131.5H1251ZM1252 147H1266.5V145H1252V147ZM1265.5 146V175H1267.5V146H1265.5ZM1266.5 174H1252V176H1266.5V174ZM1251 175V189.5H1253V175H1251ZM1252 188.5H1179.5V190.5H1252V188.5Z" fill="#9A7AF2" mask="url(#path-1-outside-1_58_7370)"/>
</g>
<g filter="url(#filter1_f_58_7370)">
<mask id="path-3-outside-2_58_7370" maskUnits="userSpaceOnUse" x="4" y="43" width="1264" height="104" fill="black">
<rect fill="white" x="4" y="43" width="1264" height="104"/>
<path d="M5 145.5V44H34V58.5H48.5V73H63V58.5H77.5V44H106.5V145.5H77.5V87.5H63V116.5H48.5V87.5H34V145.5H5ZM135.5 145.5V131H121V58.5H135.5V44H208V58.5H222.5V131H208V145.5H135.5ZM150 131H193.5V58.5H150V131ZM251.5 145.5V131H237V58.5H251.5V44H324V58.5H338.5V131H324V145.5H251.5ZM266 131H309.5V58.5H266V131ZM353 145.5V44H382V58.5H396.5V73H411V87.5H425.5V44H454.5V145.5H425.5V116.5H411V102H396.5V87.5H382V145.5H353ZM585 145.5V44H672V58.5H686.5V87.5H672V102H686.5V131H672V145.5H585ZM614 87.5H657.5V58.5H614V87.5ZM614 131H657.5V102H614V131ZM701 145.5V44H802.5V58.5H730V87.5H788V102H730V131H802.5V145.5H701ZM817 145.5V73H831.5V58.5H846V44H889.5V58.5H904V73H918.5V145.5H889.5V116.5H846V145.5H817ZM846 102H889.5V73H875V58.5H860.5V73H846V102ZM947.5 145.5V131H933V116.5H962V131H1005.5V102H947.5V87.5H933V58.5H947.5V44H1020V58.5H1034.5V73H1005.5V58.5H962V87.5H1020V102H1034.5V131H1020V145.5H947.5ZM1092.5 145.5V58.5H1063.5V44H1150.5V58.5H1121.5V145.5H1092.5ZM1179.5 145.5V131H1165V116.5H1194V131H1237.5V102H1179.5V87.5H1165V58.5H1179.5V44H1252V58.5H1266.5V73H1237.5V58.5H1194V87.5H1252V102H1266.5V131H1252V145.5H1179.5Z"/>
</mask>
<path d="M5 145.5V44H34V58.5H48.5V73H63V58.5H77.5V44H106.5V145.5H77.5V87.5H63V116.5H48.5V87.5H34V145.5H5ZM135.5 145.5V131H121V58.5H135.5V44H208V58.5H222.5V131H208V145.5H135.5ZM150 131H193.5V58.5H150V131ZM251.5 145.5V131H237V58.5H251.5V44H324V58.5H338.5V131H324V145.5H251.5ZM266 131H309.5V58.5H266V131ZM353 145.5V44H382V58.5H396.5V73H411V87.5H425.5V44H454.5V145.5H425.5V116.5H411V102H396.5V87.5H382V145.5H353ZM585 145.5V44H672V58.5H686.5V87.5H672V102H686.5V131H672V145.5H585ZM614 87.5H657.5V58.5H614V87.5ZM614 131H657.5V102H614V131ZM701 145.5V44H802.5V58.5H730V87.5H788V102H730V131H802.5V145.5H701ZM817 145.5V73H831.5V58.5H846V44H889.5V58.5H904V73H918.5V145.5H889.5V116.5H846V145.5H817ZM846 102H889.5V73H875V58.5H860.5V73H846V102ZM947.5 145.5V131H933V116.5H962V131H1005.5V102H947.5V87.5H933V58.5H947.5V44H1020V58.5H1034.5V73H1005.5V58.5H962V87.5H1020V102H1034.5V131H1020V145.5H947.5ZM1092.5 145.5V58.5H1063.5V44H1150.5V58.5H1121.5V145.5H1092.5ZM1179.5 145.5V131H1165V116.5H1194V131H1237.5V102H1179.5V87.5H1165V58.5H1179.5V44H1252V58.5H1266.5V73H1237.5V58.5H1194V87.5H1252V102H1266.5V131H1252V145.5H1179.5Z" fill="black"/>
<path d="M5 145.5H4V146.5H5V145.5ZM5 44V43H4V44H5ZM34 44H35V43H34V44ZM34 58.5H33V59.5H34V58.5ZM48.5 58.5H49.5V57.5H48.5V58.5ZM48.5 73H47.5V74H48.5V73ZM63 73V74H64V73H63ZM63 58.5V57.5H62V58.5H63ZM77.5 58.5V59.5H78.5V58.5H77.5ZM77.5 44V43H76.5V44H77.5ZM106.5 44H107.5V43H106.5V44ZM106.5 145.5V146.5H107.5V145.5H106.5ZM77.5 145.5H76.5V146.5H77.5V145.5ZM77.5 87.5H78.5V86.5H77.5V87.5ZM63 87.5V86.5H62V87.5H63ZM63 116.5V117.5H64V116.5H63ZM48.5 116.5H47.5V117.5H48.5V116.5ZM48.5 87.5H49.5V86.5H48.5V87.5ZM34 87.5V86.5H33V87.5H34ZM34 145.5V146.5H35V145.5H34ZM6 145.5V44H4V145.5H6ZM5 45H34V43H5V45ZM33 44V58.5H35V44H33ZM34 59.5H48.5V57.5H34V59.5ZM47.5 58.5V73H49.5V58.5H47.5ZM48.5 74H63V72H48.5V74ZM64 73V58.5H62V73H64ZM63 59.5H77.5V57.5H63V59.5ZM78.5 58.5V44H76.5V58.5H78.5ZM77.5 45H106.5V43H77.5V45ZM105.5 44V145.5H107.5V44H105.5ZM106.5 144.5H77.5V146.5H106.5V144.5ZM78.5 145.5V87.5H76.5V145.5H78.5ZM77.5 86.5H63V88.5H77.5V86.5ZM62 87.5V116.5H64V87.5H62ZM63 115.5H48.5V117.5H63V115.5ZM49.5 116.5V87.5H47.5V116.5H49.5ZM48.5 86.5H34V88.5H48.5V86.5ZM33 87.5V145.5H35V87.5H33ZM34 144.5H5V146.5H34V144.5ZM135.5 145.5H134.5V146.5H135.5V145.5ZM135.5 131H136.5V130H135.5V131ZM121 131H120V132H121V131ZM121 58.5V57.5H120V58.5H121ZM135.5 58.5V59.5H136.5V58.5H135.5ZM135.5 44V43H134.5V44H135.5ZM208 44H209V43H208V44ZM208 58.5H207V59.5H208V58.5ZM222.5 58.5H223.5V57.5H222.5V58.5ZM222.5 131V132H223.5V131H222.5ZM208 131V130H207V131H208ZM208 145.5V146.5H209V145.5H208ZM150 131H149V132H150V131ZM193.5 131V132H194.5V131H193.5ZM193.5 58.5H194.5V57.5H193.5V58.5ZM150 58.5V57.5H149V58.5H150ZM136.5 145.5V131H134.5V145.5H136.5ZM135.5 130H121V132H135.5V130ZM122 131V58.5H120V131H122ZM121 59.5H135.5V57.5H121V59.5ZM136.5 58.5V44H134.5V58.5H136.5ZM135.5 45H208V43H135.5V45ZM207 44V58.5H209V44H207ZM208 59.5H222.5V57.5H208V59.5ZM221.5 58.5V131H223.5V58.5H221.5ZM222.5 130H208V132H222.5V130ZM207 131V145.5H209V131H207ZM208 144.5H135.5V146.5H208V144.5ZM150 132H193.5V130H150V132ZM194.5 131V58.5H192.5V131H194.5ZM193.5 57.5H150V59.5H193.5V57.5ZM149 58.5V131H151V58.5H149ZM251.5 145.5H250.5V146.5H251.5V145.5ZM251.5 131H252.5V130H251.5V131ZM237 131H236V132H237V131ZM237 58.5V57.5H236V58.5H237ZM251.5 58.5V59.5H252.5V58.5H251.5ZM251.5 44V43H250.5V44H251.5ZM324 44H325V43H324V44ZM324 58.5H323V59.5H324V58.5ZM338.5 58.5H339.5V57.5H338.5V58.5ZM338.5 131V132H339.5V131H338.5ZM324 131V130H323V131H324ZM324 145.5V146.5H325V145.5H324ZM266 131H265V132H266V131ZM309.5 131V132H310.5V131H309.5ZM309.5 58.5H310.5V57.5H309.5V58.5ZM266 58.5V57.5H265V58.5H266ZM252.5 145.5V131H250.5V145.5H252.5ZM251.5 130H237V132H251.5V130ZM238 131V58.5H236V131H238ZM237 59.5H251.5V57.5H237V59.5ZM252.5 58.5V44H250.5V58.5H252.5ZM251.5 45H324V43H251.5V45ZM323 44V58.5H325V44H323ZM324 59.5H338.5V57.5H324V59.5ZM337.5 58.5V131H339.5V58.5H337.5ZM338.5 130H324V132H338.5V130ZM323 131V145.5H325V131H323ZM324 144.5H251.5V146.5H324V144.5ZM266 132H309.5V130H266V132ZM310.5 131V58.5H308.5V131H310.5ZM309.5 57.5H266V59.5H309.5V57.5ZM265 58.5V131H267V58.5H265ZM353 145.5H352V146.5H353V145.5ZM353 44V43H352V44H353ZM382 44H383V43H382V44ZM382 58.5H381V59.5H382V58.5ZM396.5 58.5H397.5V57.5H396.5V58.5ZM396.5 73H395.5V74H396.5V73ZM411 73H412V72H411V73ZM411 87.5H410V88.5H411V87.5ZM425.5 87.5V88.5H426.5V87.5H425.5ZM425.5 44V43H424.5V44H425.5ZM454.5 44H455.5V43H454.5V44ZM454.5 145.5V146.5H455.5V145.5H454.5ZM425.5 145.5H424.5V146.5H425.5V145.5ZM425.5 116.5H426.5V115.5H425.5V116.5ZM411 116.5H410V117.5H411V116.5ZM411 102H412V101H411V102ZM396.5 102H395.5V103H396.5V102ZM396.5 87.5H397.5V86.5H396.5V87.5ZM382 87.5V86.5H381V87.5H382ZM382 145.5V146.5H383V145.5H382ZM354 145.5V44H352V145.5H354ZM353 45H382V43H353V45ZM381 44V58.5H383V44H381ZM382 59.5H396.5V57.5H382V59.5ZM395.5 58.5V73H397.5V58.5H395.5ZM396.5 74H411V72H396.5V74ZM410 73V87.5H412V73H410ZM411 88.5H425.5V86.5H411V88.5ZM426.5 87.5V44H424.5V87.5H426.5ZM425.5 45H454.5V43H425.5V45ZM453.5 44V145.5H455.5V44H453.5ZM454.5 144.5H425.5V146.5H454.5V144.5ZM426.5 145.5V116.5H424.5V145.5H426.5ZM425.5 115.5H411V117.5H425.5V115.5ZM412 116.5V102H410V116.5H412ZM411 101H396.5V103H411V101ZM397.5 102V87.5H395.5V102H397.5ZM396.5 86.5H382V88.5H396.5V86.5ZM381 87.5V145.5H383V87.5H381ZM382 144.5H353V146.5H382V144.5ZM585 145.5H584V146.5H585V145.5ZM585 44V43H584V44H585ZM672 44H673V43H672V44ZM672 58.5H671V59.5H672V58.5ZM686.5 58.5H687.5V57.5H686.5V58.5ZM686.5 87.5V88.5H687.5V87.5H686.5ZM672 87.5V86.5H671V87.5H672ZM672 102H671V103H672V102ZM686.5 102H687.5V101H686.5V102ZM686.5 131V132H687.5V131H686.5ZM672 131V130H671V131H672ZM672 145.5V146.5H673V145.5H672ZM614 87.5H613V88.5H614V87.5ZM657.5 87.5V88.5H658.5V87.5H657.5ZM657.5 58.5H658.5V57.5H657.5V58.5ZM614 58.5V57.5H613V58.5H614ZM614 131H613V132H614V131ZM657.5 131V132H658.5V131H657.5ZM657.5 102H658.5V101H657.5V102ZM614 102V101H613V102H614ZM586 145.5V44H584V145.5H586ZM585 45H672V43H585V45ZM671 44V58.5H673V44H671ZM672 59.5H686.5V57.5H672V59.5ZM685.5 58.5V87.5H687.5V58.5H685.5ZM686.5 86.5H672V88.5H686.5V86.5ZM671 87.5V102H673V87.5H671ZM672 103H686.5V101H672V103ZM685.5 102V131H687.5V102H685.5ZM686.5 130H672V132H686.5V130ZM671 131V145.5H673V131H671ZM672 144.5H585V146.5H672V144.5ZM614 88.5H657.5V86.5H614V88.5ZM658.5 87.5V58.5H656.5V87.5H658.5ZM657.5 57.5H614V59.5H657.5V57.5ZM613 58.5V87.5H615V58.5H613ZM614 132H657.5V130H614V132ZM658.5 131V102H656.5V131H658.5ZM657.5 101H614V103H657.5V101ZM613 102V131H615V102H613ZM701 145.5H700V146.5H701V145.5ZM701 44V43H700V44H701ZM802.5 44H803.5V43H802.5V44ZM802.5 58.5V59.5H803.5V58.5H802.5ZM730 58.5V57.5H729V58.5H730ZM730 87.5H729V88.5H730V87.5ZM788 87.5H789V86.5H788V87.5ZM788 102V103H789V102H788ZM730 102V101H729V102H730ZM730 131H729V132H730V131ZM802.5 131H803.5V130H802.5V131ZM802.5 145.5V146.5H803.5V145.5H802.5ZM702 145.5V44H700V145.5H702ZM701 45H802.5V43H701V45ZM801.5 44V58.5H803.5V44H801.5ZM802.5 57.5H730V59.5H802.5V57.5ZM729 58.5V87.5H731V58.5H729ZM730 88.5H788V86.5H730V88.5ZM787 87.5V102H789V87.5H787ZM788 101H730V103H788V101ZM729 102V131H731V102H729ZM730 132H802.5V130H730V132ZM801.5 131V145.5H803.5V131H801.5ZM802.5 144.5H701V146.5H802.5V144.5ZM817 145.5H816V146.5H817V145.5ZM817 73V72H816V73H817ZM831.5 73V74H832.5V73H831.5ZM831.5 58.5V57.5H830.5V58.5H831.5ZM846 58.5V59.5H847V58.5H846ZM846 44V43H845V44H846ZM889.5 44H890.5V43H889.5V44ZM889.5 58.5H888.5V59.5H889.5V58.5ZM904 58.5H905V57.5H904V58.5ZM904 73H903V74H904V73ZM918.5 73H919.5V72H918.5V73ZM918.5 145.5V146.5H919.5V145.5H918.5ZM889.5 145.5H888.5V146.5H889.5V145.5ZM889.5 116.5H890.5V115.5H889.5V116.5ZM846 116.5V115.5H845V116.5H846ZM846 145.5V146.5H847V145.5H846ZM846 102H845V103H846V102ZM889.5 102V103H890.5V102H889.5ZM889.5 73H890.5V72H889.5V73ZM875 73H874V74H875V73ZM875 58.5H876V57.5H875V58.5ZM860.5 58.5V57.5H859.5V58.5H860.5ZM860.5 73V74H861.5V73H860.5ZM846 73V72H845V73H846ZM818 145.5V73H816V145.5H818ZM817 74H831.5V72H817V74ZM832.5 73V58.5H830.5V73H832.5ZM831.5 59.5H846V57.5H831.5V59.5ZM847 58.5V44H845V58.5H847ZM846 45H889.5V43H846V45ZM888.5 44V58.5H890.5V44H888.5ZM889.5 59.5H904V57.5H889.5V59.5ZM903 58.5V73H905V58.5H903ZM904 74H918.5V72H904V74ZM917.5 73V145.5H919.5V73H917.5ZM918.5 144.5H889.5V146.5H918.5V144.5ZM890.5 145.5V116.5H888.5V145.5H890.5ZM889.5 115.5H846V117.5H889.5V115.5ZM845 116.5V145.5H847V116.5H845ZM846 144.5H817V146.5H846V144.5ZM846 103H889.5V101H846V103ZM890.5 102V73H888.5V102H890.5ZM889.5 72H875V74H889.5V72ZM876 73V58.5H874V73H876ZM875 57.5H860.5V59.5H875V57.5ZM859.5 58.5V73H861.5V58.5H859.5ZM860.5 72H846V74H860.5V72ZM845 73V102H847V73H845ZM947.5 145.5H946.5V146.5H947.5V145.5ZM947.5 131H948.5V130H947.5V131ZM933 131H932V132H933V131ZM933 116.5V115.5H932V116.5H933ZM962 116.5H963V115.5H962V116.5ZM962 131H961V132H962V131ZM1005.5 131V132H1006.5V131H1005.5ZM1005.5 102H1006.5V101H1005.5V102ZM947.5 102H946.5V103H947.5V102ZM947.5 87.5H948.5V86.5H947.5V87.5ZM933 87.5H932V88.5H933V87.5ZM933 58.5V57.5H932V58.5H933ZM947.5 58.5V59.5H948.5V58.5H947.5ZM947.5 44V43H946.5V44H947.5ZM1020 44H1021V43H1020V44ZM1020 58.5H1019V59.5H1020V58.5ZM1034.5 58.5H1035.5V57.5H1034.5V58.5ZM1034.5 73V74H1035.5V73H1034.5ZM1005.5 73H1004.5V74H1005.5V73ZM1005.5 58.5H1006.5V57.5H1005.5V58.5ZM962 58.5V57.5H961V58.5H962ZM962 87.5H961V88.5H962V87.5ZM1020 87.5H1021V86.5H1020V87.5ZM1020 102H1019V103H1020V102ZM1034.5 102H1035.5V101H1034.5V102ZM1034.5 131V132H1035.5V131H1034.5ZM1020 131V130H1019V131H1020ZM1020 145.5V146.5H1021V145.5H1020ZM948.5 145.5V131H946.5V145.5H948.5ZM947.5 130H933V132H947.5V130ZM934 131V116.5H932V131H934ZM933 117.5H962V115.5H933V117.5ZM961 116.5V131H963V116.5H961ZM962 132H1005.5V130H962V132ZM1006.5 131V102H1004.5V131H1006.5ZM1005.5 101H947.5V103H1005.5V101ZM948.5 102V87.5H946.5V102H948.5ZM947.5 86.5H933V88.5H947.5V86.5ZM934 87.5V58.5H932V87.5H934ZM933 59.5H947.5V57.5H933V59.5ZM948.5 58.5V44H946.5V58.5H948.5ZM947.5 45H1020V43H947.5V45ZM1019 44V58.5H1021V44H1019ZM1020 59.5H1034.5V57.5H1020V59.5ZM1033.5 58.5V73H1035.5V58.5H1033.5ZM1034.5 72H1005.5V74H1034.5V72ZM1006.5 73V58.5H1004.5V73H1006.5ZM1005.5 57.5H962V59.5H1005.5V57.5ZM961 58.5V87.5H963V58.5H961ZM962 88.5H1020V86.5H962V88.5ZM1019 87.5V102H1021V87.5H1019ZM1020 103H1034.5V101H1020V103ZM1033.5 102V131H1035.5V102H1033.5ZM1034.5 130H1020V132H1034.5V130ZM1019 131V145.5H1021V131H1019ZM1020 144.5H947.5V146.5H1020V144.5ZM1092.5 145.5H1091.5V146.5H1092.5V145.5ZM1092.5 58.5H1093.5V57.5H1092.5V58.5ZM1063.5 58.5H1062.5V59.5H1063.5V58.5ZM1063.5 44V43H1062.5V44H1063.5ZM1150.5 44H1151.5V43H1150.5V44ZM1150.5 58.5V59.5H1151.5V58.5H1150.5ZM1121.5 58.5V57.5H1120.5V58.5H1121.5ZM1121.5 145.5V146.5H1122.5V145.5H1121.5ZM1093.5 145.5V58.5H1091.5V145.5H1093.5ZM1092.5 57.5H1063.5V59.5H1092.5V57.5ZM1064.5 58.5V44H1062.5V58.5H1064.5ZM1063.5 45H1150.5V43H1063.5V45ZM1149.5 44V58.5H1151.5V44H1149.5ZM1150.5 57.5H1121.5V59.5H1150.5V57.5ZM1120.5 58.5V145.5H1122.5V58.5H1120.5ZM1121.5 144.5H1092.5V146.5H1121.5V144.5ZM1179.5 145.5H1178.5V146.5H1179.5V145.5ZM1179.5 131H1180.5V130H1179.5V131ZM1165 131H1164V132H1165V131ZM1165 116.5V115.5H1164V116.5H1165ZM1194 116.5H1195V115.5H1194V116.5ZM1194 131H1193V132H1194V131ZM1237.5 131V132H1238.5V131H1237.5ZM1237.5 102H1238.5V101H1237.5V102ZM1179.5 102H1178.5V103H1179.5V102ZM1179.5 87.5H1180.5V86.5H1179.5V87.5ZM1165 87.5H1164V88.5H1165V87.5ZM1165 58.5V57.5H1164V58.5H1165ZM1179.5 58.5V59.5H1180.5V58.5H1179.5ZM1179.5 44V43H1178.5V44H1179.5ZM1252 44H1253V43H1252V44ZM1252 58.5H1251V59.5H1252V58.5ZM1266.5 58.5H1267.5V57.5H1266.5V58.5ZM1266.5 73V74H1267.5V73H1266.5ZM1237.5 73H1236.5V74H1237.5V73ZM1237.5 58.5H1238.5V57.5H1237.5V58.5ZM1194 58.5V57.5H1193V58.5H1194ZM1194 87.5H1193V88.5H1194V87.5ZM1252 87.5H1253V86.5H1252V87.5ZM1252 102H1251V103H1252V102ZM1266.5 102H1267.5V101H1266.5V102ZM1266.5 131V132H1267.5V131H1266.5ZM1252 131V130H1251V131H1252ZM1252 145.5V146.5H1253V145.5H1252ZM1180.5 145.5V131H1178.5V145.5H1180.5ZM1179.5 130H1165V132H1179.5V130ZM1166 131V116.5H1164V131H1166ZM1165 117.5H1194V115.5H1165V117.5ZM1193 116.5V131H1195V116.5H1193ZM1194 132H1237.5V130H1194V132ZM1238.5 131V102H1236.5V131H1238.5ZM1237.5 101H1179.5V103H1237.5V101ZM1180.5 102V87.5H1178.5V102H1180.5ZM1179.5 86.5H1165V88.5H1179.5V86.5ZM1166 87.5V58.5H1164V87.5H1166ZM1165 59.5H1179.5V57.5H1165V59.5ZM1180.5 58.5V44H1178.5V58.5H1180.5ZM1179.5 45H1252V43H1179.5V45ZM1251 44V58.5H1253V44H1251ZM1252 59.5H1266.5V57.5H1252V59.5ZM1265.5 58.5V73H1267.5V58.5H1265.5ZM1266.5 72H1237.5V74H1266.5V72ZM1238.5 73V58.5H1236.5V73H1238.5ZM1237.5 57.5H1194V59.5H1237.5V57.5ZM1193 58.5V87.5H1195V58.5H1193ZM1194 88.5H1252V86.5H1194V88.5ZM1251 87.5V102H1253V87.5H1251ZM1252 103H1266.5V101H1252V103ZM1265.5 102V131H1267.5V102H1265.5ZM1266.5 130H1252V132H1266.5V130ZM1251 131V145.5H1253V131H1251ZM1252 144.5H1179.5V146.5H1252V144.5Z" fill="#9A7AF2" mask="url(#path-3-outside-2_58_7370)"/>
</g>
<path d="M5 101.5V0H34V14.5H48.5V29H63V14.5H77.5V0H106.5V101.5H77.5V43.5H63V72.5H48.5V43.5H34V101.5H5ZM135.5 101.5V87H121V14.5H135.5V0H208V14.5H222.5V87H208V101.5H135.5ZM150 87H193.5V14.5H150V87ZM251.5 101.5V87H237V14.5H251.5V0H324V14.5H338.5V87H324V101.5H251.5ZM266 87H309.5V14.5H266V87ZM353 101.5V0H382V14.5H396.5V29H411V43.5H425.5V0H454.5V101.5H425.5V72.5H411V58H396.5V43.5H382V101.5H353ZM585 101.5V0H672V14.5H686.5V43.5H672V58H686.5V87H672V101.5H585ZM614 43.5H657.5V14.5H614V43.5ZM614 87H657.5V58H614V87ZM701 101.5V0H802.5V14.5H730V43.5H788V58H730V87H802.5V101.5H701ZM817 101.5V29H831.5V14.5H846V0H889.5V14.5H904V29H918.5V101.5H889.5V72.5H846V101.5H817ZM846 58H889.5V29H875V14.5H860.5V29H846V58ZM947.5 101.5V87H933V72.5H962V87H1005.5V58H947.5V43.5H933V14.5H947.5V0H1020V14.5H1034.5V29H1005.5V14.5H962V43.5H1020V58H1034.5V87H1020V101.5H947.5ZM1092.5 101.5V14.5H1063.5V0H1150.5V14.5H1121.5V101.5H1092.5ZM1179.5 101.5V87H1165V72.5H1194V87H1237.5V58H1179.5V43.5H1165V14.5H1179.5V0H1252V14.5H1266.5V29H1237.5V14.5H1194V43.5H1252V58H1266.5V87H1252V101.5H1179.5Z" fill="#9A7AF2"/>
<defs>
<filter id="filter0_f_58_7370" x="0" y="83" width="1271.5" height="111.5" filterUnits="userSpaceOnUse" color-interpolation-filters="sRGB">
<feFlood flood-opacity="0" result="BackgroundImageFix"/>
<feBlend mode="normal" in="SourceGraphic" in2="BackgroundImageFix" result="shape"/>
<feGaussianBlur stdDeviation="2.5" result="effect1_foregroundBlur_58_7370"/>
</filter>
<filter id="filter1_f_58_7370" x="2" y="41" width="1267.5" height="107.5" filterUnits="userSpaceOnUse" color-interpolation-filters="sRGB">
<feFlood flood-opacity="0" result="BackgroundImageFix"/>
<feBlend mode="normal" in="SourceGraphic" in2="BackgroundImageFix" result="shape"/>
<feGaussianBlur stdDeviation="1.5" result="effect1_foregroundBlur_58_7370"/>
</filter>
</defs>
</svg>
