<svg width="520" height="41" viewBox="0 0 520 41" fill="none" xmlns="http://www.w3.org/2000/svg">
<path d="M13.6709 2.61328V0.681641H30.9209V2.61328H32.8076V4.5H34.7393V6.43164H36.6709V10.25H38.5576V16H40.4893V23.6816H38.5576V29.4316H36.6709V33.25H34.7393V35.1816H32.8076V37.1133H28.9893V39H23.2393V40.9316H17.4893V39H9.80762V37.1133H7.9209V35.1816H4.05762V31.3633H2.1709V29.4316H0.239258V12.1816H2.1709V8.36328H4.05762V6.43164H5.98926V4.5H7.9209V2.61328H9.80762V4.5H11.7393V2.61328H13.6709ZM9.80762 6.43164L9.7627 4.5H7.87598L7.9209 6.43164H9.80762ZM23.2393 8.36328V6.43164H17.4893V8.36328H13.6709V12.1816H11.7393V16H13.6709V17.9316H15.5576V19.8633H17.4893V17.9316H19.4209V16H17.4893V14.1133H15.5576V12.1816H17.4893V10.25H21.3076V12.1816H23.2393V17.9316H21.3076V19.8633H19.4209V21.75H13.6709V19.8633H11.7393V17.9316H9.80762V16H7.9209V10.25H5.98926V23.6816H7.9209V27.5H9.80762V29.4316H11.7393V31.3633H13.6709V33.25H15.5576V35.1816H21.3076V37.1133H25.1709V35.1816H30.9209V31.3633H32.8076V27.5H34.7393V19.8633H32.8076V14.1133H30.9209V12.1816H28.9893V10.25H27.0576V8.36328H23.2393ZM40.8936 2.61328V0.681641H56.2119V6.43164H58.1436V10.25H60.0752V14.1133H62.0068V16H63.8936V19.8633H65.8252V21.75H67.7568V25.6133H69.6436V27.5H71.5752V16H69.6436V6.43164H67.7568V2.61328H65.8252V0.681641H77.3252V2.61328H75.3936V8.36328H73.5068V33.25H75.3936V35.1816H77.3252V37.1133H75.3936V39H71.5752V40.9316H67.7568V37.1133H65.8252V33.25H63.8936V31.3633H62.0068V27.5H60.0752V23.6816H58.1436V21.75H56.2119V17.9316H54.3252V16H52.3936V12.1816H50.4619V10.25H48.5752V33.25H50.4619V37.1133H52.3936V39H40.8936V37.1133H42.8252V33.25H44.7119V4.5H42.8252V2.61328H40.8936ZM92.7334 2.61328V0.681641H104.188V2.61328H108.052V4.5H111.87V6.43164H115.688V12.1816H113.802V17.9316H111.87V19.8633H108.052V21.75H98.4385V19.8633H94.6201V12.1816H96.5518V10.25H100.37V16H96.5518V17.9316H104.188V16H106.12V8.36328H104.188V4.5H100.37V2.61328H96.5518V4.5H90.8018V6.43164H88.8701V10.25H86.9834V21.75H88.8701V25.6133H90.8018V29.4316H92.7334V31.3633H96.5518V33.25H111.87V31.3633H113.802V29.4316H117.62V31.3633H115.688V35.1816H113.802V37.1133H109.938V39H104.188V40.9316H94.6201V39H88.8701V37.1133H86.9834V35.1816H85.0518V33.25H83.1201V29.4316H81.2334V23.6816H79.3018V17.9316H81.2334V12.1816H83.1201V8.36328H85.0518V6.43164H86.9834V4.5H88.8701V2.61328H92.7334ZM117.979 2.61328V0.681641H146.729V4.5H148.661V6.43164H150.548V10.25H144.798V8.36328H140.979V6.43164H137.161V4.5H127.548V16H139.048V14.1133H142.911V12.1816H144.798V17.9316H146.729V21.75H148.661V25.6133H146.729V23.6816H144.798V21.75H140.979V19.8633H129.479V17.9316H127.548V37.1133H133.298V35.1816H139.048V33.25H142.911V31.3633H148.661V29.4316H152.479V33.25H150.548V35.1816H148.661V40.9316H146.729V39H117.979V37.1133H119.911V2.61328H117.979ZM170.763 2.61328V0.681641H184.194V2.61328H182.263V8.36328H180.331V23.6816H178.444V33.25H180.331V35.1816H184.194V37.0684H191.876V35.1816H195.694V33.25H197.626V23.6816H195.694V12.1816H193.763V6.43164H191.876V2.61328H189.944V0.681641H201.444V2.61328H199.513V8.36328H197.626V16H199.513V35.1816H197.626V37.0684H193.763V39H176.513V37.0684H172.694V33.25H170.763V23.6816H172.694V2.61328H170.763ZM202.702 2.61328V0.681641H223.771V2.61328H231.452V4.5H233.339V6.43164H235.271V16H233.339V17.9316H231.452V19.8633H225.702V21.75H221.839V23.6816H218.021V27.5H219.952V29.4316H221.839V31.3184H219.952V33.25H218.021V31.3184H216.134V29.4316H214.202V25.5684H216.134V23.6816H218.021V21.75H219.952V19.8633H223.771V17.9316H225.702V16H227.589V8.36328H225.702V6.43164H223.771V4.5H214.202V2.61328H212.271V35.1816H214.202V37.0684H216.134V39H202.702V37.0684H204.634V31.3184H206.521V8.36328H204.634V2.61328H202.702ZM218.021 29.4316L217.976 27.5H216.134L216.089 29.4316H218.021ZM251.083 2.61328V0.681641H268.333V2.61328H270.22V4.5H272.151V6.43164H274.083V10.25H275.97V16H277.901V23.6816H275.97V29.4316H274.083V33.25H272.151V35.1816H270.22V37.1133H266.401V39H260.651V40.9316H254.901V39H247.22V37.1133H245.333V35.1816H241.47V31.3633H239.583V29.4316H237.651V12.1816H239.583V8.36328H241.47V6.43164H243.401V4.5H245.333V2.61328H247.22V4.5H249.151V2.61328H251.083ZM247.22 6.43164L247.175 4.5H245.288L245.333 6.43164H247.22ZM260.651 8.36328V6.43164H254.901V8.36328H251.083V12.1816H249.151V16H251.083V17.9316H252.97V19.8633H254.901V17.9316H256.833V16H254.901V14.1133H252.97V12.1816H254.901V10.25H258.72V12.1816H260.651V17.9316H258.72V19.8633H256.833V21.75H251.083V19.8633H249.151V17.9316H247.22V16H245.333V10.25H243.401V23.6816H245.333V27.5H247.22V29.4316H249.151V31.3633H251.083V33.25H252.97V35.1816H258.72V37.1133H262.583V35.1816H268.333V31.3633H270.22V27.5H272.151V19.8633H270.22V14.1133H268.333V12.1816H266.401V10.25H264.47V8.36328H260.651ZM278.306 2.61328V0.681641H293.624V6.43164H295.556V10.25H297.487V14.1133H299.419V16H301.306V19.8633H303.237V21.75H305.169V25.6133H307.056V27.5H308.987V16H307.056V6.43164H305.169V2.61328H303.237V0.681641H314.737V2.61328H312.806V8.36328H310.919V33.25H312.806V35.1816H314.737V37.1133H312.806V39H308.987V40.9316H305.169V37.1133H303.237V33.25H301.306V31.3633H299.419V27.5H297.487V23.6816H295.556V21.75H293.624V17.9316H291.737V16H289.806V12.1816H287.874V10.25H285.987V33.25H287.874V37.1133H289.806V39H278.306V37.1133H280.237V33.25H282.124V4.5H280.237V2.61328H278.306ZM345.149 2.61328V0.681641H348.968V2.61328H354.763V4.5H360.513V6.43164H362.399V17.9316H364.331V25.5684H366.263V33.25H368.149V37.0684H370.081V39H358.581V27.5H356.649V25.5684H343.218V35.1816H345.149V39H333.649V37.0684H335.581V35.1816H337.468V31.3184H339.399V25.5684H341.331V19.8633H343.218V12.1816H345.149V4.5H343.218V6.43164H341.331V8.36328H337.468V4.5H339.399V2.61328H345.149ZM350.899 6.43164V4.5H348.968V8.36328H347.081V16H345.149V21.75H356.649V19.8633H354.763V12.1816H352.831V6.43164H350.899ZM392.272 4.5V0.681641H421.022V6.43164H422.954V10.25H419.136V8.36328H415.272V6.43164H413.386V4.5H409.522V35.1816H411.454V39H399.954V37.0684H401.886V4.5H398.022V6.43164H396.136V8.36328H394.204V10.25H388.454V8.36328H390.386V4.5H392.272ZM425.065 2.61328V0.681641H436.565V4.5H434.634V37.0684H436.565V39H426.997V2.61328H425.065ZM444.202 2.61328V0.681641H457.634V2.61328H455.702V6.43164H457.634V12.1816H459.521V16H461.452V21.75H463.384V16H465.271V10.25H467.202V2.61328H465.271V0.681641H478.702V2.61328H476.771V10.25H478.702V23.6816H480.634V35.1816H482.521V37.0684H484.452V39H471.021V37.0684H472.952V23.6816H471.021V12.1816H467.202V17.9316H465.271V23.6816H463.384V31.3184H461.452V35.1816H459.521V31.3184H457.634V27.5H455.702V21.75H453.771V17.9316H451.884V14.1133H449.952V10.25H448.021V37.0684H449.952V39H438.452V37.0684H440.384V33.25H442.271V27.5H444.202V17.9316H446.134V2.61328H444.202ZM485.171 2.61328V0.681641H513.921V4.5H515.853V6.43164H517.739V10.25H511.989V8.36328H508.171V6.43164H504.353V4.5H494.739V16H506.239V14.1133H510.103V12.1816H511.989V17.9316H513.921V21.75H515.853V25.6133H513.921V23.6816H511.989V21.75H508.171V19.8633H496.671V17.9316H494.739V37.1133H500.489V35.1816H506.239V33.25H510.103V31.3633H515.853V29.4316H519.671V33.25H517.739V35.1816H515.853V40.9316H513.921V39H485.171V37.1133H487.103V2.61328H485.171Z" fill="#9A7AF2"/>
</svg>
