<svg width="731" height="41" viewBox="0 0 731 41" fill="none" xmlns="http://www.w3.org/2000/svg">
<path d="M5.75 40.25V34.5H0V5.75H5.75V0H34.5V5.75H40.25V34.5H34.5V40.25H5.75ZM11.5 34.5H28.75V5.75H11.5V34.5ZM46 40.25V0H57.5V5.75H63.25V11.5H69V17.25H74.75V0H86.25V40.25H74.75V28.75H69V23H63.25V17.25H57.5V40.25H46ZM103.5 40.25V34.5H97.75V28.75H92V11.5H97.75V5.75H103.5V0H126.5V5.75H132.25V11.5H120.75V5.75H109.25V11.5H103.5V28.75H109.25V34.5H120.75V28.75H132.25V34.5H126.5V40.25H103.5ZM138 40.25V0H178.25V5.75H149.5V17.25H172.5V23H149.5V34.5H178.25V40.25H138ZM235.75 40.25V34.5H230V0H241.5V34.5H258.75V0H270.25V34.5H264.5V40.25H235.75ZM276 40.25V0H310.5V5.75H316.25V23H310.5V28.75H287.5V40.25H276ZM287.5 23H304.75V5.75H287.5V23ZM327.75 40.25V34.5H322V5.75H327.75V0H356.5V5.75H362.25V34.5H356.5V40.25H327.75ZM333.5 34.5H350.75V5.75H333.5V34.5ZM368 40.25V0H379.5V5.75H385.25V11.5H391V17.25H396.75V0H408.25V40.25H396.75V28.75H391V23H385.25V17.25H379.5V40.25H368ZM460 40.25V11.5H465.75V5.75H471.5V0H488.75V5.75H494.5V11.5H500.25V40.25H488.75V28.75H471.5V40.25H460ZM471.5 23H488.75V11.5H483V5.75H477.25V11.5H471.5V23ZM569.25 40.25V5.75H557.75V0H592.25V5.75H580.75V40.25H569.25ZM603.75 40.25V34.5H615.25V5.75H603.75V0H638.25V5.75H626.75V34.5H638.25V40.25H603.75ZM644 40.25V0H655.5V5.75H661.25V11.5H667V5.75H672.75V0H684.25V40.25H672.75V17.25H667V28.75H661.25V17.25H655.5V40.25H644ZM690 40.25V0H730.25V5.75H701.5V17.25H724.5V23H701.5V34.5H730.25V40.25H690Z" fill="#9A7AF2"/>
</svg>
