<svg width="379" height="118" viewBox="0 0 379 118" fill="none" xmlns="http://www.w3.org/2000/svg">
<rect width="8.82862" height="8.82862" fill="#9A7AF2"/>
<rect y="109.096" width="8.82862" height="8.82862" fill="#9A7AF2"/>
<rect x="370.171" width="8.82862" height="8.82862" fill="#9A7AF2"/>
<rect x="370.171" y="109.096" width="8.82862" height="8.82862" fill="#9A7AF2"/>
<mask id="path-5-inside-1_58_7493" fill="white">
<path fill-rule="evenodd" clip-rule="evenodd" d="M39.7233 0H339.907C339.904 0.209755 339.902 0.419957 339.902 0.630589C339.902 20.1342 355.713 35.9451 375.216 35.9451C376.495 35.9451 377.757 35.8772 379 35.7448V82.811C377.757 82.6786 376.495 82.6107 375.216 82.6107C355.713 82.6107 339.902 98.4215 339.902 117.925L39.7289 117.925C39.7289 98.4215 23.918 82.6106 4.4144 82.6106C2.91942 82.6106 1.44613 82.7035 0 82.8839V35.6718C1.44612 35.8522 2.91939 35.9451 4.41437 35.9451C23.918 35.9451 39.7288 20.1342 39.7288 0.630589C39.7288 0.419957 39.727 0.209755 39.7233 0Z"/>
</mask>
<path fill-rule="evenodd" clip-rule="evenodd" d="M39.7233 0H339.907C339.904 0.209755 339.902 0.419957 339.902 0.630589C339.902 20.1342 355.713 35.9451 375.216 35.9451C376.495 35.9451 377.757 35.8772 379 35.7448V82.811C377.757 82.6786 376.495 82.6107 375.216 82.6107C355.713 82.6107 339.902 98.4215 339.902 117.925L39.7289 117.925C39.7289 98.4215 23.918 82.6106 4.4144 82.6106C2.91942 82.6106 1.44613 82.7035 0 82.8839V35.6718C1.44612 35.8522 2.91939 35.9451 4.41437 35.9451C23.918 35.9451 39.7288 20.1342 39.7288 0.630589C39.7288 0.419957 39.727 0.209755 39.7233 0Z" fill="#9A7AF2" fill-opacity="0.13"/>
<path d="M339.907 0L341.907 0.0349126L341.943 -2H339.907V0ZM39.7233 0V-2H37.688L37.7236 0.0350217L39.7233 0ZM379 35.7448H381V33.5204L378.788 33.756L379 35.7448ZM379 82.811L378.788 84.7997L381 85.0353V82.811H379ZM339.902 117.925L339.902 119.925L341.902 119.925V117.925H339.902ZM39.7289 117.925H37.7289V119.925L39.7289 119.925L39.7289 117.925ZM0 82.8839H-2V85.1488L0.247488 84.8685L0 82.8839ZM0 35.6718L0.247485 33.6872L-2 33.4069L-2 35.6718H0ZM339.907 -2H39.7233V2H339.907V-2ZM341.902 0.630589C341.902 0.431741 341.904 0.233178 341.907 0.0349126L337.908 -0.0349126C337.904 0.186332 337.902 0.408172 337.902 0.630589H341.902ZM375.216 33.9451C356.817 33.9451 341.902 19.0297 341.902 0.630589H337.902C337.902 21.2388 354.608 37.9451 375.216 37.9451V33.9451ZM378.788 33.756C377.615 33.8809 376.424 33.9451 375.216 33.9451V37.9451C376.565 37.9451 377.899 37.8734 379.212 37.7335L378.788 33.756ZM381 82.811V35.7448H377V82.811H381ZM375.216 84.6107C376.424 84.6107 377.615 84.6748 378.788 84.7997L379.212 80.8222C377.899 80.6823 376.566 80.6107 375.216 80.6107V84.6107ZM341.902 117.925C341.902 99.5261 356.817 84.6107 375.216 84.6107V80.6107C354.608 80.6107 337.902 97.3169 337.902 117.925H341.902ZM39.7289 119.925L339.902 119.925L339.902 115.925L39.7289 115.925L39.7289 119.925ZM4.4144 84.6106C22.8135 84.6106 37.7289 99.526 37.7289 117.925H41.7289C41.7289 97.3169 25.0226 80.6106 4.4144 80.6106V84.6106ZM0.247488 84.8685C1.61172 84.6984 3.00235 84.6106 4.4144 84.6106V80.6106C2.83649 80.6106 1.28055 80.7087 -0.247488 80.8992L0.247488 84.8685ZM-2 35.6718V82.8839H2V35.6718H-2ZM4.41437 33.9451C3.00232 33.9451 1.6117 33.8573 0.247485 33.6872L-0.247485 37.6565C1.28054 37.847 2.83646 37.9451 4.41437 37.9451V33.9451ZM37.7288 0.630589C37.7288 19.0297 22.8134 33.9451 4.41437 33.9451V37.9451C25.0226 37.9451 41.7288 21.2388 41.7288 0.630589H37.7288ZM37.7236 0.0350217C37.7271 0.233093 37.7288 0.43162 37.7288 0.630589H41.7288C41.7288 0.408293 41.7269 0.186417 41.723 -0.0350217L37.7236 0.0350217Z" fill="#9A7AF2" mask="url(#path-5-inside-1_58_7493)"/>
<path d="M2.40251 19.6662L1.52246 19.7725V20.659V32.2929C1.34789 32.2772 1.17373 32.2601 1 32.2415V19.2624C10.8564 18.759 18.759 10.8564 19.2624 1H36.2042C36.2022 1.1745 36.1988 1.34866 36.1941 1.52246H20.659H19.7725L19.6662 2.40251C18.5764 11.4221 11.4221 18.5764 2.40251 19.6662ZM1.52246 86.2628V97.2661V98.1526L2.40251 98.2589C11.4221 99.3487 18.5764 106.503 19.6662 115.523L19.7725 116.403H20.659H36.1705C36.1787 116.576 36.1855 116.751 36.1909 116.925H19.2624C18.759 107.069 10.8564 99.1661 1 98.6627V86.3142C1.17373 86.2957 1.34789 86.2785 1.52246 86.2628ZM377.478 97.2661V86.2122C377.652 86.2245 377.826 86.2382 378 86.2532V98.6627C368.144 99.1661 360.241 107.069 359.738 116.925H343.44C343.445 116.751 343.452 116.576 343.46 116.403H358.341H359.227L359.334 115.523C360.424 106.503 367.578 99.3487 376.598 98.2589L377.478 98.1526V97.2661ZM378 32.3025C377.826 32.3176 377.652 32.3312 377.478 32.3435V20.659V19.7725L376.598 19.6662C367.578 18.5764 360.424 11.4221 359.334 2.40251L359.227 1.52246H358.341H343.437C343.432 1.34866 343.428 1.1745 343.426 1H359.738C360.241 10.8564 368.144 18.759 378 19.2624V32.3025Z" stroke="#9A7AF2" stroke-width="2"/>
<path d="M42 73.9727V37.2227H73.5V42.4727H78.75V58.2227H68.25V63.4727H73.5V68.7227H78.75V73.9727H63V68.7227H57.75V63.4727H52.5V73.9727H42ZM52.5 58.2227H63V52.9727H68.25V42.4727H52.5V58.2227ZM84 73.9727V47.7227H89.25V42.4727H94.5V37.2227H110.25V42.4727H115.5V47.7227H120.75V73.9727H110.25V63.4727H94.5V73.9727H84ZM94.5 58.2227H110.25V47.7227H105V42.4727H99.75V47.7227H94.5V58.2227ZM141.75 73.9727V58.2227H136.5V52.9727H131.25V37.2227H141.75V52.9727H152.25V37.2227H162.75V52.9727H157.5V58.2227H152.25V73.9727H141.75ZM168 73.9727V37.2227H194.25V42.4727H199.5V47.7227H204.75V63.4727H199.5V68.7227H194.25V73.9727H168ZM178.5 68.7227H189V63.4727H194.25V47.7227H189V42.4727H178.5V68.7227ZM215.25 73.9727V68.7227H225.75V42.4727H215.25V37.2227H246.75V42.4727H236.25V68.7227H246.75V73.9727H215.25ZM257.25 73.9727V68.7227H252V37.2227H262.5V68.7227H278.25V37.2227H288.75V68.7227H283.5V73.9727H257.25ZM294 73.9727V37.2227H304.5V42.4727H309.75V47.7227H315V42.4727H320.25V37.2227H330.75V73.9727H320.25V52.9727H315V63.4727H309.75V52.9727H304.5V73.9727H294Z" fill="#9A7AF2"/>
</svg>
