<svg width="1221" height="166" viewBox="0 0 1221 166" fill="none" xmlns="http://www.w3.org/2000/svg">
<g filter="url(#filter0_f_58_7378)">
<mask id="path-1-outside-1_58_7378" maskUnits="userSpaceOnUse" x="189" y="87" width="842" height="71" fill="black">
<rect fill="white" x="189" y="87" width="842" height="71"/>
<path d="M210.25 156.25V97.75H190.75V88H249.25V97.75H229.75V156.25H210.25ZM259 156.25V88H278.5V117.25H307.75V88H327.25V156.25H307.75V127H278.5V156.25H259ZM337 156.25V88H405.25V97.75H356.5V117.25H395.5V127H356.5V146.5H405.25V156.25H337ZM522.25 156.25V97.75H502.75V88H561.25V97.75H541.75V156.25H522.25ZM571 156.25V88H629.5V97.75H639.25V127H619.75V136.75H629.5V146.5H639.25V156.25H610V146.5H600.25V136.75H590.5V156.25H571ZM590.5 127H610V117.25H619.75V97.75H590.5V127ZM658.75 156.25V146.5H678.25V97.75H658.75V88H717.25V97.75H697.75V146.5H717.25V156.25H658.75ZM727 156.25V88H746.5V97.75H756.25V107.5H766V117.25H775.75V88H795.25V156.25H775.75V136.75H766V127H756.25V117.25H746.5V156.25H727ZM814.75 156.25V146.5H834.25V97.75H814.75V88H873.25V97.75H853.75V146.5H873.25V156.25H814.75ZM912.25 156.25V97.75H892.75V88H951.25V97.75H931.75V156.25H912.25ZM990.25 156.25V127H980.5V117.25H970.75V88H990.25V117.25H1009.75V88H1029.25V117.25H1019.5V127H1009.75V156.25H990.25Z"/>
</mask>
<path d="M210.25 156.25V97.75H190.75V88H249.25V97.75H229.75V156.25H210.25ZM259 156.25V88H278.5V117.25H307.75V88H327.25V156.25H307.75V127H278.5V156.25H259ZM337 156.25V88H405.25V97.75H356.5V117.25H395.5V127H356.5V146.5H405.25V156.25H337ZM522.25 156.25V97.75H502.75V88H561.25V97.75H541.75V156.25H522.25ZM571 156.25V88H629.5V97.75H639.25V127H619.75V136.75H629.5V146.5H639.25V156.25H610V146.5H600.25V136.75H590.5V156.25H571ZM590.5 127H610V117.25H619.75V97.75H590.5V127ZM658.75 156.25V146.5H678.25V97.75H658.75V88H717.25V97.75H697.75V146.5H717.25V156.25H658.75ZM727 156.25V88H746.5V97.75H756.25V107.5H766V117.25H775.75V88H795.25V156.25H775.75V136.75H766V127H756.25V117.25H746.5V156.25H727ZM814.75 156.25V146.5H834.25V97.75H814.75V88H873.25V97.75H853.75V146.5H873.25V156.25H814.75ZM912.25 156.25V97.75H892.75V88H951.25V97.75H931.75V156.25H912.25ZM990.25 156.25V127H980.5V117.25H970.75V88H990.25V117.25H1009.75V88H1029.25V117.25H1019.5V127H1009.75V156.25H990.25Z" fill="black"/>
<path d="M210.25 156.25H209.25V157.25H210.25V156.25ZM210.25 97.75H211.25V96.75H210.25V97.75ZM190.75 97.75H189.75V98.75H190.75V97.75ZM190.75 88V87H189.75V88H190.75ZM249.25 88H250.25V87H249.25V88ZM249.25 97.75V98.75H250.25V97.75H249.25ZM229.75 97.75V96.75H228.75V97.75H229.75ZM229.75 156.25V157.25H230.75V156.25H229.75ZM211.25 156.25V97.75H209.25V156.25H211.25ZM210.25 96.75H190.75V98.75H210.25V96.75ZM191.75 97.75V88H189.75V97.75H191.75ZM190.75 89H249.25V87H190.75V89ZM248.25 88V97.75H250.25V88H248.25ZM249.25 96.75H229.75V98.75H249.25V96.75ZM228.75 97.75V156.25H230.75V97.75H228.75ZM229.75 155.25H210.25V157.25H229.75V155.25ZM259 156.25H258V157.25H259V156.25ZM259 88V87H258V88H259ZM278.5 88H279.5V87H278.5V88ZM278.5 117.25H277.5V118.25H278.5V117.25ZM307.75 117.25V118.25H308.75V117.25H307.75ZM307.75 88V87H306.75V88H307.75ZM327.25 88H328.25V87H327.25V88ZM327.25 156.25V157.25H328.25V156.25H327.25ZM307.75 156.25H306.75V157.25H307.75V156.25ZM307.75 127H308.75V126H307.75V127ZM278.5 127V126H277.5V127H278.5ZM278.5 156.25V157.25H279.5V156.25H278.5ZM260 156.25V88H258V156.25H260ZM259 89H278.5V87H259V89ZM277.5 88V117.25H279.5V88H277.5ZM278.5 118.25H307.75V116.25H278.5V118.25ZM308.75 117.25V88H306.75V117.25H308.75ZM307.75 89H327.25V87H307.75V89ZM326.25 88V156.25H328.25V88H326.25ZM327.25 155.25H307.75V157.25H327.25V155.25ZM308.75 156.25V127H306.75V156.25H308.75ZM307.75 126H278.5V128H307.75V126ZM277.5 127V156.25H279.5V127H277.5ZM278.5 155.25H259V157.25H278.5V155.25ZM337 156.25H336V157.25H337V156.25ZM337 88V87H336V88H337ZM405.25 88H406.25V87H405.25V88ZM405.25 97.75V98.75H406.25V97.75H405.25ZM356.5 97.75V96.75H355.5V97.75H356.5ZM356.5 117.25H355.5V118.25H356.5V117.25ZM395.5 117.25H396.5V116.25H395.5V117.25ZM395.5 127V128H396.5V127H395.5ZM356.5 127V126H355.5V127H356.5ZM356.5 146.5H355.5V147.5H356.5V146.5ZM405.25 146.5H406.25V145.5H405.25V146.5ZM405.25 156.25V157.25H406.25V156.25H405.25ZM338 156.25V88H336V156.25H338ZM337 89H405.25V87H337V89ZM404.25 88V97.75H406.25V88H404.25ZM405.25 96.75H356.5V98.75H405.25V96.75ZM355.5 97.75V117.25H357.5V97.75H355.5ZM356.5 118.25H395.5V116.25H356.5V118.25ZM394.5 117.25V127H396.5V117.25H394.5ZM395.5 126H356.5V128H395.5V126ZM355.5 127V146.5H357.5V127H355.5ZM356.5 147.5H405.25V145.5H356.5V147.5ZM404.25 146.5V156.25H406.25V146.5H404.25ZM405.25 155.25H337V157.25H405.25V155.25ZM522.25 156.25H521.25V157.25H522.25V156.25ZM522.25 97.75H523.25V96.75H522.25V97.75ZM502.75 97.75H501.75V98.75H502.75V97.75ZM502.75 88V87H501.75V88H502.75ZM561.25 88H562.25V87H561.25V88ZM561.25 97.75V98.75H562.25V97.75H561.25ZM541.75 97.75V96.75H540.75V97.75H541.75ZM541.75 156.25V157.25H542.75V156.25H541.75ZM523.25 156.25V97.75H521.25V156.25H523.25ZM522.25 96.75H502.75V98.75H522.25V96.75ZM503.75 97.75V88H501.75V97.75H503.75ZM502.75 89H561.25V87H502.75V89ZM560.25 88V97.75H562.25V88H560.25ZM561.25 96.75H541.75V98.75H561.25V96.75ZM540.75 97.75V156.25H542.75V97.75H540.75ZM541.75 155.25H522.25V157.25H541.75V155.25ZM571 156.25H570V157.25H571V156.25ZM571 88V87H570V88H571ZM629.5 88H630.5V87H629.5V88ZM629.5 97.75H628.5V98.75H629.5V97.75ZM639.25 97.75H640.25V96.75H639.25V97.75ZM639.25 127V128H640.25V127H639.25ZM619.75 127V126H618.75V127H619.75ZM619.75 136.75H618.75V137.75H619.75V136.75ZM629.5 136.75H630.5V135.75H629.5V136.75ZM629.5 146.5H628.5V147.5H629.5V146.5ZM639.25 146.5H640.25V145.5H639.25V146.5ZM639.25 156.25V157.25H640.25V156.25H639.25ZM610 156.25H609V157.25H610V156.25ZM610 146.5H611V145.5H610V146.5ZM600.25 146.5H599.25V147.5H600.25V146.5ZM600.25 136.75H601.25V135.75H600.25V136.75ZM590.5 136.75V135.75H589.5V136.75H590.5ZM590.5 156.25V157.25H591.5V156.25H590.5ZM590.5 127H589.5V128H590.5V127ZM610 127V128H611V127H610ZM610 117.25V116.25H609V117.25H610ZM619.75 117.25V118.25H620.75V117.25H619.75ZM619.75 97.75H620.75V96.75H619.75V97.75ZM590.5 97.75V96.75H589.5V97.75H590.5ZM572 156.25V88H570V156.25H572ZM571 89H629.5V87H571V89ZM628.5 88V97.75H630.5V88H628.5ZM629.5 98.75H639.25V96.75H629.5V98.75ZM638.25 97.75V127H640.25V97.75H638.25ZM639.25 126H619.75V128H639.25V126ZM618.75 127V136.75H620.75V127H618.75ZM619.75 137.75H629.5V135.75H619.75V137.75ZM628.5 136.75V146.5H630.5V136.75H628.5ZM629.5 147.5H639.25V145.5H629.5V147.5ZM638.25 146.5V156.25H640.25V146.5H638.25ZM639.25 155.25H610V157.25H639.25V155.25ZM611 156.25V146.5H609V156.25H611ZM610 145.5H600.25V147.5H610V145.5ZM601.25 146.5V136.75H599.25V146.5H601.25ZM600.25 135.75H590.5V137.75H600.25V135.75ZM589.5 136.75V156.25H591.5V136.75H589.5ZM590.5 155.25H571V157.25H590.5V155.25ZM590.5 128H610V126H590.5V128ZM611 127V117.25H609V127H611ZM610 118.25H619.75V116.25H610V118.25ZM620.75 117.25V97.75H618.75V117.25H620.75ZM619.75 96.75H590.5V98.75H619.75V96.75ZM589.5 97.75V127H591.5V97.75H589.5ZM658.75 156.25H657.75V157.25H658.75V156.25ZM658.75 146.5V145.5H657.75V146.5H658.75ZM678.25 146.5V147.5H679.25V146.5H678.25ZM678.25 97.75H679.25V96.75H678.25V97.75ZM658.75 97.75H657.75V98.75H658.75V97.75ZM658.75 88V87H657.75V88H658.75ZM717.25 88H718.25V87H717.25V88ZM717.25 97.75V98.75H718.25V97.75H717.25ZM697.75 97.75V96.75H696.75V97.75H697.75ZM697.75 146.5H696.75V147.5H697.75V146.5ZM717.25 146.5H718.25V145.5H717.25V146.5ZM717.25 156.25V157.25H718.25V156.25H717.25ZM659.75 156.25V146.5H657.75V156.25H659.75ZM658.75 147.5H678.25V145.5H658.75V147.5ZM679.25 146.5V97.75H677.25V146.5H679.25ZM678.25 96.75H658.75V98.75H678.25V96.75ZM659.75 97.75V88H657.75V97.75H659.75ZM658.75 89H717.25V87H658.75V89ZM716.25 88V97.75H718.25V88H716.25ZM717.25 96.75H697.75V98.75H717.25V96.75ZM696.75 97.75V146.5H698.75V97.75H696.75ZM697.75 147.5H717.25V145.5H697.75V147.5ZM716.25 146.5V156.25H718.25V146.5H716.25ZM717.25 155.25H658.75V157.25H717.25V155.25ZM727 156.25H726V157.25H727V156.25ZM727 88V87H726V88H727ZM746.5 88H747.5V87H746.5V88ZM746.5 97.75H745.5V98.75H746.5V97.75ZM756.25 97.75H757.25V96.75H756.25V97.75ZM756.25 107.5H755.25V108.5H756.25V107.5ZM766 107.5H767V106.5H766V107.5ZM766 117.25H765V118.25H766V117.25ZM775.75 117.25V118.25H776.75V117.25H775.75ZM775.75 88V87H774.75V88H775.75ZM795.25 88H796.25V87H795.25V88ZM795.25 156.25V157.25H796.25V156.25H795.25ZM775.75 156.25H774.75V157.25H775.75V156.25ZM775.75 136.75H776.75V135.75H775.75V136.75ZM766 136.75H765V137.75H766V136.75ZM766 127H767V126H766V127ZM756.25 127H755.25V128H756.25V127ZM756.25 117.25H757.25V116.25H756.25V117.25ZM746.5 117.25V116.25H745.5V117.25H746.5ZM746.5 156.25V157.25H747.5V156.25H746.5ZM728 156.25V88H726V156.25H728ZM727 89H746.5V87H727V89ZM745.5 88V97.75H747.5V88H745.5ZM746.5 98.75H756.25V96.75H746.5V98.75ZM755.25 97.75V107.5H757.25V97.75H755.25ZM756.25 108.5H766V106.5H756.25V108.5ZM765 107.5V117.25H767V107.5H765ZM766 118.25H775.75V116.25H766V118.25ZM776.75 117.25V88H774.75V117.25H776.75ZM775.75 89H795.25V87H775.75V89ZM794.25 88V156.25H796.25V88H794.25ZM795.25 155.25H775.75V157.25H795.25V155.25ZM776.75 156.25V136.75H774.75V156.25H776.75ZM775.75 135.75H766V137.75H775.75V135.75ZM767 136.75V127H765V136.75H767ZM766 126H756.25V128H766V126ZM757.25 127V117.25H755.25V127H757.25ZM756.25 116.25H746.5V118.25H756.25V116.25ZM745.5 117.25V156.25H747.5V117.25H745.5ZM746.5 155.25H727V157.25H746.5V155.25ZM814.75 156.25H813.75V157.25H814.75V156.25ZM814.75 146.5V145.5H813.75V146.5H814.75ZM834.25 146.5V147.5H835.25V146.5H834.25ZM834.25 97.75H835.25V96.75H834.25V97.75ZM814.75 97.75H813.75V98.75H814.75V97.75ZM814.75 88V87H813.75V88H814.75ZM873.25 88H874.25V87H873.25V88ZM873.25 97.75V98.75H874.25V97.75H873.25ZM853.75 97.75V96.75H852.75V97.75H853.75ZM853.75 146.5H852.75V147.5H853.75V146.5ZM873.25 146.5H874.25V145.5H873.25V146.5ZM873.25 156.25V157.25H874.25V156.25H873.25ZM815.75 156.25V146.5H813.75V156.25H815.75ZM814.75 147.5H834.25V145.5H814.75V147.5ZM835.25 146.5V97.75H833.25V146.5H835.25ZM834.25 96.75H814.75V98.75H834.25V96.75ZM815.75 97.75V88H813.75V97.75H815.75ZM814.75 89H873.25V87H814.75V89ZM872.25 88V97.75H874.25V88H872.25ZM873.25 96.75H853.75V98.75H873.25V96.75ZM852.75 97.75V146.5H854.75V97.75H852.75ZM853.75 147.5H873.25V145.5H853.75V147.5ZM872.25 146.5V156.25H874.25V146.5H872.25ZM873.25 155.25H814.75V157.25H873.25V155.25ZM912.25 156.25H911.25V157.25H912.25V156.25ZM912.25 97.75H913.25V96.75H912.25V97.75ZM892.75 97.75H891.75V98.75H892.75V97.75ZM892.75 88V87H891.75V88H892.75ZM951.25 88H952.25V87H951.25V88ZM951.25 97.75V98.75H952.25V97.75H951.25ZM931.75 97.75V96.75H930.75V97.75H931.75ZM931.75 156.25V157.25H932.75V156.25H931.75ZM913.25 156.25V97.75H911.25V156.25H913.25ZM912.25 96.75H892.75V98.75H912.25V96.75ZM893.75 97.75V88H891.75V97.75H893.75ZM892.75 89H951.25V87H892.75V89ZM950.25 88V97.75H952.25V88H950.25ZM951.25 96.75H931.75V98.75H951.25V96.75ZM930.75 97.75V156.25H932.75V97.75H930.75ZM931.75 155.25H912.25V157.25H931.75V155.25ZM990.25 156.25H989.25V157.25H990.25V156.25ZM990.25 127H991.25V126H990.25V127ZM980.5 127H979.5V128H980.5V127ZM980.5 117.25H981.5V116.25H980.5V117.25ZM970.75 117.25H969.75V118.25H970.75V117.25ZM970.75 88V87H969.75V88H970.75ZM990.25 88H991.25V87H990.25V88ZM990.25 117.25H989.25V118.25H990.25V117.25ZM1009.75 117.25V118.25H1010.75V117.25H1009.75ZM1009.75 88V87H1008.75V88H1009.75ZM1029.25 88H1030.25V87H1029.25V88ZM1029.25 117.25V118.25H1030.25V117.25H1029.25ZM1019.5 117.25V116.25H1018.5V117.25H1019.5ZM1019.5 127V128H1020.5V127H1019.5ZM1009.75 127V126H1008.75V127H1009.75ZM1009.75 156.25V157.25H1010.75V156.25H1009.75ZM991.25 156.25V127H989.25V156.25H991.25ZM990.25 126H980.5V128H990.25V126ZM981.5 127V117.25H979.5V127H981.5ZM980.5 116.25H970.75V118.25H980.5V116.25ZM971.75 117.25V88H969.75V117.25H971.75ZM970.75 89H990.25V87H970.75V89ZM989.25 88V117.25H991.25V88H989.25ZM990.25 118.25H1009.75V116.25H990.25V118.25ZM1010.75 117.25V88H1008.75V117.25H1010.75ZM1009.75 89H1029.25V87H1009.75V89ZM1028.25 88V117.25H1030.25V88H1028.25ZM1029.25 116.25H1019.5V118.25H1029.25V116.25ZM1018.5 117.25V127H1020.5V117.25H1018.5ZM1019.5 126H1009.75V128H1019.5V126ZM1008.75 127V156.25H1010.75V127H1008.75ZM1009.75 155.25H990.25V157.25H1009.75V155.25Z" fill="#9A7AF2" mask="url(#path-1-outside-1_58_7378)"/>
</g>
<g filter="url(#filter1_f_58_7378)">
<mask id="path-3-outside-2_58_7378" maskUnits="userSpaceOnUse" x="120" y="43" width="981" height="82" fill="black">
<rect fill="white" x="120" y="43" width="981" height="82"/>
<path d="M144.125 123.625V55.375H121.375V44H189.625V55.375H166.875V123.625H144.125ZM201 123.625V44H223.75V78.125H257.875V44H280.625V123.625H257.875V89.5H223.75V123.625H201ZM292 123.625V44H371.625V55.375H314.75V78.125H360.25V89.5H314.75V112.25H371.625V123.625H292ZM508.125 123.625V55.375H485.375V44H553.625V55.375H530.875V123.625H508.125ZM565 123.625V44H633.25V55.375H644.625V89.5H621.875V100.875H633.25V112.25H644.625V123.625H610.5V112.25H599.125V100.875H587.75V123.625H565ZM587.75 89.5H610.5V78.125H621.875V55.375H587.75V89.5ZM667.375 123.625V112.25H690.125V55.375H667.375V44H735.625V55.375H712.875V112.25H735.625V123.625H667.375ZM747 123.625V44H769.75V55.375H781.125V66.75H792.5V78.125H803.875V44H826.625V123.625H803.875V100.875H792.5V89.5H781.125V78.125H769.75V123.625H747ZM849.375 123.625V112.25H872.125V55.375H849.375V44H917.625V55.375H894.875V112.25H917.625V123.625H849.375ZM963.125 123.625V55.375H940.375V44H1008.63V55.375H985.875V123.625H963.125ZM1054.13 123.625V89.5H1042.75V78.125H1031.38V44H1054.13V78.125H1076.88V44H1099.63V78.125H1088.25V89.5H1076.88V123.625H1054.13Z"/>
</mask>
<path d="M144.125 123.625V55.375H121.375V44H189.625V55.375H166.875V123.625H144.125ZM201 123.625V44H223.75V78.125H257.875V44H280.625V123.625H257.875V89.5H223.75V123.625H201ZM292 123.625V44H371.625V55.375H314.75V78.125H360.25V89.5H314.75V112.25H371.625V123.625H292ZM508.125 123.625V55.375H485.375V44H553.625V55.375H530.875V123.625H508.125ZM565 123.625V44H633.25V55.375H644.625V89.5H621.875V100.875H633.25V112.25H644.625V123.625H610.5V112.25H599.125V100.875H587.75V123.625H565ZM587.75 89.5H610.5V78.125H621.875V55.375H587.75V89.5ZM667.375 123.625V112.25H690.125V55.375H667.375V44H735.625V55.375H712.875V112.25H735.625V123.625H667.375ZM747 123.625V44H769.75V55.375H781.125V66.75H792.5V78.125H803.875V44H826.625V123.625H803.875V100.875H792.5V89.5H781.125V78.125H769.75V123.625H747ZM849.375 123.625V112.25H872.125V55.375H849.375V44H917.625V55.375H894.875V112.25H917.625V123.625H849.375ZM963.125 123.625V55.375H940.375V44H1008.63V55.375H985.875V123.625H963.125ZM1054.13 123.625V89.5H1042.75V78.125H1031.38V44H1054.13V78.125H1076.88V44H1099.63V78.125H1088.25V89.5H1076.88V123.625H1054.13Z" fill="black"/>
<path d="M144.125 123.625H143.125V124.625H144.125V123.625ZM144.125 55.375H145.125V54.375H144.125V55.375ZM121.375 55.375H120.375V56.375H121.375V55.375ZM121.375 44V43H120.375V44H121.375ZM189.625 44H190.625V43H189.625V44ZM189.625 55.375V56.375H190.625V55.375H189.625ZM166.875 55.375V54.375H165.875V55.375H166.875ZM166.875 123.625V124.625H167.875V123.625H166.875ZM145.125 123.625V55.375H143.125V123.625H145.125ZM144.125 54.375H121.375V56.375H144.125V54.375ZM122.375 55.375V44H120.375V55.375H122.375ZM121.375 45H189.625V43H121.375V45ZM188.625 44V55.375H190.625V44H188.625ZM189.625 54.375H166.875V56.375H189.625V54.375ZM165.875 55.375V123.625H167.875V55.375H165.875ZM166.875 122.625H144.125V124.625H166.875V122.625ZM201 123.625H200V124.625H201V123.625ZM201 44V43H200V44H201ZM223.75 44H224.75V43H223.75V44ZM223.75 78.125H222.75V79.125H223.75V78.125ZM257.875 78.125V79.125H258.875V78.125H257.875ZM257.875 44V43H256.875V44H257.875ZM280.625 44H281.625V43H280.625V44ZM280.625 123.625V124.625H281.625V123.625H280.625ZM257.875 123.625H256.875V124.625H257.875V123.625ZM257.875 89.5H258.875V88.5H257.875V89.5ZM223.75 89.5V88.5H222.75V89.5H223.75ZM223.75 123.625V124.625H224.75V123.625H223.75ZM202 123.625V44H200V123.625H202ZM201 45H223.75V43H201V45ZM222.75 44V78.125H224.75V44H222.75ZM223.75 79.125H257.875V77.125H223.75V79.125ZM258.875 78.125V44H256.875V78.125H258.875ZM257.875 45H280.625V43H257.875V45ZM279.625 44V123.625H281.625V44H279.625ZM280.625 122.625H257.875V124.625H280.625V122.625ZM258.875 123.625V89.5H256.875V123.625H258.875ZM257.875 88.5H223.75V90.5H257.875V88.5ZM222.75 89.5V123.625H224.75V89.5H222.75ZM223.75 122.625H201V124.625H223.75V122.625ZM292 123.625H291V124.625H292V123.625ZM292 44V43H291V44H292ZM371.625 44H372.625V43H371.625V44ZM371.625 55.375V56.375H372.625V55.375H371.625ZM314.75 55.375V54.375H313.75V55.375H314.75ZM314.75 78.125H313.75V79.125H314.75V78.125ZM360.25 78.125H361.25V77.125H360.25V78.125ZM360.25 89.5V90.5H361.25V89.5H360.25ZM314.75 89.5V88.5H313.75V89.5H314.75ZM314.75 112.25H313.75V113.25H314.75V112.25ZM371.625 112.25H372.625V111.25H371.625V112.25ZM371.625 123.625V124.625H372.625V123.625H371.625ZM293 123.625V44H291V123.625H293ZM292 45H371.625V43H292V45ZM370.625 44V55.375H372.625V44H370.625ZM371.625 54.375H314.75V56.375H371.625V54.375ZM313.75 55.375V78.125H315.75V55.375H313.75ZM314.75 79.125H360.25V77.125H314.75V79.125ZM359.25 78.125V89.5H361.25V78.125H359.25ZM360.25 88.5H314.75V90.5H360.25V88.5ZM313.75 89.5V112.25H315.75V89.5H313.75ZM314.75 113.25H371.625V111.25H314.75V113.25ZM370.625 112.25V123.625H372.625V112.25H370.625ZM371.625 122.625H292V124.625H371.625V122.625ZM508.125 123.625H507.125V124.625H508.125V123.625ZM508.125 55.375H509.125V54.375H508.125V55.375ZM485.375 55.375H484.375V56.375H485.375V55.375ZM485.375 44V43H484.375V44H485.375ZM553.625 44H554.625V43H553.625V44ZM553.625 55.375V56.375H554.625V55.375H553.625ZM530.875 55.375V54.375H529.875V55.375H530.875ZM530.875 123.625V124.625H531.875V123.625H530.875ZM509.125 123.625V55.375H507.125V123.625H509.125ZM508.125 54.375H485.375V56.375H508.125V54.375ZM486.375 55.375V44H484.375V55.375H486.375ZM485.375 45H553.625V43H485.375V45ZM552.625 44V55.375H554.625V44H552.625ZM553.625 54.375H530.875V56.375H553.625V54.375ZM529.875 55.375V123.625H531.875V55.375H529.875ZM530.875 122.625H508.125V124.625H530.875V122.625ZM565 123.625H564V124.625H565V123.625ZM565 44V43H564V44H565ZM633.25 44H634.25V43H633.25V44ZM633.25 55.375H632.25V56.375H633.25V55.375ZM644.625 55.375H645.625V54.375H644.625V55.375ZM644.625 89.5V90.5H645.625V89.5H644.625ZM621.875 89.5V88.5H620.875V89.5H621.875ZM621.875 100.875H620.875V101.875H621.875V100.875ZM633.25 100.875H634.25V99.875H633.25V100.875ZM633.25 112.25H632.25V113.25H633.25V112.25ZM644.625 112.25H645.625V111.25H644.625V112.25ZM644.625 123.625V124.625H645.625V123.625H644.625ZM610.5 123.625H609.5V124.625H610.5V123.625ZM610.5 112.25H611.5V111.25H610.5V112.25ZM599.125 112.25H598.125V113.25H599.125V112.25ZM599.125 100.875H600.125V99.875H599.125V100.875ZM587.75 100.875V99.875H586.75V100.875H587.75ZM587.75 123.625V124.625H588.75V123.625H587.75ZM587.75 89.5H586.75V90.5H587.75V89.5ZM610.5 89.5V90.5H611.5V89.5H610.5ZM610.5 78.125V77.125H609.5V78.125H610.5ZM621.875 78.125V79.125H622.875V78.125H621.875ZM621.875 55.375H622.875V54.375H621.875V55.375ZM587.75 55.375V54.375H586.75V55.375H587.75ZM566 123.625V44H564V123.625H566ZM565 45H633.25V43H565V45ZM632.25 44V55.375H634.25V44H632.25ZM633.25 56.375H644.625V54.375H633.25V56.375ZM643.625 55.375V89.5H645.625V55.375H643.625ZM644.625 88.5H621.875V90.5H644.625V88.5ZM620.875 89.5V100.875H622.875V89.5H620.875ZM621.875 101.875H633.25V99.875H621.875V101.875ZM632.25 100.875V112.25H634.25V100.875H632.25ZM633.25 113.25H644.625V111.25H633.25V113.25ZM643.625 112.25V123.625H645.625V112.25H643.625ZM644.625 122.625H610.5V124.625H644.625V122.625ZM611.5 123.625V112.25H609.5V123.625H611.5ZM610.5 111.25H599.125V113.25H610.5V111.25ZM600.125 112.25V100.875H598.125V112.25H600.125ZM599.125 99.875H587.75V101.875H599.125V99.875ZM586.75 100.875V123.625H588.75V100.875H586.75ZM587.75 122.625H565V124.625H587.75V122.625ZM587.75 90.5H610.5V88.5H587.75V90.5ZM611.5 89.5V78.125H609.5V89.5H611.5ZM610.5 79.125H621.875V77.125H610.5V79.125ZM622.875 78.125V55.375H620.875V78.125H622.875ZM621.875 54.375H587.75V56.375H621.875V54.375ZM586.75 55.375V89.5H588.75V55.375H586.75ZM667.375 123.625H666.375V124.625H667.375V123.625ZM667.375 112.25V111.25H666.375V112.25H667.375ZM690.125 112.25V113.25H691.125V112.25H690.125ZM690.125 55.375H691.125V54.375H690.125V55.375ZM667.375 55.375H666.375V56.375H667.375V55.375ZM667.375 44V43H666.375V44H667.375ZM735.625 44H736.625V43H735.625V44ZM735.625 55.375V56.375H736.625V55.375H735.625ZM712.875 55.375V54.375H711.875V55.375H712.875ZM712.875 112.25H711.875V113.25H712.875V112.25ZM735.625 112.25H736.625V111.25H735.625V112.25ZM735.625 123.625V124.625H736.625V123.625H735.625ZM668.375 123.625V112.25H666.375V123.625H668.375ZM667.375 113.25H690.125V111.25H667.375V113.25ZM691.125 112.25V55.375H689.125V112.25H691.125ZM690.125 54.375H667.375V56.375H690.125V54.375ZM668.375 55.375V44H666.375V55.375H668.375ZM667.375 45H735.625V43H667.375V45ZM734.625 44V55.375H736.625V44H734.625ZM735.625 54.375H712.875V56.375H735.625V54.375ZM711.875 55.375V112.25H713.875V55.375H711.875ZM712.875 113.25H735.625V111.25H712.875V113.25ZM734.625 112.25V123.625H736.625V112.25H734.625ZM735.625 122.625H667.375V124.625H735.625V122.625ZM747 123.625H746V124.625H747V123.625ZM747 44V43H746V44H747ZM769.75 44H770.75V43H769.75V44ZM769.75 55.375H768.75V56.375H769.75V55.375ZM781.125 55.375H782.125V54.375H781.125V55.375ZM781.125 66.75H780.125V67.75H781.125V66.75ZM792.5 66.75H793.5V65.75H792.5V66.75ZM792.5 78.125H791.5V79.125H792.5V78.125ZM803.875 78.125V79.125H804.875V78.125H803.875ZM803.875 44V43H802.875V44H803.875ZM826.625 44H827.625V43H826.625V44ZM826.625 123.625V124.625H827.625V123.625H826.625ZM803.875 123.625H802.875V124.625H803.875V123.625ZM803.875 100.875H804.875V99.875H803.875V100.875ZM792.5 100.875H791.5V101.875H792.5V100.875ZM792.5 89.5H793.5V88.5H792.5V89.5ZM781.125 89.5H780.125V90.5H781.125V89.5ZM781.125 78.125H782.125V77.125H781.125V78.125ZM769.75 78.125V77.125H768.75V78.125H769.75ZM769.75 123.625V124.625H770.75V123.625H769.75ZM748 123.625V44H746V123.625H748ZM747 45H769.75V43H747V45ZM768.75 44V55.375H770.75V44H768.75ZM769.75 56.375H781.125V54.375H769.75V56.375ZM780.125 55.375V66.75H782.125V55.375H780.125ZM781.125 67.75H792.5V65.75H781.125V67.75ZM791.5 66.75V78.125H793.5V66.75H791.5ZM792.5 79.125H803.875V77.125H792.5V79.125ZM804.875 78.125V44H802.875V78.125H804.875ZM803.875 45H826.625V43H803.875V45ZM825.625 44V123.625H827.625V44H825.625ZM826.625 122.625H803.875V124.625H826.625V122.625ZM804.875 123.625V100.875H802.875V123.625H804.875ZM803.875 99.875H792.5V101.875H803.875V99.875ZM793.5 100.875V89.5H791.5V100.875H793.5ZM792.5 88.5H781.125V90.5H792.5V88.5ZM782.125 89.5V78.125H780.125V89.5H782.125ZM781.125 77.125H769.75V79.125H781.125V77.125ZM768.75 78.125V123.625H770.75V78.125H768.75ZM769.75 122.625H747V124.625H769.75V122.625ZM849.375 123.625H848.375V124.625H849.375V123.625ZM849.375 112.25V111.25H848.375V112.25H849.375ZM872.125 112.25V113.25H873.125V112.25H872.125ZM872.125 55.375H873.125V54.375H872.125V55.375ZM849.375 55.375H848.375V56.375H849.375V55.375ZM849.375 44V43H848.375V44H849.375ZM917.625 44H918.625V43H917.625V44ZM917.625 55.375V56.375H918.625V55.375H917.625ZM894.875 55.375V54.375H893.875V55.375H894.875ZM894.875 112.25H893.875V113.25H894.875V112.25ZM917.625 112.25H918.625V111.25H917.625V112.25ZM917.625 123.625V124.625H918.625V123.625H917.625ZM850.375 123.625V112.25H848.375V123.625H850.375ZM849.375 113.25H872.125V111.25H849.375V113.25ZM873.125 112.25V55.375H871.125V112.25H873.125ZM872.125 54.375H849.375V56.375H872.125V54.375ZM850.375 55.375V44H848.375V55.375H850.375ZM849.375 45H917.625V43H849.375V45ZM916.625 44V55.375H918.625V44H916.625ZM917.625 54.375H894.875V56.375H917.625V54.375ZM893.875 55.375V112.25H895.875V55.375H893.875ZM894.875 113.25H917.625V111.25H894.875V113.25ZM916.625 112.25V123.625H918.625V112.25H916.625ZM917.625 122.625H849.375V124.625H917.625V122.625ZM963.125 123.625H962.125V124.625H963.125V123.625ZM963.125 55.375H964.125V54.375H963.125V55.375ZM940.375 55.375H939.375V56.375H940.375V55.375ZM940.375 44V43H939.375V44H940.375ZM1008.63 44H1009.63V43H1008.63V44ZM1008.63 55.375V56.375H1009.63V55.375H1008.63ZM985.875 55.375V54.375H984.875V55.375H985.875ZM985.875 123.625V124.625H986.875V123.625H985.875ZM964.125 123.625V55.375H962.125V123.625H964.125ZM963.125 54.375H940.375V56.375H963.125V54.375ZM941.375 55.375V44H939.375V55.375H941.375ZM940.375 45H1008.63V43H940.375V45ZM1007.63 44V55.375H1009.63V44H1007.63ZM1008.63 54.375H985.875V56.375H1008.63V54.375ZM984.875 55.375V123.625H986.875V55.375H984.875ZM985.875 122.625H963.125V124.625H985.875V122.625ZM1054.13 123.625H1053.13V124.625H1054.13V123.625ZM1054.13 89.5H1055.13V88.5H1054.13V89.5ZM1042.75 89.5H1041.75V90.5H1042.75V89.5ZM1042.75 78.125H1043.75V77.125H1042.75V78.125ZM1031.38 78.125H1030.38V79.125H1031.38V78.125ZM1031.38 44V43H1030.38V44H1031.38ZM1054.13 44H1055.13V43H1054.13V44ZM1054.13 78.125H1053.13V79.125H1054.13V78.125ZM1076.88 78.125V79.125H1077.88V78.125H1076.88ZM1076.88 44V43H1075.88V44H1076.88ZM1099.63 44H1100.63V43H1099.63V44ZM1099.63 78.125V79.125H1100.63V78.125H1099.63ZM1088.25 78.125V77.125H1087.25V78.125H1088.25ZM1088.25 89.5V90.5H1089.25V89.5H1088.25ZM1076.88 89.5V88.5H1075.88V89.5H1076.88ZM1076.88 123.625V124.625H1077.88V123.625H1076.88ZM1055.13 123.625V89.5H1053.13V123.625H1055.13ZM1054.13 88.5H1042.75V90.5H1054.13V88.5ZM1043.75 89.5V78.125H1041.75V89.5H1043.75ZM1042.75 77.125H1031.38V79.125H1042.75V77.125ZM1032.38 78.125V44H1030.38V78.125H1032.38ZM1031.38 45H1054.13V43H1031.38V45ZM1053.13 44V78.125H1055.13V44H1053.13ZM1054.13 79.125H1076.88V77.125H1054.13V79.125ZM1077.88 78.125V44H1075.88V78.125H1077.88ZM1076.88 45H1099.63V43H1076.88V45ZM1098.63 44V78.125H1100.63V44H1098.63ZM1099.63 77.125H1088.25V79.125H1099.63V77.125ZM1087.25 78.125V89.5H1089.25V78.125H1087.25ZM1088.25 88.5H1076.88V90.5H1088.25V88.5ZM1075.88 89.5V123.625H1077.88V89.5H1075.88ZM1076.88 122.625H1054.13V124.625H1076.88V122.625Z" fill="#9A7AF2" mask="url(#path-3-outside-2_58_7378)"/>
</g>
<path d="M41.625 97.125V13.875H13.875V0H97.125V13.875H69.375V97.125H41.625ZM111 97.125V0H138.75V41.625H180.375V0H208.125V97.125H180.375V55.5H138.75V97.125H111ZM222 97.125V0H319.125V13.875H249.75V41.625H305.25V55.5H249.75V83.25H319.125V97.125H222ZM485.625 97.125V13.875H457.875V0H541.125V13.875H513.375V97.125H485.625ZM555 97.125V0H638.25V13.875H652.125V55.5H624.375V69.375H638.25V83.25H652.125V97.125H610.5V83.25H596.625V69.375H582.75V97.125H555ZM582.75 55.5H610.5V41.625H624.375V13.875H582.75V55.5ZM679.875 97.125V83.25H707.625V13.875H679.875V0H763.125V13.875H735.375V83.25H763.125V97.125H679.875ZM777 97.125V0H804.75V13.875H818.625V27.75H832.5V41.625H846.375V0H874.125V97.125H846.375V69.375H832.5V55.5H818.625V41.625H804.75V97.125H777ZM901.875 97.125V83.25H929.625V13.875H901.875V0H985.125V13.875H957.375V83.25H985.125V97.125H901.875ZM1040.63 97.125V13.875H1012.88V0H1096.13V13.875H1068.38V97.125H1040.63ZM1151.63 97.125V55.5H1137.75V41.625H1123.88V0H1151.63V41.625H1179.38V0H1207.13V41.625H1193.25V55.5H1179.38V97.125H1151.63Z" fill="#9A7AF2"/>
<defs>
<filter id="filter0_f_58_7378" x="185.75" y="83" width="848.5" height="78.25" filterUnits="userSpaceOnUse" color-interpolation-filters="sRGB">
<feFlood flood-opacity="0" result="BackgroundImageFix"/>
<feBlend mode="normal" in="SourceGraphic" in2="BackgroundImageFix" result="shape"/>
<feGaussianBlur stdDeviation="2.5" result="effect1_foregroundBlur_58_7378"/>
</filter>
<filter id="filter1_f_58_7378" x="118.375" y="41" width="984.25" height="85.625" filterUnits="userSpaceOnUse" color-interpolation-filters="sRGB">
<feFlood flood-opacity="0" result="BackgroundImageFix"/>
<feBlend mode="normal" in="SourceGraphic" in2="BackgroundImageFix" result="shape"/>
<feGaussianBlur stdDeviation="1.5" result="effect1_foregroundBlur_58_7378"/>
</filter>
</defs>
</svg>
