<svg width="811" height="170" viewBox="0 0 811 170" fill="none" xmlns="http://www.w3.org/2000/svg">
<g filter="url(#filter0_f_227_2990)">
<mask id="path-1-outside-1_227_2990" maskUnits="userSpaceOnUse" x="119" y="91" width="570" height="71" fill="black">
<rect fill="white" x="119" y="91" width="570" height="71"/>
<path d="M127.125 98.5V92.0254H175.875V101.775H179.15V108.25H172.676V105.051H166.125V101.775H162.926V98.5H156.375V150.525H159.65V157H140.15V153.725H143.426V98.5H136.875V101.775H133.676V105.051H130.4V108.25H120.65V105.051H123.926V98.5H127.125ZM186.082 98.5V92.0254H205.582V95.3008H202.307V108.25H199.031V127.75H221.807V105.051H218.531V95.3008H215.332V92.0254H234.832V101.775H231.557V105.051H234.832V137.5H238.031V153.725H241.307V157H221.807V153.725H225.082V134.225H199.031V153.725H202.307V157H182.807V147.25H186.082V111.525H189.281V98.5H186.082ZM244.582 95.3008V92.0254H293.332V98.5H296.607V101.775H299.807V108.25H290.057V105.051H283.582V101.775H277.107V98.5H260.807V118H280.307V114.801H286.857V111.525H290.057V121.275H293.332V127.75H296.607V134.301H293.332V131.025H290.057V127.75H283.582V124.551H264.082V121.275H260.807V153.801H270.557V150.525H280.307V147.25H286.857V144.051H296.607V140.775H303.082V147.25H299.807V150.525H296.607V160.275H293.332V157H244.582V153.801H247.857V95.3008H244.582ZM340.482 98.5V92.0254H389.232V101.775H392.508V108.25H386.033V105.051H379.482V101.775H376.283V98.5H369.732V150.525H373.008V157H353.508V153.725H356.783V98.5H350.232V101.775H347.033V105.051H343.758V108.25H334.008V105.051H337.283V98.5H340.482ZM395.936 95.3008V92.0254H434.936V95.3008H444.686V98.5H451.16V101.775H454.436V114.801H451.16V118H447.961V121.275H441.41V124.551H434.936V131.025H438.211V134.225H441.41V140.775H444.686V143.975H447.961V150.525H451.16V153.725H454.436V157H431.66V147.25H428.461V140.775H425.186V134.225H421.91V127.75H418.711V124.551H412.16V153.725H415.436V157H395.936V153.725H399.211V95.3008H395.936ZM425.186 101.775V98.5H412.16V118H434.936V114.801H438.211V105.051H434.936V101.775H425.186ZM456.721 95.3008V92.0254H476.221V98.5H472.945V153.725H476.221V157H459.996V95.3008H456.721ZM479.496 95.3008V92.0254H505.471V101.775H508.746V108.25H512.021V114.801H515.297V118H518.496V124.551H521.771V127.75H525.047V134.301H528.246V137.5H531.521V118H528.246V101.775H525.047V95.3008H521.771V92.0254H541.271V95.3008H537.996V105.051H534.797V147.25H537.996V150.525H541.271V153.801H537.996V157H531.521V160.275H525.047V153.801H521.771V147.25H518.496V144.051H515.297V137.5H512.021V131.025H508.746V127.75H505.471V121.275H502.271V118H498.996V111.525H495.721V108.25H492.521V147.25H495.721V153.801H498.996V157H479.496V153.801H482.771V147.25H485.971V98.5H482.771V95.3008H479.496ZM544.395 95.3008V92.0254H563.895V98.5H560.619V153.725H563.895V157H547.67V95.3008H544.395ZM573.416 98.5V92.0254H622.166V101.775H625.441V108.25H618.967V105.051H612.416V101.775H609.217V98.5H602.666V150.525H605.941V157H586.441V153.725H589.717V98.5H583.166V101.775H579.967V105.051H576.691V108.25H566.941V105.051H570.217V98.5H573.416ZM628.793 95.3008V92.0254H651.568V98.5H648.293V101.775H651.568V108.25H654.768V114.801H658.043V121.275H661.318V124.551H664.518V121.275H667.793V114.801H671.068V95.3008H667.793V92.0254H687.293V98.5H684.018V101.775H680.818V108.25H677.543V111.525H674.268V118H671.068V124.551H667.793V131.025H664.518V153.725H667.793V157H648.293V153.725H651.568V131.025H648.293V124.551H645.018V118H641.818V111.525H638.543V105.051H635.268V98.5H632.068V95.3008H628.793Z"/>
</mask>
<path d="M127.125 98.5V92.0254H175.875V101.775H179.15V108.25H172.676V105.051H166.125V101.775H162.926V98.5H156.375V150.525H159.65V157H140.15V153.725H143.426V98.5H136.875V101.775H133.676V105.051H130.4V108.25H120.65V105.051H123.926V98.5H127.125ZM186.082 98.5V92.0254H205.582V95.3008H202.307V108.25H199.031V127.75H221.807V105.051H218.531V95.3008H215.332V92.0254H234.832V101.775H231.557V105.051H234.832V137.5H238.031V153.725H241.307V157H221.807V153.725H225.082V134.225H199.031V153.725H202.307V157H182.807V147.25H186.082V111.525H189.281V98.5H186.082ZM244.582 95.3008V92.0254H293.332V98.5H296.607V101.775H299.807V108.25H290.057V105.051H283.582V101.775H277.107V98.5H260.807V118H280.307V114.801H286.857V111.525H290.057V121.275H293.332V127.75H296.607V134.301H293.332V131.025H290.057V127.75H283.582V124.551H264.082V121.275H260.807V153.801H270.557V150.525H280.307V147.25H286.857V144.051H296.607V140.775H303.082V147.25H299.807V150.525H296.607V160.275H293.332V157H244.582V153.801H247.857V95.3008H244.582ZM340.482 98.5V92.0254H389.232V101.775H392.508V108.25H386.033V105.051H379.482V101.775H376.283V98.5H369.732V150.525H373.008V157H353.508V153.725H356.783V98.5H350.232V101.775H347.033V105.051H343.758V108.25H334.008V105.051H337.283V98.5H340.482ZM395.936 95.3008V92.0254H434.936V95.3008H444.686V98.5H451.16V101.775H454.436V114.801H451.16V118H447.961V121.275H441.41V124.551H434.936V131.025H438.211V134.225H441.41V140.775H444.686V143.975H447.961V150.525H451.16V153.725H454.436V157H431.66V147.25H428.461V140.775H425.186V134.225H421.91V127.75H418.711V124.551H412.16V153.725H415.436V157H395.936V153.725H399.211V95.3008H395.936ZM425.186 101.775V98.5H412.16V118H434.936V114.801H438.211V105.051H434.936V101.775H425.186ZM456.721 95.3008V92.0254H476.221V98.5H472.945V153.725H476.221V157H459.996V95.3008H456.721ZM479.496 95.3008V92.0254H505.471V101.775H508.746V108.25H512.021V114.801H515.297V118H518.496V124.551H521.771V127.75H525.047V134.301H528.246V137.5H531.521V118H528.246V101.775H525.047V95.3008H521.771V92.0254H541.271V95.3008H537.996V105.051H534.797V147.25H537.996V150.525H541.271V153.801H537.996V157H531.521V160.275H525.047V153.801H521.771V147.25H518.496V144.051H515.297V137.5H512.021V131.025H508.746V127.75H505.471V121.275H502.271V118H498.996V111.525H495.721V108.25H492.521V147.25H495.721V153.801H498.996V157H479.496V153.801H482.771V147.25H485.971V98.5H482.771V95.3008H479.496ZM544.395 95.3008V92.0254H563.895V98.5H560.619V153.725H563.895V157H547.67V95.3008H544.395ZM573.416 98.5V92.0254H622.166V101.775H625.441V108.25H618.967V105.051H612.416V101.775H609.217V98.5H602.666V150.525H605.941V157H586.441V153.725H589.717V98.5H583.166V101.775H579.967V105.051H576.691V108.25H566.941V105.051H570.217V98.5H573.416ZM628.793 95.3008V92.0254H651.568V98.5H648.293V101.775H651.568V108.25H654.768V114.801H658.043V121.275H661.318V124.551H664.518V121.275H667.793V114.801H671.068V95.3008H667.793V92.0254H687.293V98.5H684.018V101.775H680.818V108.25H677.543V111.525H674.268V118H671.068V124.551H667.793V131.025H664.518V153.725H667.793V157H648.293V153.725H651.568V131.025H648.293V124.551H645.018V118H641.818V111.525H638.543V105.051H635.268V98.5H632.068V95.3008H628.793Z" fill="black"/>
<path d="M127.125 98.5V99.5H128.125V98.5H127.125ZM127.125 92.0254V91.0254H126.125V92.0254H127.125ZM175.875 92.0254H176.875V91.0254H175.875V92.0254ZM175.875 101.775H174.875V102.775H175.875V101.775ZM179.15 101.775H180.15V100.775H179.15V101.775ZM179.15 108.25V109.25H180.15V108.25H179.15ZM172.676 108.25H171.676V109.25H172.676V108.25ZM172.676 105.051H173.676V104.051H172.676V105.051ZM166.125 105.051H165.125V106.051H166.125V105.051ZM166.125 101.775H167.125V100.775H166.125V101.775ZM162.926 101.775H161.926V102.775H162.926V101.775ZM162.926 98.5H163.926V97.5H162.926V98.5ZM156.375 98.5V97.5H155.375V98.5H156.375ZM156.375 150.525H155.375V151.525H156.375V150.525ZM159.65 150.525H160.65V149.525H159.65V150.525ZM159.65 157V158H160.65V157H159.65ZM140.15 157H139.15V158H140.15V157ZM140.15 153.725V152.725H139.15V153.725H140.15ZM143.426 153.725V154.725H144.426V153.725H143.426ZM143.426 98.5H144.426V97.5H143.426V98.5ZM136.875 98.5V97.5H135.875V98.5H136.875ZM136.875 101.775V102.775H137.875V101.775H136.875ZM133.676 101.775V100.775H132.676V101.775H133.676ZM133.676 105.051V106.051H134.676V105.051H133.676ZM130.4 105.051V104.051H129.4V105.051H130.4ZM130.4 108.25V109.25H131.4V108.25H130.4ZM120.65 108.25H119.65V109.25H120.65V108.25ZM120.65 105.051V104.051H119.65V105.051H120.65ZM123.926 105.051V106.051H124.926V105.051H123.926ZM123.926 98.5V97.5H122.926V98.5H123.926ZM128.125 98.5V92.0254H126.125V98.5H128.125ZM127.125 93.0254H175.875V91.0254H127.125V93.0254ZM174.875 92.0254V101.775H176.875V92.0254H174.875ZM175.875 102.775H179.15V100.775H175.875V102.775ZM178.15 101.775V108.25H180.15V101.775H178.15ZM179.15 107.25H172.676V109.25H179.15V107.25ZM173.676 108.25V105.051H171.676V108.25H173.676ZM172.676 104.051H166.125V106.051H172.676V104.051ZM167.125 105.051V101.775H165.125V105.051H167.125ZM166.125 100.775H162.926V102.775H166.125V100.775ZM163.926 101.775V98.5H161.926V101.775H163.926ZM162.926 97.5H156.375V99.5H162.926V97.5ZM155.375 98.5V150.525H157.375V98.5H155.375ZM156.375 151.525H159.65V149.525H156.375V151.525ZM158.65 150.525V157H160.65V150.525H158.65ZM159.65 156H140.15V158H159.65V156ZM141.15 157V153.725H139.15V157H141.15ZM140.15 154.725H143.426V152.725H140.15V154.725ZM144.426 153.725V98.5H142.426V153.725H144.426ZM143.426 97.5H136.875V99.5H143.426V97.5ZM135.875 98.5V101.775H137.875V98.5H135.875ZM136.875 100.775H133.676V102.775H136.875V100.775ZM132.676 101.775V105.051H134.676V101.775H132.676ZM133.676 104.051H130.4V106.051H133.676V104.051ZM129.4 105.051V108.25H131.4V105.051H129.4ZM130.4 107.25H120.65V109.25H130.4V107.25ZM121.65 108.25V105.051H119.65V108.25H121.65ZM120.65 106.051H123.926V104.051H120.65V106.051ZM124.926 105.051V98.5H122.926V105.051H124.926ZM123.926 99.5H127.125V97.5H123.926V99.5ZM186.082 98.5H185.082V99.5H186.082V98.5ZM186.082 92.0254V91.0254H185.082V92.0254H186.082ZM205.582 92.0254H206.582V91.0254H205.582V92.0254ZM205.582 95.3008V96.3008H206.582V95.3008H205.582ZM202.307 95.3008V94.3008H201.307V95.3008H202.307ZM202.307 108.25V109.25H203.307V108.25H202.307ZM199.031 108.25V107.25H198.031V108.25H199.031ZM199.031 127.75H198.031V128.75H199.031V127.75ZM221.807 127.75V128.75H222.807V127.75H221.807ZM221.807 105.051H222.807V104.051H221.807V105.051ZM218.531 105.051H217.531V106.051H218.531V105.051ZM218.531 95.3008H219.531V94.3008H218.531V95.3008ZM215.332 95.3008H214.332V96.3008H215.332V95.3008ZM215.332 92.0254V91.0254H214.332V92.0254H215.332ZM234.832 92.0254H235.832V91.0254H234.832V92.0254ZM234.832 101.775V102.775H235.832V101.775H234.832ZM231.557 101.775V100.775H230.557V101.775H231.557ZM231.557 105.051H230.557V106.051H231.557V105.051ZM234.832 105.051H235.832V104.051H234.832V105.051ZM234.832 137.5H233.832V138.5H234.832V137.5ZM238.031 137.5H239.031V136.5H238.031V137.5ZM238.031 153.725H237.031V154.725H238.031V153.725ZM241.307 153.725H242.307V152.725H241.307V153.725ZM241.307 157V158H242.307V157H241.307ZM221.807 157H220.807V158H221.807V157ZM221.807 153.725V152.725H220.807V153.725H221.807ZM225.082 153.725V154.725H226.082V153.725H225.082ZM225.082 134.225H226.082V133.225H225.082V134.225ZM199.031 134.225V133.225H198.031V134.225H199.031ZM199.031 153.725H198.031V154.725H199.031V153.725ZM202.307 153.725H203.307V152.725H202.307V153.725ZM202.307 157V158H203.307V157H202.307ZM182.807 157H181.807V158H182.807V157ZM182.807 147.25V146.25H181.807V147.25H182.807ZM186.082 147.25V148.25H187.082V147.25H186.082ZM186.082 111.525V110.525H185.082V111.525H186.082ZM189.281 111.525V112.525H190.281V111.525H189.281ZM189.281 98.5H190.281V97.5H189.281V98.5ZM187.082 98.5V92.0254H185.082V98.5H187.082ZM186.082 93.0254H205.582V91.0254H186.082V93.0254ZM204.582 92.0254V95.3008H206.582V92.0254H204.582ZM205.582 94.3008H202.307V96.3008H205.582V94.3008ZM201.307 95.3008V108.25H203.307V95.3008H201.307ZM202.307 107.25H199.031V109.25H202.307V107.25ZM198.031 108.25V127.75H200.031V108.25H198.031ZM199.031 128.75H221.807V126.75H199.031V128.75ZM222.807 127.75V105.051H220.807V127.75H222.807ZM221.807 104.051H218.531V106.051H221.807V104.051ZM219.531 105.051V95.3008H217.531V105.051H219.531ZM218.531 94.3008H215.332V96.3008H218.531V94.3008ZM216.332 95.3008V92.0254H214.332V95.3008H216.332ZM215.332 93.0254H234.832V91.0254H215.332V93.0254ZM233.832 92.0254V101.775H235.832V92.0254H233.832ZM234.832 100.775H231.557V102.775H234.832V100.775ZM230.557 101.775V105.051H232.557V101.775H230.557ZM231.557 106.051H234.832V104.051H231.557V106.051ZM233.832 105.051V137.5H235.832V105.051H233.832ZM234.832 138.5H238.031V136.5H234.832V138.5ZM237.031 137.5V153.725H239.031V137.5H237.031ZM238.031 154.725H241.307V152.725H238.031V154.725ZM240.307 153.725V157H242.307V153.725H240.307ZM241.307 156H221.807V158H241.307V156ZM222.807 157V153.725H220.807V157H222.807ZM221.807 154.725H225.082V152.725H221.807V154.725ZM226.082 153.725V134.225H224.082V153.725H226.082ZM225.082 133.225H199.031V135.225H225.082V133.225ZM198.031 134.225V153.725H200.031V134.225H198.031ZM199.031 154.725H202.307V152.725H199.031V154.725ZM201.307 153.725V157H203.307V153.725H201.307ZM202.307 156H182.807V158H202.307V156ZM183.807 157V147.25H181.807V157H183.807ZM182.807 148.25H186.082V146.25H182.807V148.25ZM187.082 147.25V111.525H185.082V147.25H187.082ZM186.082 112.525H189.281V110.525H186.082V112.525ZM190.281 111.525V98.5H188.281V111.525H190.281ZM189.281 97.5H186.082V99.5H189.281V97.5ZM244.582 95.3008H243.582V96.3008H244.582V95.3008ZM244.582 92.0254V91.0254H243.582V92.0254H244.582ZM293.332 92.0254H294.332V91.0254H293.332V92.0254ZM293.332 98.5H292.332V99.5H293.332V98.5ZM296.607 98.5H297.607V97.5H296.607V98.5ZM296.607 101.775H295.607V102.775H296.607V101.775ZM299.807 101.775H300.807V100.775H299.807V101.775ZM299.807 108.25V109.25H300.807V108.25H299.807ZM290.057 108.25H289.057V109.25H290.057V108.25ZM290.057 105.051H291.057V104.051H290.057V105.051ZM283.582 105.051H282.582V106.051H283.582V105.051ZM283.582 101.775H284.582V100.775H283.582V101.775ZM277.107 101.775H276.107V102.775H277.107V101.775ZM277.107 98.5H278.107V97.5H277.107V98.5ZM260.807 98.5V97.5H259.807V98.5H260.807ZM260.807 118H259.807V119H260.807V118ZM280.307 118V119H281.307V118H280.307ZM280.307 114.801V113.801H279.307V114.801H280.307ZM286.857 114.801V115.801H287.857V114.801H286.857ZM286.857 111.525V110.525H285.857V111.525H286.857ZM290.057 111.525H291.057V110.525H290.057V111.525ZM290.057 121.275H289.057V122.275H290.057V121.275ZM293.332 121.275H294.332V120.275H293.332V121.275ZM293.332 127.75H292.332V128.75H293.332V127.75ZM296.607 127.75H297.607V126.75H296.607V127.75ZM296.607 134.301V135.301H297.607V134.301H296.607ZM293.332 134.301H292.332V135.301H293.332V134.301ZM293.332 131.025H294.332V130.025H293.332V131.025ZM290.057 131.025H289.057V132.025H290.057V131.025ZM290.057 127.75H291.057V126.75H290.057V127.75ZM283.582 127.75H282.582V128.75H283.582V127.75ZM283.582 124.551H284.582V123.551H283.582V124.551ZM264.082 124.551H263.082V125.551H264.082V124.551ZM264.082 121.275H265.082V120.275H264.082V121.275ZM260.807 121.275V120.275H259.807V121.275H260.807ZM260.807 153.801H259.807V154.801H260.807V153.801ZM270.557 153.801V154.801H271.557V153.801H270.557ZM270.557 150.525V149.525H269.557V150.525H270.557ZM280.307 150.525V151.525H281.307V150.525H280.307ZM280.307 147.25V146.25H279.307V147.25H280.307ZM286.857 147.25V148.25H287.857V147.25H286.857ZM286.857 144.051V143.051H285.857V144.051H286.857ZM296.607 144.051V145.051H297.607V144.051H296.607ZM296.607 140.775V139.775H295.607V140.775H296.607ZM303.082 140.775H304.082V139.775H303.082V140.775ZM303.082 147.25V148.25H304.082V147.25H303.082ZM299.807 147.25V146.25H298.807V147.25H299.807ZM299.807 150.525V151.525H300.807V150.525H299.807ZM296.607 150.525V149.525H295.607V150.525H296.607ZM296.607 160.275V161.275H297.607V160.275H296.607ZM293.332 160.275H292.332V161.275H293.332V160.275ZM293.332 157H294.332V156H293.332V157ZM244.582 157H243.582V158H244.582V157ZM244.582 153.801V152.801H243.582V153.801H244.582ZM247.857 153.801V154.801H248.857V153.801H247.857ZM247.857 95.3008H248.857V94.3008H247.857V95.3008ZM245.582 95.3008V92.0254H243.582V95.3008H245.582ZM244.582 93.0254H293.332V91.0254H244.582V93.0254ZM292.332 92.0254V98.5H294.332V92.0254H292.332ZM293.332 99.5H296.607V97.5H293.332V99.5ZM295.607 98.5V101.775H297.607V98.5H295.607ZM296.607 102.775H299.807V100.775H296.607V102.775ZM298.807 101.775V108.25H300.807V101.775H298.807ZM299.807 107.25H290.057V109.25H299.807V107.25ZM291.057 108.25V105.051H289.057V108.25H291.057ZM290.057 104.051H283.582V106.051H290.057V104.051ZM284.582 105.051V101.775H282.582V105.051H284.582ZM283.582 100.775H277.107V102.775H283.582V100.775ZM278.107 101.775V98.5H276.107V101.775H278.107ZM277.107 97.5H260.807V99.5H277.107V97.5ZM259.807 98.5V118H261.807V98.5H259.807ZM260.807 119H280.307V117H260.807V119ZM281.307 118V114.801H279.307V118H281.307ZM280.307 115.801H286.857V113.801H280.307V115.801ZM287.857 114.801V111.525H285.857V114.801H287.857ZM286.857 112.525H290.057V110.525H286.857V112.525ZM289.057 111.525V121.275H291.057V111.525H289.057ZM290.057 122.275H293.332V120.275H290.057V122.275ZM292.332 121.275V127.75H294.332V121.275H292.332ZM293.332 128.75H296.607V126.75H293.332V128.75ZM295.607 127.75V134.301H297.607V127.75H295.607ZM296.607 133.301H293.332V135.301H296.607V133.301ZM294.332 134.301V131.025H292.332V134.301H294.332ZM293.332 130.025H290.057V132.025H293.332V130.025ZM291.057 131.025V127.75H289.057V131.025H291.057ZM290.057 126.75H283.582V128.75H290.057V126.75ZM284.582 127.75V124.551H282.582V127.75H284.582ZM283.582 123.551H264.082V125.551H283.582V123.551ZM265.082 124.551V121.275H263.082V124.551H265.082ZM264.082 120.275H260.807V122.275H264.082V120.275ZM259.807 121.275V153.801H261.807V121.275H259.807ZM260.807 154.801H270.557V152.801H260.807V154.801ZM271.557 153.801V150.525H269.557V153.801H271.557ZM270.557 151.525H280.307V149.525H270.557V151.525ZM281.307 150.525V147.25H279.307V150.525H281.307ZM280.307 148.25H286.857V146.25H280.307V148.25ZM287.857 147.25V144.051H285.857V147.25H287.857ZM286.857 145.051H296.607V143.051H286.857V145.051ZM297.607 144.051V140.775H295.607V144.051H297.607ZM296.607 141.775H303.082V139.775H296.607V141.775ZM302.082 140.775V147.25H304.082V140.775H302.082ZM303.082 146.25H299.807V148.25H303.082V146.25ZM298.807 147.25V150.525H300.807V147.25H298.807ZM299.807 149.525H296.607V151.525H299.807V149.525ZM295.607 150.525V160.275H297.607V150.525H295.607ZM296.607 159.275H293.332V161.275H296.607V159.275ZM294.332 160.275V157H292.332V160.275H294.332ZM293.332 156H244.582V158H293.332V156ZM245.582 157V153.801H243.582V157H245.582ZM244.582 154.801H247.857V152.801H244.582V154.801ZM248.857 153.801V95.3008H246.857V153.801H248.857ZM247.857 94.3008H244.582V96.3008H247.857V94.3008ZM340.482 98.5V99.5H341.482V98.5H340.482ZM340.482 92.0254V91.0254H339.482V92.0254H340.482ZM389.232 92.0254H390.232V91.0254H389.232V92.0254ZM389.232 101.775H388.232V102.775H389.232V101.775ZM392.508 101.775H393.508V100.775H392.508V101.775ZM392.508 108.25V109.25H393.508V108.25H392.508ZM386.033 108.25H385.033V109.25H386.033V108.25ZM386.033 105.051H387.033V104.051H386.033V105.051ZM379.482 105.051H378.482V106.051H379.482V105.051ZM379.482 101.775H380.482V100.775H379.482V101.775ZM376.283 101.775H375.283V102.775H376.283V101.775ZM376.283 98.5H377.283V97.5H376.283V98.5ZM369.732 98.5V97.5H368.732V98.5H369.732ZM369.732 150.525H368.732V151.525H369.732V150.525ZM373.008 150.525H374.008V149.525H373.008V150.525ZM373.008 157V158H374.008V157H373.008ZM353.508 157H352.508V158H353.508V157ZM353.508 153.725V152.725H352.508V153.725H353.508ZM356.783 153.725V154.725H357.783V153.725H356.783ZM356.783 98.5H357.783V97.5H356.783V98.5ZM350.232 98.5V97.5H349.232V98.5H350.232ZM350.232 101.775V102.775H351.232V101.775H350.232ZM347.033 101.775V100.775H346.033V101.775H347.033ZM347.033 105.051V106.051H348.033V105.051H347.033ZM343.758 105.051V104.051H342.758V105.051H343.758ZM343.758 108.25V109.25H344.758V108.25H343.758ZM334.008 108.25H333.008V109.25H334.008V108.25ZM334.008 105.051V104.051H333.008V105.051H334.008ZM337.283 105.051V106.051H338.283V105.051H337.283ZM337.283 98.5V97.5H336.283V98.5H337.283ZM341.482 98.5V92.0254H339.482V98.5H341.482ZM340.482 93.0254H389.232V91.0254H340.482V93.0254ZM388.232 92.0254V101.775H390.232V92.0254H388.232ZM389.232 102.775H392.508V100.775H389.232V102.775ZM391.508 101.775V108.25H393.508V101.775H391.508ZM392.508 107.25H386.033V109.25H392.508V107.25ZM387.033 108.25V105.051H385.033V108.25H387.033ZM386.033 104.051H379.482V106.051H386.033V104.051ZM380.482 105.051V101.775H378.482V105.051H380.482ZM379.482 100.775H376.283V102.775H379.482V100.775ZM377.283 101.775V98.5H375.283V101.775H377.283ZM376.283 97.5H369.732V99.5H376.283V97.5ZM368.732 98.5V150.525H370.732V98.5H368.732ZM369.732 151.525H373.008V149.525H369.732V151.525ZM372.008 150.525V157H374.008V150.525H372.008ZM373.008 156H353.508V158H373.008V156ZM354.508 157V153.725H352.508V157H354.508ZM353.508 154.725H356.783V152.725H353.508V154.725ZM357.783 153.725V98.5H355.783V153.725H357.783ZM356.783 97.5H350.232V99.5H356.783V97.5ZM349.232 98.5V101.775H351.232V98.5H349.232ZM350.232 100.775H347.033V102.775H350.232V100.775ZM346.033 101.775V105.051H348.033V101.775H346.033ZM347.033 104.051H343.758V106.051H347.033V104.051ZM342.758 105.051V108.25H344.758V105.051H342.758ZM343.758 107.25H334.008V109.25H343.758V107.25ZM335.008 108.25V105.051H333.008V108.25H335.008ZM334.008 106.051H337.283V104.051H334.008V106.051ZM338.283 105.051V98.5H336.283V105.051H338.283ZM337.283 99.5H340.482V97.5H337.283V99.5ZM395.936 95.3008H394.936V96.3008H395.936V95.3008ZM395.936 92.0254V91.0254H394.936V92.0254H395.936ZM434.936 92.0254H435.936V91.0254H434.936V92.0254ZM434.936 95.3008H433.936V96.3008H434.936V95.3008ZM444.686 95.3008H445.686V94.3008H444.686V95.3008ZM444.686 98.5H443.686V99.5H444.686V98.5ZM451.16 98.5H452.16V97.5H451.16V98.5ZM451.16 101.775H450.16V102.775H451.16V101.775ZM454.436 101.775H455.436V100.775H454.436V101.775ZM454.436 114.801V115.801H455.436V114.801H454.436ZM451.16 114.801V113.801H450.16V114.801H451.16ZM451.16 118V119H452.16V118H451.16ZM447.961 118V117H446.961V118H447.961ZM447.961 121.275V122.275H448.961V121.275H447.961ZM441.41 121.275V120.275H440.41V121.275H441.41ZM441.41 124.551V125.551H442.41V124.551H441.41ZM434.936 124.551V123.551H433.936V124.551H434.936ZM434.936 131.025H433.936V132.025H434.936V131.025ZM438.211 131.025H439.211V130.025H438.211V131.025ZM438.211 134.225H437.211V135.225H438.211V134.225ZM441.41 134.225H442.41V133.225H441.41V134.225ZM441.41 140.775H440.41V141.775H441.41V140.775ZM444.686 140.775H445.686V139.775H444.686V140.775ZM444.686 143.975H443.686V144.975H444.686V143.975ZM447.961 143.975H448.961V142.975H447.961V143.975ZM447.961 150.525H446.961V151.525H447.961V150.525ZM451.16 150.525H452.16V149.525H451.16V150.525ZM451.16 153.725H450.16V154.725H451.16V153.725ZM454.436 153.725H455.436V152.725H454.436V153.725ZM454.436 157V158H455.436V157H454.436ZM431.66 157H430.66V158H431.66V157ZM431.66 147.25H432.66V146.25H431.66V147.25ZM428.461 147.25H427.461V148.25H428.461V147.25ZM428.461 140.775H429.461V139.775H428.461V140.775ZM425.186 140.775H424.186V141.775H425.186V140.775ZM425.186 134.225H426.186V133.225H425.186V134.225ZM421.91 134.225H420.91V135.225H421.91V134.225ZM421.91 127.75H422.91V126.75H421.91V127.75ZM418.711 127.75H417.711V128.75H418.711V127.75ZM418.711 124.551H419.711V123.551H418.711V124.551ZM412.16 124.551V123.551H411.16V124.551H412.16ZM412.16 153.725H411.16V154.725H412.16V153.725ZM415.436 153.725H416.436V152.725H415.436V153.725ZM415.436 157V158H416.436V157H415.436ZM395.936 157H394.936V158H395.936V157ZM395.936 153.725V152.725H394.936V153.725H395.936ZM399.211 153.725V154.725H400.211V153.725H399.211ZM399.211 95.3008H400.211V94.3008H399.211V95.3008ZM425.186 101.775H424.186V102.775H425.186V101.775ZM425.186 98.5H426.186V97.5H425.186V98.5ZM412.16 98.5V97.5H411.16V98.5H412.16ZM412.16 118H411.16V119H412.16V118ZM434.936 118V119H435.936V118H434.936ZM434.936 114.801V113.801H433.936V114.801H434.936ZM438.211 114.801V115.801H439.211V114.801H438.211ZM438.211 105.051H439.211V104.051H438.211V105.051ZM434.936 105.051H433.936V106.051H434.936V105.051ZM434.936 101.775H435.936V100.775H434.936V101.775ZM396.936 95.3008V92.0254H394.936V95.3008H396.936ZM395.936 93.0254H434.936V91.0254H395.936V93.0254ZM433.936 92.0254V95.3008H435.936V92.0254H433.936ZM434.936 96.3008H444.686V94.3008H434.936V96.3008ZM443.686 95.3008V98.5H445.686V95.3008H443.686ZM444.686 99.5H451.16V97.5H444.686V99.5ZM450.16 98.5V101.775H452.16V98.5H450.16ZM451.16 102.775H454.436V100.775H451.16V102.775ZM453.436 101.775V114.801H455.436V101.775H453.436ZM454.436 113.801H451.16V115.801H454.436V113.801ZM450.16 114.801V118H452.16V114.801H450.16ZM451.16 117H447.961V119H451.16V117ZM446.961 118V121.275H448.961V118H446.961ZM447.961 120.275H441.41V122.275H447.961V120.275ZM440.41 121.275V124.551H442.41V121.275H440.41ZM441.41 123.551H434.936V125.551H441.41V123.551ZM433.936 124.551V131.025H435.936V124.551H433.936ZM434.936 132.025H438.211V130.025H434.936V132.025ZM437.211 131.025V134.225H439.211V131.025H437.211ZM438.211 135.225H441.41V133.225H438.211V135.225ZM440.41 134.225V140.775H442.41V134.225H440.41ZM441.41 141.775H444.686V139.775H441.41V141.775ZM443.686 140.775V143.975H445.686V140.775H443.686ZM444.686 144.975H447.961V142.975H444.686V144.975ZM446.961 143.975V150.525H448.961V143.975H446.961ZM447.961 151.525H451.16V149.525H447.961V151.525ZM450.16 150.525V153.725H452.16V150.525H450.16ZM451.16 154.725H454.436V152.725H451.16V154.725ZM453.436 153.725V157H455.436V153.725H453.436ZM454.436 156H431.66V158H454.436V156ZM432.66 157V147.25H430.66V157H432.66ZM431.66 146.25H428.461V148.25H431.66V146.25ZM429.461 147.25V140.775H427.461V147.25H429.461ZM428.461 139.775H425.186V141.775H428.461V139.775ZM426.186 140.775V134.225H424.186V140.775H426.186ZM425.186 133.225H421.91V135.225H425.186V133.225ZM422.91 134.225V127.75H420.91V134.225H422.91ZM421.91 126.75H418.711V128.75H421.91V126.75ZM419.711 127.75V124.551H417.711V127.75H419.711ZM418.711 123.551H412.16V125.551H418.711V123.551ZM411.16 124.551V153.725H413.16V124.551H411.16ZM412.16 154.725H415.436V152.725H412.16V154.725ZM414.436 153.725V157H416.436V153.725H414.436ZM415.436 156H395.936V158H415.436V156ZM396.936 157V153.725H394.936V157H396.936ZM395.936 154.725H399.211V152.725H395.936V154.725ZM400.211 153.725V95.3008H398.211V153.725H400.211ZM399.211 94.3008H395.936V96.3008H399.211V94.3008ZM426.186 101.775V98.5H424.186V101.775H426.186ZM425.186 97.5H412.16V99.5H425.186V97.5ZM411.16 98.5V118H413.16V98.5H411.16ZM412.16 119H434.936V117H412.16V119ZM435.936 118V114.801H433.936V118H435.936ZM434.936 115.801H438.211V113.801H434.936V115.801ZM439.211 114.801V105.051H437.211V114.801H439.211ZM438.211 104.051H434.936V106.051H438.211V104.051ZM435.936 105.051V101.775H433.936V105.051H435.936ZM434.936 100.775H425.186V102.775H434.936V100.775ZM456.721 95.3008H455.721V96.3008H456.721V95.3008ZM456.721 92.0254V91.0254H455.721V92.0254H456.721ZM476.221 92.0254H477.221V91.0254H476.221V92.0254ZM476.221 98.5V99.5H477.221V98.5H476.221ZM472.945 98.5V97.5H471.945V98.5H472.945ZM472.945 153.725H471.945V154.725H472.945V153.725ZM476.221 153.725H477.221V152.725H476.221V153.725ZM476.221 157V158H477.221V157H476.221ZM459.996 157H458.996V158H459.996V157ZM459.996 95.3008H460.996V94.3008H459.996V95.3008ZM457.721 95.3008V92.0254H455.721V95.3008H457.721ZM456.721 93.0254H476.221V91.0254H456.721V93.0254ZM475.221 92.0254V98.5H477.221V92.0254H475.221ZM476.221 97.5H472.945V99.5H476.221V97.5ZM471.945 98.5V153.725H473.945V98.5H471.945ZM472.945 154.725H476.221V152.725H472.945V154.725ZM475.221 153.725V157H477.221V153.725H475.221ZM476.221 156H459.996V158H476.221V156ZM460.996 157V95.3008H458.996V157H460.996ZM459.996 94.3008H456.721V96.3008H459.996V94.3008ZM479.496 95.3008H478.496V96.3008H479.496V95.3008ZM479.496 92.0254V91.0254H478.496V92.0254H479.496ZM505.471 92.0254H506.471V91.0254H505.471V92.0254ZM505.471 101.775H504.471V102.775H505.471V101.775ZM508.746 101.775H509.746V100.775H508.746V101.775ZM508.746 108.25H507.746V109.25H508.746V108.25ZM512.021 108.25H513.021V107.25H512.021V108.25ZM512.021 114.801H511.021V115.801H512.021V114.801ZM515.297 114.801H516.297V113.801H515.297V114.801ZM515.297 118H514.297V119H515.297V118ZM518.496 118H519.496V117H518.496V118ZM518.496 124.551H517.496V125.551H518.496V124.551ZM521.771 124.551H522.771V123.551H521.771V124.551ZM521.771 127.75H520.771V128.75H521.771V127.75ZM525.047 127.75H526.047V126.75H525.047V127.75ZM525.047 134.301H524.047V135.301H525.047V134.301ZM528.246 134.301H529.246V133.301H528.246V134.301ZM528.246 137.5H527.246V138.5H528.246V137.5ZM531.521 137.5V138.5H532.521V137.5H531.521ZM531.521 118H532.521V117H531.521V118ZM528.246 118H527.246V119H528.246V118ZM528.246 101.775H529.246V100.775H528.246V101.775ZM525.047 101.775H524.047V102.775H525.047V101.775ZM525.047 95.3008H526.047V94.3008H525.047V95.3008ZM521.771 95.3008H520.771V96.3008H521.771V95.3008ZM521.771 92.0254V91.0254H520.771V92.0254H521.771ZM541.271 92.0254H542.271V91.0254H541.271V92.0254ZM541.271 95.3008V96.3008H542.271V95.3008H541.271ZM537.996 95.3008V94.3008H536.996V95.3008H537.996ZM537.996 105.051V106.051H538.996V105.051H537.996ZM534.797 105.051V104.051H533.797V105.051H534.797ZM534.797 147.25H533.797V148.25H534.797V147.25ZM537.996 147.25H538.996V146.25H537.996V147.25ZM537.996 150.525H536.996V151.525H537.996V150.525ZM541.271 150.525H542.271V149.525H541.271V150.525ZM541.271 153.801V154.801H542.271V153.801H541.271ZM537.996 153.801V152.801H536.996V153.801H537.996ZM537.996 157V158H538.996V157H537.996ZM531.521 157V156H530.521V157H531.521ZM531.521 160.275V161.275H532.521V160.275H531.521ZM525.047 160.275H524.047V161.275H525.047V160.275ZM525.047 153.801H526.047V152.801H525.047V153.801ZM521.771 153.801H520.771V154.801H521.771V153.801ZM521.771 147.25H522.771V146.25H521.771V147.25ZM518.496 147.25H517.496V148.25H518.496V147.25ZM518.496 144.051H519.496V143.051H518.496V144.051ZM515.297 144.051H514.297V145.051H515.297V144.051ZM515.297 137.5H516.297V136.5H515.297V137.5ZM512.021 137.5H511.021V138.5H512.021V137.5ZM512.021 131.025H513.021V130.025H512.021V131.025ZM508.746 131.025H507.746V132.025H508.746V131.025ZM508.746 127.75H509.746V126.75H508.746V127.75ZM505.471 127.75H504.471V128.75H505.471V127.75ZM505.471 121.275H506.471V120.275H505.471V121.275ZM502.271 121.275H501.271V122.275H502.271V121.275ZM502.271 118H503.271V117H502.271V118ZM498.996 118H497.996V119H498.996V118ZM498.996 111.525H499.996V110.525H498.996V111.525ZM495.721 111.525H494.721V112.525H495.721V111.525ZM495.721 108.25H496.721V107.25H495.721V108.25ZM492.521 108.25V107.25H491.521V108.25H492.521ZM492.521 147.25H491.521V148.25H492.521V147.25ZM495.721 147.25H496.721V146.25H495.721V147.25ZM495.721 153.801H494.721V154.801H495.721V153.801ZM498.996 153.801H499.996V152.801H498.996V153.801ZM498.996 157V158H499.996V157H498.996ZM479.496 157H478.496V158H479.496V157ZM479.496 153.801V152.801H478.496V153.801H479.496ZM482.771 153.801V154.801H483.771V153.801H482.771ZM482.771 147.25V146.25H481.771V147.25H482.771ZM485.971 147.25V148.25H486.971V147.25H485.971ZM485.971 98.5H486.971V97.5H485.971V98.5ZM482.771 98.5H481.771V99.5H482.771V98.5ZM482.771 95.3008H483.771V94.3008H482.771V95.3008ZM480.496 95.3008V92.0254H478.496V95.3008H480.496ZM479.496 93.0254H505.471V91.0254H479.496V93.0254ZM504.471 92.0254V101.775H506.471V92.0254H504.471ZM505.471 102.775H508.746V100.775H505.471V102.775ZM507.746 101.775V108.25H509.746V101.775H507.746ZM508.746 109.25H512.021V107.25H508.746V109.25ZM511.021 108.25V114.801H513.021V108.25H511.021ZM512.021 115.801H515.297V113.801H512.021V115.801ZM514.297 114.801V118H516.297V114.801H514.297ZM515.297 119H518.496V117H515.297V119ZM517.496 118V124.551H519.496V118H517.496ZM518.496 125.551H521.771V123.551H518.496V125.551ZM520.771 124.551V127.75H522.771V124.551H520.771ZM521.771 128.75H525.047V126.75H521.771V128.75ZM524.047 127.75V134.301H526.047V127.75H524.047ZM525.047 135.301H528.246V133.301H525.047V135.301ZM527.246 134.301V137.5H529.246V134.301H527.246ZM528.246 138.5H531.521V136.5H528.246V138.5ZM532.521 137.5V118H530.521V137.5H532.521ZM531.521 117H528.246V119H531.521V117ZM529.246 118V101.775H527.246V118H529.246ZM528.246 100.775H525.047V102.775H528.246V100.775ZM526.047 101.775V95.3008H524.047V101.775H526.047ZM525.047 94.3008H521.771V96.3008H525.047V94.3008ZM522.771 95.3008V92.0254H520.771V95.3008H522.771ZM521.771 93.0254H541.271V91.0254H521.771V93.0254ZM540.271 92.0254V95.3008H542.271V92.0254H540.271ZM541.271 94.3008H537.996V96.3008H541.271V94.3008ZM536.996 95.3008V105.051H538.996V95.3008H536.996ZM537.996 104.051H534.797V106.051H537.996V104.051ZM533.797 105.051V147.25H535.797V105.051H533.797ZM534.797 148.25H537.996V146.25H534.797V148.25ZM536.996 147.25V150.525H538.996V147.25H536.996ZM537.996 151.525H541.271V149.525H537.996V151.525ZM540.271 150.525V153.801H542.271V150.525H540.271ZM541.271 152.801H537.996V154.801H541.271V152.801ZM536.996 153.801V157H538.996V153.801H536.996ZM537.996 156H531.521V158H537.996V156ZM530.521 157V160.275H532.521V157H530.521ZM531.521 159.275H525.047V161.275H531.521V159.275ZM526.047 160.275V153.801H524.047V160.275H526.047ZM525.047 152.801H521.771V154.801H525.047V152.801ZM522.771 153.801V147.25H520.771V153.801H522.771ZM521.771 146.25H518.496V148.25H521.771V146.25ZM519.496 147.25V144.051H517.496V147.25H519.496ZM518.496 143.051H515.297V145.051H518.496V143.051ZM516.297 144.051V137.5H514.297V144.051H516.297ZM515.297 136.5H512.021V138.5H515.297V136.5ZM513.021 137.5V131.025H511.021V137.5H513.021ZM512.021 130.025H508.746V132.025H512.021V130.025ZM509.746 131.025V127.75H507.746V131.025H509.746ZM508.746 126.75H505.471V128.75H508.746V126.75ZM506.471 127.75V121.275H504.471V127.75H506.471ZM505.471 120.275H502.271V122.275H505.471V120.275ZM503.271 121.275V118H501.271V121.275H503.271ZM502.271 117H498.996V119H502.271V117ZM499.996 118V111.525H497.996V118H499.996ZM498.996 110.525H495.721V112.525H498.996V110.525ZM496.721 111.525V108.25H494.721V111.525H496.721ZM495.721 107.25H492.521V109.25H495.721V107.25ZM491.521 108.25V147.25H493.521V108.25H491.521ZM492.521 148.25H495.721V146.25H492.521V148.25ZM494.721 147.25V153.801H496.721V147.25H494.721ZM495.721 154.801H498.996V152.801H495.721V154.801ZM497.996 153.801V157H499.996V153.801H497.996ZM498.996 156H479.496V158H498.996V156ZM480.496 157V153.801H478.496V157H480.496ZM479.496 154.801H482.771V152.801H479.496V154.801ZM483.771 153.801V147.25H481.771V153.801H483.771ZM482.771 148.25H485.971V146.25H482.771V148.25ZM486.971 147.25V98.5H484.971V147.25H486.971ZM485.971 97.5H482.771V99.5H485.971V97.5ZM483.771 98.5V95.3008H481.771V98.5H483.771ZM482.771 94.3008H479.496V96.3008H482.771V94.3008ZM544.395 95.3008H543.395V96.3008H544.395V95.3008ZM544.395 92.0254V91.0254H543.395V92.0254H544.395ZM563.895 92.0254H564.895V91.0254H563.895V92.0254ZM563.895 98.5V99.5H564.895V98.5H563.895ZM560.619 98.5V97.5H559.619V98.5H560.619ZM560.619 153.725H559.619V154.725H560.619V153.725ZM563.895 153.725H564.895V152.725H563.895V153.725ZM563.895 157V158H564.895V157H563.895ZM547.67 157H546.67V158H547.67V157ZM547.67 95.3008H548.67V94.3008H547.67V95.3008ZM545.395 95.3008V92.0254H543.395V95.3008H545.395ZM544.395 93.0254H563.895V91.0254H544.395V93.0254ZM562.895 92.0254V98.5H564.895V92.0254H562.895ZM563.895 97.5H560.619V99.5H563.895V97.5ZM559.619 98.5V153.725H561.619V98.5H559.619ZM560.619 154.725H563.895V152.725H560.619V154.725ZM562.895 153.725V157H564.895V153.725H562.895ZM563.895 156H547.67V158H563.895V156ZM548.67 157V95.3008H546.67V157H548.67ZM547.67 94.3008H544.395V96.3008H547.67V94.3008ZM573.416 98.5V99.5H574.416V98.5H573.416ZM573.416 92.0254V91.0254H572.416V92.0254H573.416ZM622.166 92.0254H623.166V91.0254H622.166V92.0254ZM622.166 101.775H621.166V102.775H622.166V101.775ZM625.441 101.775H626.441V100.775H625.441V101.775ZM625.441 108.25V109.25H626.441V108.25H625.441ZM618.967 108.25H617.967V109.25H618.967V108.25ZM618.967 105.051H619.967V104.051H618.967V105.051ZM612.416 105.051H611.416V106.051H612.416V105.051ZM612.416 101.775H613.416V100.775H612.416V101.775ZM609.217 101.775H608.217V102.775H609.217V101.775ZM609.217 98.5H610.217V97.5H609.217V98.5ZM602.666 98.5V97.5H601.666V98.5H602.666ZM602.666 150.525H601.666V151.525H602.666V150.525ZM605.941 150.525H606.941V149.525H605.941V150.525ZM605.941 157V158H606.941V157H605.941ZM586.441 157H585.441V158H586.441V157ZM586.441 153.725V152.725H585.441V153.725H586.441ZM589.717 153.725V154.725H590.717V153.725H589.717ZM589.717 98.5H590.717V97.5H589.717V98.5ZM583.166 98.5V97.5H582.166V98.5H583.166ZM583.166 101.775V102.775H584.166V101.775H583.166ZM579.967 101.775V100.775H578.967V101.775H579.967ZM579.967 105.051V106.051H580.967V105.051H579.967ZM576.691 105.051V104.051H575.691V105.051H576.691ZM576.691 108.25V109.25H577.691V108.25H576.691ZM566.941 108.25H565.941V109.25H566.941V108.25ZM566.941 105.051V104.051H565.941V105.051H566.941ZM570.217 105.051V106.051H571.217V105.051H570.217ZM570.217 98.5V97.5H569.217V98.5H570.217ZM574.416 98.5V92.0254H572.416V98.5H574.416ZM573.416 93.0254H622.166V91.0254H573.416V93.0254ZM621.166 92.0254V101.775H623.166V92.0254H621.166ZM622.166 102.775H625.441V100.775H622.166V102.775ZM624.441 101.775V108.25H626.441V101.775H624.441ZM625.441 107.25H618.967V109.25H625.441V107.25ZM619.967 108.25V105.051H617.967V108.25H619.967ZM618.967 104.051H612.416V106.051H618.967V104.051ZM613.416 105.051V101.775H611.416V105.051H613.416ZM612.416 100.775H609.217V102.775H612.416V100.775ZM610.217 101.775V98.5H608.217V101.775H610.217ZM609.217 97.5H602.666V99.5H609.217V97.5ZM601.666 98.5V150.525H603.666V98.5H601.666ZM602.666 151.525H605.941V149.525H602.666V151.525ZM604.941 150.525V157H606.941V150.525H604.941ZM605.941 156H586.441V158H605.941V156ZM587.441 157V153.725H585.441V157H587.441ZM586.441 154.725H589.717V152.725H586.441V154.725ZM590.717 153.725V98.5H588.717V153.725H590.717ZM589.717 97.5H583.166V99.5H589.717V97.5ZM582.166 98.5V101.775H584.166V98.5H582.166ZM583.166 100.775H579.967V102.775H583.166V100.775ZM578.967 101.775V105.051H580.967V101.775H578.967ZM579.967 104.051H576.691V106.051H579.967V104.051ZM575.691 105.051V108.25H577.691V105.051H575.691ZM576.691 107.25H566.941V109.25H576.691V107.25ZM567.941 108.25V105.051H565.941V108.25H567.941ZM566.941 106.051H570.217V104.051H566.941V106.051ZM571.217 105.051V98.5H569.217V105.051H571.217ZM570.217 99.5H573.416V97.5H570.217V99.5ZM628.793 95.3008H627.793V96.3008H628.793V95.3008ZM628.793 92.0254V91.0254H627.793V92.0254H628.793ZM651.568 92.0254H652.568V91.0254H651.568V92.0254ZM651.568 98.5V99.5H652.568V98.5H651.568ZM648.293 98.5V97.5H647.293V98.5H648.293ZM648.293 101.775H647.293V102.775H648.293V101.775ZM651.568 101.775H652.568V100.775H651.568V101.775ZM651.568 108.25H650.568V109.25H651.568V108.25ZM654.768 108.25H655.768V107.25H654.768V108.25ZM654.768 114.801H653.768V115.801H654.768V114.801ZM658.043 114.801H659.043V113.801H658.043V114.801ZM658.043 121.275H657.043V122.275H658.043V121.275ZM661.318 121.275H662.318V120.275H661.318V121.275ZM661.318 124.551H660.318V125.551H661.318V124.551ZM664.518 124.551V125.551H665.518V124.551H664.518ZM664.518 121.275V120.275H663.518V121.275H664.518ZM667.793 121.275V122.275H668.793V121.275H667.793ZM667.793 114.801V113.801H666.793V114.801H667.793ZM671.068 114.801V115.801H672.068V114.801H671.068ZM671.068 95.3008H672.068V94.3008H671.068V95.3008ZM667.793 95.3008H666.793V96.3008H667.793V95.3008ZM667.793 92.0254V91.0254H666.793V92.0254H667.793ZM687.293 92.0254H688.293V91.0254H687.293V92.0254ZM687.293 98.5V99.5H688.293V98.5H687.293ZM684.018 98.5V97.5H683.018V98.5H684.018ZM684.018 101.775V102.775H685.018V101.775H684.018ZM680.818 101.775V100.775H679.818V101.775H680.818ZM680.818 108.25V109.25H681.818V108.25H680.818ZM677.543 108.25V107.25H676.543V108.25H677.543ZM677.543 111.525V112.525H678.543V111.525H677.543ZM674.268 111.525V110.525H673.268V111.525H674.268ZM674.268 118V119H675.268V118H674.268ZM671.068 118V117H670.068V118H671.068ZM671.068 124.551V125.551H672.068V124.551H671.068ZM667.793 124.551V123.551H666.793V124.551H667.793ZM667.793 131.025V132.025H668.793V131.025H667.793ZM664.518 131.025V130.025H663.518V131.025H664.518ZM664.518 153.725H663.518V154.725H664.518V153.725ZM667.793 153.725H668.793V152.725H667.793V153.725ZM667.793 157V158H668.793V157H667.793ZM648.293 157H647.293V158H648.293V157ZM648.293 153.725V152.725H647.293V153.725H648.293ZM651.568 153.725V154.725H652.568V153.725H651.568ZM651.568 131.025H652.568V130.025H651.568V131.025ZM648.293 131.025H647.293V132.025H648.293V131.025ZM648.293 124.551H649.293V123.551H648.293V124.551ZM645.018 124.551H644.018V125.551H645.018V124.551ZM645.018 118H646.018V117H645.018V118ZM641.818 118H640.818V119H641.818V118ZM641.818 111.525H642.818V110.525H641.818V111.525ZM638.543 111.525H637.543V112.525H638.543V111.525ZM638.543 105.051H639.543V104.051H638.543V105.051ZM635.268 105.051H634.268V106.051H635.268V105.051ZM635.268 98.5H636.268V97.5H635.268V98.5ZM632.068 98.5H631.068V99.5H632.068V98.5ZM632.068 95.3008H633.068V94.3008H632.068V95.3008ZM629.793 95.3008V92.0254H627.793V95.3008H629.793ZM628.793 93.0254H651.568V91.0254H628.793V93.0254ZM650.568 92.0254V98.5H652.568V92.0254H650.568ZM651.568 97.5H648.293V99.5H651.568V97.5ZM647.293 98.5V101.775H649.293V98.5H647.293ZM648.293 102.775H651.568V100.775H648.293V102.775ZM650.568 101.775V108.25H652.568V101.775H650.568ZM651.568 109.25H654.768V107.25H651.568V109.25ZM653.768 108.25V114.801H655.768V108.25H653.768ZM654.768 115.801H658.043V113.801H654.768V115.801ZM657.043 114.801V121.275H659.043V114.801H657.043ZM658.043 122.275H661.318V120.275H658.043V122.275ZM660.318 121.275V124.551H662.318V121.275H660.318ZM661.318 125.551H664.518V123.551H661.318V125.551ZM665.518 124.551V121.275H663.518V124.551H665.518ZM664.518 122.275H667.793V120.275H664.518V122.275ZM668.793 121.275V114.801H666.793V121.275H668.793ZM667.793 115.801H671.068V113.801H667.793V115.801ZM672.068 114.801V95.3008H670.068V114.801H672.068ZM671.068 94.3008H667.793V96.3008H671.068V94.3008ZM668.793 95.3008V92.0254H666.793V95.3008H668.793ZM667.793 93.0254H687.293V91.0254H667.793V93.0254ZM686.293 92.0254V98.5H688.293V92.0254H686.293ZM687.293 97.5H684.018V99.5H687.293V97.5ZM683.018 98.5V101.775H685.018V98.5H683.018ZM684.018 100.775H680.818V102.775H684.018V100.775ZM679.818 101.775V108.25H681.818V101.775H679.818ZM680.818 107.25H677.543V109.25H680.818V107.25ZM676.543 108.25V111.525H678.543V108.25H676.543ZM677.543 110.525H674.268V112.525H677.543V110.525ZM673.268 111.525V118H675.268V111.525H673.268ZM674.268 117H671.068V119H674.268V117ZM670.068 118V124.551H672.068V118H670.068ZM671.068 123.551H667.793V125.551H671.068V123.551ZM666.793 124.551V131.025H668.793V124.551H666.793ZM667.793 130.025H664.518V132.025H667.793V130.025ZM663.518 131.025V153.725H665.518V131.025H663.518ZM664.518 154.725H667.793V152.725H664.518V154.725ZM666.793 153.725V157H668.793V153.725H666.793ZM667.793 156H648.293V158H667.793V156ZM649.293 157V153.725H647.293V157H649.293ZM648.293 154.725H651.568V152.725H648.293V154.725ZM652.568 153.725V131.025H650.568V153.725H652.568ZM651.568 130.025H648.293V132.025H651.568V130.025ZM649.293 131.025V124.551H647.293V131.025H649.293ZM648.293 123.551H645.018V125.551H648.293V123.551ZM646.018 124.551V118H644.018V124.551H646.018ZM645.018 117H641.818V119H645.018V117ZM642.818 118V111.525H640.818V118H642.818ZM641.818 110.525H638.543V112.525H641.818V110.525ZM639.543 111.525V105.051H637.543V111.525H639.543ZM638.543 104.051H635.268V106.051H638.543V104.051ZM636.268 105.051V98.5H634.268V105.051H636.268ZM635.268 97.5H632.068V99.5H635.268V97.5ZM633.068 98.5V95.3008H631.068V98.5H633.068ZM632.068 94.3008H628.793V96.3008H632.068V94.3008Z" fill="#9A7AF2" mask="url(#path-1-outside-1_227_2990)"/>
</g>
<g filter="url(#filter1_f_227_2990)">
<mask id="path-3-outside-2_227_2990" maskUnits="userSpaceOnUse" x="72" y="47" width="664" height="82" fill="black">
<rect fill="white" x="72" y="47" width="664" height="82"/>
<path d="M81.3125 55.75V48.1963H138.188V59.5713H142.009V67.125H134.455V63.3926H126.812V59.5713H123.08V55.75H115.438V116.446H119.259V124H96.5088V120.179H100.33V55.75H92.6875V59.5713H88.9551V63.3926H85.1338V67.125H73.7588V63.3926H77.5801V55.75H81.3125ZM150.096 55.75V48.1963H172.846V52.0176H169.024V67.125H165.203V89.875H191.774V63.3926H187.953V52.0176H184.221V48.1963H206.971V59.5713H203.149V63.3926H206.971V101.25H210.703V120.179H214.524V124H191.774V120.179H195.596V97.4287H165.203V120.179H169.024V124H146.274V112.625H150.096V70.9463H153.828V55.75H150.096ZM218.346 52.0176V48.1963H275.221V55.75H279.042V59.5713H282.774V67.125H271.399V63.3926H263.846V59.5713H256.292V55.75H237.274V78.5H260.024V74.7676H267.667V70.9463H271.399V82.3213H275.221V89.875H279.042V97.5176H275.221V93.6963H271.399V89.875H263.846V86.1426H241.096V82.3213H237.274V120.268H248.649V116.446H260.024V112.625H267.667V108.893H279.042V105.071H286.596V112.625H282.774V116.446H279.042V127.821H275.221V124H218.346V120.268H222.167V52.0176H218.346ZM330.229 55.75V48.1963H387.104V59.5713H390.926V67.125H383.372V63.3926H375.729V59.5713H371.997V55.75H364.354V116.446H368.176V124H345.426V120.179H349.247V55.75H341.604V59.5713H337.872V63.3926H334.051V67.125H322.676V63.3926H326.497V55.75H330.229ZM394.925 52.0176V48.1963H440.425V52.0176H451.8V55.75H459.354V59.5713H463.175V74.7676H459.354V78.5H455.621V82.3213H447.979V86.1426H440.425V93.6963H444.246V97.4287H447.979V105.071H451.8V108.804H455.621V116.446H459.354V120.179H463.175V124H436.604V112.625H432.871V105.071H429.05V97.4287H425.229V89.875H421.496V86.1426H413.854V120.179H417.675V124H394.925V120.179H398.746V52.0176H394.925ZM429.05 59.5713V55.75H413.854V78.5H440.425V74.7676H444.246V63.3926H440.425V59.5713H429.05ZM465.841 52.0176V48.1963H488.591V55.75H484.77V120.179H488.591V124H469.662V52.0176H465.841ZM492.412 52.0176V48.1963H522.716V59.5713H526.537V67.125H530.358V74.7676H534.18V78.5H537.912V86.1426H541.733V89.875H545.555V97.5176H549.287V101.25H553.108V78.5H549.287V59.5713H545.555V52.0176H541.733V48.1963H564.483V52.0176H560.662V63.3926H556.93V112.625H560.662V116.446H564.483V120.268H560.662V124H553.108V127.821H545.555V120.268H541.733V112.625H537.912V108.893H534.18V101.25H530.358V93.6963H526.537V89.875H522.716V82.3213H518.983V78.5H515.162V70.9463H511.341V67.125H507.608V112.625H511.341V120.268H515.162V124H492.412V120.268H496.233V112.625H499.966V55.75H496.233V52.0176H492.412ZM568.127 52.0176V48.1963H590.877V55.75H587.056V120.179H590.877V124H571.948V52.0176H568.127ZM601.985 55.75V48.1963H658.86V59.5713H662.682V67.125H655.128V63.3926H647.485V59.5713H643.753V55.75H636.11V116.446H639.932V124H617.182V120.179H621.003V55.75H613.36V59.5713H609.628V63.3926H605.807V67.125H594.432V63.3926H598.253V55.75H601.985ZM666.592 52.0176V48.1963H693.163V55.75H689.342V59.5713H693.163V67.125H696.896V74.7676H700.717V82.3213H704.538V86.1426H708.271V82.3213H712.092V74.7676H715.913V52.0176H712.092V48.1963H734.842V55.75H731.021V59.5713H727.288V67.125H723.467V70.9463H719.646V78.5H715.913V86.1426H712.092V93.6963H708.271V120.179H712.092V124H689.342V120.179H693.163V93.6963H689.342V86.1426H685.521V78.5H681.788V70.9463H677.967V63.3926H674.146V55.75H670.413V52.0176H666.592Z"/>
</mask>
<path d="M81.3125 55.75V48.1963H138.188V59.5713H142.009V67.125H134.455V63.3926H126.812V59.5713H123.08V55.75H115.438V116.446H119.259V124H96.5088V120.179H100.33V55.75H92.6875V59.5713H88.9551V63.3926H85.1338V67.125H73.7588V63.3926H77.5801V55.75H81.3125ZM150.096 55.75V48.1963H172.846V52.0176H169.024V67.125H165.203V89.875H191.774V63.3926H187.953V52.0176H184.221V48.1963H206.971V59.5713H203.149V63.3926H206.971V101.25H210.703V120.179H214.524V124H191.774V120.179H195.596V97.4287H165.203V120.179H169.024V124H146.274V112.625H150.096V70.9463H153.828V55.75H150.096ZM218.346 52.0176V48.1963H275.221V55.75H279.042V59.5713H282.774V67.125H271.399V63.3926H263.846V59.5713H256.292V55.75H237.274V78.5H260.024V74.7676H267.667V70.9463H271.399V82.3213H275.221V89.875H279.042V97.5176H275.221V93.6963H271.399V89.875H263.846V86.1426H241.096V82.3213H237.274V120.268H248.649V116.446H260.024V112.625H267.667V108.893H279.042V105.071H286.596V112.625H282.774V116.446H279.042V127.821H275.221V124H218.346V120.268H222.167V52.0176H218.346ZM330.229 55.75V48.1963H387.104V59.5713H390.926V67.125H383.372V63.3926H375.729V59.5713H371.997V55.75H364.354V116.446H368.176V124H345.426V120.179H349.247V55.75H341.604V59.5713H337.872V63.3926H334.051V67.125H322.676V63.3926H326.497V55.75H330.229ZM394.925 52.0176V48.1963H440.425V52.0176H451.8V55.75H459.354V59.5713H463.175V74.7676H459.354V78.5H455.621V82.3213H447.979V86.1426H440.425V93.6963H444.246V97.4287H447.979V105.071H451.8V108.804H455.621V116.446H459.354V120.179H463.175V124H436.604V112.625H432.871V105.071H429.05V97.4287H425.229V89.875H421.496V86.1426H413.854V120.179H417.675V124H394.925V120.179H398.746V52.0176H394.925ZM429.05 59.5713V55.75H413.854V78.5H440.425V74.7676H444.246V63.3926H440.425V59.5713H429.05ZM465.841 52.0176V48.1963H488.591V55.75H484.77V120.179H488.591V124H469.662V52.0176H465.841ZM492.412 52.0176V48.1963H522.716V59.5713H526.537V67.125H530.358V74.7676H534.18V78.5H537.912V86.1426H541.733V89.875H545.555V97.5176H549.287V101.25H553.108V78.5H549.287V59.5713H545.555V52.0176H541.733V48.1963H564.483V52.0176H560.662V63.3926H556.93V112.625H560.662V116.446H564.483V120.268H560.662V124H553.108V127.821H545.555V120.268H541.733V112.625H537.912V108.893H534.18V101.25H530.358V93.6963H526.537V89.875H522.716V82.3213H518.983V78.5H515.162V70.9463H511.341V67.125H507.608V112.625H511.341V120.268H515.162V124H492.412V120.268H496.233V112.625H499.966V55.75H496.233V52.0176H492.412ZM568.127 52.0176V48.1963H590.877V55.75H587.056V120.179H590.877V124H571.948V52.0176H568.127ZM601.985 55.75V48.1963H658.86V59.5713H662.682V67.125H655.128V63.3926H647.485V59.5713H643.753V55.75H636.11V116.446H639.932V124H617.182V120.179H621.003V55.75H613.36V59.5713H609.628V63.3926H605.807V67.125H594.432V63.3926H598.253V55.75H601.985ZM666.592 52.0176V48.1963H693.163V55.75H689.342V59.5713H693.163V67.125H696.896V74.7676H700.717V82.3213H704.538V86.1426H708.271V82.3213H712.092V74.7676H715.913V52.0176H712.092V48.1963H734.842V55.75H731.021V59.5713H727.288V67.125H723.467V70.9463H719.646V78.5H715.913V86.1426H712.092V93.6963H708.271V120.179H712.092V124H689.342V120.179H693.163V93.6963H689.342V86.1426H685.521V78.5H681.788V70.9463H677.967V63.3926H674.146V55.75H670.413V52.0176H666.592Z" fill="black"/>
<path d="M81.3125 55.75V56.75H82.3125V55.75H81.3125ZM81.3125 48.1963V47.1963H80.3125V48.1963H81.3125ZM138.188 48.1963H139.188V47.1963H138.188V48.1963ZM138.188 59.5713H137.188V60.5713H138.188V59.5713ZM142.009 59.5713H143.009V58.5713H142.009V59.5713ZM142.009 67.125V68.125H143.009V67.125H142.009ZM134.455 67.125H133.455V68.125H134.455V67.125ZM134.455 63.3926H135.455V62.3926H134.455V63.3926ZM126.812 63.3926H125.812V64.3926H126.812V63.3926ZM126.812 59.5713H127.812V58.5713H126.812V59.5713ZM123.08 59.5713H122.08V60.5713H123.08V59.5713ZM123.08 55.75H124.08V54.75H123.08V55.75ZM115.438 55.75V54.75H114.438V55.75H115.438ZM115.438 116.446H114.438V117.446H115.438V116.446ZM119.259 116.446H120.259V115.446H119.259V116.446ZM119.259 124V125H120.259V124H119.259ZM96.5088 124H95.5088V125H96.5088V124ZM96.5088 120.179V119.179H95.5088V120.179H96.5088ZM100.33 120.179V121.179H101.33V120.179H100.33ZM100.33 55.75H101.33V54.75H100.33V55.75ZM92.6875 55.75V54.75H91.6875V55.75H92.6875ZM92.6875 59.5713V60.5713H93.6875V59.5713H92.6875ZM88.9551 59.5713V58.5713H87.9551V59.5713H88.9551ZM88.9551 63.3926V64.3926H89.9551V63.3926H88.9551ZM85.1338 63.3926V62.3926H84.1338V63.3926H85.1338ZM85.1338 67.125V68.125H86.1338V67.125H85.1338ZM73.7588 67.125H72.7588V68.125H73.7588V67.125ZM73.7588 63.3926V62.3926H72.7588V63.3926H73.7588ZM77.5801 63.3926V64.3926H78.5801V63.3926H77.5801ZM77.5801 55.75V54.75H76.5801V55.75H77.5801ZM82.3125 55.75V48.1963H80.3125V55.75H82.3125ZM81.3125 49.1963H138.188V47.1963H81.3125V49.1963ZM137.188 48.1963V59.5713H139.188V48.1963H137.188ZM138.188 60.5713H142.009V58.5713H138.188V60.5713ZM141.009 59.5713V67.125H143.009V59.5713H141.009ZM142.009 66.125H134.455V68.125H142.009V66.125ZM135.455 67.125V63.3926H133.455V67.125H135.455ZM134.455 62.3926H126.812V64.3926H134.455V62.3926ZM127.812 63.3926V59.5713H125.812V63.3926H127.812ZM126.812 58.5713H123.08V60.5713H126.812V58.5713ZM124.08 59.5713V55.75H122.08V59.5713H124.08ZM123.08 54.75H115.438V56.75H123.08V54.75ZM114.438 55.75V116.446H116.438V55.75H114.438ZM115.438 117.446H119.259V115.446H115.438V117.446ZM118.259 116.446V124H120.259V116.446H118.259ZM119.259 123H96.5088V125H119.259V123ZM97.5088 124V120.179H95.5088V124H97.5088ZM96.5088 121.179H100.33V119.179H96.5088V121.179ZM101.33 120.179V55.75H99.3301V120.179H101.33ZM100.33 54.75H92.6875V56.75H100.33V54.75ZM91.6875 55.75V59.5713H93.6875V55.75H91.6875ZM92.6875 58.5713H88.9551V60.5713H92.6875V58.5713ZM87.9551 59.5713V63.3926H89.9551V59.5713H87.9551ZM88.9551 62.3926H85.1338V64.3926H88.9551V62.3926ZM84.1338 63.3926V67.125H86.1338V63.3926H84.1338ZM85.1338 66.125H73.7588V68.125H85.1338V66.125ZM74.7588 67.125V63.3926H72.7588V67.125H74.7588ZM73.7588 64.3926H77.5801V62.3926H73.7588V64.3926ZM78.5801 63.3926V55.75H76.5801V63.3926H78.5801ZM77.5801 56.75H81.3125V54.75H77.5801V56.75ZM150.096 55.75H149.096V56.75H150.096V55.75ZM150.096 48.1963V47.1963H149.096V48.1963H150.096ZM172.846 48.1963H173.846V47.1963H172.846V48.1963ZM172.846 52.0176V53.0176H173.846V52.0176H172.846ZM169.024 52.0176V51.0176H168.024V52.0176H169.024ZM169.024 67.125V68.125H170.024V67.125H169.024ZM165.203 67.125V66.125H164.203V67.125H165.203ZM165.203 89.875H164.203V90.875H165.203V89.875ZM191.774 89.875V90.875H192.774V89.875H191.774ZM191.774 63.3926H192.774V62.3926H191.774V63.3926ZM187.953 63.3926H186.953V64.3926H187.953V63.3926ZM187.953 52.0176H188.953V51.0176H187.953V52.0176ZM184.221 52.0176H183.221V53.0176H184.221V52.0176ZM184.221 48.1963V47.1963H183.221V48.1963H184.221ZM206.971 48.1963H207.971V47.1963H206.971V48.1963ZM206.971 59.5713V60.5713H207.971V59.5713H206.971ZM203.149 59.5713V58.5713H202.149V59.5713H203.149ZM203.149 63.3926H202.149V64.3926H203.149V63.3926ZM206.971 63.3926H207.971V62.3926H206.971V63.3926ZM206.971 101.25H205.971V102.25H206.971V101.25ZM210.703 101.25H211.703V100.25H210.703V101.25ZM210.703 120.179H209.703V121.179H210.703V120.179ZM214.524 120.179H215.524V119.179H214.524V120.179ZM214.524 124V125H215.524V124H214.524ZM191.774 124H190.774V125H191.774V124ZM191.774 120.179V119.179H190.774V120.179H191.774ZM195.596 120.179V121.179H196.596V120.179H195.596ZM195.596 97.4287H196.596V96.4287H195.596V97.4287ZM165.203 97.4287V96.4287H164.203V97.4287H165.203ZM165.203 120.179H164.203V121.179H165.203V120.179ZM169.024 120.179H170.024V119.179H169.024V120.179ZM169.024 124V125H170.024V124H169.024ZM146.274 124H145.274V125H146.274V124ZM146.274 112.625V111.625H145.274V112.625H146.274ZM150.096 112.625V113.625H151.096V112.625H150.096ZM150.096 70.9463V69.9463H149.096V70.9463H150.096ZM153.828 70.9463V71.9463H154.828V70.9463H153.828ZM153.828 55.75H154.828V54.75H153.828V55.75ZM151.096 55.75V48.1963H149.096V55.75H151.096ZM150.096 49.1963H172.846V47.1963H150.096V49.1963ZM171.846 48.1963V52.0176H173.846V48.1963H171.846ZM172.846 51.0176H169.024V53.0176H172.846V51.0176ZM168.024 52.0176V67.125H170.024V52.0176H168.024ZM169.024 66.125H165.203V68.125H169.024V66.125ZM164.203 67.125V89.875H166.203V67.125H164.203ZM165.203 90.875H191.774V88.875H165.203V90.875ZM192.774 89.875V63.3926H190.774V89.875H192.774ZM191.774 62.3926H187.953V64.3926H191.774V62.3926ZM188.953 63.3926V52.0176H186.953V63.3926H188.953ZM187.953 51.0176H184.221V53.0176H187.953V51.0176ZM185.221 52.0176V48.1963H183.221V52.0176H185.221ZM184.221 49.1963H206.971V47.1963H184.221V49.1963ZM205.971 48.1963V59.5713H207.971V48.1963H205.971ZM206.971 58.5713H203.149V60.5713H206.971V58.5713ZM202.149 59.5713V63.3926H204.149V59.5713H202.149ZM203.149 64.3926H206.971V62.3926H203.149V64.3926ZM205.971 63.3926V101.25H207.971V63.3926H205.971ZM206.971 102.25H210.703V100.25H206.971V102.25ZM209.703 101.25V120.179H211.703V101.25H209.703ZM210.703 121.179H214.524V119.179H210.703V121.179ZM213.524 120.179V124H215.524V120.179H213.524ZM214.524 123H191.774V125H214.524V123ZM192.774 124V120.179H190.774V124H192.774ZM191.774 121.179H195.596V119.179H191.774V121.179ZM196.596 120.179V97.4287H194.596V120.179H196.596ZM195.596 96.4287H165.203V98.4287H195.596V96.4287ZM164.203 97.4287V120.179H166.203V97.4287H164.203ZM165.203 121.179H169.024V119.179H165.203V121.179ZM168.024 120.179V124H170.024V120.179H168.024ZM169.024 123H146.274V125H169.024V123ZM147.274 124V112.625H145.274V124H147.274ZM146.274 113.625H150.096V111.625H146.274V113.625ZM151.096 112.625V70.9463H149.096V112.625H151.096ZM150.096 71.9463H153.828V69.9463H150.096V71.9463ZM154.828 70.9463V55.75H152.828V70.9463H154.828ZM153.828 54.75H150.096V56.75H153.828V54.75ZM218.346 52.0176H217.346V53.0176H218.346V52.0176ZM218.346 48.1963V47.1963H217.346V48.1963H218.346ZM275.221 48.1963H276.221V47.1963H275.221V48.1963ZM275.221 55.75H274.221V56.75H275.221V55.75ZM279.042 55.75H280.042V54.75H279.042V55.75ZM279.042 59.5713H278.042V60.5713H279.042V59.5713ZM282.774 59.5713H283.774V58.5713H282.774V59.5713ZM282.774 67.125V68.125H283.774V67.125H282.774ZM271.399 67.125H270.399V68.125H271.399V67.125ZM271.399 63.3926H272.399V62.3926H271.399V63.3926ZM263.846 63.3926H262.846V64.3926H263.846V63.3926ZM263.846 59.5713H264.846V58.5713H263.846V59.5713ZM256.292 59.5713H255.292V60.5713H256.292V59.5713ZM256.292 55.75H257.292V54.75H256.292V55.75ZM237.274 55.75V54.75H236.274V55.75H237.274ZM237.274 78.5H236.274V79.5H237.274V78.5ZM260.024 78.5V79.5H261.024V78.5H260.024ZM260.024 74.7676V73.7676H259.024V74.7676H260.024ZM267.667 74.7676V75.7676H268.667V74.7676H267.667ZM267.667 70.9463V69.9463H266.667V70.9463H267.667ZM271.399 70.9463H272.399V69.9463H271.399V70.9463ZM271.399 82.3213H270.399V83.3213H271.399V82.3213ZM275.221 82.3213H276.221V81.3213H275.221V82.3213ZM275.221 89.875H274.221V90.875H275.221V89.875ZM279.042 89.875H280.042V88.875H279.042V89.875ZM279.042 97.5176V98.5176H280.042V97.5176H279.042ZM275.221 97.5176H274.221V98.5176H275.221V97.5176ZM275.221 93.6963H276.221V92.6963H275.221V93.6963ZM271.399 93.6963H270.399V94.6963H271.399V93.6963ZM271.399 89.875H272.399V88.875H271.399V89.875ZM263.846 89.875H262.846V90.875H263.846V89.875ZM263.846 86.1426H264.846V85.1426H263.846V86.1426ZM241.096 86.1426H240.096V87.1426H241.096V86.1426ZM241.096 82.3213H242.096V81.3213H241.096V82.3213ZM237.274 82.3213V81.3213H236.274V82.3213H237.274ZM237.274 120.268H236.274V121.268H237.274V120.268ZM248.649 120.268V121.268H249.649V120.268H248.649ZM248.649 116.446V115.446H247.649V116.446H248.649ZM260.024 116.446V117.446H261.024V116.446H260.024ZM260.024 112.625V111.625H259.024V112.625H260.024ZM267.667 112.625V113.625H268.667V112.625H267.667ZM267.667 108.893V107.893H266.667V108.893H267.667ZM279.042 108.893V109.893H280.042V108.893H279.042ZM279.042 105.071V104.071H278.042V105.071H279.042ZM286.596 105.071H287.596V104.071H286.596V105.071ZM286.596 112.625V113.625H287.596V112.625H286.596ZM282.774 112.625V111.625H281.774V112.625H282.774ZM282.774 116.446V117.446H283.774V116.446H282.774ZM279.042 116.446V115.446H278.042V116.446H279.042ZM279.042 127.821V128.821H280.042V127.821H279.042ZM275.221 127.821H274.221V128.821H275.221V127.821ZM275.221 124H276.221V123H275.221V124ZM218.346 124H217.346V125H218.346V124ZM218.346 120.268V119.268H217.346V120.268H218.346ZM222.167 120.268V121.268H223.167V120.268H222.167ZM222.167 52.0176H223.167V51.0176H222.167V52.0176ZM219.346 52.0176V48.1963H217.346V52.0176H219.346ZM218.346 49.1963H275.221V47.1963H218.346V49.1963ZM274.221 48.1963V55.75H276.221V48.1963H274.221ZM275.221 56.75H279.042V54.75H275.221V56.75ZM278.042 55.75V59.5713H280.042V55.75H278.042ZM279.042 60.5713H282.774V58.5713H279.042V60.5713ZM281.774 59.5713V67.125H283.774V59.5713H281.774ZM282.774 66.125H271.399V68.125H282.774V66.125ZM272.399 67.125V63.3926H270.399V67.125H272.399ZM271.399 62.3926H263.846V64.3926H271.399V62.3926ZM264.846 63.3926V59.5713H262.846V63.3926H264.846ZM263.846 58.5713H256.292V60.5713H263.846V58.5713ZM257.292 59.5713V55.75H255.292V59.5713H257.292ZM256.292 54.75H237.274V56.75H256.292V54.75ZM236.274 55.75V78.5H238.274V55.75H236.274ZM237.274 79.5H260.024V77.5H237.274V79.5ZM261.024 78.5V74.7676H259.024V78.5H261.024ZM260.024 75.7676H267.667V73.7676H260.024V75.7676ZM268.667 74.7676V70.9463H266.667V74.7676H268.667ZM267.667 71.9463H271.399V69.9463H267.667V71.9463ZM270.399 70.9463V82.3213H272.399V70.9463H270.399ZM271.399 83.3213H275.221V81.3213H271.399V83.3213ZM274.221 82.3213V89.875H276.221V82.3213H274.221ZM275.221 90.875H279.042V88.875H275.221V90.875ZM278.042 89.875V97.5176H280.042V89.875H278.042ZM279.042 96.5176H275.221V98.5176H279.042V96.5176ZM276.221 97.5176V93.6963H274.221V97.5176H276.221ZM275.221 92.6963H271.399V94.6963H275.221V92.6963ZM272.399 93.6963V89.875H270.399V93.6963H272.399ZM271.399 88.875H263.846V90.875H271.399V88.875ZM264.846 89.875V86.1426H262.846V89.875H264.846ZM263.846 85.1426H241.096V87.1426H263.846V85.1426ZM242.096 86.1426V82.3213H240.096V86.1426H242.096ZM241.096 81.3213H237.274V83.3213H241.096V81.3213ZM236.274 82.3213V120.268H238.274V82.3213H236.274ZM237.274 121.268H248.649V119.268H237.274V121.268ZM249.649 120.268V116.446H247.649V120.268H249.649ZM248.649 117.446H260.024V115.446H248.649V117.446ZM261.024 116.446V112.625H259.024V116.446H261.024ZM260.024 113.625H267.667V111.625H260.024V113.625ZM268.667 112.625V108.893H266.667V112.625H268.667ZM267.667 109.893H279.042V107.893H267.667V109.893ZM280.042 108.893V105.071H278.042V108.893H280.042ZM279.042 106.071H286.596V104.071H279.042V106.071ZM285.596 105.071V112.625H287.596V105.071H285.596ZM286.596 111.625H282.774V113.625H286.596V111.625ZM281.774 112.625V116.446H283.774V112.625H281.774ZM282.774 115.446H279.042V117.446H282.774V115.446ZM278.042 116.446V127.821H280.042V116.446H278.042ZM279.042 126.821H275.221V128.821H279.042V126.821ZM276.221 127.821V124H274.221V127.821H276.221ZM275.221 123H218.346V125H275.221V123ZM219.346 124V120.268H217.346V124H219.346ZM218.346 121.268H222.167V119.268H218.346V121.268ZM223.167 120.268V52.0176H221.167V120.268H223.167ZM222.167 51.0176H218.346V53.0176H222.167V51.0176ZM330.229 55.75V56.75H331.229V55.75H330.229ZM330.229 48.1963V47.1963H329.229V48.1963H330.229ZM387.104 48.1963H388.104V47.1963H387.104V48.1963ZM387.104 59.5713H386.104V60.5713H387.104V59.5713ZM390.926 59.5713H391.926V58.5713H390.926V59.5713ZM390.926 67.125V68.125H391.926V67.125H390.926ZM383.372 67.125H382.372V68.125H383.372V67.125ZM383.372 63.3926H384.372V62.3926H383.372V63.3926ZM375.729 63.3926H374.729V64.3926H375.729V63.3926ZM375.729 59.5713H376.729V58.5713H375.729V59.5713ZM371.997 59.5713H370.997V60.5713H371.997V59.5713ZM371.997 55.75H372.997V54.75H371.997V55.75ZM364.354 55.75V54.75H363.354V55.75H364.354ZM364.354 116.446H363.354V117.446H364.354V116.446ZM368.176 116.446H369.176V115.446H368.176V116.446ZM368.176 124V125H369.176V124H368.176ZM345.426 124H344.426V125H345.426V124ZM345.426 120.179V119.179H344.426V120.179H345.426ZM349.247 120.179V121.179H350.247V120.179H349.247ZM349.247 55.75H350.247V54.75H349.247V55.75ZM341.604 55.75V54.75H340.604V55.75H341.604ZM341.604 59.5713V60.5713H342.604V59.5713H341.604ZM337.872 59.5713V58.5713H336.872V59.5713H337.872ZM337.872 63.3926V64.3926H338.872V63.3926H337.872ZM334.051 63.3926V62.3926H333.051V63.3926H334.051ZM334.051 67.125V68.125H335.051V67.125H334.051ZM322.676 67.125H321.676V68.125H322.676V67.125ZM322.676 63.3926V62.3926H321.676V63.3926H322.676ZM326.497 63.3926V64.3926H327.497V63.3926H326.497ZM326.497 55.75V54.75H325.497V55.75H326.497ZM331.229 55.75V48.1963H329.229V55.75H331.229ZM330.229 49.1963H387.104V47.1963H330.229V49.1963ZM386.104 48.1963V59.5713H388.104V48.1963H386.104ZM387.104 60.5713H390.926V58.5713H387.104V60.5713ZM389.926 59.5713V67.125H391.926V59.5713H389.926ZM390.926 66.125H383.372V68.125H390.926V66.125ZM384.372 67.125V63.3926H382.372V67.125H384.372ZM383.372 62.3926H375.729V64.3926H383.372V62.3926ZM376.729 63.3926V59.5713H374.729V63.3926H376.729ZM375.729 58.5713H371.997V60.5713H375.729V58.5713ZM372.997 59.5713V55.75H370.997V59.5713H372.997ZM371.997 54.75H364.354V56.75H371.997V54.75ZM363.354 55.75V116.446H365.354V55.75H363.354ZM364.354 117.446H368.176V115.446H364.354V117.446ZM367.176 116.446V124H369.176V116.446H367.176ZM368.176 123H345.426V125H368.176V123ZM346.426 124V120.179H344.426V124H346.426ZM345.426 121.179H349.247V119.179H345.426V121.179ZM350.247 120.179V55.75H348.247V120.179H350.247ZM349.247 54.75H341.604V56.75H349.247V54.75ZM340.604 55.75V59.5713H342.604V55.75H340.604ZM341.604 58.5713H337.872V60.5713H341.604V58.5713ZM336.872 59.5713V63.3926H338.872V59.5713H336.872ZM337.872 62.3926H334.051V64.3926H337.872V62.3926ZM333.051 63.3926V67.125H335.051V63.3926H333.051ZM334.051 66.125H322.676V68.125H334.051V66.125ZM323.676 67.125V63.3926H321.676V67.125H323.676ZM322.676 64.3926H326.497V62.3926H322.676V64.3926ZM327.497 63.3926V55.75H325.497V63.3926H327.497ZM326.497 56.75H330.229V54.75H326.497V56.75ZM394.925 52.0176H393.925V53.0176H394.925V52.0176ZM394.925 48.1963V47.1963H393.925V48.1963H394.925ZM440.425 48.1963H441.425V47.1963H440.425V48.1963ZM440.425 52.0176H439.425V53.0176H440.425V52.0176ZM451.8 52.0176H452.8V51.0176H451.8V52.0176ZM451.8 55.75H450.8V56.75H451.8V55.75ZM459.354 55.75H460.354V54.75H459.354V55.75ZM459.354 59.5713H458.354V60.5713H459.354V59.5713ZM463.175 59.5713H464.175V58.5713H463.175V59.5713ZM463.175 74.7676V75.7676H464.175V74.7676H463.175ZM459.354 74.7676V73.7676H458.354V74.7676H459.354ZM459.354 78.5V79.5H460.354V78.5H459.354ZM455.621 78.5V77.5H454.621V78.5H455.621ZM455.621 82.3213V83.3213H456.621V82.3213H455.621ZM447.979 82.3213V81.3213H446.979V82.3213H447.979ZM447.979 86.1426V87.1426H448.979V86.1426H447.979ZM440.425 86.1426V85.1426H439.425V86.1426H440.425ZM440.425 93.6963H439.425V94.6963H440.425V93.6963ZM444.246 93.6963H445.246V92.6963H444.246V93.6963ZM444.246 97.4287H443.246V98.4287H444.246V97.4287ZM447.979 97.4287H448.979V96.4287H447.979V97.4287ZM447.979 105.071H446.979V106.071H447.979V105.071ZM451.8 105.071H452.8V104.071H451.8V105.071ZM451.8 108.804H450.8V109.804H451.8V108.804ZM455.621 108.804H456.621V107.804H455.621V108.804ZM455.621 116.446H454.621V117.446H455.621V116.446ZM459.354 116.446H460.354V115.446H459.354V116.446ZM459.354 120.179H458.354V121.179H459.354V120.179ZM463.175 120.179H464.175V119.179H463.175V120.179ZM463.175 124V125H464.175V124H463.175ZM436.604 124H435.604V125H436.604V124ZM436.604 112.625H437.604V111.625H436.604V112.625ZM432.871 112.625H431.871V113.625H432.871V112.625ZM432.871 105.071H433.871V104.071H432.871V105.071ZM429.05 105.071H428.05V106.071H429.05V105.071ZM429.05 97.4287H430.05V96.4287H429.05V97.4287ZM425.229 97.4287H424.229V98.4287H425.229V97.4287ZM425.229 89.875H426.229V88.875H425.229V89.875ZM421.496 89.875H420.496V90.875H421.496V89.875ZM421.496 86.1426H422.496V85.1426H421.496V86.1426ZM413.854 86.1426V85.1426H412.854V86.1426H413.854ZM413.854 120.179H412.854V121.179H413.854V120.179ZM417.675 120.179H418.675V119.179H417.675V120.179ZM417.675 124V125H418.675V124H417.675ZM394.925 124H393.925V125H394.925V124ZM394.925 120.179V119.179H393.925V120.179H394.925ZM398.746 120.179V121.179H399.746V120.179H398.746ZM398.746 52.0176H399.746V51.0176H398.746V52.0176ZM429.05 59.5713H428.05V60.5713H429.05V59.5713ZM429.05 55.75H430.05V54.75H429.05V55.75ZM413.854 55.75V54.75H412.854V55.75H413.854ZM413.854 78.5H412.854V79.5H413.854V78.5ZM440.425 78.5V79.5H441.425V78.5H440.425ZM440.425 74.7676V73.7676H439.425V74.7676H440.425ZM444.246 74.7676V75.7676H445.246V74.7676H444.246ZM444.246 63.3926H445.246V62.3926H444.246V63.3926ZM440.425 63.3926H439.425V64.3926H440.425V63.3926ZM440.425 59.5713H441.425V58.5713H440.425V59.5713ZM395.925 52.0176V48.1963H393.925V52.0176H395.925ZM394.925 49.1963H440.425V47.1963H394.925V49.1963ZM439.425 48.1963V52.0176H441.425V48.1963H439.425ZM440.425 53.0176H451.8V51.0176H440.425V53.0176ZM450.8 52.0176V55.75H452.8V52.0176H450.8ZM451.8 56.75H459.354V54.75H451.8V56.75ZM458.354 55.75V59.5713H460.354V55.75H458.354ZM459.354 60.5713H463.175V58.5713H459.354V60.5713ZM462.175 59.5713V74.7676H464.175V59.5713H462.175ZM463.175 73.7676H459.354V75.7676H463.175V73.7676ZM458.354 74.7676V78.5H460.354V74.7676H458.354ZM459.354 77.5H455.621V79.5H459.354V77.5ZM454.621 78.5V82.3213H456.621V78.5H454.621ZM455.621 81.3213H447.979V83.3213H455.621V81.3213ZM446.979 82.3213V86.1426H448.979V82.3213H446.979ZM447.979 85.1426H440.425V87.1426H447.979V85.1426ZM439.425 86.1426V93.6963H441.425V86.1426H439.425ZM440.425 94.6963H444.246V92.6963H440.425V94.6963ZM443.246 93.6963V97.4287H445.246V93.6963H443.246ZM444.246 98.4287H447.979V96.4287H444.246V98.4287ZM446.979 97.4287V105.071H448.979V97.4287H446.979ZM447.979 106.071H451.8V104.071H447.979V106.071ZM450.8 105.071V108.804H452.8V105.071H450.8ZM451.8 109.804H455.621V107.804H451.8V109.804ZM454.621 108.804V116.446H456.621V108.804H454.621ZM455.621 117.446H459.354V115.446H455.621V117.446ZM458.354 116.446V120.179H460.354V116.446H458.354ZM459.354 121.179H463.175V119.179H459.354V121.179ZM462.175 120.179V124H464.175V120.179H462.175ZM463.175 123H436.604V125H463.175V123ZM437.604 124V112.625H435.604V124H437.604ZM436.604 111.625H432.871V113.625H436.604V111.625ZM433.871 112.625V105.071H431.871V112.625H433.871ZM432.871 104.071H429.05V106.071H432.871V104.071ZM430.05 105.071V97.4287H428.05V105.071H430.05ZM429.05 96.4287H425.229V98.4287H429.05V96.4287ZM426.229 97.4287V89.875H424.229V97.4287H426.229ZM425.229 88.875H421.496V90.875H425.229V88.875ZM422.496 89.875V86.1426H420.496V89.875H422.496ZM421.496 85.1426H413.854V87.1426H421.496V85.1426ZM412.854 86.1426V120.179H414.854V86.1426H412.854ZM413.854 121.179H417.675V119.179H413.854V121.179ZM416.675 120.179V124H418.675V120.179H416.675ZM417.675 123H394.925V125H417.675V123ZM395.925 124V120.179H393.925V124H395.925ZM394.925 121.179H398.746V119.179H394.925V121.179ZM399.746 120.179V52.0176H397.746V120.179H399.746ZM398.746 51.0176H394.925V53.0176H398.746V51.0176ZM430.05 59.5713V55.75H428.05V59.5713H430.05ZM429.05 54.75H413.854V56.75H429.05V54.75ZM412.854 55.75V78.5H414.854V55.75H412.854ZM413.854 79.5H440.425V77.5H413.854V79.5ZM441.425 78.5V74.7676H439.425V78.5H441.425ZM440.425 75.7676H444.246V73.7676H440.425V75.7676ZM445.246 74.7676V63.3926H443.246V74.7676H445.246ZM444.246 62.3926H440.425V64.3926H444.246V62.3926ZM441.425 63.3926V59.5713H439.425V63.3926H441.425ZM440.425 58.5713H429.05V60.5713H440.425V58.5713ZM465.841 52.0176H464.841V53.0176H465.841V52.0176ZM465.841 48.1963V47.1963H464.841V48.1963H465.841ZM488.591 48.1963H489.591V47.1963H488.591V48.1963ZM488.591 55.75V56.75H489.591V55.75H488.591ZM484.77 55.75V54.75H483.77V55.75H484.77ZM484.77 120.179H483.77V121.179H484.77V120.179ZM488.591 120.179H489.591V119.179H488.591V120.179ZM488.591 124V125H489.591V124H488.591ZM469.662 124H468.662V125H469.662V124ZM469.662 52.0176H470.662V51.0176H469.662V52.0176ZM466.841 52.0176V48.1963H464.841V52.0176H466.841ZM465.841 49.1963H488.591V47.1963H465.841V49.1963ZM487.591 48.1963V55.75H489.591V48.1963H487.591ZM488.591 54.75H484.77V56.75H488.591V54.75ZM483.77 55.75V120.179H485.77V55.75H483.77ZM484.77 121.179H488.591V119.179H484.77V121.179ZM487.591 120.179V124H489.591V120.179H487.591ZM488.591 123H469.662V125H488.591V123ZM470.662 124V52.0176H468.662V124H470.662ZM469.662 51.0176H465.841V53.0176H469.662V51.0176ZM492.412 52.0176H491.412V53.0176H492.412V52.0176ZM492.412 48.1963V47.1963H491.412V48.1963H492.412ZM522.716 48.1963H523.716V47.1963H522.716V48.1963ZM522.716 59.5713H521.716V60.5713H522.716V59.5713ZM526.537 59.5713H527.537V58.5713H526.537V59.5713ZM526.537 67.125H525.537V68.125H526.537V67.125ZM530.358 67.125H531.358V66.125H530.358V67.125ZM530.358 74.7676H529.358V75.7676H530.358V74.7676ZM534.18 74.7676H535.18V73.7676H534.18V74.7676ZM534.18 78.5H533.18V79.5H534.18V78.5ZM537.912 78.5H538.912V77.5H537.912V78.5ZM537.912 86.1426H536.912V87.1426H537.912V86.1426ZM541.733 86.1426H542.733V85.1426H541.733V86.1426ZM541.733 89.875H540.733V90.875H541.733V89.875ZM545.555 89.875H546.555V88.875H545.555V89.875ZM545.555 97.5176H544.555V98.5176H545.555V97.5176ZM549.287 97.5176H550.287V96.5176H549.287V97.5176ZM549.287 101.25H548.287V102.25H549.287V101.25ZM553.108 101.25V102.25H554.108V101.25H553.108ZM553.108 78.5H554.108V77.5H553.108V78.5ZM549.287 78.5H548.287V79.5H549.287V78.5ZM549.287 59.5713H550.287V58.5713H549.287V59.5713ZM545.555 59.5713H544.555V60.5713H545.555V59.5713ZM545.555 52.0176H546.555V51.0176H545.555V52.0176ZM541.733 52.0176H540.733V53.0176H541.733V52.0176ZM541.733 48.1963V47.1963H540.733V48.1963H541.733ZM564.483 48.1963H565.483V47.1963H564.483V48.1963ZM564.483 52.0176V53.0176H565.483V52.0176H564.483ZM560.662 52.0176V51.0176H559.662V52.0176H560.662ZM560.662 63.3926V64.3926H561.662V63.3926H560.662ZM556.93 63.3926V62.3926H555.93V63.3926H556.93ZM556.93 112.625H555.93V113.625H556.93V112.625ZM560.662 112.625H561.662V111.625H560.662V112.625ZM560.662 116.446H559.662V117.446H560.662V116.446ZM564.483 116.446H565.483V115.446H564.483V116.446ZM564.483 120.268V121.268H565.483V120.268H564.483ZM560.662 120.268V119.268H559.662V120.268H560.662ZM560.662 124V125H561.662V124H560.662ZM553.108 124V123H552.108V124H553.108ZM553.108 127.821V128.821H554.108V127.821H553.108ZM545.555 127.821H544.555V128.821H545.555V127.821ZM545.555 120.268H546.555V119.268H545.555V120.268ZM541.733 120.268H540.733V121.268H541.733V120.268ZM541.733 112.625H542.733V111.625H541.733V112.625ZM537.912 112.625H536.912V113.625H537.912V112.625ZM537.912 108.893H538.912V107.893H537.912V108.893ZM534.18 108.893H533.18V109.893H534.18V108.893ZM534.18 101.25H535.18V100.25H534.18V101.25ZM530.358 101.25H529.358V102.25H530.358V101.25ZM530.358 93.6963H531.358V92.6963H530.358V93.6963ZM526.537 93.6963H525.537V94.6963H526.537V93.6963ZM526.537 89.875H527.537V88.875H526.537V89.875ZM522.716 89.875H521.716V90.875H522.716V89.875ZM522.716 82.3213H523.716V81.3213H522.716V82.3213ZM518.983 82.3213H517.983V83.3213H518.983V82.3213ZM518.983 78.5H519.983V77.5H518.983V78.5ZM515.162 78.5H514.162V79.5H515.162V78.5ZM515.162 70.9463H516.162V69.9463H515.162V70.9463ZM511.341 70.9463H510.341V71.9463H511.341V70.9463ZM511.341 67.125H512.341V66.125H511.341V67.125ZM507.608 67.125V66.125H506.608V67.125H507.608ZM507.608 112.625H506.608V113.625H507.608V112.625ZM511.341 112.625H512.341V111.625H511.341V112.625ZM511.341 120.268H510.341V121.268H511.341V120.268ZM515.162 120.268H516.162V119.268H515.162V120.268ZM515.162 124V125H516.162V124H515.162ZM492.412 124H491.412V125H492.412V124ZM492.412 120.268V119.268H491.412V120.268H492.412ZM496.233 120.268V121.268H497.233V120.268H496.233ZM496.233 112.625V111.625H495.233V112.625H496.233ZM499.966 112.625V113.625H500.966V112.625H499.966ZM499.966 55.75H500.966V54.75H499.966V55.75ZM496.233 55.75H495.233V56.75H496.233V55.75ZM496.233 52.0176H497.233V51.0176H496.233V52.0176ZM493.412 52.0176V48.1963H491.412V52.0176H493.412ZM492.412 49.1963H522.716V47.1963H492.412V49.1963ZM521.716 48.1963V59.5713H523.716V48.1963H521.716ZM522.716 60.5713H526.537V58.5713H522.716V60.5713ZM525.537 59.5713V67.125H527.537V59.5713H525.537ZM526.537 68.125H530.358V66.125H526.537V68.125ZM529.358 67.125V74.7676H531.358V67.125H529.358ZM530.358 75.7676H534.18V73.7676H530.358V75.7676ZM533.18 74.7676V78.5H535.18V74.7676H533.18ZM534.18 79.5H537.912V77.5H534.18V79.5ZM536.912 78.5V86.1426H538.912V78.5H536.912ZM537.912 87.1426H541.733V85.1426H537.912V87.1426ZM540.733 86.1426V89.875H542.733V86.1426H540.733ZM541.733 90.875H545.555V88.875H541.733V90.875ZM544.555 89.875V97.5176H546.555V89.875H544.555ZM545.555 98.5176H549.287V96.5176H545.555V98.5176ZM548.287 97.5176V101.25H550.287V97.5176H548.287ZM549.287 102.25H553.108V100.25H549.287V102.25ZM554.108 101.25V78.5H552.108V101.25H554.108ZM553.108 77.5H549.287V79.5H553.108V77.5ZM550.287 78.5V59.5713H548.287V78.5H550.287ZM549.287 58.5713H545.555V60.5713H549.287V58.5713ZM546.555 59.5713V52.0176H544.555V59.5713H546.555ZM545.555 51.0176H541.733V53.0176H545.555V51.0176ZM542.733 52.0176V48.1963H540.733V52.0176H542.733ZM541.733 49.1963H564.483V47.1963H541.733V49.1963ZM563.483 48.1963V52.0176H565.483V48.1963H563.483ZM564.483 51.0176H560.662V53.0176H564.483V51.0176ZM559.662 52.0176V63.3926H561.662V52.0176H559.662ZM560.662 62.3926H556.93V64.3926H560.662V62.3926ZM555.93 63.3926V112.625H557.93V63.3926H555.93ZM556.93 113.625H560.662V111.625H556.93V113.625ZM559.662 112.625V116.446H561.662V112.625H559.662ZM560.662 117.446H564.483V115.446H560.662V117.446ZM563.483 116.446V120.268H565.483V116.446H563.483ZM564.483 119.268H560.662V121.268H564.483V119.268ZM559.662 120.268V124H561.662V120.268H559.662ZM560.662 123H553.108V125H560.662V123ZM552.108 124V127.821H554.108V124H552.108ZM553.108 126.821H545.555V128.821H553.108V126.821ZM546.555 127.821V120.268H544.555V127.821H546.555ZM545.555 119.268H541.733V121.268H545.555V119.268ZM542.733 120.268V112.625H540.733V120.268H542.733ZM541.733 111.625H537.912V113.625H541.733V111.625ZM538.912 112.625V108.893H536.912V112.625H538.912ZM537.912 107.893H534.18V109.893H537.912V107.893ZM535.18 108.893V101.25H533.18V108.893H535.18ZM534.18 100.25H530.358V102.25H534.18V100.25ZM531.358 101.25V93.6963H529.358V101.25H531.358ZM530.358 92.6963H526.537V94.6963H530.358V92.6963ZM527.537 93.6963V89.875H525.537V93.6963H527.537ZM526.537 88.875H522.716V90.875H526.537V88.875ZM523.716 89.875V82.3213H521.716V89.875H523.716ZM522.716 81.3213H518.983V83.3213H522.716V81.3213ZM519.983 82.3213V78.5H517.983V82.3213H519.983ZM518.983 77.5H515.162V79.5H518.983V77.5ZM516.162 78.5V70.9463H514.162V78.5H516.162ZM515.162 69.9463H511.341V71.9463H515.162V69.9463ZM512.341 70.9463V67.125H510.341V70.9463H512.341ZM511.341 66.125H507.608V68.125H511.341V66.125ZM506.608 67.125V112.625H508.608V67.125H506.608ZM507.608 113.625H511.341V111.625H507.608V113.625ZM510.341 112.625V120.268H512.341V112.625H510.341ZM511.341 121.268H515.162V119.268H511.341V121.268ZM514.162 120.268V124H516.162V120.268H514.162ZM515.162 123H492.412V125H515.162V123ZM493.412 124V120.268H491.412V124H493.412ZM492.412 121.268H496.233V119.268H492.412V121.268ZM497.233 120.268V112.625H495.233V120.268H497.233ZM496.233 113.625H499.966V111.625H496.233V113.625ZM500.966 112.625V55.75H498.966V112.625H500.966ZM499.966 54.75H496.233V56.75H499.966V54.75ZM497.233 55.75V52.0176H495.233V55.75H497.233ZM496.233 51.0176H492.412V53.0176H496.233V51.0176ZM568.127 52.0176H567.127V53.0176H568.127V52.0176ZM568.127 48.1963V47.1963H567.127V48.1963H568.127ZM590.877 48.1963H591.877V47.1963H590.877V48.1963ZM590.877 55.75V56.75H591.877V55.75H590.877ZM587.056 55.75V54.75H586.056V55.75H587.056ZM587.056 120.179H586.056V121.179H587.056V120.179ZM590.877 120.179H591.877V119.179H590.877V120.179ZM590.877 124V125H591.877V124H590.877ZM571.948 124H570.948V125H571.948V124ZM571.948 52.0176H572.948V51.0176H571.948V52.0176ZM569.127 52.0176V48.1963H567.127V52.0176H569.127ZM568.127 49.1963H590.877V47.1963H568.127V49.1963ZM589.877 48.1963V55.75H591.877V48.1963H589.877ZM590.877 54.75H587.056V56.75H590.877V54.75ZM586.056 55.75V120.179H588.056V55.75H586.056ZM587.056 121.179H590.877V119.179H587.056V121.179ZM589.877 120.179V124H591.877V120.179H589.877ZM590.877 123H571.948V125H590.877V123ZM572.948 124V52.0176H570.948V124H572.948ZM571.948 51.0176H568.127V53.0176H571.948V51.0176ZM601.985 55.75V56.75H602.985V55.75H601.985ZM601.985 48.1963V47.1963H600.985V48.1963H601.985ZM658.86 48.1963H659.86V47.1963H658.86V48.1963ZM658.86 59.5713H657.86V60.5713H658.86V59.5713ZM662.682 59.5713H663.682V58.5713H662.682V59.5713ZM662.682 67.125V68.125H663.682V67.125H662.682ZM655.128 67.125H654.128V68.125H655.128V67.125ZM655.128 63.3926H656.128V62.3926H655.128V63.3926ZM647.485 63.3926H646.485V64.3926H647.485V63.3926ZM647.485 59.5713H648.485V58.5713H647.485V59.5713ZM643.753 59.5713H642.753V60.5713H643.753V59.5713ZM643.753 55.75H644.753V54.75H643.753V55.75ZM636.11 55.75V54.75H635.11V55.75H636.11ZM636.11 116.446H635.11V117.446H636.11V116.446ZM639.932 116.446H640.932V115.446H639.932V116.446ZM639.932 124V125H640.932V124H639.932ZM617.182 124H616.182V125H617.182V124ZM617.182 120.179V119.179H616.182V120.179H617.182ZM621.003 120.179V121.179H622.003V120.179H621.003ZM621.003 55.75H622.003V54.75H621.003V55.75ZM613.36 55.75V54.75H612.36V55.75H613.36ZM613.36 59.5713V60.5713H614.36V59.5713H613.36ZM609.628 59.5713V58.5713H608.628V59.5713H609.628ZM609.628 63.3926V64.3926H610.628V63.3926H609.628ZM605.807 63.3926V62.3926H604.807V63.3926H605.807ZM605.807 67.125V68.125H606.807V67.125H605.807ZM594.432 67.125H593.432V68.125H594.432V67.125ZM594.432 63.3926V62.3926H593.432V63.3926H594.432ZM598.253 63.3926V64.3926H599.253V63.3926H598.253ZM598.253 55.75V54.75H597.253V55.75H598.253ZM602.985 55.75V48.1963H600.985V55.75H602.985ZM601.985 49.1963H658.86V47.1963H601.985V49.1963ZM657.86 48.1963V59.5713H659.86V48.1963H657.86ZM658.86 60.5713H662.682V58.5713H658.86V60.5713ZM661.682 59.5713V67.125H663.682V59.5713H661.682ZM662.682 66.125H655.128V68.125H662.682V66.125ZM656.128 67.125V63.3926H654.128V67.125H656.128ZM655.128 62.3926H647.485V64.3926H655.128V62.3926ZM648.485 63.3926V59.5713H646.485V63.3926H648.485ZM647.485 58.5713H643.753V60.5713H647.485V58.5713ZM644.753 59.5713V55.75H642.753V59.5713H644.753ZM643.753 54.75H636.11V56.75H643.753V54.75ZM635.11 55.75V116.446H637.11V55.75H635.11ZM636.11 117.446H639.932V115.446H636.11V117.446ZM638.932 116.446V124H640.932V116.446H638.932ZM639.932 123H617.182V125H639.932V123ZM618.182 124V120.179H616.182V124H618.182ZM617.182 121.179H621.003V119.179H617.182V121.179ZM622.003 120.179V55.75H620.003V120.179H622.003ZM621.003 54.75H613.36V56.75H621.003V54.75ZM612.36 55.75V59.5713H614.36V55.75H612.36ZM613.36 58.5713H609.628V60.5713H613.36V58.5713ZM608.628 59.5713V63.3926H610.628V59.5713H608.628ZM609.628 62.3926H605.807V64.3926H609.628V62.3926ZM604.807 63.3926V67.125H606.807V63.3926H604.807ZM605.807 66.125H594.432V68.125H605.807V66.125ZM595.432 67.125V63.3926H593.432V67.125H595.432ZM594.432 64.3926H598.253V62.3926H594.432V64.3926ZM599.253 63.3926V55.75H597.253V63.3926H599.253ZM598.253 56.75H601.985V54.75H598.253V56.75ZM666.592 52.0176H665.592V53.0176H666.592V52.0176ZM666.592 48.1963V47.1963H665.592V48.1963H666.592ZM693.163 48.1963H694.163V47.1963H693.163V48.1963ZM693.163 55.75V56.75H694.163V55.75H693.163ZM689.342 55.75V54.75H688.342V55.75H689.342ZM689.342 59.5713H688.342V60.5713H689.342V59.5713ZM693.163 59.5713H694.163V58.5713H693.163V59.5713ZM693.163 67.125H692.163V68.125H693.163V67.125ZM696.896 67.125H697.896V66.125H696.896V67.125ZM696.896 74.7676H695.896V75.7676H696.896V74.7676ZM700.717 74.7676H701.717V73.7676H700.717V74.7676ZM700.717 82.3213H699.717V83.3213H700.717V82.3213ZM704.538 82.3213H705.538V81.3213H704.538V82.3213ZM704.538 86.1426H703.538V87.1426H704.538V86.1426ZM708.271 86.1426V87.1426H709.271V86.1426H708.271ZM708.271 82.3213V81.3213H707.271V82.3213H708.271ZM712.092 82.3213V83.3213H713.092V82.3213H712.092ZM712.092 74.7676V73.7676H711.092V74.7676H712.092ZM715.913 74.7676V75.7676H716.913V74.7676H715.913ZM715.913 52.0176H716.913V51.0176H715.913V52.0176ZM712.092 52.0176H711.092V53.0176H712.092V52.0176ZM712.092 48.1963V47.1963H711.092V48.1963H712.092ZM734.842 48.1963H735.842V47.1963H734.842V48.1963ZM734.842 55.75V56.75H735.842V55.75H734.842ZM731.021 55.75V54.75H730.021V55.75H731.021ZM731.021 59.5713V60.5713H732.021V59.5713H731.021ZM727.288 59.5713V58.5713H726.288V59.5713H727.288ZM727.288 67.125V68.125H728.288V67.125H727.288ZM723.467 67.125V66.125H722.467V67.125H723.467ZM723.467 70.9463V71.9463H724.467V70.9463H723.467ZM719.646 70.9463V69.9463H718.646V70.9463H719.646ZM719.646 78.5V79.5H720.646V78.5H719.646ZM715.913 78.5V77.5H714.913V78.5H715.913ZM715.913 86.1426V87.1426H716.913V86.1426H715.913ZM712.092 86.1426V85.1426H711.092V86.1426H712.092ZM712.092 93.6963V94.6963H713.092V93.6963H712.092ZM708.271 93.6963V92.6963H707.271V93.6963H708.271ZM708.271 120.179H707.271V121.179H708.271V120.179ZM712.092 120.179H713.092V119.179H712.092V120.179ZM712.092 124V125H713.092V124H712.092ZM689.342 124H688.342V125H689.342V124ZM689.342 120.179V119.179H688.342V120.179H689.342ZM693.163 120.179V121.179H694.163V120.179H693.163ZM693.163 93.6963H694.163V92.6963H693.163V93.6963ZM689.342 93.6963H688.342V94.6963H689.342V93.6963ZM689.342 86.1426H690.342V85.1426H689.342V86.1426ZM685.521 86.1426H684.521V87.1426H685.521V86.1426ZM685.521 78.5H686.521V77.5H685.521V78.5ZM681.788 78.5H680.788V79.5H681.788V78.5ZM681.788 70.9463H682.788V69.9463H681.788V70.9463ZM677.967 70.9463H676.967V71.9463H677.967V70.9463ZM677.967 63.3926H678.967V62.3926H677.967V63.3926ZM674.146 63.3926H673.146V64.3926H674.146V63.3926ZM674.146 55.75H675.146V54.75H674.146V55.75ZM670.413 55.75H669.413V56.75H670.413V55.75ZM670.413 52.0176H671.413V51.0176H670.413V52.0176ZM667.592 52.0176V48.1963H665.592V52.0176H667.592ZM666.592 49.1963H693.163V47.1963H666.592V49.1963ZM692.163 48.1963V55.75H694.163V48.1963H692.163ZM693.163 54.75H689.342V56.75H693.163V54.75ZM688.342 55.75V59.5713H690.342V55.75H688.342ZM689.342 60.5713H693.163V58.5713H689.342V60.5713ZM692.163 59.5713V67.125H694.163V59.5713H692.163ZM693.163 68.125H696.896V66.125H693.163V68.125ZM695.896 67.125V74.7676H697.896V67.125H695.896ZM696.896 75.7676H700.717V73.7676H696.896V75.7676ZM699.717 74.7676V82.3213H701.717V74.7676H699.717ZM700.717 83.3213H704.538V81.3213H700.717V83.3213ZM703.538 82.3213V86.1426H705.538V82.3213H703.538ZM704.538 87.1426H708.271V85.1426H704.538V87.1426ZM709.271 86.1426V82.3213H707.271V86.1426H709.271ZM708.271 83.3213H712.092V81.3213H708.271V83.3213ZM713.092 82.3213V74.7676H711.092V82.3213H713.092ZM712.092 75.7676H715.913V73.7676H712.092V75.7676ZM716.913 74.7676V52.0176H714.913V74.7676H716.913ZM715.913 51.0176H712.092V53.0176H715.913V51.0176ZM713.092 52.0176V48.1963H711.092V52.0176H713.092ZM712.092 49.1963H734.842V47.1963H712.092V49.1963ZM733.842 48.1963V55.75H735.842V48.1963H733.842ZM734.842 54.75H731.021V56.75H734.842V54.75ZM730.021 55.75V59.5713H732.021V55.75H730.021ZM731.021 58.5713H727.288V60.5713H731.021V58.5713ZM726.288 59.5713V67.125H728.288V59.5713H726.288ZM727.288 66.125H723.467V68.125H727.288V66.125ZM722.467 67.125V70.9463H724.467V67.125H722.467ZM723.467 69.9463H719.646V71.9463H723.467V69.9463ZM718.646 70.9463V78.5H720.646V70.9463H718.646ZM719.646 77.5H715.913V79.5H719.646V77.5ZM714.913 78.5V86.1426H716.913V78.5H714.913ZM715.913 85.1426H712.092V87.1426H715.913V85.1426ZM711.092 86.1426V93.6963H713.092V86.1426H711.092ZM712.092 92.6963H708.271V94.6963H712.092V92.6963ZM707.271 93.6963V120.179H709.271V93.6963H707.271ZM708.271 121.179H712.092V119.179H708.271V121.179ZM711.092 120.179V124H713.092V120.179H711.092ZM712.092 123H689.342V125H712.092V123ZM690.342 124V120.179H688.342V124H690.342ZM689.342 121.179H693.163V119.179H689.342V121.179ZM694.163 120.179V93.6963H692.163V120.179H694.163ZM693.163 92.6963H689.342V94.6963H693.163V92.6963ZM690.342 93.6963V86.1426H688.342V93.6963H690.342ZM689.342 85.1426H685.521V87.1426H689.342V85.1426ZM686.521 86.1426V78.5H684.521V86.1426H686.521ZM685.521 77.5H681.788V79.5H685.521V77.5ZM682.788 78.5V70.9463H680.788V78.5H682.788ZM681.788 69.9463H677.967V71.9463H681.788V69.9463ZM678.967 70.9463V63.3926H676.967V70.9463H678.967ZM677.967 62.3926H674.146V64.3926H677.967V62.3926ZM675.146 63.3926V55.75H673.146V63.3926H675.146ZM674.146 54.75H670.413V56.75H674.146V54.75ZM671.413 55.75V52.0176H669.413V55.75H671.413ZM670.413 51.0176H666.592V53.0176H670.413V51.0176Z" fill="#9A7AF2" mask="url(#path-3-outside-2_227_2990)"/>
</g>
<path d="M10.0625 13.75V4.53613H79.4375V18.4111H84.0986V27.625H74.8848V23.0723H65.5625V18.4111H61.0098V13.75H51.6875V87.7861H56.3486V97H28.5986V92.3389H33.2598V13.75H23.9375V18.4111H19.3848V23.0723H14.7236V27.625H0.848633V23.0723H5.50977V13.75H10.0625ZM93.9629 13.75V4.53613H121.713V9.19727H117.052V27.625H112.391V55.375H144.802V23.0723H140.141V9.19727H135.588V4.53613H163.338V18.4111H158.677V23.0723H163.338V69.25H167.891V92.3389H172.552V97H144.802V92.3389H149.463V64.5889H112.391V92.3389H117.052V97H89.3018V83.125H93.9629V32.2861H98.5156V13.75H93.9629ZM177.213 9.19727V4.53613H246.588V13.75H251.249V18.4111H255.802V27.625H241.927V23.0723H232.713V18.4111H223.499V13.75H200.302V41.5H228.052V36.9473H237.374V32.2861H241.927V46.1611H246.588V55.375H251.249V64.6973H246.588V60.0361H241.927V55.375H232.713V50.8223H204.963V46.1611H200.302V92.4473H214.177V87.7861H228.052V83.125H237.374V78.5723H251.249V73.9111H260.463V83.125H255.802V87.7861H251.249V101.661H246.588V97H177.213V92.4473H181.874V9.19727H177.213ZM313.687 13.75V4.53613H383.062V18.4111H387.723V27.625H378.509V23.0723H369.187V18.4111H364.634V13.75H355.312V87.7861H359.973V97H332.223V92.3389H336.884V13.75H327.562V18.4111H323.009V23.0723H318.348V27.625H304.473V23.0723H309.134V13.75H313.687ZM392.601 9.19727V4.53613H448.101V9.19727H461.976V13.75H471.189V18.4111H475.851V36.9473H471.189V41.5H466.637V46.1611H457.314V50.8223H448.101V60.0361H452.762V64.5889H457.314V73.9111H461.976V78.4639H466.637V87.7861H471.189V92.3389H475.851V97H443.439V83.125H438.887V73.9111H434.226V64.5889H429.564V55.375H425.012V50.8223H415.689V92.3389H420.351V97H392.601V92.3389H397.262V9.19727H392.601ZM434.226 18.4111V13.75H415.689V41.5H448.101V36.9473H452.762V23.0723H448.101V18.4111H434.226ZM479.103 9.19727V4.53613H506.853V13.75H502.191V92.3389H506.853V97H483.764V9.19727H479.103ZM511.514 9.19727V4.53613H548.478V18.4111H553.139V27.625H557.8V36.9473H562.461V41.5H567.014V50.8223H571.675V55.375H576.336V64.6973H580.889V69.25H585.55V41.5H580.889V18.4111H576.336V9.19727H571.675V4.53613H599.425V9.19727H594.764V23.0723H590.211V83.125H594.764V87.7861H599.425V92.4473H594.764V97H585.55V101.661H576.336V92.4473H571.675V83.125H567.014V78.5723H562.461V69.25H557.8V60.0361H553.139V55.375H548.478V46.1611H543.925V41.5H539.264V32.2861H534.603V27.625H530.05V83.125H534.603V92.4473H539.264V97H511.514V92.4473H516.175V83.125H520.728V13.75H516.175V9.19727H511.514ZM603.869 9.19727V4.53613H631.619V13.75H626.958V92.3389H631.619V97H608.53V9.19727H603.869ZM645.169 13.75V4.53613H714.544V18.4111H719.205V27.625H709.991V23.0723H700.669V18.4111H696.116V13.75H686.794V87.7861H691.455V97H663.705V92.3389H668.366V13.75H659.044V18.4111H654.491V23.0723H649.83V27.625H635.955V23.0723H640.616V13.75H645.169ZM723.975 9.19727V4.53613H756.386V13.75H751.725V18.4111H756.386V27.625H760.938V36.9473H765.6V46.1611H770.261V50.8223H774.813V46.1611H779.475V36.9473H784.136V9.19727H779.475V4.53613H807.225V13.75H802.563V18.4111H798.011V27.625H793.35V32.2861H788.688V41.5H784.136V50.8223H779.475V60.0361H774.813V92.3389H779.475V97H751.725V92.3389H756.386V60.0361H751.725V50.8223H747.063V41.5H742.511V32.2861H737.85V23.0723H733.188V13.75H728.636V9.19727H723.975Z" fill="#9A7AF2"/>
<defs>
<filter id="filter0_f_227_2990" x="115.65" y="87.0254" width="576.643" height="78.25" filterUnits="userSpaceOnUse" color-interpolation-filters="sRGB">
<feFlood flood-opacity="0" result="BackgroundImageFix"/>
<feBlend mode="normal" in="SourceGraphic" in2="BackgroundImageFix" result="shape"/>
<feGaussianBlur stdDeviation="2.5" result="effect1_foregroundBlur_227_2990"/>
</filter>
<filter id="filter1_f_227_2990" x="70.7588" y="45.1963" width="667.083" height="85.625" filterUnits="userSpaceOnUse" color-interpolation-filters="sRGB">
<feFlood flood-opacity="0" result="BackgroundImageFix"/>
<feBlend mode="normal" in="SourceGraphic" in2="BackgroundImageFix" result="shape"/>
<feGaussianBlur stdDeviation="1.5" result="effect1_foregroundBlur_227_2990"/>
</filter>
</defs>
</svg>
