<svg width="810" height="210" viewBox="0 0 810 210" fill="none" xmlns="http://www.w3.org/2000/svg">
<g filter="url(#filter0_f_227_2994)">
<mask id="path-1-outside-1_227_2994" maskUnits="userSpaceOnUse" x="89" y="92" width="631" height="104" fill="black">
<rect fill="white" x="89" y="92" width="631" height="104"/>
<path d="M100.49 103V93.3711H172.99V107.871H177.861V117.5H168.232V112.742H158.49V107.871H153.732V103H143.99V180.371H148.861V190H119.861V185.129H124.732V103H114.99V107.871H110.232V112.742H105.361V117.5H90.8613V112.742H95.7324V103H100.49ZM188.17 103V93.3711H217.17V98.2422H212.299V117.5H207.428V146.5H241.299V112.742H236.428V98.2422H231.67V93.3711H260.67V107.871H255.799V112.742H260.67V161H265.428V185.129H270.299V190H241.299V185.129H246.17V156.129H207.428V185.129H212.299V190H183.299V175.5H188.17V122.371H192.928V103H188.17ZM275.17 98.2422V93.3711H347.67V103H352.541V107.871H357.299V117.5H342.799V112.742H333.17V107.871H323.541V103H299.299V132H328.299V127.242H338.041V122.371H342.799V136.871H347.67V146.5H352.541V156.242H347.67V151.371H342.799V146.5H333.17V141.742H304.17V136.871H299.299V185.242H313.799V180.371H328.299V175.5H338.041V170.742H352.541V165.871H362.17V175.5H357.299V180.371H352.541V194.871H347.67V190H275.17V185.242H280.041V98.2422H275.17ZM409.295 98.2422V93.3711H443.166V98.2422H438.295V112.742H443.166V127.242H447.924V141.742H452.795V156.129H457.666V151.371H462.424V141.742H467.295V127.242H472.166V117.5H476.924V103H481.795V107.871H486.666V117.5H491.537V127.242H496.295V141.742H501.166V151.371H506.037V161H510.795V141.742H515.666V122.371H520.537V107.871H515.666V98.2422H510.795V93.3711H544.666V98.2422H539.795V103H535.037V107.871H530.166V122.371H525.295V136.871H520.537V146.5H515.666V161H510.795V170.629H515.666V175.5H520.537V185.129H506.037V190H501.166V185.129H496.295V175.5H491.537V165.871H486.666V151.371H481.795V141.742H476.924V136.871H472.166V146.5H467.295V161H462.424V175.5H467.295V180.371H472.166V185.129H452.795V190H447.924V180.371H443.166V165.871H438.295V156.129H433.424V141.742H428.666V127.242H423.795V117.5H418.924V103H414.166V98.2422H409.295ZM565.057 98.2422V93.3711H574.686V98.2422H589.299V103H603.799V107.871H608.557V136.871H613.428V156.129H618.299V175.5H623.057V185.129H627.928V190H598.928V161H594.057V156.129H560.186V180.371H565.057V190H536.057V185.129H540.928V180.371H545.686V170.629H550.557V156.129H555.428V141.742H560.186V122.371H565.057V103H560.186V107.871H555.428V112.742H545.686V103H550.557V98.2422H565.057ZM579.557 107.871V103H574.686V112.742H569.928V132H565.057V146.5H594.057V141.742H589.299V122.371H584.428V107.871H579.557ZM631.553 98.2422V93.3711H689.553V98.2422H704.053V103H713.682V107.871H718.553V127.242H713.682V132H708.924V136.871H699.182V141.742H689.553V151.371H694.424V156.129H699.182V165.871H704.053V170.629H708.924V180.371H713.682V185.129H718.553V190H684.682V175.5H679.924V165.871H675.053V156.129H670.182V146.5H665.424V141.742H655.682V185.129H660.553V190H631.553V185.129H636.424V98.2422H631.553ZM675.053 107.871V103H655.682V132H689.553V127.242H694.424V112.742H689.553V107.871H675.053Z"/>
</mask>
<path d="M100.49 103V93.3711H172.99V107.871H177.861V117.5H168.232V112.742H158.49V107.871H153.732V103H143.99V180.371H148.861V190H119.861V185.129H124.732V103H114.99V107.871H110.232V112.742H105.361V117.5H90.8613V112.742H95.7324V103H100.49ZM188.17 103V93.3711H217.17V98.2422H212.299V117.5H207.428V146.5H241.299V112.742H236.428V98.2422H231.67V93.3711H260.67V107.871H255.799V112.742H260.67V161H265.428V185.129H270.299V190H241.299V185.129H246.17V156.129H207.428V185.129H212.299V190H183.299V175.5H188.17V122.371H192.928V103H188.17ZM275.17 98.2422V93.3711H347.67V103H352.541V107.871H357.299V117.5H342.799V112.742H333.17V107.871H323.541V103H299.299V132H328.299V127.242H338.041V122.371H342.799V136.871H347.67V146.5H352.541V156.242H347.67V151.371H342.799V146.5H333.17V141.742H304.17V136.871H299.299V185.242H313.799V180.371H328.299V175.5H338.041V170.742H352.541V165.871H362.17V175.5H357.299V180.371H352.541V194.871H347.67V190H275.17V185.242H280.041V98.2422H275.17ZM409.295 98.2422V93.3711H443.166V98.2422H438.295V112.742H443.166V127.242H447.924V141.742H452.795V156.129H457.666V151.371H462.424V141.742H467.295V127.242H472.166V117.5H476.924V103H481.795V107.871H486.666V117.5H491.537V127.242H496.295V141.742H501.166V151.371H506.037V161H510.795V141.742H515.666V122.371H520.537V107.871H515.666V98.2422H510.795V93.3711H544.666V98.2422H539.795V103H535.037V107.871H530.166V122.371H525.295V136.871H520.537V146.5H515.666V161H510.795V170.629H515.666V175.5H520.537V185.129H506.037V190H501.166V185.129H496.295V175.5H491.537V165.871H486.666V151.371H481.795V141.742H476.924V136.871H472.166V146.5H467.295V161H462.424V175.5H467.295V180.371H472.166V185.129H452.795V190H447.924V180.371H443.166V165.871H438.295V156.129H433.424V141.742H428.666V127.242H423.795V117.5H418.924V103H414.166V98.2422H409.295ZM565.057 98.2422V93.3711H574.686V98.2422H589.299V103H603.799V107.871H608.557V136.871H613.428V156.129H618.299V175.5H623.057V185.129H627.928V190H598.928V161H594.057V156.129H560.186V180.371H565.057V190H536.057V185.129H540.928V180.371H545.686V170.629H550.557V156.129H555.428V141.742H560.186V122.371H565.057V103H560.186V107.871H555.428V112.742H545.686V103H550.557V98.2422H565.057ZM579.557 107.871V103H574.686V112.742H569.928V132H565.057V146.5H594.057V141.742H589.299V122.371H584.428V107.871H579.557ZM631.553 98.2422V93.3711H689.553V98.2422H704.053V103H713.682V107.871H718.553V127.242H713.682V132H708.924V136.871H699.182V141.742H689.553V151.371H694.424V156.129H699.182V165.871H704.053V170.629H708.924V180.371H713.682V185.129H718.553V190H684.682V175.5H679.924V165.871H675.053V156.129H670.182V146.5H665.424V141.742H655.682V185.129H660.553V190H631.553V185.129H636.424V98.2422H631.553ZM675.053 107.871V103H655.682V132H689.553V127.242H694.424V112.742H689.553V107.871H675.053Z" fill="black"/>
<path d="M100.49 103V104H101.49V103H100.49ZM100.49 93.3711V92.3711H99.4902V93.3711H100.49ZM172.99 93.3711H173.99V92.3711H172.99V93.3711ZM172.99 107.871H171.99V108.871H172.99V107.871ZM177.861 107.871H178.861V106.871H177.861V107.871ZM177.861 117.5V118.5H178.861V117.5H177.861ZM168.232 117.5H167.232V118.5H168.232V117.5ZM168.232 112.742H169.232V111.742H168.232V112.742ZM158.49 112.742H157.49V113.742H158.49V112.742ZM158.49 107.871H159.49V106.871H158.49V107.871ZM153.732 107.871H152.732V108.871H153.732V107.871ZM153.732 103H154.732V102H153.732V103ZM143.99 103V102H142.99V103H143.99ZM143.99 180.371H142.99V181.371H143.99V180.371ZM148.861 180.371H149.861V179.371H148.861V180.371ZM148.861 190V191H149.861V190H148.861ZM119.861 190H118.861V191H119.861V190ZM119.861 185.129V184.129H118.861V185.129H119.861ZM124.732 185.129V186.129H125.732V185.129H124.732ZM124.732 103H125.732V102H124.732V103ZM114.99 103V102H113.99V103H114.99ZM114.99 107.871V108.871H115.99V107.871H114.99ZM110.232 107.871V106.871H109.232V107.871H110.232ZM110.232 112.742V113.742H111.232V112.742H110.232ZM105.361 112.742V111.742H104.361V112.742H105.361ZM105.361 117.5V118.5H106.361V117.5H105.361ZM90.8613 117.5H89.8613V118.5H90.8613V117.5ZM90.8613 112.742V111.742H89.8613V112.742H90.8613ZM95.7324 112.742V113.742H96.7324V112.742H95.7324ZM95.7324 103V102H94.7324V103H95.7324ZM101.49 103V93.3711H99.4902V103H101.49ZM100.49 94.3711H172.99V92.3711H100.49V94.3711ZM171.99 93.3711V107.871H173.99V93.3711H171.99ZM172.99 108.871H177.861V106.871H172.99V108.871ZM176.861 107.871V117.5H178.861V107.871H176.861ZM177.861 116.5H168.232V118.5H177.861V116.5ZM169.232 117.5V112.742H167.232V117.5H169.232ZM168.232 111.742H158.49V113.742H168.232V111.742ZM159.49 112.742V107.871H157.49V112.742H159.49ZM158.49 106.871H153.732V108.871H158.49V106.871ZM154.732 107.871V103H152.732V107.871H154.732ZM153.732 102H143.99V104H153.732V102ZM142.99 103V180.371H144.99V103H142.99ZM143.99 181.371H148.861V179.371H143.99V181.371ZM147.861 180.371V190H149.861V180.371H147.861ZM148.861 189H119.861V191H148.861V189ZM120.861 190V185.129H118.861V190H120.861ZM119.861 186.129H124.732V184.129H119.861V186.129ZM125.732 185.129V103H123.732V185.129H125.732ZM124.732 102H114.99V104H124.732V102ZM113.99 103V107.871H115.99V103H113.99ZM114.99 106.871H110.232V108.871H114.99V106.871ZM109.232 107.871V112.742H111.232V107.871H109.232ZM110.232 111.742H105.361V113.742H110.232V111.742ZM104.361 112.742V117.5H106.361V112.742H104.361ZM105.361 116.5H90.8613V118.5H105.361V116.5ZM91.8613 117.5V112.742H89.8613V117.5H91.8613ZM90.8613 113.742H95.7324V111.742H90.8613V113.742ZM96.7324 112.742V103H94.7324V112.742H96.7324ZM95.7324 104H100.49V102H95.7324V104ZM188.17 103H187.17V104H188.17V103ZM188.17 93.3711V92.3711H187.17V93.3711H188.17ZM217.17 93.3711H218.17V92.3711H217.17V93.3711ZM217.17 98.2422V99.2422H218.17V98.2422H217.17ZM212.299 98.2422V97.2422H211.299V98.2422H212.299ZM212.299 117.5V118.5H213.299V117.5H212.299ZM207.428 117.5V116.5H206.428V117.5H207.428ZM207.428 146.5H206.428V147.5H207.428V146.5ZM241.299 146.5V147.5H242.299V146.5H241.299ZM241.299 112.742H242.299V111.742H241.299V112.742ZM236.428 112.742H235.428V113.742H236.428V112.742ZM236.428 98.2422H237.428V97.2422H236.428V98.2422ZM231.67 98.2422H230.67V99.2422H231.67V98.2422ZM231.67 93.3711V92.3711H230.67V93.3711H231.67ZM260.67 93.3711H261.67V92.3711H260.67V93.3711ZM260.67 107.871V108.871H261.67V107.871H260.67ZM255.799 107.871V106.871H254.799V107.871H255.799ZM255.799 112.742H254.799V113.742H255.799V112.742ZM260.67 112.742H261.67V111.742H260.67V112.742ZM260.67 161H259.67V162H260.67V161ZM265.428 161H266.428V160H265.428V161ZM265.428 185.129H264.428V186.129H265.428V185.129ZM270.299 185.129H271.299V184.129H270.299V185.129ZM270.299 190V191H271.299V190H270.299ZM241.299 190H240.299V191H241.299V190ZM241.299 185.129V184.129H240.299V185.129H241.299ZM246.17 185.129V186.129H247.17V185.129H246.17ZM246.17 156.129H247.17V155.129H246.17V156.129ZM207.428 156.129V155.129H206.428V156.129H207.428ZM207.428 185.129H206.428V186.129H207.428V185.129ZM212.299 185.129H213.299V184.129H212.299V185.129ZM212.299 190V191H213.299V190H212.299ZM183.299 190H182.299V191H183.299V190ZM183.299 175.5V174.5H182.299V175.5H183.299ZM188.17 175.5V176.5H189.17V175.5H188.17ZM188.17 122.371V121.371H187.17V122.371H188.17ZM192.928 122.371V123.371H193.928V122.371H192.928ZM192.928 103H193.928V102H192.928V103ZM189.17 103V93.3711H187.17V103H189.17ZM188.17 94.3711H217.17V92.3711H188.17V94.3711ZM216.17 93.3711V98.2422H218.17V93.3711H216.17ZM217.17 97.2422H212.299V99.2422H217.17V97.2422ZM211.299 98.2422V117.5H213.299V98.2422H211.299ZM212.299 116.5H207.428V118.5H212.299V116.5ZM206.428 117.5V146.5H208.428V117.5H206.428ZM207.428 147.5H241.299V145.5H207.428V147.5ZM242.299 146.5V112.742H240.299V146.5H242.299ZM241.299 111.742H236.428V113.742H241.299V111.742ZM237.428 112.742V98.2422H235.428V112.742H237.428ZM236.428 97.2422H231.67V99.2422H236.428V97.2422ZM232.67 98.2422V93.3711H230.67V98.2422H232.67ZM231.67 94.3711H260.67V92.3711H231.67V94.3711ZM259.67 93.3711V107.871H261.67V93.3711H259.67ZM260.67 106.871H255.799V108.871H260.67V106.871ZM254.799 107.871V112.742H256.799V107.871H254.799ZM255.799 113.742H260.67V111.742H255.799V113.742ZM259.67 112.742V161H261.67V112.742H259.67ZM260.67 162H265.428V160H260.67V162ZM264.428 161V185.129H266.428V161H264.428ZM265.428 186.129H270.299V184.129H265.428V186.129ZM269.299 185.129V190H271.299V185.129H269.299ZM270.299 189H241.299V191H270.299V189ZM242.299 190V185.129H240.299V190H242.299ZM241.299 186.129H246.17V184.129H241.299V186.129ZM247.17 185.129V156.129H245.17V185.129H247.17ZM246.17 155.129H207.428V157.129H246.17V155.129ZM206.428 156.129V185.129H208.428V156.129H206.428ZM207.428 186.129H212.299V184.129H207.428V186.129ZM211.299 185.129V190H213.299V185.129H211.299ZM212.299 189H183.299V191H212.299V189ZM184.299 190V175.5H182.299V190H184.299ZM183.299 176.5H188.17V174.5H183.299V176.5ZM189.17 175.5V122.371H187.17V175.5H189.17ZM188.17 123.371H192.928V121.371H188.17V123.371ZM193.928 122.371V103H191.928V122.371H193.928ZM192.928 102H188.17V104H192.928V102ZM275.17 98.2422H274.17V99.2422H275.17V98.2422ZM275.17 93.3711V92.3711H274.17V93.3711H275.17ZM347.67 93.3711H348.67V92.3711H347.67V93.3711ZM347.67 103H346.67V104H347.67V103ZM352.541 103H353.541V102H352.541V103ZM352.541 107.871H351.541V108.871H352.541V107.871ZM357.299 107.871H358.299V106.871H357.299V107.871ZM357.299 117.5V118.5H358.299V117.5H357.299ZM342.799 117.5H341.799V118.5H342.799V117.5ZM342.799 112.742H343.799V111.742H342.799V112.742ZM333.17 112.742H332.17V113.742H333.17V112.742ZM333.17 107.871H334.17V106.871H333.17V107.871ZM323.541 107.871H322.541V108.871H323.541V107.871ZM323.541 103H324.541V102H323.541V103ZM299.299 103V102H298.299V103H299.299ZM299.299 132H298.299V133H299.299V132ZM328.299 132V133H329.299V132H328.299ZM328.299 127.242V126.242H327.299V127.242H328.299ZM338.041 127.242V128.242H339.041V127.242H338.041ZM338.041 122.371V121.371H337.041V122.371H338.041ZM342.799 122.371H343.799V121.371H342.799V122.371ZM342.799 136.871H341.799V137.871H342.799V136.871ZM347.67 136.871H348.67V135.871H347.67V136.871ZM347.67 146.5H346.67V147.5H347.67V146.5ZM352.541 146.5H353.541V145.5H352.541V146.5ZM352.541 156.242V157.242H353.541V156.242H352.541ZM347.67 156.242H346.67V157.242H347.67V156.242ZM347.67 151.371H348.67V150.371H347.67V151.371ZM342.799 151.371H341.799V152.371H342.799V151.371ZM342.799 146.5H343.799V145.5H342.799V146.5ZM333.17 146.5H332.17V147.5H333.17V146.5ZM333.17 141.742H334.17V140.742H333.17V141.742ZM304.17 141.742H303.17V142.742H304.17V141.742ZM304.17 136.871H305.17V135.871H304.17V136.871ZM299.299 136.871V135.871H298.299V136.871H299.299ZM299.299 185.242H298.299V186.242H299.299V185.242ZM313.799 185.242V186.242H314.799V185.242H313.799ZM313.799 180.371V179.371H312.799V180.371H313.799ZM328.299 180.371V181.371H329.299V180.371H328.299ZM328.299 175.5V174.5H327.299V175.5H328.299ZM338.041 175.5V176.5H339.041V175.5H338.041ZM338.041 170.742V169.742H337.041V170.742H338.041ZM352.541 170.742V171.742H353.541V170.742H352.541ZM352.541 165.871V164.871H351.541V165.871H352.541ZM362.17 165.871H363.17V164.871H362.17V165.871ZM362.17 175.5V176.5H363.17V175.5H362.17ZM357.299 175.5V174.5H356.299V175.5H357.299ZM357.299 180.371V181.371H358.299V180.371H357.299ZM352.541 180.371V179.371H351.541V180.371H352.541ZM352.541 194.871V195.871H353.541V194.871H352.541ZM347.67 194.871H346.67V195.871H347.67V194.871ZM347.67 190H348.67V189H347.67V190ZM275.17 190H274.17V191H275.17V190ZM275.17 185.242V184.242H274.17V185.242H275.17ZM280.041 185.242V186.242H281.041V185.242H280.041ZM280.041 98.2422H281.041V97.2422H280.041V98.2422ZM276.17 98.2422V93.3711H274.17V98.2422H276.17ZM275.17 94.3711H347.67V92.3711H275.17V94.3711ZM346.67 93.3711V103H348.67V93.3711H346.67ZM347.67 104H352.541V102H347.67V104ZM351.541 103V107.871H353.541V103H351.541ZM352.541 108.871H357.299V106.871H352.541V108.871ZM356.299 107.871V117.5H358.299V107.871H356.299ZM357.299 116.5H342.799V118.5H357.299V116.5ZM343.799 117.5V112.742H341.799V117.5H343.799ZM342.799 111.742H333.17V113.742H342.799V111.742ZM334.17 112.742V107.871H332.17V112.742H334.17ZM333.17 106.871H323.541V108.871H333.17V106.871ZM324.541 107.871V103H322.541V107.871H324.541ZM323.541 102H299.299V104H323.541V102ZM298.299 103V132H300.299V103H298.299ZM299.299 133H328.299V131H299.299V133ZM329.299 132V127.242H327.299V132H329.299ZM328.299 128.242H338.041V126.242H328.299V128.242ZM339.041 127.242V122.371H337.041V127.242H339.041ZM338.041 123.371H342.799V121.371H338.041V123.371ZM341.799 122.371V136.871H343.799V122.371H341.799ZM342.799 137.871H347.67V135.871H342.799V137.871ZM346.67 136.871V146.5H348.67V136.871H346.67ZM347.67 147.5H352.541V145.5H347.67V147.5ZM351.541 146.5V156.242H353.541V146.5H351.541ZM352.541 155.242H347.67V157.242H352.541V155.242ZM348.67 156.242V151.371H346.67V156.242H348.67ZM347.67 150.371H342.799V152.371H347.67V150.371ZM343.799 151.371V146.5H341.799V151.371H343.799ZM342.799 145.5H333.17V147.5H342.799V145.5ZM334.17 146.5V141.742H332.17V146.5H334.17ZM333.17 140.742H304.17V142.742H333.17V140.742ZM305.17 141.742V136.871H303.17V141.742H305.17ZM304.17 135.871H299.299V137.871H304.17V135.871ZM298.299 136.871V185.242H300.299V136.871H298.299ZM299.299 186.242H313.799V184.242H299.299V186.242ZM314.799 185.242V180.371H312.799V185.242H314.799ZM313.799 181.371H328.299V179.371H313.799V181.371ZM329.299 180.371V175.5H327.299V180.371H329.299ZM328.299 176.5H338.041V174.5H328.299V176.5ZM339.041 175.5V170.742H337.041V175.5H339.041ZM338.041 171.742H352.541V169.742H338.041V171.742ZM353.541 170.742V165.871H351.541V170.742H353.541ZM352.541 166.871H362.17V164.871H352.541V166.871ZM361.17 165.871V175.5H363.17V165.871H361.17ZM362.17 174.5H357.299V176.5H362.17V174.5ZM356.299 175.5V180.371H358.299V175.5H356.299ZM357.299 179.371H352.541V181.371H357.299V179.371ZM351.541 180.371V194.871H353.541V180.371H351.541ZM352.541 193.871H347.67V195.871H352.541V193.871ZM348.67 194.871V190H346.67V194.871H348.67ZM347.67 189H275.17V191H347.67V189ZM276.17 190V185.242H274.17V190H276.17ZM275.17 186.242H280.041V184.242H275.17V186.242ZM281.041 185.242V98.2422H279.041V185.242H281.041ZM280.041 97.2422H275.17V99.2422H280.041V97.2422ZM409.295 98.2422H408.295V99.2422H409.295V98.2422ZM409.295 93.3711V92.3711H408.295V93.3711H409.295ZM443.166 93.3711H444.166V92.3711H443.166V93.3711ZM443.166 98.2422V99.2422H444.166V98.2422H443.166ZM438.295 98.2422V97.2422H437.295V98.2422H438.295ZM438.295 112.742H437.295V113.742H438.295V112.742ZM443.166 112.742H444.166V111.742H443.166V112.742ZM443.166 127.242H442.166V128.242H443.166V127.242ZM447.924 127.242H448.924V126.242H447.924V127.242ZM447.924 141.742H446.924V142.742H447.924V141.742ZM452.795 141.742H453.795V140.742H452.795V141.742ZM452.795 156.129H451.795V157.129H452.795V156.129ZM457.666 156.129V157.129H458.666V156.129H457.666ZM457.666 151.371V150.371H456.666V151.371H457.666ZM462.424 151.371V152.371H463.424V151.371H462.424ZM462.424 141.742V140.742H461.424V141.742H462.424ZM467.295 141.742V142.742H468.295V141.742H467.295ZM467.295 127.242V126.242H466.295V127.242H467.295ZM472.166 127.242V128.242H473.166V127.242H472.166ZM472.166 117.5V116.5H471.166V117.5H472.166ZM476.924 117.5V118.5H477.924V117.5H476.924ZM476.924 103V102H475.924V103H476.924ZM481.795 103H482.795V102H481.795V103ZM481.795 107.871H480.795V108.871H481.795V107.871ZM486.666 107.871H487.666V106.871H486.666V107.871ZM486.666 117.5H485.666V118.5H486.666V117.5ZM491.537 117.5H492.537V116.5H491.537V117.5ZM491.537 127.242H490.537V128.242H491.537V127.242ZM496.295 127.242H497.295V126.242H496.295V127.242ZM496.295 141.742H495.295V142.742H496.295V141.742ZM501.166 141.742H502.166V140.742H501.166V141.742ZM501.166 151.371H500.166V152.371H501.166V151.371ZM506.037 151.371H507.037V150.371H506.037V151.371ZM506.037 161H505.037V162H506.037V161ZM510.795 161V162H511.795V161H510.795ZM510.795 141.742V140.742H509.795V141.742H510.795ZM515.666 141.742V142.742H516.666V141.742H515.666ZM515.666 122.371V121.371H514.666V122.371H515.666ZM520.537 122.371V123.371H521.537V122.371H520.537ZM520.537 107.871H521.537V106.871H520.537V107.871ZM515.666 107.871H514.666V108.871H515.666V107.871ZM515.666 98.2422H516.666V97.2422H515.666V98.2422ZM510.795 98.2422H509.795V99.2422H510.795V98.2422ZM510.795 93.3711V92.3711H509.795V93.3711H510.795ZM544.666 93.3711H545.666V92.3711H544.666V93.3711ZM544.666 98.2422V99.2422H545.666V98.2422H544.666ZM539.795 98.2422V97.2422H538.795V98.2422H539.795ZM539.795 103V104H540.795V103H539.795ZM535.037 103V102H534.037V103H535.037ZM535.037 107.871V108.871H536.037V107.871H535.037ZM530.166 107.871V106.871H529.166V107.871H530.166ZM530.166 122.371V123.371H531.166V122.371H530.166ZM525.295 122.371V121.371H524.295V122.371H525.295ZM525.295 136.871V137.871H526.295V136.871H525.295ZM520.537 136.871V135.871H519.537V136.871H520.537ZM520.537 146.5V147.5H521.537V146.5H520.537ZM515.666 146.5V145.5H514.666V146.5H515.666ZM515.666 161V162H516.666V161H515.666ZM510.795 161V160H509.795V161H510.795ZM510.795 170.629H509.795V171.629H510.795V170.629ZM515.666 170.629H516.666V169.629H515.666V170.629ZM515.666 175.5H514.666V176.5H515.666V175.5ZM520.537 175.5H521.537V174.5H520.537V175.5ZM520.537 185.129V186.129H521.537V185.129H520.537ZM506.037 185.129V184.129H505.037V185.129H506.037ZM506.037 190V191H507.037V190H506.037ZM501.166 190H500.166V191H501.166V190ZM501.166 185.129H502.166V184.129H501.166V185.129ZM496.295 185.129H495.295V186.129H496.295V185.129ZM496.295 175.5H497.295V174.5H496.295V175.5ZM491.537 175.5H490.537V176.5H491.537V175.5ZM491.537 165.871H492.537V164.871H491.537V165.871ZM486.666 165.871H485.666V166.871H486.666V165.871ZM486.666 151.371H487.666V150.371H486.666V151.371ZM481.795 151.371H480.795V152.371H481.795V151.371ZM481.795 141.742H482.795V140.742H481.795V141.742ZM476.924 141.742H475.924V142.742H476.924V141.742ZM476.924 136.871H477.924V135.871H476.924V136.871ZM472.166 136.871V135.871H471.166V136.871H472.166ZM472.166 146.5V147.5H473.166V146.5H472.166ZM467.295 146.5V145.5H466.295V146.5H467.295ZM467.295 161V162H468.295V161H467.295ZM462.424 161V160H461.424V161H462.424ZM462.424 175.5H461.424V176.5H462.424V175.5ZM467.295 175.5H468.295V174.5H467.295V175.5ZM467.295 180.371H466.295V181.371H467.295V180.371ZM472.166 180.371H473.166V179.371H472.166V180.371ZM472.166 185.129V186.129H473.166V185.129H472.166ZM452.795 185.129V184.129H451.795V185.129H452.795ZM452.795 190V191H453.795V190H452.795ZM447.924 190H446.924V191H447.924V190ZM447.924 180.371H448.924V179.371H447.924V180.371ZM443.166 180.371H442.166V181.371H443.166V180.371ZM443.166 165.871H444.166V164.871H443.166V165.871ZM438.295 165.871H437.295V166.871H438.295V165.871ZM438.295 156.129H439.295V155.129H438.295V156.129ZM433.424 156.129H432.424V157.129H433.424V156.129ZM433.424 141.742H434.424V140.742H433.424V141.742ZM428.666 141.742H427.666V142.742H428.666V141.742ZM428.666 127.242H429.666V126.242H428.666V127.242ZM423.795 127.242H422.795V128.242H423.795V127.242ZM423.795 117.5H424.795V116.5H423.795V117.5ZM418.924 117.5H417.924V118.5H418.924V117.5ZM418.924 103H419.924V102H418.924V103ZM414.166 103H413.166V104H414.166V103ZM414.166 98.2422H415.166V97.2422H414.166V98.2422ZM410.295 98.2422V93.3711H408.295V98.2422H410.295ZM409.295 94.3711H443.166V92.3711H409.295V94.3711ZM442.166 93.3711V98.2422H444.166V93.3711H442.166ZM443.166 97.2422H438.295V99.2422H443.166V97.2422ZM437.295 98.2422V112.742H439.295V98.2422H437.295ZM438.295 113.742H443.166V111.742H438.295V113.742ZM442.166 112.742V127.242H444.166V112.742H442.166ZM443.166 128.242H447.924V126.242H443.166V128.242ZM446.924 127.242V141.742H448.924V127.242H446.924ZM447.924 142.742H452.795V140.742H447.924V142.742ZM451.795 141.742V156.129H453.795V141.742H451.795ZM452.795 157.129H457.666V155.129H452.795V157.129ZM458.666 156.129V151.371H456.666V156.129H458.666ZM457.666 152.371H462.424V150.371H457.666V152.371ZM463.424 151.371V141.742H461.424V151.371H463.424ZM462.424 142.742H467.295V140.742H462.424V142.742ZM468.295 141.742V127.242H466.295V141.742H468.295ZM467.295 128.242H472.166V126.242H467.295V128.242ZM473.166 127.242V117.5H471.166V127.242H473.166ZM472.166 118.5H476.924V116.5H472.166V118.5ZM477.924 117.5V103H475.924V117.5H477.924ZM476.924 104H481.795V102H476.924V104ZM480.795 103V107.871H482.795V103H480.795ZM481.795 108.871H486.666V106.871H481.795V108.871ZM485.666 107.871V117.5H487.666V107.871H485.666ZM486.666 118.5H491.537V116.5H486.666V118.5ZM490.537 117.5V127.242H492.537V117.5H490.537ZM491.537 128.242H496.295V126.242H491.537V128.242ZM495.295 127.242V141.742H497.295V127.242H495.295ZM496.295 142.742H501.166V140.742H496.295V142.742ZM500.166 141.742V151.371H502.166V141.742H500.166ZM501.166 152.371H506.037V150.371H501.166V152.371ZM505.037 151.371V161H507.037V151.371H505.037ZM506.037 162H510.795V160H506.037V162ZM511.795 161V141.742H509.795V161H511.795ZM510.795 142.742H515.666V140.742H510.795V142.742ZM516.666 141.742V122.371H514.666V141.742H516.666ZM515.666 123.371H520.537V121.371H515.666V123.371ZM521.537 122.371V107.871H519.537V122.371H521.537ZM520.537 106.871H515.666V108.871H520.537V106.871ZM516.666 107.871V98.2422H514.666V107.871H516.666ZM515.666 97.2422H510.795V99.2422H515.666V97.2422ZM511.795 98.2422V93.3711H509.795V98.2422H511.795ZM510.795 94.3711H544.666V92.3711H510.795V94.3711ZM543.666 93.3711V98.2422H545.666V93.3711H543.666ZM544.666 97.2422H539.795V99.2422H544.666V97.2422ZM538.795 98.2422V103H540.795V98.2422H538.795ZM539.795 102H535.037V104H539.795V102ZM534.037 103V107.871H536.037V103H534.037ZM535.037 106.871H530.166V108.871H535.037V106.871ZM529.166 107.871V122.371H531.166V107.871H529.166ZM530.166 121.371H525.295V123.371H530.166V121.371ZM524.295 122.371V136.871H526.295V122.371H524.295ZM525.295 135.871H520.537V137.871H525.295V135.871ZM519.537 136.871V146.5H521.537V136.871H519.537ZM520.537 145.5H515.666V147.5H520.537V145.5ZM514.666 146.5V161H516.666V146.5H514.666ZM515.666 160H510.795V162H515.666V160ZM509.795 161V170.629H511.795V161H509.795ZM510.795 171.629H515.666V169.629H510.795V171.629ZM514.666 170.629V175.5H516.666V170.629H514.666ZM515.666 176.5H520.537V174.5H515.666V176.5ZM519.537 175.5V185.129H521.537V175.5H519.537ZM520.537 184.129H506.037V186.129H520.537V184.129ZM505.037 185.129V190H507.037V185.129H505.037ZM506.037 189H501.166V191H506.037V189ZM502.166 190V185.129H500.166V190H502.166ZM501.166 184.129H496.295V186.129H501.166V184.129ZM497.295 185.129V175.5H495.295V185.129H497.295ZM496.295 174.5H491.537V176.5H496.295V174.5ZM492.537 175.5V165.871H490.537V175.5H492.537ZM491.537 164.871H486.666V166.871H491.537V164.871ZM487.666 165.871V151.371H485.666V165.871H487.666ZM486.666 150.371H481.795V152.371H486.666V150.371ZM482.795 151.371V141.742H480.795V151.371H482.795ZM481.795 140.742H476.924V142.742H481.795V140.742ZM477.924 141.742V136.871H475.924V141.742H477.924ZM476.924 135.871H472.166V137.871H476.924V135.871ZM471.166 136.871V146.5H473.166V136.871H471.166ZM472.166 145.5H467.295V147.5H472.166V145.5ZM466.295 146.5V161H468.295V146.5H466.295ZM467.295 160H462.424V162H467.295V160ZM461.424 161V175.5H463.424V161H461.424ZM462.424 176.5H467.295V174.5H462.424V176.5ZM466.295 175.5V180.371H468.295V175.5H466.295ZM467.295 181.371H472.166V179.371H467.295V181.371ZM471.166 180.371V185.129H473.166V180.371H471.166ZM472.166 184.129H452.795V186.129H472.166V184.129ZM451.795 185.129V190H453.795V185.129H451.795ZM452.795 189H447.924V191H452.795V189ZM448.924 190V180.371H446.924V190H448.924ZM447.924 179.371H443.166V181.371H447.924V179.371ZM444.166 180.371V165.871H442.166V180.371H444.166ZM443.166 164.871H438.295V166.871H443.166V164.871ZM439.295 165.871V156.129H437.295V165.871H439.295ZM438.295 155.129H433.424V157.129H438.295V155.129ZM434.424 156.129V141.742H432.424V156.129H434.424ZM433.424 140.742H428.666V142.742H433.424V140.742ZM429.666 141.742V127.242H427.666V141.742H429.666ZM428.666 126.242H423.795V128.242H428.666V126.242ZM424.795 127.242V117.5H422.795V127.242H424.795ZM423.795 116.5H418.924V118.5H423.795V116.5ZM419.924 117.5V103H417.924V117.5H419.924ZM418.924 102H414.166V104H418.924V102ZM415.166 103V98.2422H413.166V103H415.166ZM414.166 97.2422H409.295V99.2422H414.166V97.2422ZM565.057 98.2422V99.2422H566.057V98.2422H565.057ZM565.057 93.3711V92.3711H564.057V93.3711H565.057ZM574.686 93.3711H575.686V92.3711H574.686V93.3711ZM574.686 98.2422H573.686V99.2422H574.686V98.2422ZM589.299 98.2422H590.299V97.2422H589.299V98.2422ZM589.299 103H588.299V104H589.299V103ZM603.799 103H604.799V102H603.799V103ZM603.799 107.871H602.799V108.871H603.799V107.871ZM608.557 107.871H609.557V106.871H608.557V107.871ZM608.557 136.871H607.557V137.871H608.557V136.871ZM613.428 136.871H614.428V135.871H613.428V136.871ZM613.428 156.129H612.428V157.129H613.428V156.129ZM618.299 156.129H619.299V155.129H618.299V156.129ZM618.299 175.5H617.299V176.5H618.299V175.5ZM623.057 175.5H624.057V174.5H623.057V175.5ZM623.057 185.129H622.057V186.129H623.057V185.129ZM627.928 185.129H628.928V184.129H627.928V185.129ZM627.928 190V191H628.928V190H627.928ZM598.928 190H597.928V191H598.928V190ZM598.928 161H599.928V160H598.928V161ZM594.057 161H593.057V162H594.057V161ZM594.057 156.129H595.057V155.129H594.057V156.129ZM560.186 156.129V155.129H559.186V156.129H560.186ZM560.186 180.371H559.186V181.371H560.186V180.371ZM565.057 180.371H566.057V179.371H565.057V180.371ZM565.057 190V191H566.057V190H565.057ZM536.057 190H535.057V191H536.057V190ZM536.057 185.129V184.129H535.057V185.129H536.057ZM540.928 185.129V186.129H541.928V185.129H540.928ZM540.928 180.371V179.371H539.928V180.371H540.928ZM545.686 180.371V181.371H546.686V180.371H545.686ZM545.686 170.629V169.629H544.686V170.629H545.686ZM550.557 170.629V171.629H551.557V170.629H550.557ZM550.557 156.129V155.129H549.557V156.129H550.557ZM555.428 156.129V157.129H556.428V156.129H555.428ZM555.428 141.742V140.742H554.428V141.742H555.428ZM560.186 141.742V142.742H561.186V141.742H560.186ZM560.186 122.371V121.371H559.186V122.371H560.186ZM565.057 122.371V123.371H566.057V122.371H565.057ZM565.057 103H566.057V102H565.057V103ZM560.186 103V102H559.186V103H560.186ZM560.186 107.871V108.871H561.186V107.871H560.186ZM555.428 107.871V106.871H554.428V107.871H555.428ZM555.428 112.742V113.742H556.428V112.742H555.428ZM545.686 112.742H544.686V113.742H545.686V112.742ZM545.686 103V102H544.686V103H545.686ZM550.557 103V104H551.557V103H550.557ZM550.557 98.2422V97.2422H549.557V98.2422H550.557ZM579.557 107.871H578.557V108.871H579.557V107.871ZM579.557 103H580.557V102H579.557V103ZM574.686 103V102H573.686V103H574.686ZM574.686 112.742V113.742H575.686V112.742H574.686ZM569.928 112.742V111.742H568.928V112.742H569.928ZM569.928 132V133H570.928V132H569.928ZM565.057 132V131H564.057V132H565.057ZM565.057 146.5H564.057V147.5H565.057V146.5ZM594.057 146.5V147.5H595.057V146.5H594.057ZM594.057 141.742H595.057V140.742H594.057V141.742ZM589.299 141.742H588.299V142.742H589.299V141.742ZM589.299 122.371H590.299V121.371H589.299V122.371ZM584.428 122.371H583.428V123.371H584.428V122.371ZM584.428 107.871H585.428V106.871H584.428V107.871ZM566.057 98.2422V93.3711H564.057V98.2422H566.057ZM565.057 94.3711H574.686V92.3711H565.057V94.3711ZM573.686 93.3711V98.2422H575.686V93.3711H573.686ZM574.686 99.2422H589.299V97.2422H574.686V99.2422ZM588.299 98.2422V103H590.299V98.2422H588.299ZM589.299 104H603.799V102H589.299V104ZM602.799 103V107.871H604.799V103H602.799ZM603.799 108.871H608.557V106.871H603.799V108.871ZM607.557 107.871V136.871H609.557V107.871H607.557ZM608.557 137.871H613.428V135.871H608.557V137.871ZM612.428 136.871V156.129H614.428V136.871H612.428ZM613.428 157.129H618.299V155.129H613.428V157.129ZM617.299 156.129V175.5H619.299V156.129H617.299ZM618.299 176.5H623.057V174.5H618.299V176.5ZM622.057 175.5V185.129H624.057V175.5H622.057ZM623.057 186.129H627.928V184.129H623.057V186.129ZM626.928 185.129V190H628.928V185.129H626.928ZM627.928 189H598.928V191H627.928V189ZM599.928 190V161H597.928V190H599.928ZM598.928 160H594.057V162H598.928V160ZM595.057 161V156.129H593.057V161H595.057ZM594.057 155.129H560.186V157.129H594.057V155.129ZM559.186 156.129V180.371H561.186V156.129H559.186ZM560.186 181.371H565.057V179.371H560.186V181.371ZM564.057 180.371V190H566.057V180.371H564.057ZM565.057 189H536.057V191H565.057V189ZM537.057 190V185.129H535.057V190H537.057ZM536.057 186.129H540.928V184.129H536.057V186.129ZM541.928 185.129V180.371H539.928V185.129H541.928ZM540.928 181.371H545.686V179.371H540.928V181.371ZM546.686 180.371V170.629H544.686V180.371H546.686ZM545.686 171.629H550.557V169.629H545.686V171.629ZM551.557 170.629V156.129H549.557V170.629H551.557ZM550.557 157.129H555.428V155.129H550.557V157.129ZM556.428 156.129V141.742H554.428V156.129H556.428ZM555.428 142.742H560.186V140.742H555.428V142.742ZM561.186 141.742V122.371H559.186V141.742H561.186ZM560.186 123.371H565.057V121.371H560.186V123.371ZM566.057 122.371V103H564.057V122.371H566.057ZM565.057 102H560.186V104H565.057V102ZM559.186 103V107.871H561.186V103H559.186ZM560.186 106.871H555.428V108.871H560.186V106.871ZM554.428 107.871V112.742H556.428V107.871H554.428ZM555.428 111.742H545.686V113.742H555.428V111.742ZM546.686 112.742V103H544.686V112.742H546.686ZM545.686 104H550.557V102H545.686V104ZM551.557 103V98.2422H549.557V103H551.557ZM550.557 99.2422H565.057V97.2422H550.557V99.2422ZM580.557 107.871V103H578.557V107.871H580.557ZM579.557 102H574.686V104H579.557V102ZM573.686 103V112.742H575.686V103H573.686ZM574.686 111.742H569.928V113.742H574.686V111.742ZM568.928 112.742V132H570.928V112.742H568.928ZM569.928 131H565.057V133H569.928V131ZM564.057 132V146.5H566.057V132H564.057ZM565.057 147.5H594.057V145.5H565.057V147.5ZM595.057 146.5V141.742H593.057V146.5H595.057ZM594.057 140.742H589.299V142.742H594.057V140.742ZM590.299 141.742V122.371H588.299V141.742H590.299ZM589.299 121.371H584.428V123.371H589.299V121.371ZM585.428 122.371V107.871H583.428V122.371H585.428ZM584.428 106.871H579.557V108.871H584.428V106.871ZM631.553 98.2422H630.553V99.2422H631.553V98.2422ZM631.553 93.3711V92.3711H630.553V93.3711H631.553ZM689.553 93.3711H690.553V92.3711H689.553V93.3711ZM689.553 98.2422H688.553V99.2422H689.553V98.2422ZM704.053 98.2422H705.053V97.2422H704.053V98.2422ZM704.053 103H703.053V104H704.053V103ZM713.682 103H714.682V102H713.682V103ZM713.682 107.871H712.682V108.871H713.682V107.871ZM718.553 107.871H719.553V106.871H718.553V107.871ZM718.553 127.242V128.242H719.553V127.242H718.553ZM713.682 127.242V126.242H712.682V127.242H713.682ZM713.682 132V133H714.682V132H713.682ZM708.924 132V131H707.924V132H708.924ZM708.924 136.871V137.871H709.924V136.871H708.924ZM699.182 136.871V135.871H698.182V136.871H699.182ZM699.182 141.742V142.742H700.182V141.742H699.182ZM689.553 141.742V140.742H688.553V141.742H689.553ZM689.553 151.371H688.553V152.371H689.553V151.371ZM694.424 151.371H695.424V150.371H694.424V151.371ZM694.424 156.129H693.424V157.129H694.424V156.129ZM699.182 156.129H700.182V155.129H699.182V156.129ZM699.182 165.871H698.182V166.871H699.182V165.871ZM704.053 165.871H705.053V164.871H704.053V165.871ZM704.053 170.629H703.053V171.629H704.053V170.629ZM708.924 170.629H709.924V169.629H708.924V170.629ZM708.924 180.371H707.924V181.371H708.924V180.371ZM713.682 180.371H714.682V179.371H713.682V180.371ZM713.682 185.129H712.682V186.129H713.682V185.129ZM718.553 185.129H719.553V184.129H718.553V185.129ZM718.553 190V191H719.553V190H718.553ZM684.682 190H683.682V191H684.682V190ZM684.682 175.5H685.682V174.5H684.682V175.5ZM679.924 175.5H678.924V176.5H679.924V175.5ZM679.924 165.871H680.924V164.871H679.924V165.871ZM675.053 165.871H674.053V166.871H675.053V165.871ZM675.053 156.129H676.053V155.129H675.053V156.129ZM670.182 156.129H669.182V157.129H670.182V156.129ZM670.182 146.5H671.182V145.5H670.182V146.5ZM665.424 146.5H664.424V147.5H665.424V146.5ZM665.424 141.742H666.424V140.742H665.424V141.742ZM655.682 141.742V140.742H654.682V141.742H655.682ZM655.682 185.129H654.682V186.129H655.682V185.129ZM660.553 185.129H661.553V184.129H660.553V185.129ZM660.553 190V191H661.553V190H660.553ZM631.553 190H630.553V191H631.553V190ZM631.553 185.129V184.129H630.553V185.129H631.553ZM636.424 185.129V186.129H637.424V185.129H636.424ZM636.424 98.2422H637.424V97.2422H636.424V98.2422ZM675.053 107.871H674.053V108.871H675.053V107.871ZM675.053 103H676.053V102H675.053V103ZM655.682 103V102H654.682V103H655.682ZM655.682 132H654.682V133H655.682V132ZM689.553 132V133H690.553V132H689.553ZM689.553 127.242V126.242H688.553V127.242H689.553ZM694.424 127.242V128.242H695.424V127.242H694.424ZM694.424 112.742H695.424V111.742H694.424V112.742ZM689.553 112.742H688.553V113.742H689.553V112.742ZM689.553 107.871H690.553V106.871H689.553V107.871ZM632.553 98.2422V93.3711H630.553V98.2422H632.553ZM631.553 94.3711H689.553V92.3711H631.553V94.3711ZM688.553 93.3711V98.2422H690.553V93.3711H688.553ZM689.553 99.2422H704.053V97.2422H689.553V99.2422ZM703.053 98.2422V103H705.053V98.2422H703.053ZM704.053 104H713.682V102H704.053V104ZM712.682 103V107.871H714.682V103H712.682ZM713.682 108.871H718.553V106.871H713.682V108.871ZM717.553 107.871V127.242H719.553V107.871H717.553ZM718.553 126.242H713.682V128.242H718.553V126.242ZM712.682 127.242V132H714.682V127.242H712.682ZM713.682 131H708.924V133H713.682V131ZM707.924 132V136.871H709.924V132H707.924ZM708.924 135.871H699.182V137.871H708.924V135.871ZM698.182 136.871V141.742H700.182V136.871H698.182ZM699.182 140.742H689.553V142.742H699.182V140.742ZM688.553 141.742V151.371H690.553V141.742H688.553ZM689.553 152.371H694.424V150.371H689.553V152.371ZM693.424 151.371V156.129H695.424V151.371H693.424ZM694.424 157.129H699.182V155.129H694.424V157.129ZM698.182 156.129V165.871H700.182V156.129H698.182ZM699.182 166.871H704.053V164.871H699.182V166.871ZM703.053 165.871V170.629H705.053V165.871H703.053ZM704.053 171.629H708.924V169.629H704.053V171.629ZM707.924 170.629V180.371H709.924V170.629H707.924ZM708.924 181.371H713.682V179.371H708.924V181.371ZM712.682 180.371V185.129H714.682V180.371H712.682ZM713.682 186.129H718.553V184.129H713.682V186.129ZM717.553 185.129V190H719.553V185.129H717.553ZM718.553 189H684.682V191H718.553V189ZM685.682 190V175.5H683.682V190H685.682ZM684.682 174.5H679.924V176.5H684.682V174.5ZM680.924 175.5V165.871H678.924V175.5H680.924ZM679.924 164.871H675.053V166.871H679.924V164.871ZM676.053 165.871V156.129H674.053V165.871H676.053ZM675.053 155.129H670.182V157.129H675.053V155.129ZM671.182 156.129V146.5H669.182V156.129H671.182ZM670.182 145.5H665.424V147.5H670.182V145.5ZM666.424 146.5V141.742H664.424V146.5H666.424ZM665.424 140.742H655.682V142.742H665.424V140.742ZM654.682 141.742V185.129H656.682V141.742H654.682ZM655.682 186.129H660.553V184.129H655.682V186.129ZM659.553 185.129V190H661.553V185.129H659.553ZM660.553 189H631.553V191H660.553V189ZM632.553 190V185.129H630.553V190H632.553ZM631.553 186.129H636.424V184.129H631.553V186.129ZM637.424 185.129V98.2422H635.424V185.129H637.424ZM636.424 97.2422H631.553V99.2422H636.424V97.2422ZM676.053 107.871V103H674.053V107.871H676.053ZM675.053 102H655.682V104H675.053V102ZM654.682 103V132H656.682V103H654.682ZM655.682 133H689.553V131H655.682V133ZM690.553 132V127.242H688.553V132H690.553ZM689.553 128.242H694.424V126.242H689.553V128.242ZM695.424 127.242V112.742H693.424V127.242H695.424ZM694.424 111.742H689.553V113.742H694.424V111.742ZM690.553 112.742V107.871H688.553V112.742H690.553ZM689.553 106.871H675.053V108.871H689.553V106.871Z" fill="#9A7AF2" mask="url(#path-1-outside-1_227_2994)"/>
</g>
<g filter="url(#filter1_f_227_2994)">
<mask id="path-3-outside-2_227_2994" maskUnits="userSpaceOnUse" x="54" y="48" width="701" height="116" fill="black">
<rect fill="white" x="54" y="48" width="701" height="116"/>
<path d="M65.8081 60.25V49.542H146.433V65.667H151.85V76.375H141.142V71.084H130.308V65.667H125.017V60.25H114.183V146.292H119.6V157H87.3501V151.583H92.7671V60.25H81.9331V65.667H76.6421V71.084H71.2251V76.375H55.1001V71.084H60.5171V60.25H65.8081ZM163.314 60.25V49.542H195.564V54.959H190.147V76.375H184.73V108.625H222.397V71.084H216.98V54.959H211.689V49.542H243.939V65.667H238.522V71.084H243.939V124.75H249.23V151.583H254.647V157H222.397V151.583H227.814V119.333H184.73V151.583H190.147V157H157.897V140.875H163.314V81.792H168.605V60.25H163.314ZM260.064 54.959V49.542H340.689V60.25H346.106V65.667H351.397V76.375H335.272V71.084H324.564V65.667H313.856V60.25H286.897V92.5H319.147V87.209H329.981V81.792H335.272V97.917H340.689V108.625H346.106V119.459H340.689V114.042H335.272V108.625H324.564V103.334H292.314V97.917H286.897V151.709H303.022V146.292H319.147V140.875H329.981V135.584H346.106V130.167H356.814V140.875H351.397V146.292H346.106V162.417H340.689V157H260.064V151.709H265.481V54.959H260.064ZM409.22 54.959V49.542H446.887V54.959H441.47V71.084H446.887V87.209H452.178V103.334H457.595V119.333H463.012V114.042H468.303V103.334H473.72V87.209H479.137V76.375H484.428V60.25H489.845V65.667H495.262V76.375H500.679V87.209H505.97V103.334H511.387V114.042H516.804V124.75H522.095V103.334H527.512V81.792H532.929V65.667H527.512V54.959H522.095V49.542H559.762V54.959H554.345V60.25H549.054V65.667H543.637V81.792H538.22V97.917H532.929V108.625H527.512V124.75H522.095V135.458H527.512V140.875H532.929V151.583H516.804V157H511.387V151.583H505.97V140.875H500.679V130.167H495.262V114.042H489.845V103.334H484.428V97.917H479.137V108.625H473.72V124.75H468.303V140.875H473.72V146.292H479.137V151.583H457.595V157H452.178V146.292H446.887V130.167H441.47V119.333H436.053V103.334H430.762V87.209H425.345V76.375H419.928V60.25H414.637V54.959H409.22ZM582.438 54.959V49.542H593.146V54.959H609.397V60.25H625.522V65.667H630.813V97.917H636.23V119.333H641.647V140.875H646.938V151.583H652.355V157H620.105V124.75H614.688V119.333H577.021V146.292H582.438V157H550.188V151.583H555.605V146.292H560.896V135.458H566.313V119.333H571.73V103.334H577.021V81.792H582.438V60.25H577.021V65.667H571.73V71.084H560.896V60.25H566.313V54.959H582.438ZM598.563 65.667V60.25H593.146V71.084H587.855V92.5H582.438V108.625H614.688V103.334H609.397V81.792H603.98V65.667H598.563ZM656.386 54.959V49.542H720.886V54.959H737.011V60.25H747.719V65.667H753.136V87.209H747.719V92.5H742.428V97.917H731.594V103.334H720.886V114.042H726.303V119.333H731.594V130.167H737.011V135.458H742.428V146.292H747.719V151.583H753.136V157H715.469V140.875H710.178V130.167H704.761V119.333H699.344V108.625H694.053V103.334H683.219V151.583H688.636V157H656.386V151.583H661.803V54.959H656.386ZM704.761 65.667V60.25H683.219V92.5H720.886V87.209H726.303V71.084H720.886V65.667H704.761Z"/>
</mask>
<path d="M65.8081 60.25V49.542H146.433V65.667H151.85V76.375H141.142V71.084H130.308V65.667H125.017V60.25H114.183V146.292H119.6V157H87.3501V151.583H92.7671V60.25H81.9331V65.667H76.6421V71.084H71.2251V76.375H55.1001V71.084H60.5171V60.25H65.8081ZM163.314 60.25V49.542H195.564V54.959H190.147V76.375H184.73V108.625H222.397V71.084H216.98V54.959H211.689V49.542H243.939V65.667H238.522V71.084H243.939V124.75H249.23V151.583H254.647V157H222.397V151.583H227.814V119.333H184.73V151.583H190.147V157H157.897V140.875H163.314V81.792H168.605V60.25H163.314ZM260.064 54.959V49.542H340.689V60.25H346.106V65.667H351.397V76.375H335.272V71.084H324.564V65.667H313.856V60.25H286.897V92.5H319.147V87.209H329.981V81.792H335.272V97.917H340.689V108.625H346.106V119.459H340.689V114.042H335.272V108.625H324.564V103.334H292.314V97.917H286.897V151.709H303.022V146.292H319.147V140.875H329.981V135.584H346.106V130.167H356.814V140.875H351.397V146.292H346.106V162.417H340.689V157H260.064V151.709H265.481V54.959H260.064ZM409.22 54.959V49.542H446.887V54.959H441.47V71.084H446.887V87.209H452.178V103.334H457.595V119.333H463.012V114.042H468.303V103.334H473.72V87.209H479.137V76.375H484.428V60.25H489.845V65.667H495.262V76.375H500.679V87.209H505.97V103.334H511.387V114.042H516.804V124.75H522.095V103.334H527.512V81.792H532.929V65.667H527.512V54.959H522.095V49.542H559.762V54.959H554.345V60.25H549.054V65.667H543.637V81.792H538.22V97.917H532.929V108.625H527.512V124.75H522.095V135.458H527.512V140.875H532.929V151.583H516.804V157H511.387V151.583H505.97V140.875H500.679V130.167H495.262V114.042H489.845V103.334H484.428V97.917H479.137V108.625H473.72V124.75H468.303V140.875H473.72V146.292H479.137V151.583H457.595V157H452.178V146.292H446.887V130.167H441.47V119.333H436.053V103.334H430.762V87.209H425.345V76.375H419.928V60.25H414.637V54.959H409.22ZM582.438 54.959V49.542H593.146V54.959H609.397V60.25H625.522V65.667H630.813V97.917H636.23V119.333H641.647V140.875H646.938V151.583H652.355V157H620.105V124.75H614.688V119.333H577.021V146.292H582.438V157H550.188V151.583H555.605V146.292H560.896V135.458H566.313V119.333H571.73V103.334H577.021V81.792H582.438V60.25H577.021V65.667H571.73V71.084H560.896V60.25H566.313V54.959H582.438ZM598.563 65.667V60.25H593.146V71.084H587.855V92.5H582.438V108.625H614.688V103.334H609.397V81.792H603.98V65.667H598.563ZM656.386 54.959V49.542H720.886V54.959H737.011V60.25H747.719V65.667H753.136V87.209H747.719V92.5H742.428V97.917H731.594V103.334H720.886V114.042H726.303V119.333H731.594V130.167H737.011V135.458H742.428V146.292H747.719V151.583H753.136V157H715.469V140.875H710.178V130.167H704.761V119.333H699.344V108.625H694.053V103.334H683.219V151.583H688.636V157H656.386V151.583H661.803V54.959H656.386ZM704.761 65.667V60.25H683.219V92.5H720.886V87.209H726.303V71.084H720.886V65.667H704.761Z" fill="black"/>
<path d="M65.8081 60.25V61.25H66.8081V60.25H65.8081ZM65.8081 49.542V48.542H64.8081V49.542H65.8081ZM146.433 49.542H147.433V48.542H146.433V49.542ZM146.433 65.667H145.433V66.667H146.433V65.667ZM151.85 65.667H152.85V64.667H151.85V65.667ZM151.85 76.375V77.375H152.85V76.375H151.85ZM141.142 76.375H140.142V77.375H141.142V76.375ZM141.142 71.084H142.142V70.084H141.142V71.084ZM130.308 71.084H129.308V72.084H130.308V71.084ZM130.308 65.667H131.308V64.667H130.308V65.667ZM125.017 65.667H124.017V66.667H125.017V65.667ZM125.017 60.25H126.017V59.25H125.017V60.25ZM114.183 60.25V59.25H113.183V60.25H114.183ZM114.183 146.292H113.183V147.292H114.183V146.292ZM119.6 146.292H120.6V145.292H119.6V146.292ZM119.6 157V158H120.6V157H119.6ZM87.3501 157H86.3501V158H87.3501V157ZM87.3501 151.583V150.583H86.3501V151.583H87.3501ZM92.7671 151.583V152.583H93.7671V151.583H92.7671ZM92.7671 60.25H93.7671V59.25H92.7671V60.25ZM81.9331 60.25V59.25H80.9331V60.25H81.9331ZM81.9331 65.667V66.667H82.9331V65.667H81.9331ZM76.6421 65.667V64.667H75.6421V65.667H76.6421ZM76.6421 71.084V72.084H77.6421V71.084H76.6421ZM71.2251 71.084V70.084H70.2251V71.084H71.2251ZM71.2251 76.375V77.375H72.2251V76.375H71.2251ZM55.1001 76.375H54.1001V77.375H55.1001V76.375ZM55.1001 71.084V70.084H54.1001V71.084H55.1001ZM60.5171 71.084V72.084H61.5171V71.084H60.5171ZM60.5171 60.25V59.25H59.5171V60.25H60.5171ZM66.8081 60.25V49.542H64.8081V60.25H66.8081ZM65.8081 50.542H146.433V48.542H65.8081V50.542ZM145.433 49.542V65.667H147.433V49.542H145.433ZM146.433 66.667H151.85V64.667H146.433V66.667ZM150.85 65.667V76.375H152.85V65.667H150.85ZM151.85 75.375H141.142V77.375H151.85V75.375ZM142.142 76.375V71.084H140.142V76.375H142.142ZM141.142 70.084H130.308V72.084H141.142V70.084ZM131.308 71.084V65.667H129.308V71.084H131.308ZM130.308 64.667H125.017V66.667H130.308V64.667ZM126.017 65.667V60.25H124.017V65.667H126.017ZM125.017 59.25H114.183V61.25H125.017V59.25ZM113.183 60.25V146.292H115.183V60.25H113.183ZM114.183 147.292H119.6V145.292H114.183V147.292ZM118.6 146.292V157H120.6V146.292H118.6ZM119.6 156H87.3501V158H119.6V156ZM88.3501 157V151.583H86.3501V157H88.3501ZM87.3501 152.583H92.7671V150.583H87.3501V152.583ZM93.7671 151.583V60.25H91.7671V151.583H93.7671ZM92.7671 59.25H81.9331V61.25H92.7671V59.25ZM80.9331 60.25V65.667H82.9331V60.25H80.9331ZM81.9331 64.667H76.6421V66.667H81.9331V64.667ZM75.6421 65.667V71.084H77.6421V65.667H75.6421ZM76.6421 70.084H71.2251V72.084H76.6421V70.084ZM70.2251 71.084V76.375H72.2251V71.084H70.2251ZM71.2251 75.375H55.1001V77.375H71.2251V75.375ZM56.1001 76.375V71.084H54.1001V76.375H56.1001ZM55.1001 72.084H60.5171V70.084H55.1001V72.084ZM61.5171 71.084V60.25H59.5171V71.084H61.5171ZM60.5171 61.25H65.8081V59.25H60.5171V61.25ZM163.314 60.25H162.314V61.25H163.314V60.25ZM163.314 49.542V48.542H162.314V49.542H163.314ZM195.564 49.542H196.564V48.542H195.564V49.542ZM195.564 54.959V55.959H196.564V54.959H195.564ZM190.147 54.959V53.959H189.147V54.959H190.147ZM190.147 76.375V77.375H191.147V76.375H190.147ZM184.73 76.375V75.375H183.73V76.375H184.73ZM184.73 108.625H183.73V109.625H184.73V108.625ZM222.397 108.625V109.625H223.397V108.625H222.397ZM222.397 71.084H223.397V70.084H222.397V71.084ZM216.98 71.084H215.98V72.084H216.98V71.084ZM216.98 54.959H217.98V53.959H216.98V54.959ZM211.689 54.959H210.689V55.959H211.689V54.959ZM211.689 49.542V48.542H210.689V49.542H211.689ZM243.939 49.542H244.939V48.542H243.939V49.542ZM243.939 65.667V66.667H244.939V65.667H243.939ZM238.522 65.667V64.667H237.522V65.667H238.522ZM238.522 71.084H237.522V72.084H238.522V71.084ZM243.939 71.084H244.939V70.084H243.939V71.084ZM243.939 124.75H242.939V125.75H243.939V124.75ZM249.23 124.75H250.23V123.75H249.23V124.75ZM249.23 151.583H248.23V152.583H249.23V151.583ZM254.647 151.583H255.647V150.583H254.647V151.583ZM254.647 157V158H255.647V157H254.647ZM222.397 157H221.397V158H222.397V157ZM222.397 151.583V150.583H221.397V151.583H222.397ZM227.814 151.583V152.583H228.814V151.583H227.814ZM227.814 119.333H228.814V118.333H227.814V119.333ZM184.73 119.333V118.333H183.73V119.333H184.73ZM184.73 151.583H183.73V152.583H184.73V151.583ZM190.147 151.583H191.147V150.583H190.147V151.583ZM190.147 157V158H191.147V157H190.147ZM157.897 157H156.897V158H157.897V157ZM157.897 140.875V139.875H156.897V140.875H157.897ZM163.314 140.875V141.875H164.314V140.875H163.314ZM163.314 81.792V80.792H162.314V81.792H163.314ZM168.605 81.792V82.792H169.605V81.792H168.605ZM168.605 60.25H169.605V59.25H168.605V60.25ZM164.314 60.25V49.542H162.314V60.25H164.314ZM163.314 50.542H195.564V48.542H163.314V50.542ZM194.564 49.542V54.959H196.564V49.542H194.564ZM195.564 53.959H190.147V55.959H195.564V53.959ZM189.147 54.959V76.375H191.147V54.959H189.147ZM190.147 75.375H184.73V77.375H190.147V75.375ZM183.73 76.375V108.625H185.73V76.375H183.73ZM184.73 109.625H222.397V107.625H184.73V109.625ZM223.397 108.625V71.084H221.397V108.625H223.397ZM222.397 70.084H216.98V72.084H222.397V70.084ZM217.98 71.084V54.959H215.98V71.084H217.98ZM216.98 53.959H211.689V55.959H216.98V53.959ZM212.689 54.959V49.542H210.689V54.959H212.689ZM211.689 50.542H243.939V48.542H211.689V50.542ZM242.939 49.542V65.667H244.939V49.542H242.939ZM243.939 64.667H238.522V66.667H243.939V64.667ZM237.522 65.667V71.084H239.522V65.667H237.522ZM238.522 72.084H243.939V70.084H238.522V72.084ZM242.939 71.084V124.75H244.939V71.084H242.939ZM243.939 125.75H249.23V123.75H243.939V125.75ZM248.23 124.75V151.583H250.23V124.75H248.23ZM249.23 152.583H254.647V150.583H249.23V152.583ZM253.647 151.583V157H255.647V151.583H253.647ZM254.647 156H222.397V158H254.647V156ZM223.397 157V151.583H221.397V157H223.397ZM222.397 152.583H227.814V150.583H222.397V152.583ZM228.814 151.583V119.333H226.814V151.583H228.814ZM227.814 118.333H184.73V120.333H227.814V118.333ZM183.73 119.333V151.583H185.73V119.333H183.73ZM184.73 152.583H190.147V150.583H184.73V152.583ZM189.147 151.583V157H191.147V151.583H189.147ZM190.147 156H157.897V158H190.147V156ZM158.897 157V140.875H156.897V157H158.897ZM157.897 141.875H163.314V139.875H157.897V141.875ZM164.314 140.875V81.792H162.314V140.875H164.314ZM163.314 82.792H168.605V80.792H163.314V82.792ZM169.605 81.792V60.25H167.605V81.792H169.605ZM168.605 59.25H163.314V61.25H168.605V59.25ZM260.064 54.959H259.064V55.959H260.064V54.959ZM260.064 49.542V48.542H259.064V49.542H260.064ZM340.689 49.542H341.689V48.542H340.689V49.542ZM340.689 60.25H339.689V61.25H340.689V60.25ZM346.106 60.25H347.106V59.25H346.106V60.25ZM346.106 65.667H345.106V66.667H346.106V65.667ZM351.397 65.667H352.397V64.667H351.397V65.667ZM351.397 76.375V77.375H352.397V76.375H351.397ZM335.272 76.375H334.272V77.375H335.272V76.375ZM335.272 71.084H336.272V70.084H335.272V71.084ZM324.564 71.084H323.564V72.084H324.564V71.084ZM324.564 65.667H325.564V64.667H324.564V65.667ZM313.856 65.667H312.856V66.667H313.856V65.667ZM313.856 60.25H314.856V59.25H313.856V60.25ZM286.897 60.25V59.25H285.897V60.25H286.897ZM286.897 92.5H285.897V93.5H286.897V92.5ZM319.147 92.5V93.5H320.147V92.5H319.147ZM319.147 87.209V86.209H318.147V87.209H319.147ZM329.981 87.209V88.209H330.981V87.209H329.981ZM329.981 81.792V80.792H328.981V81.792H329.981ZM335.272 81.792H336.272V80.792H335.272V81.792ZM335.272 97.917H334.272V98.917H335.272V97.917ZM340.689 97.917H341.689V96.917H340.689V97.917ZM340.689 108.625H339.689V109.625H340.689V108.625ZM346.106 108.625H347.106V107.625H346.106V108.625ZM346.106 119.459V120.459H347.106V119.459H346.106ZM340.689 119.459H339.689V120.459H340.689V119.459ZM340.689 114.042H341.689V113.042H340.689V114.042ZM335.272 114.042H334.272V115.042H335.272V114.042ZM335.272 108.625H336.272V107.625H335.272V108.625ZM324.564 108.625H323.564V109.625H324.564V108.625ZM324.564 103.334H325.564V102.334H324.564V103.334ZM292.314 103.334H291.314V104.334H292.314V103.334ZM292.314 97.917H293.314V96.917H292.314V97.917ZM286.897 97.917V96.917H285.897V97.917H286.897ZM286.897 151.709H285.897V152.709H286.897V151.709ZM303.022 151.709V152.709H304.022V151.709H303.022ZM303.022 146.292V145.292H302.022V146.292H303.022ZM319.147 146.292V147.292H320.147V146.292H319.147ZM319.147 140.875V139.875H318.147V140.875H319.147ZM329.981 140.875V141.875H330.981V140.875H329.981ZM329.981 135.584V134.584H328.981V135.584H329.981ZM346.106 135.584V136.584H347.106V135.584H346.106ZM346.106 130.167V129.167H345.106V130.167H346.106ZM356.814 130.167H357.814V129.167H356.814V130.167ZM356.814 140.875V141.875H357.814V140.875H356.814ZM351.397 140.875V139.875H350.397V140.875H351.397ZM351.397 146.292V147.292H352.397V146.292H351.397ZM346.106 146.292V145.292H345.106V146.292H346.106ZM346.106 162.417V163.417H347.106V162.417H346.106ZM340.689 162.417H339.689V163.417H340.689V162.417ZM340.689 157H341.689V156H340.689V157ZM260.064 157H259.064V158H260.064V157ZM260.064 151.709V150.709H259.064V151.709H260.064ZM265.481 151.709V152.709H266.481V151.709H265.481ZM265.481 54.959H266.481V53.959H265.481V54.959ZM261.064 54.959V49.542H259.064V54.959H261.064ZM260.064 50.542H340.689V48.542H260.064V50.542ZM339.689 49.542V60.25H341.689V49.542H339.689ZM340.689 61.25H346.106V59.25H340.689V61.25ZM345.106 60.25V65.667H347.106V60.25H345.106ZM346.106 66.667H351.397V64.667H346.106V66.667ZM350.397 65.667V76.375H352.397V65.667H350.397ZM351.397 75.375H335.272V77.375H351.397V75.375ZM336.272 76.375V71.084H334.272V76.375H336.272ZM335.272 70.084H324.564V72.084H335.272V70.084ZM325.564 71.084V65.667H323.564V71.084H325.564ZM324.564 64.667H313.856V66.667H324.564V64.667ZM314.856 65.667V60.25H312.856V65.667H314.856ZM313.856 59.25H286.897V61.25H313.856V59.25ZM285.897 60.25V92.5H287.897V60.25H285.897ZM286.897 93.5H319.147V91.5H286.897V93.5ZM320.147 92.5V87.209H318.147V92.5H320.147ZM319.147 88.209H329.981V86.209H319.147V88.209ZM330.981 87.209V81.792H328.981V87.209H330.981ZM329.981 82.792H335.272V80.792H329.981V82.792ZM334.272 81.792V97.917H336.272V81.792H334.272ZM335.272 98.917H340.689V96.917H335.272V98.917ZM339.689 97.917V108.625H341.689V97.917H339.689ZM340.689 109.625H346.106V107.625H340.689V109.625ZM345.106 108.625V119.459H347.106V108.625H345.106ZM346.106 118.459H340.689V120.459H346.106V118.459ZM341.689 119.459V114.042H339.689V119.459H341.689ZM340.689 113.042H335.272V115.042H340.689V113.042ZM336.272 114.042V108.625H334.272V114.042H336.272ZM335.272 107.625H324.564V109.625H335.272V107.625ZM325.564 108.625V103.334H323.564V108.625H325.564ZM324.564 102.334H292.314V104.334H324.564V102.334ZM293.314 103.334V97.917H291.314V103.334H293.314ZM292.314 96.917H286.897V98.917H292.314V96.917ZM285.897 97.917V151.709H287.897V97.917H285.897ZM286.897 152.709H303.022V150.709H286.897V152.709ZM304.022 151.709V146.292H302.022V151.709H304.022ZM303.022 147.292H319.147V145.292H303.022V147.292ZM320.147 146.292V140.875H318.147V146.292H320.147ZM319.147 141.875H329.981V139.875H319.147V141.875ZM330.981 140.875V135.584H328.981V140.875H330.981ZM329.981 136.584H346.106V134.584H329.981V136.584ZM347.106 135.584V130.167H345.106V135.584H347.106ZM346.106 131.167H356.814V129.167H346.106V131.167ZM355.814 130.167V140.875H357.814V130.167H355.814ZM356.814 139.875H351.397V141.875H356.814V139.875ZM350.397 140.875V146.292H352.397V140.875H350.397ZM351.397 145.292H346.106V147.292H351.397V145.292ZM345.106 146.292V162.417H347.106V146.292H345.106ZM346.106 161.417H340.689V163.417H346.106V161.417ZM341.689 162.417V157H339.689V162.417H341.689ZM340.689 156H260.064V158H340.689V156ZM261.064 157V151.709H259.064V157H261.064ZM260.064 152.709H265.481V150.709H260.064V152.709ZM266.481 151.709V54.959H264.481V151.709H266.481ZM265.481 53.959H260.064V55.959H265.481V53.959ZM409.22 54.959H408.22V55.959H409.22V54.959ZM409.22 49.542V48.542H408.22V49.542H409.22ZM446.887 49.542H447.887V48.542H446.887V49.542ZM446.887 54.959V55.959H447.887V54.959H446.887ZM441.47 54.959V53.959H440.47V54.959H441.47ZM441.47 71.084H440.47V72.084H441.47V71.084ZM446.887 71.084H447.887V70.084H446.887V71.084ZM446.887 87.209H445.887V88.209H446.887V87.209ZM452.178 87.209H453.178V86.209H452.178V87.209ZM452.178 103.334H451.178V104.334H452.178V103.334ZM457.595 103.334H458.595V102.334H457.595V103.334ZM457.595 119.333H456.595V120.333H457.595V119.333ZM463.012 119.333V120.333H464.012V119.333H463.012ZM463.012 114.042V113.042H462.012V114.042H463.012ZM468.303 114.042V115.042H469.303V114.042H468.303ZM468.303 103.334V102.334H467.303V103.334H468.303ZM473.72 103.334V104.334H474.72V103.334H473.72ZM473.72 87.209V86.209H472.72V87.209H473.72ZM479.137 87.209V88.209H480.137V87.209H479.137ZM479.137 76.375V75.375H478.137V76.375H479.137ZM484.428 76.375V77.375H485.428V76.375H484.428ZM484.428 60.25V59.25H483.428V60.25H484.428ZM489.845 60.25H490.845V59.25H489.845V60.25ZM489.845 65.667H488.845V66.667H489.845V65.667ZM495.262 65.667H496.262V64.667H495.262V65.667ZM495.262 76.375H494.262V77.375H495.262V76.375ZM500.679 76.375H501.679V75.375H500.679V76.375ZM500.679 87.209H499.679V88.209H500.679V87.209ZM505.97 87.209H506.97V86.209H505.97V87.209ZM505.97 103.334H504.97V104.334H505.97V103.334ZM511.387 103.334H512.387V102.334H511.387V103.334ZM511.387 114.042H510.387V115.042H511.387V114.042ZM516.804 114.042H517.804V113.042H516.804V114.042ZM516.804 124.75H515.804V125.75H516.804V124.75ZM522.095 124.75V125.75H523.095V124.75H522.095ZM522.095 103.334V102.334H521.095V103.334H522.095ZM527.512 103.334V104.334H528.512V103.334H527.512ZM527.512 81.792V80.792H526.512V81.792H527.512ZM532.929 81.792V82.792H533.929V81.792H532.929ZM532.929 65.667H533.929V64.667H532.929V65.667ZM527.512 65.667H526.512V66.667H527.512V65.667ZM527.512 54.959H528.512V53.959H527.512V54.959ZM522.095 54.959H521.095V55.959H522.095V54.959ZM522.095 49.542V48.542H521.095V49.542H522.095ZM559.762 49.542H560.762V48.542H559.762V49.542ZM559.762 54.959V55.959H560.762V54.959H559.762ZM554.345 54.959V53.959H553.345V54.959H554.345ZM554.345 60.25V61.25H555.345V60.25H554.345ZM549.054 60.25V59.25H548.054V60.25H549.054ZM549.054 65.667V66.667H550.054V65.667H549.054ZM543.637 65.667V64.667H542.637V65.667H543.637ZM543.637 81.792V82.792H544.637V81.792H543.637ZM538.22 81.792V80.792H537.22V81.792H538.22ZM538.22 97.917V98.917H539.22V97.917H538.22ZM532.929 97.917V96.917H531.929V97.917H532.929ZM532.929 108.625V109.625H533.929V108.625H532.929ZM527.512 108.625V107.625H526.512V108.625H527.512ZM527.512 124.75V125.75H528.512V124.75H527.512ZM522.095 124.75V123.75H521.095V124.75H522.095ZM522.095 135.458H521.095V136.458H522.095V135.458ZM527.512 135.458H528.512V134.458H527.512V135.458ZM527.512 140.875H526.512V141.875H527.512V140.875ZM532.929 140.875H533.929V139.875H532.929V140.875ZM532.929 151.583V152.583H533.929V151.583H532.929ZM516.804 151.583V150.583H515.804V151.583H516.804ZM516.804 157V158H517.804V157H516.804ZM511.387 157H510.387V158H511.387V157ZM511.387 151.583H512.387V150.583H511.387V151.583ZM505.97 151.583H504.97V152.583H505.97V151.583ZM505.97 140.875H506.97V139.875H505.97V140.875ZM500.679 140.875H499.679V141.875H500.679V140.875ZM500.679 130.167H501.679V129.167H500.679V130.167ZM495.262 130.167H494.262V131.167H495.262V130.167ZM495.262 114.042H496.262V113.042H495.262V114.042ZM489.845 114.042H488.845V115.042H489.845V114.042ZM489.845 103.334H490.845V102.334H489.845V103.334ZM484.428 103.334H483.428V104.334H484.428V103.334ZM484.428 97.917H485.428V96.917H484.428V97.917ZM479.137 97.917V96.917H478.137V97.917H479.137ZM479.137 108.625V109.625H480.137V108.625H479.137ZM473.72 108.625V107.625H472.72V108.625H473.72ZM473.72 124.75V125.75H474.72V124.75H473.72ZM468.303 124.75V123.75H467.303V124.75H468.303ZM468.303 140.875H467.303V141.875H468.303V140.875ZM473.72 140.875H474.72V139.875H473.72V140.875ZM473.72 146.292H472.72V147.292H473.72V146.292ZM479.137 146.292H480.137V145.292H479.137V146.292ZM479.137 151.583V152.583H480.137V151.583H479.137ZM457.595 151.583V150.583H456.595V151.583H457.595ZM457.595 157V158H458.595V157H457.595ZM452.178 157H451.178V158H452.178V157ZM452.178 146.292H453.178V145.292H452.178V146.292ZM446.887 146.292H445.887V147.292H446.887V146.292ZM446.887 130.167H447.887V129.167H446.887V130.167ZM441.47 130.167H440.47V131.167H441.47V130.167ZM441.47 119.333H442.47V118.333H441.47V119.333ZM436.053 119.333H435.053V120.333H436.053V119.333ZM436.053 103.334H437.053V102.334H436.053V103.334ZM430.762 103.334H429.762V104.334H430.762V103.334ZM430.762 87.209H431.762V86.209H430.762V87.209ZM425.345 87.209H424.345V88.209H425.345V87.209ZM425.345 76.375H426.345V75.375H425.345V76.375ZM419.928 76.375H418.928V77.375H419.928V76.375ZM419.928 60.25H420.928V59.25H419.928V60.25ZM414.637 60.25H413.637V61.25H414.637V60.25ZM414.637 54.959H415.637V53.959H414.637V54.959ZM410.22 54.959V49.542H408.22V54.959H410.22ZM409.22 50.542H446.887V48.542H409.22V50.542ZM445.887 49.542V54.959H447.887V49.542H445.887ZM446.887 53.959H441.47V55.959H446.887V53.959ZM440.47 54.959V71.084H442.47V54.959H440.47ZM441.47 72.084H446.887V70.084H441.47V72.084ZM445.887 71.084V87.209H447.887V71.084H445.887ZM446.887 88.209H452.178V86.209H446.887V88.209ZM451.178 87.209V103.334H453.178V87.209H451.178ZM452.178 104.334H457.595V102.334H452.178V104.334ZM456.595 103.334V119.333H458.595V103.334H456.595ZM457.595 120.333H463.012V118.333H457.595V120.333ZM464.012 119.333V114.042H462.012V119.333H464.012ZM463.012 115.042H468.303V113.042H463.012V115.042ZM469.303 114.042V103.334H467.303V114.042H469.303ZM468.303 104.334H473.72V102.334H468.303V104.334ZM474.72 103.334V87.209H472.72V103.334H474.72ZM473.72 88.209H479.137V86.209H473.72V88.209ZM480.137 87.209V76.375H478.137V87.209H480.137ZM479.137 77.375H484.428V75.375H479.137V77.375ZM485.428 76.375V60.25H483.428V76.375H485.428ZM484.428 61.25H489.845V59.25H484.428V61.25ZM488.845 60.25V65.667H490.845V60.25H488.845ZM489.845 66.667H495.262V64.667H489.845V66.667ZM494.262 65.667V76.375H496.262V65.667H494.262ZM495.262 77.375H500.679V75.375H495.262V77.375ZM499.679 76.375V87.209H501.679V76.375H499.679ZM500.679 88.209H505.97V86.209H500.679V88.209ZM504.97 87.209V103.334H506.97V87.209H504.97ZM505.97 104.334H511.387V102.334H505.97V104.334ZM510.387 103.334V114.042H512.387V103.334H510.387ZM511.387 115.042H516.804V113.042H511.387V115.042ZM515.804 114.042V124.75H517.804V114.042H515.804ZM516.804 125.75H522.095V123.75H516.804V125.75ZM523.095 124.75V103.334H521.095V124.75H523.095ZM522.095 104.334H527.512V102.334H522.095V104.334ZM528.512 103.334V81.792H526.512V103.334H528.512ZM527.512 82.792H532.929V80.792H527.512V82.792ZM533.929 81.792V65.667H531.929V81.792H533.929ZM532.929 64.667H527.512V66.667H532.929V64.667ZM528.512 65.667V54.959H526.512V65.667H528.512ZM527.512 53.959H522.095V55.959H527.512V53.959ZM523.095 54.959V49.542H521.095V54.959H523.095ZM522.095 50.542H559.762V48.542H522.095V50.542ZM558.762 49.542V54.959H560.762V49.542H558.762ZM559.762 53.959H554.345V55.959H559.762V53.959ZM553.345 54.959V60.25H555.345V54.959H553.345ZM554.345 59.25H549.054V61.25H554.345V59.25ZM548.054 60.25V65.667H550.054V60.25H548.054ZM549.054 64.667H543.637V66.667H549.054V64.667ZM542.637 65.667V81.792H544.637V65.667H542.637ZM543.637 80.792H538.22V82.792H543.637V80.792ZM537.22 81.792V97.917H539.22V81.792H537.22ZM538.22 96.917H532.929V98.917H538.22V96.917ZM531.929 97.917V108.625H533.929V97.917H531.929ZM532.929 107.625H527.512V109.625H532.929V107.625ZM526.512 108.625V124.75H528.512V108.625H526.512ZM527.512 123.75H522.095V125.75H527.512V123.75ZM521.095 124.75V135.458H523.095V124.75H521.095ZM522.095 136.458H527.512V134.458H522.095V136.458ZM526.512 135.458V140.875H528.512V135.458H526.512ZM527.512 141.875H532.929V139.875H527.512V141.875ZM531.929 140.875V151.583H533.929V140.875H531.929ZM532.929 150.583H516.804V152.583H532.929V150.583ZM515.804 151.583V157H517.804V151.583H515.804ZM516.804 156H511.387V158H516.804V156ZM512.387 157V151.583H510.387V157H512.387ZM511.387 150.583H505.97V152.583H511.387V150.583ZM506.97 151.583V140.875H504.97V151.583H506.97ZM505.97 139.875H500.679V141.875H505.97V139.875ZM501.679 140.875V130.167H499.679V140.875H501.679ZM500.679 129.167H495.262V131.167H500.679V129.167ZM496.262 130.167V114.042H494.262V130.167H496.262ZM495.262 113.042H489.845V115.042H495.262V113.042ZM490.845 114.042V103.334H488.845V114.042H490.845ZM489.845 102.334H484.428V104.334H489.845V102.334ZM485.428 103.334V97.917H483.428V103.334H485.428ZM484.428 96.917H479.137V98.917H484.428V96.917ZM478.137 97.917V108.625H480.137V97.917H478.137ZM479.137 107.625H473.72V109.625H479.137V107.625ZM472.72 108.625V124.75H474.72V108.625H472.72ZM473.72 123.75H468.303V125.75H473.72V123.75ZM467.303 124.75V140.875H469.303V124.75H467.303ZM468.303 141.875H473.72V139.875H468.303V141.875ZM472.72 140.875V146.292H474.72V140.875H472.72ZM473.72 147.292H479.137V145.292H473.72V147.292ZM478.137 146.292V151.583H480.137V146.292H478.137ZM479.137 150.583H457.595V152.583H479.137V150.583ZM456.595 151.583V157H458.595V151.583H456.595ZM457.595 156H452.178V158H457.595V156ZM453.178 157V146.292H451.178V157H453.178ZM452.178 145.292H446.887V147.292H452.178V145.292ZM447.887 146.292V130.167H445.887V146.292H447.887ZM446.887 129.167H441.47V131.167H446.887V129.167ZM442.47 130.167V119.333H440.47V130.167H442.47ZM441.47 118.333H436.053V120.333H441.47V118.333ZM437.053 119.333V103.334H435.053V119.333H437.053ZM436.053 102.334H430.762V104.334H436.053V102.334ZM431.762 103.334V87.209H429.762V103.334H431.762ZM430.762 86.209H425.345V88.209H430.762V86.209ZM426.345 87.209V76.375H424.345V87.209H426.345ZM425.345 75.375H419.928V77.375H425.345V75.375ZM420.928 76.375V60.25H418.928V76.375H420.928ZM419.928 59.25H414.637V61.25H419.928V59.25ZM415.637 60.25V54.959H413.637V60.25H415.637ZM414.637 53.959H409.22V55.959H414.637V53.959ZM582.438 54.959V55.959H583.438V54.959H582.438ZM582.438 49.542V48.542H581.438V49.542H582.438ZM593.146 49.542H594.146V48.542H593.146V49.542ZM593.146 54.959H592.146V55.959H593.146V54.959ZM609.397 54.959H610.397V53.959H609.397V54.959ZM609.397 60.25H608.397V61.25H609.397V60.25ZM625.522 60.25H626.522V59.25H625.522V60.25ZM625.522 65.667H624.522V66.667H625.522V65.667ZM630.813 65.667H631.813V64.667H630.813V65.667ZM630.813 97.917H629.813V98.917H630.813V97.917ZM636.23 97.917H637.23V96.917H636.23V97.917ZM636.23 119.333H635.23V120.333H636.23V119.333ZM641.647 119.333H642.647V118.333H641.647V119.333ZM641.647 140.875H640.647V141.875H641.647V140.875ZM646.938 140.875H647.938V139.875H646.938V140.875ZM646.938 151.583H645.938V152.583H646.938V151.583ZM652.355 151.583H653.355V150.583H652.355V151.583ZM652.355 157V158H653.355V157H652.355ZM620.105 157H619.105V158H620.105V157ZM620.105 124.75H621.105V123.75H620.105V124.75ZM614.688 124.75H613.688V125.75H614.688V124.75ZM614.688 119.333H615.688V118.333H614.688V119.333ZM577.021 119.333V118.333H576.021V119.333H577.021ZM577.021 146.292H576.021V147.292H577.021V146.292ZM582.438 146.292H583.438V145.292H582.438V146.292ZM582.438 157V158H583.438V157H582.438ZM550.188 157H549.188V158H550.188V157ZM550.188 151.583V150.583H549.188V151.583H550.188ZM555.605 151.583V152.583H556.605V151.583H555.605ZM555.605 146.292V145.292H554.605V146.292H555.605ZM560.896 146.292V147.292H561.896V146.292H560.896ZM560.896 135.458V134.458H559.896V135.458H560.896ZM566.313 135.458V136.458H567.313V135.458H566.313ZM566.313 119.333V118.333H565.313V119.333H566.313ZM571.73 119.333V120.333H572.73V119.333H571.73ZM571.73 103.334V102.334H570.73V103.334H571.73ZM577.021 103.334V104.334H578.021V103.334H577.021ZM577.021 81.792V80.792H576.021V81.792H577.021ZM582.438 81.792V82.792H583.438V81.792H582.438ZM582.438 60.25H583.438V59.25H582.438V60.25ZM577.021 60.25V59.25H576.021V60.25H577.021ZM577.021 65.667V66.667H578.021V65.667H577.021ZM571.73 65.667V64.667H570.73V65.667H571.73ZM571.73 71.084V72.084H572.73V71.084H571.73ZM560.896 71.084H559.896V72.084H560.896V71.084ZM560.896 60.25V59.25H559.896V60.25H560.896ZM566.313 60.25V61.25H567.313V60.25H566.313ZM566.313 54.959V53.959H565.313V54.959H566.313ZM598.563 65.667H597.563V66.667H598.563V65.667ZM598.563 60.25H599.563V59.25H598.563V60.25ZM593.146 60.25V59.25H592.146V60.25H593.146ZM593.146 71.084V72.084H594.146V71.084H593.146ZM587.855 71.084V70.084H586.855V71.084H587.855ZM587.855 92.5V93.5H588.855V92.5H587.855ZM582.438 92.5V91.5H581.438V92.5H582.438ZM582.438 108.625H581.438V109.625H582.438V108.625ZM614.688 108.625V109.625H615.688V108.625H614.688ZM614.688 103.334H615.688V102.334H614.688V103.334ZM609.397 103.334H608.397V104.334H609.397V103.334ZM609.397 81.792H610.397V80.792H609.397V81.792ZM603.98 81.792H602.98V82.792H603.98V81.792ZM603.98 65.667H604.98V64.667H603.98V65.667ZM583.438 54.959V49.542H581.438V54.959H583.438ZM582.438 50.542H593.146V48.542H582.438V50.542ZM592.146 49.542V54.959H594.146V49.542H592.146ZM593.146 55.959H609.397V53.959H593.146V55.959ZM608.397 54.959V60.25H610.397V54.959H608.397ZM609.397 61.25H625.522V59.25H609.397V61.25ZM624.522 60.25V65.667H626.522V60.25H624.522ZM625.522 66.667H630.813V64.667H625.522V66.667ZM629.813 65.667V97.917H631.813V65.667H629.813ZM630.813 98.917H636.23V96.917H630.813V98.917ZM635.23 97.917V119.333H637.23V97.917H635.23ZM636.23 120.333H641.647V118.333H636.23V120.333ZM640.647 119.333V140.875H642.647V119.333H640.647ZM641.647 141.875H646.938V139.875H641.647V141.875ZM645.938 140.875V151.583H647.938V140.875H645.938ZM646.938 152.583H652.355V150.583H646.938V152.583ZM651.355 151.583V157H653.355V151.583H651.355ZM652.355 156H620.105V158H652.355V156ZM621.105 157V124.75H619.105V157H621.105ZM620.105 123.75H614.688V125.75H620.105V123.75ZM615.688 124.75V119.333H613.688V124.75H615.688ZM614.688 118.333H577.021V120.333H614.688V118.333ZM576.021 119.333V146.292H578.021V119.333H576.021ZM577.021 147.292H582.438V145.292H577.021V147.292ZM581.438 146.292V157H583.438V146.292H581.438ZM582.438 156H550.188V158H582.438V156ZM551.188 157V151.583H549.188V157H551.188ZM550.188 152.583H555.605V150.583H550.188V152.583ZM556.605 151.583V146.292H554.605V151.583H556.605ZM555.605 147.292H560.896V145.292H555.605V147.292ZM561.896 146.292V135.458H559.896V146.292H561.896ZM560.896 136.458H566.313V134.458H560.896V136.458ZM567.313 135.458V119.333H565.313V135.458H567.313ZM566.313 120.333H571.73V118.333H566.313V120.333ZM572.73 119.333V103.334H570.73V119.333H572.73ZM571.73 104.334H577.021V102.334H571.73V104.334ZM578.021 103.334V81.792H576.021V103.334H578.021ZM577.021 82.792H582.438V80.792H577.021V82.792ZM583.438 81.792V60.25H581.438V81.792H583.438ZM582.438 59.25H577.021V61.25H582.438V59.25ZM576.021 60.25V65.667H578.021V60.25H576.021ZM577.021 64.667H571.73V66.667H577.021V64.667ZM570.73 65.667V71.084H572.73V65.667H570.73ZM571.73 70.084H560.896V72.084H571.73V70.084ZM561.896 71.084V60.25H559.896V71.084H561.896ZM560.896 61.25H566.313V59.25H560.896V61.25ZM567.313 60.25V54.959H565.313V60.25H567.313ZM566.313 55.959H582.438V53.959H566.313V55.959ZM599.563 65.667V60.25H597.563V65.667H599.563ZM598.563 59.25H593.146V61.25H598.563V59.25ZM592.146 60.25V71.084H594.146V60.25H592.146ZM593.146 70.084H587.855V72.084H593.146V70.084ZM586.855 71.084V92.5H588.855V71.084H586.855ZM587.855 91.5H582.438V93.5H587.855V91.5ZM581.438 92.5V108.625H583.438V92.5H581.438ZM582.438 109.625H614.688V107.625H582.438V109.625ZM615.688 108.625V103.334H613.688V108.625H615.688ZM614.688 102.334H609.397V104.334H614.688V102.334ZM610.397 103.334V81.792H608.397V103.334H610.397ZM609.397 80.792H603.98V82.792H609.397V80.792ZM604.98 81.792V65.667H602.98V81.792H604.98ZM603.98 64.667H598.563V66.667H603.98V64.667ZM656.386 54.959H655.386V55.959H656.386V54.959ZM656.386 49.542V48.542H655.386V49.542H656.386ZM720.886 49.542H721.886V48.542H720.886V49.542ZM720.886 54.959H719.886V55.959H720.886V54.959ZM737.011 54.959H738.011V53.959H737.011V54.959ZM737.011 60.25H736.011V61.25H737.011V60.25ZM747.719 60.25H748.719V59.25H747.719V60.25ZM747.719 65.667H746.719V66.667H747.719V65.667ZM753.136 65.667H754.136V64.667H753.136V65.667ZM753.136 87.209V88.209H754.136V87.209H753.136ZM747.719 87.209V86.209H746.719V87.209H747.719ZM747.719 92.5V93.5H748.719V92.5H747.719ZM742.428 92.5V91.5H741.428V92.5H742.428ZM742.428 97.917V98.917H743.428V97.917H742.428ZM731.594 97.917V96.917H730.594V97.917H731.594ZM731.594 103.334V104.334H732.594V103.334H731.594ZM720.886 103.334V102.334H719.886V103.334H720.886ZM720.886 114.042H719.886V115.042H720.886V114.042ZM726.303 114.042H727.303V113.042H726.303V114.042ZM726.303 119.333H725.303V120.333H726.303V119.333ZM731.594 119.333H732.594V118.333H731.594V119.333ZM731.594 130.167H730.594V131.167H731.594V130.167ZM737.011 130.167H738.011V129.167H737.011V130.167ZM737.011 135.458H736.011V136.458H737.011V135.458ZM742.428 135.458H743.428V134.458H742.428V135.458ZM742.428 146.292H741.428V147.292H742.428V146.292ZM747.719 146.292H748.719V145.292H747.719V146.292ZM747.719 151.583H746.719V152.583H747.719V151.583ZM753.136 151.583H754.136V150.583H753.136V151.583ZM753.136 157V158H754.136V157H753.136ZM715.469 157H714.469V158H715.469V157ZM715.469 140.875H716.469V139.875H715.469V140.875ZM710.178 140.875H709.178V141.875H710.178V140.875ZM710.178 130.167H711.178V129.167H710.178V130.167ZM704.761 130.167H703.761V131.167H704.761V130.167ZM704.761 119.333H705.761V118.333H704.761V119.333ZM699.344 119.333H698.344V120.333H699.344V119.333ZM699.344 108.625H700.344V107.625H699.344V108.625ZM694.053 108.625H693.053V109.625H694.053V108.625ZM694.053 103.334H695.053V102.334H694.053V103.334ZM683.219 103.334V102.334H682.219V103.334H683.219ZM683.219 151.583H682.219V152.583H683.219V151.583ZM688.636 151.583H689.636V150.583H688.636V151.583ZM688.636 157V158H689.636V157H688.636ZM656.386 157H655.386V158H656.386V157ZM656.386 151.583V150.583H655.386V151.583H656.386ZM661.803 151.583V152.583H662.803V151.583H661.803ZM661.803 54.959H662.803V53.959H661.803V54.959ZM704.761 65.667H703.761V66.667H704.761V65.667ZM704.761 60.25H705.761V59.25H704.761V60.25ZM683.219 60.25V59.25H682.219V60.25H683.219ZM683.219 92.5H682.219V93.5H683.219V92.5ZM720.886 92.5V93.5H721.886V92.5H720.886ZM720.886 87.209V86.209H719.886V87.209H720.886ZM726.303 87.209V88.209H727.303V87.209H726.303ZM726.303 71.084H727.303V70.084H726.303V71.084ZM720.886 71.084H719.886V72.084H720.886V71.084ZM720.886 65.667H721.886V64.667H720.886V65.667ZM657.386 54.959V49.542H655.386V54.959H657.386ZM656.386 50.542H720.886V48.542H656.386V50.542ZM719.886 49.542V54.959H721.886V49.542H719.886ZM720.886 55.959H737.011V53.959H720.886V55.959ZM736.011 54.959V60.25H738.011V54.959H736.011ZM737.011 61.25H747.719V59.25H737.011V61.25ZM746.719 60.25V65.667H748.719V60.25H746.719ZM747.719 66.667H753.136V64.667H747.719V66.667ZM752.136 65.667V87.209H754.136V65.667H752.136ZM753.136 86.209H747.719V88.209H753.136V86.209ZM746.719 87.209V92.5H748.719V87.209H746.719ZM747.719 91.5H742.428V93.5H747.719V91.5ZM741.428 92.5V97.917H743.428V92.5H741.428ZM742.428 96.917H731.594V98.917H742.428V96.917ZM730.594 97.917V103.334H732.594V97.917H730.594ZM731.594 102.334H720.886V104.334H731.594V102.334ZM719.886 103.334V114.042H721.886V103.334H719.886ZM720.886 115.042H726.303V113.042H720.886V115.042ZM725.303 114.042V119.333H727.303V114.042H725.303ZM726.303 120.333H731.594V118.333H726.303V120.333ZM730.594 119.333V130.167H732.594V119.333H730.594ZM731.594 131.167H737.011V129.167H731.594V131.167ZM736.011 130.167V135.458H738.011V130.167H736.011ZM737.011 136.458H742.428V134.458H737.011V136.458ZM741.428 135.458V146.292H743.428V135.458H741.428ZM742.428 147.292H747.719V145.292H742.428V147.292ZM746.719 146.292V151.583H748.719V146.292H746.719ZM747.719 152.583H753.136V150.583H747.719V152.583ZM752.136 151.583V157H754.136V151.583H752.136ZM753.136 156H715.469V158H753.136V156ZM716.469 157V140.875H714.469V157H716.469ZM715.469 139.875H710.178V141.875H715.469V139.875ZM711.178 140.875V130.167H709.178V140.875H711.178ZM710.178 129.167H704.761V131.167H710.178V129.167ZM705.761 130.167V119.333H703.761V130.167H705.761ZM704.761 118.333H699.344V120.333H704.761V118.333ZM700.344 119.333V108.625H698.344V119.333H700.344ZM699.344 107.625H694.053V109.625H699.344V107.625ZM695.053 108.625V103.334H693.053V108.625H695.053ZM694.053 102.334H683.219V104.334H694.053V102.334ZM682.219 103.334V151.583H684.219V103.334H682.219ZM683.219 152.583H688.636V150.583H683.219V152.583ZM687.636 151.583V157H689.636V151.583H687.636ZM688.636 156H656.386V158H688.636V156ZM657.386 157V151.583H655.386V157H657.386ZM656.386 152.583H661.803V150.583H656.386V152.583ZM662.803 151.583V54.959H660.803V151.583H662.803ZM661.803 53.959H656.386V55.959H661.803V53.959ZM705.761 65.667V60.25H703.761V65.667H705.761ZM704.761 59.25H683.219V61.25H704.761V59.25ZM682.219 60.25V92.5H684.219V60.25H682.219ZM683.219 93.5H720.886V91.5H683.219V93.5ZM721.886 92.5V87.209H719.886V92.5H721.886ZM720.886 88.209H726.303V86.209H720.886V88.209ZM727.303 87.209V71.084H725.303V87.209H727.303ZM726.303 70.084H720.886V72.084H726.303V70.084ZM721.886 71.084V65.667H719.886V71.084H721.886ZM720.886 64.667H704.761V66.667H720.886V64.667Z" fill="#9A7AF2" mask="url(#path-3-outside-2_227_2994)"/>
</g>
<path d="M13.2202 19.25V6.88184H106.345V25.5068H112.602V37.875H100.234V31.7637H87.7202V25.5068H81.6089V19.25H69.0952V118.632H75.3521V131H38.1021V124.743H44.3589V19.25H31.8452V25.5068H25.7339V31.7637H19.4771V37.875H0.852051V31.7637H7.10889V19.25H13.2202ZM125.843 19.25V6.88184H163.093V13.1387H156.836V37.875H150.58V75.125H194.086V31.7637H187.83V13.1387H181.718V6.88184H218.968V25.5068H212.711V31.7637H218.968V93.75H225.08V124.743H231.336V131H194.086V124.743H200.343V87.4932H150.58V124.743H156.836V131H119.586V112.375H125.843V44.1318H131.955V19.25H125.843ZM237.593 13.1387V6.88184H330.718V19.25H336.975V25.5068H343.086V37.875H324.461V31.7637H312.093V25.5068H299.725V19.25H268.586V56.5H305.836V50.3887H318.35V44.1318H324.461V62.7568H330.718V75.125H336.975V87.6387H330.718V81.3818H324.461V75.125H312.093V69.0137H274.843V62.7568H268.586V124.889H287.211V118.632H305.836V112.375H318.35V106.264H336.975V100.007H349.343V112.375H343.086V118.632H336.975V137.257H330.718V131H237.593V124.889H243.85V13.1387H237.593ZM409.875 13.1387V6.88184H453.381V13.1387H447.125V31.7637H453.381V50.3887H459.493V69.0137H465.75V87.4932H472.006V81.3818H478.118V69.0137H484.375V50.3887H490.631V37.875H496.743V19.25H503V25.5068H509.256V37.875H515.513V50.3887H521.625V69.0137H527.881V81.3818H534.138V93.75H540.25V69.0137H546.506V44.1318H552.763V25.5068H546.506V13.1387H540.25V6.88184H583.756V13.1387H577.5V19.25H571.388V25.5068H565.131V44.1318H558.875V62.7568H552.763V75.125H546.506V93.75H540.25V106.118H546.506V112.375H552.763V124.743H534.138V131H527.881V124.743H521.625V112.375H515.513V100.007H509.256V81.3818H503V69.0137H496.743V62.7568H490.631V75.125H484.375V93.75H478.118V112.375H484.375V118.632H490.631V124.743H465.75V131H459.493V118.632H453.381V100.007H447.125V87.4932H440.868V69.0137H434.756V50.3887H428.5V37.875H422.243V19.25H416.131V13.1387H409.875ZM609.948 13.1387V6.88184H622.316V13.1387H641.086V19.25H659.711V25.5068H665.823V62.7568H672.08V87.4932H678.336V112.375H684.448V124.743H690.705V131H653.455V93.75H647.198V87.4932H603.691V118.632H609.948V131H572.698V124.743H578.955V118.632H585.066V106.118H591.323V87.4932H597.58V69.0137H603.691V44.1318H609.948V19.25H603.691V25.5068H597.58V31.7637H585.066V19.25H591.323V13.1387H609.948ZM628.573 25.5068V19.25H622.316V31.7637H616.205V56.5H609.948V75.125H647.198V69.0137H641.086V44.1318H634.83V25.5068H628.573ZM695.361 13.1387V6.88184H769.861V13.1387H788.486V19.25H800.854V25.5068H807.111V50.3887H800.854V56.5H794.743V62.7568H782.229V69.0137H769.861V81.3818H776.118V87.4932H782.229V100.007H788.486V106.118H794.743V118.632H800.854V124.743H807.111V131H763.604V112.375H757.493V100.007H751.236V87.4932H744.979V75.125H738.868V69.0137H726.354V124.743H732.611V131H695.361V124.743H701.618V13.1387H695.361ZM751.236 25.5068V19.25H726.354V56.5H769.861V50.3887H776.118V31.7637H769.861V25.5068H751.236Z" fill="#9A7AF2"/>
<defs>
<filter id="filter0_f_227_2994" x="85.8613" y="88.3711" width="637.691" height="111.5" filterUnits="userSpaceOnUse" color-interpolation-filters="sRGB">
<feFlood flood-opacity="0" result="BackgroundImageFix"/>
<feBlend mode="normal" in="SourceGraphic" in2="BackgroundImageFix" result="shape"/>
<feGaussianBlur stdDeviation="2.5" result="effect1_foregroundBlur_227_2994"/>
</filter>
<filter id="filter1_f_227_2994" x="52.0996" y="46.542" width="704.037" height="118.875" filterUnits="userSpaceOnUse" color-interpolation-filters="sRGB">
<feFlood flood-opacity="0" result="BackgroundImageFix"/>
<feBlend mode="normal" in="SourceGraphic" in2="BackgroundImageFix" result="shape"/>
<feGaussianBlur stdDeviation="1.5" result="effect1_foregroundBlur_227_2994"/>
</filter>
</defs>
</svg>
