<svg width="1043" height="204" viewBox="0 0 1043 204" fill="none" xmlns="http://www.w3.org/2000/svg">
<g filter="url(#filter0_f_58_7382)">
<mask id="path-1-outside-1_58_7382" maskUnits="userSpaceOnUse" x="128" y="87" width="786" height="104" fill="black">
<rect fill="white" x="128" y="87" width="786" height="104"/>
<path d="M158.5 189.5V102.5H129.5V88H216.5V102.5H187.5V189.5H158.5ZM231 189.5V88H260V131.5H303.5V88H332.5V189.5H303.5V146H260V189.5H231ZM347 189.5V88H448.5V102.5H376V131.5H434V146H376V175H448.5V189.5H347ZM593.5 189.5V175H579V88H608V146H622.5V88H637V146H651.5V88H680.5V175H666V189.5H651.5V175H637V160.5H622.5V175H608V189.5H593.5ZM695 189.5V117H709.5V102.5H724V88H767.5V102.5H782V117H796.5V189.5H767.5V160.5H724V189.5H695ZM724 146H767.5V117H753V102.5H738.5V117H724V146ZM811 189.5V88H898V102.5H912.5V146H883.5V160.5H898V175H912.5V189.5H869V175H854.5V160.5H840V189.5H811ZM840 146H869V131.5H883.5V102.5H840V146Z"/>
</mask>
<path d="M158.5 189.5V102.5H129.5V88H216.5V102.5H187.5V189.5H158.5ZM231 189.5V88H260V131.5H303.5V88H332.5V189.5H303.5V146H260V189.5H231ZM347 189.5V88H448.5V102.5H376V131.5H434V146H376V175H448.5V189.5H347ZM593.5 189.5V175H579V88H608V146H622.5V88H637V146H651.5V88H680.5V175H666V189.5H651.5V175H637V160.5H622.5V175H608V189.5H593.5ZM695 189.5V117H709.5V102.5H724V88H767.5V102.5H782V117H796.5V189.5H767.5V160.5H724V189.5H695ZM724 146H767.5V117H753V102.5H738.5V117H724V146ZM811 189.5V88H898V102.5H912.5V146H883.5V160.5H898V175H912.5V189.5H869V175H854.5V160.5H840V189.5H811ZM840 146H869V131.5H883.5V102.5H840V146Z" fill="black"/>
<path d="M158.5 189.5H157.5V190.5H158.5V189.5ZM158.5 102.5H159.5V101.5H158.5V102.5ZM129.5 102.5H128.5V103.5H129.5V102.5ZM129.5 88V87H128.5V88H129.5ZM216.5 88H217.5V87H216.5V88ZM216.5 102.5V103.5H217.5V102.5H216.5ZM187.5 102.5V101.5H186.5V102.5H187.5ZM187.5 189.5V190.5H188.5V189.5H187.5ZM159.5 189.5V102.5H157.5V189.5H159.5ZM158.5 101.5H129.5V103.5H158.5V101.5ZM130.5 102.5V88H128.5V102.5H130.5ZM129.5 89H216.5V87H129.5V89ZM215.5 88V102.5H217.5V88H215.5ZM216.5 101.5H187.5V103.5H216.5V101.5ZM186.5 102.5V189.5H188.5V102.5H186.5ZM187.5 188.5H158.5V190.5H187.5V188.5ZM231 189.5H230V190.5H231V189.5ZM231 88V87H230V88H231ZM260 88H261V87H260V88ZM260 131.5H259V132.5H260V131.5ZM303.5 131.5V132.5H304.5V131.5H303.5ZM303.5 88V87H302.5V88H303.5ZM332.5 88H333.5V87H332.5V88ZM332.5 189.5V190.5H333.5V189.5H332.5ZM303.5 189.5H302.5V190.5H303.5V189.5ZM303.5 146H304.5V145H303.5V146ZM260 146V145H259V146H260ZM260 189.5V190.5H261V189.5H260ZM232 189.5V88H230V189.5H232ZM231 89H260V87H231V89ZM259 88V131.5H261V88H259ZM260 132.5H303.5V130.5H260V132.5ZM304.5 131.5V88H302.5V131.5H304.5ZM303.5 89H332.5V87H303.5V89ZM331.5 88V189.5H333.5V88H331.5ZM332.5 188.5H303.5V190.5H332.5V188.5ZM304.5 189.5V146H302.5V189.5H304.5ZM303.5 145H260V147H303.5V145ZM259 146V189.5H261V146H259ZM260 188.5H231V190.5H260V188.5ZM347 189.5H346V190.5H347V189.5ZM347 88V87H346V88H347ZM448.5 88H449.5V87H448.5V88ZM448.5 102.5V103.5H449.5V102.5H448.5ZM376 102.5V101.5H375V102.5H376ZM376 131.5H375V132.5H376V131.5ZM434 131.5H435V130.5H434V131.5ZM434 146V147H435V146H434ZM376 146V145H375V146H376ZM376 175H375V176H376V175ZM448.5 175H449.5V174H448.5V175ZM448.5 189.5V190.5H449.5V189.5H448.5ZM348 189.5V88H346V189.5H348ZM347 89H448.5V87H347V89ZM447.5 88V102.5H449.5V88H447.5ZM448.5 101.5H376V103.5H448.5V101.5ZM375 102.5V131.5H377V102.5H375ZM376 132.5H434V130.5H376V132.5ZM433 131.5V146H435V131.5H433ZM434 145H376V147H434V145ZM375 146V175H377V146H375ZM376 176H448.5V174H376V176ZM447.5 175V189.5H449.5V175H447.5ZM448.5 188.5H347V190.5H448.5V188.5ZM593.5 189.5H592.5V190.5H593.5V189.5ZM593.5 175H594.5V174H593.5V175ZM579 175H578V176H579V175ZM579 88V87H578V88H579ZM608 88H609V87H608V88ZM608 146H607V147H608V146ZM622.5 146V147H623.5V146H622.5ZM622.5 88V87H621.5V88H622.5ZM637 88H638V87H637V88ZM637 146H636V147H637V146ZM651.5 146V147H652.5V146H651.5ZM651.5 88V87H650.5V88H651.5ZM680.5 88H681.5V87H680.5V88ZM680.5 175V176H681.5V175H680.5ZM666 175V174H665V175H666ZM666 189.5V190.5H667V189.5H666ZM651.5 189.5H650.5V190.5H651.5V189.5ZM651.5 175H652.5V174H651.5V175ZM637 175H636V176H637V175ZM637 160.5H638V159.5H637V160.5ZM622.5 160.5V159.5H621.5V160.5H622.5ZM622.5 175V176H623.5V175H622.5ZM608 175V174H607V175H608ZM608 189.5V190.5H609V189.5H608ZM594.5 189.5V175H592.5V189.5H594.5ZM593.5 174H579V176H593.5V174ZM580 175V88H578V175H580ZM579 89H608V87H579V89ZM607 88V146H609V88H607ZM608 147H622.5V145H608V147ZM623.5 146V88H621.5V146H623.5ZM622.5 89H637V87H622.5V89ZM636 88V146H638V88H636ZM637 147H651.5V145H637V147ZM652.5 146V88H650.5V146H652.5ZM651.5 89H680.5V87H651.5V89ZM679.5 88V175H681.5V88H679.5ZM680.5 174H666V176H680.5V174ZM665 175V189.5H667V175H665ZM666 188.5H651.5V190.5H666V188.5ZM652.5 189.5V175H650.5V189.5H652.5ZM651.5 174H637V176H651.5V174ZM638 175V160.5H636V175H638ZM637 159.5H622.5V161.5H637V159.5ZM621.5 160.5V175H623.5V160.5H621.5ZM622.5 174H608V176H622.5V174ZM607 175V189.5H609V175H607ZM608 188.5H593.5V190.5H608V188.5ZM695 189.5H694V190.5H695V189.5ZM695 117V116H694V117H695ZM709.5 117V118H710.5V117H709.5ZM709.5 102.5V101.5H708.5V102.5H709.5ZM724 102.5V103.5H725V102.5H724ZM724 88V87H723V88H724ZM767.5 88H768.5V87H767.5V88ZM767.5 102.5H766.5V103.5H767.5V102.5ZM782 102.5H783V101.5H782V102.5ZM782 117H781V118H782V117ZM796.5 117H797.5V116H796.5V117ZM796.5 189.5V190.5H797.5V189.5H796.5ZM767.5 189.5H766.5V190.5H767.5V189.5ZM767.5 160.5H768.5V159.5H767.5V160.5ZM724 160.5V159.5H723V160.5H724ZM724 189.5V190.5H725V189.5H724ZM724 146H723V147H724V146ZM767.5 146V147H768.5V146H767.5ZM767.5 117H768.5V116H767.5V117ZM753 117H752V118H753V117ZM753 102.5H754V101.5H753V102.5ZM738.5 102.5V101.5H737.5V102.5H738.5ZM738.5 117V118H739.5V117H738.5ZM724 117V116H723V117H724ZM696 189.5V117H694V189.5H696ZM695 118H709.5V116H695V118ZM710.5 117V102.5H708.5V117H710.5ZM709.5 103.5H724V101.5H709.5V103.5ZM725 102.5V88H723V102.5H725ZM724 89H767.5V87H724V89ZM766.5 88V102.5H768.5V88H766.5ZM767.5 103.5H782V101.5H767.5V103.5ZM781 102.5V117H783V102.5H781ZM782 118H796.5V116H782V118ZM795.5 117V189.5H797.5V117H795.5ZM796.5 188.5H767.5V190.5H796.5V188.5ZM768.5 189.5V160.5H766.5V189.5H768.5ZM767.5 159.5H724V161.5H767.5V159.5ZM723 160.5V189.5H725V160.5H723ZM724 188.5H695V190.5H724V188.5ZM724 147H767.5V145H724V147ZM768.5 146V117H766.5V146H768.5ZM767.5 116H753V118H767.5V116ZM754 117V102.5H752V117H754ZM753 101.5H738.5V103.5H753V101.5ZM737.5 102.5V117H739.5V102.5H737.5ZM738.5 116H724V118H738.5V116ZM723 117V146H725V117H723ZM811 189.5H810V190.5H811V189.5ZM811 88V87H810V88H811ZM898 88H899V87H898V88ZM898 102.5H897V103.5H898V102.5ZM912.5 102.5H913.5V101.5H912.5V102.5ZM912.5 146V147H913.5V146H912.5ZM883.5 146V145H882.5V146H883.5ZM883.5 160.5H882.5V161.5H883.5V160.5ZM898 160.5H899V159.5H898V160.5ZM898 175H897V176H898V175ZM912.5 175H913.5V174H912.5V175ZM912.5 189.5V190.5H913.5V189.5H912.5ZM869 189.5H868V190.5H869V189.5ZM869 175H870V174H869V175ZM854.5 175H853.5V176H854.5V175ZM854.5 160.5H855.5V159.5H854.5V160.5ZM840 160.5V159.5H839V160.5H840ZM840 189.5V190.5H841V189.5H840ZM840 146H839V147H840V146ZM869 146V147H870V146H869ZM869 131.5V130.5H868V131.5H869ZM883.5 131.5V132.5H884.5V131.5H883.5ZM883.5 102.5H884.5V101.5H883.5V102.5ZM840 102.5V101.5H839V102.5H840ZM812 189.5V88H810V189.5H812ZM811 89H898V87H811V89ZM897 88V102.5H899V88H897ZM898 103.5H912.5V101.5H898V103.5ZM911.5 102.5V146H913.5V102.5H911.5ZM912.5 145H883.5V147H912.5V145ZM882.5 146V160.5H884.5V146H882.5ZM883.5 161.5H898V159.5H883.5V161.5ZM897 160.5V175H899V160.5H897ZM898 176H912.5V174H898V176ZM911.5 175V189.5H913.5V175H911.5ZM912.5 188.5H869V190.5H912.5V188.5ZM870 189.5V175H868V189.5H870ZM869 174H854.5V176H869V174ZM855.5 175V160.5H853.5V175H855.5ZM854.5 159.5H840V161.5H854.5V159.5ZM839 160.5V189.5H841V160.5H839ZM840 188.5H811V190.5H840V188.5ZM840 147H869V145H840V147ZM870 146V131.5H868V146H870ZM869 132.5H883.5V130.5H869V132.5ZM884.5 131.5V102.5H882.5V131.5H884.5ZM883.5 101.5H840V103.5H883.5V101.5ZM839 102.5V146H841V102.5H839Z" fill="#9A7AF2" mask="url(#path-1-outside-1_58_7382)"/>
</g>
<g filter="url(#filter1_f_58_7382)">
<mask id="path-3-outside-2_58_7382" maskUnits="userSpaceOnUse" x="85" y="43" width="873" height="115" fill="black">
<rect fill="white" x="85" y="43" width="873" height="115"/>
<path d="M118.375 156.875V60.125H86.125V44H182.875V60.125H150.625V156.875H118.375ZM199 156.875V44H231.25V92.375H279.625V44H311.875V156.875H279.625V108.5H231.25V156.875H199ZM328 156.875V44H440.875V60.125H360.25V92.375H424.75V108.5H360.25V140.75H440.875V156.875H328ZM602.125 156.875V140.75H586V44H618.25V108.5H634.375V44H650.5V108.5H666.625V44H698.875V140.75H682.75V156.875H666.625V140.75H650.5V124.625H634.375V140.75H618.25V156.875H602.125ZM715 156.875V76.25H731.125V60.125H747.25V44H795.625V60.125H811.75V76.25H827.875V156.875H795.625V124.625H747.25V156.875H715ZM747.25 108.5H795.625V76.25H779.5V60.125H763.375V76.25H747.25V108.5ZM844 156.875V44H940.75V60.125H956.875V108.5H924.625V124.625H940.75V140.75H956.875V156.875H908.5V140.75H892.375V124.625H876.25V156.875H844ZM876.25 108.5H908.5V92.375H924.625V60.125H876.25V108.5Z"/>
</mask>
<path d="M118.375 156.875V60.125H86.125V44H182.875V60.125H150.625V156.875H118.375ZM199 156.875V44H231.25V92.375H279.625V44H311.875V156.875H279.625V108.5H231.25V156.875H199ZM328 156.875V44H440.875V60.125H360.25V92.375H424.75V108.5H360.25V140.75H440.875V156.875H328ZM602.125 156.875V140.75H586V44H618.25V108.5H634.375V44H650.5V108.5H666.625V44H698.875V140.75H682.75V156.875H666.625V140.75H650.5V124.625H634.375V140.75H618.25V156.875H602.125ZM715 156.875V76.25H731.125V60.125H747.25V44H795.625V60.125H811.75V76.25H827.875V156.875H795.625V124.625H747.25V156.875H715ZM747.25 108.5H795.625V76.25H779.5V60.125H763.375V76.25H747.25V108.5ZM844 156.875V44H940.75V60.125H956.875V108.5H924.625V124.625H940.75V140.75H956.875V156.875H908.5V140.75H892.375V124.625H876.25V156.875H844ZM876.25 108.5H908.5V92.375H924.625V60.125H876.25V108.5Z" fill="black"/>
<path d="M118.375 156.875H117.375V157.875H118.375V156.875ZM118.375 60.125H119.375V59.125H118.375V60.125ZM86.125 60.125H85.125V61.125H86.125V60.125ZM86.125 44V43H85.125V44H86.125ZM182.875 44H183.875V43H182.875V44ZM182.875 60.125V61.125H183.875V60.125H182.875ZM150.625 60.125V59.125H149.625V60.125H150.625ZM150.625 156.875V157.875H151.625V156.875H150.625ZM119.375 156.875V60.125H117.375V156.875H119.375ZM118.375 59.125H86.125V61.125H118.375V59.125ZM87.125 60.125V44H85.125V60.125H87.125ZM86.125 45H182.875V43H86.125V45ZM181.875 44V60.125H183.875V44H181.875ZM182.875 59.125H150.625V61.125H182.875V59.125ZM149.625 60.125V156.875H151.625V60.125H149.625ZM150.625 155.875H118.375V157.875H150.625V155.875ZM199 156.875H198V157.875H199V156.875ZM199 44V43H198V44H199ZM231.25 44H232.25V43H231.25V44ZM231.25 92.375H230.25V93.375H231.25V92.375ZM279.625 92.375V93.375H280.625V92.375H279.625ZM279.625 44V43H278.625V44H279.625ZM311.875 44H312.875V43H311.875V44ZM311.875 156.875V157.875H312.875V156.875H311.875ZM279.625 156.875H278.625V157.875H279.625V156.875ZM279.625 108.5H280.625V107.5H279.625V108.5ZM231.25 108.5V107.5H230.25V108.5H231.25ZM231.25 156.875V157.875H232.25V156.875H231.25ZM200 156.875V44H198V156.875H200ZM199 45H231.25V43H199V45ZM230.25 44V92.375H232.25V44H230.25ZM231.25 93.375H279.625V91.375H231.25V93.375ZM280.625 92.375V44H278.625V92.375H280.625ZM279.625 45H311.875V43H279.625V45ZM310.875 44V156.875H312.875V44H310.875ZM311.875 155.875H279.625V157.875H311.875V155.875ZM280.625 156.875V108.5H278.625V156.875H280.625ZM279.625 107.5H231.25V109.5H279.625V107.5ZM230.25 108.5V156.875H232.25V108.5H230.25ZM231.25 155.875H199V157.875H231.25V155.875ZM328 156.875H327V157.875H328V156.875ZM328 44V43H327V44H328ZM440.875 44H441.875V43H440.875V44ZM440.875 60.125V61.125H441.875V60.125H440.875ZM360.25 60.125V59.125H359.25V60.125H360.25ZM360.25 92.375H359.25V93.375H360.25V92.375ZM424.75 92.375H425.75V91.375H424.75V92.375ZM424.75 108.5V109.5H425.75V108.5H424.75ZM360.25 108.5V107.5H359.25V108.5H360.25ZM360.25 140.75H359.25V141.75H360.25V140.75ZM440.875 140.75H441.875V139.75H440.875V140.75ZM440.875 156.875V157.875H441.875V156.875H440.875ZM329 156.875V44H327V156.875H329ZM328 45H440.875V43H328V45ZM439.875 44V60.125H441.875V44H439.875ZM440.875 59.125H360.25V61.125H440.875V59.125ZM359.25 60.125V92.375H361.25V60.125H359.25ZM360.25 93.375H424.75V91.375H360.25V93.375ZM423.75 92.375V108.5H425.75V92.375H423.75ZM424.75 107.5H360.25V109.5H424.75V107.5ZM359.25 108.5V140.75H361.25V108.5H359.25ZM360.25 141.75H440.875V139.75H360.25V141.75ZM439.875 140.75V156.875H441.875V140.75H439.875ZM440.875 155.875H328V157.875H440.875V155.875ZM602.125 156.875H601.125V157.875H602.125V156.875ZM602.125 140.75H603.125V139.75H602.125V140.75ZM586 140.75H585V141.75H586V140.75ZM586 44V43H585V44H586ZM618.25 44H619.25V43H618.25V44ZM618.25 108.5H617.25V109.5H618.25V108.5ZM634.375 108.5V109.5H635.375V108.5H634.375ZM634.375 44V43H633.375V44H634.375ZM650.5 44H651.5V43H650.5V44ZM650.5 108.5H649.5V109.5H650.5V108.5ZM666.625 108.5V109.5H667.625V108.5H666.625ZM666.625 44V43H665.625V44H666.625ZM698.875 44H699.875V43H698.875V44ZM698.875 140.75V141.75H699.875V140.75H698.875ZM682.75 140.75V139.75H681.75V140.75H682.75ZM682.75 156.875V157.875H683.75V156.875H682.75ZM666.625 156.875H665.625V157.875H666.625V156.875ZM666.625 140.75H667.625V139.75H666.625V140.75ZM650.5 140.75H649.5V141.75H650.5V140.75ZM650.5 124.625H651.5V123.625H650.5V124.625ZM634.375 124.625V123.625H633.375V124.625H634.375ZM634.375 140.75V141.75H635.375V140.75H634.375ZM618.25 140.75V139.75H617.25V140.75H618.25ZM618.25 156.875V157.875H619.25V156.875H618.25ZM603.125 156.875V140.75H601.125V156.875H603.125ZM602.125 139.75H586V141.75H602.125V139.75ZM587 140.75V44H585V140.75H587ZM586 45H618.25V43H586V45ZM617.25 44V108.5H619.25V44H617.25ZM618.25 109.5H634.375V107.5H618.25V109.5ZM635.375 108.5V44H633.375V108.5H635.375ZM634.375 45H650.5V43H634.375V45ZM649.5 44V108.5H651.5V44H649.5ZM650.5 109.5H666.625V107.5H650.5V109.5ZM667.625 108.5V44H665.625V108.5H667.625ZM666.625 45H698.875V43H666.625V45ZM697.875 44V140.75H699.875V44H697.875ZM698.875 139.75H682.75V141.75H698.875V139.75ZM681.75 140.75V156.875H683.75V140.75H681.75ZM682.75 155.875H666.625V157.875H682.75V155.875ZM667.625 156.875V140.75H665.625V156.875H667.625ZM666.625 139.75H650.5V141.75H666.625V139.75ZM651.5 140.75V124.625H649.5V140.75H651.5ZM650.5 123.625H634.375V125.625H650.5V123.625ZM633.375 124.625V140.75H635.375V124.625H633.375ZM634.375 139.75H618.25V141.75H634.375V139.75ZM617.25 140.75V156.875H619.25V140.75H617.25ZM618.25 155.875H602.125V157.875H618.25V155.875ZM715 156.875H714V157.875H715V156.875ZM715 76.25V75.25H714V76.25H715ZM731.125 76.25V77.25H732.125V76.25H731.125ZM731.125 60.125V59.125H730.125V60.125H731.125ZM747.25 60.125V61.125H748.25V60.125H747.25ZM747.25 44V43H746.25V44H747.25ZM795.625 44H796.625V43H795.625V44ZM795.625 60.125H794.625V61.125H795.625V60.125ZM811.75 60.125H812.75V59.125H811.75V60.125ZM811.75 76.25H810.75V77.25H811.75V76.25ZM827.875 76.25H828.875V75.25H827.875V76.25ZM827.875 156.875V157.875H828.875V156.875H827.875ZM795.625 156.875H794.625V157.875H795.625V156.875ZM795.625 124.625H796.625V123.625H795.625V124.625ZM747.25 124.625V123.625H746.25V124.625H747.25ZM747.25 156.875V157.875H748.25V156.875H747.25ZM747.25 108.5H746.25V109.5H747.25V108.5ZM795.625 108.5V109.5H796.625V108.5H795.625ZM795.625 76.25H796.625V75.25H795.625V76.25ZM779.5 76.25H778.5V77.25H779.5V76.25ZM779.5 60.125H780.5V59.125H779.5V60.125ZM763.375 60.125V59.125H762.375V60.125H763.375ZM763.375 76.25V77.25H764.375V76.25H763.375ZM747.25 76.25V75.25H746.25V76.25H747.25ZM716 156.875V76.25H714V156.875H716ZM715 77.25H731.125V75.25H715V77.25ZM732.125 76.25V60.125H730.125V76.25H732.125ZM731.125 61.125H747.25V59.125H731.125V61.125ZM748.25 60.125V44H746.25V60.125H748.25ZM747.25 45H795.625V43H747.25V45ZM794.625 44V60.125H796.625V44H794.625ZM795.625 61.125H811.75V59.125H795.625V61.125ZM810.75 60.125V76.25H812.75V60.125H810.75ZM811.75 77.25H827.875V75.25H811.75V77.25ZM826.875 76.25V156.875H828.875V76.25H826.875ZM827.875 155.875H795.625V157.875H827.875V155.875ZM796.625 156.875V124.625H794.625V156.875H796.625ZM795.625 123.625H747.25V125.625H795.625V123.625ZM746.25 124.625V156.875H748.25V124.625H746.25ZM747.25 155.875H715V157.875H747.25V155.875ZM747.25 109.5H795.625V107.5H747.25V109.5ZM796.625 108.5V76.25H794.625V108.5H796.625ZM795.625 75.25H779.5V77.25H795.625V75.25ZM780.5 76.25V60.125H778.5V76.25H780.5ZM779.5 59.125H763.375V61.125H779.5V59.125ZM762.375 60.125V76.25H764.375V60.125H762.375ZM763.375 75.25H747.25V77.25H763.375V75.25ZM746.25 76.25V108.5H748.25V76.25H746.25ZM844 156.875H843V157.875H844V156.875ZM844 44V43H843V44H844ZM940.75 44H941.75V43H940.75V44ZM940.75 60.125H939.75V61.125H940.75V60.125ZM956.875 60.125H957.875V59.125H956.875V60.125ZM956.875 108.5V109.5H957.875V108.5H956.875ZM924.625 108.5V107.5H923.625V108.5H924.625ZM924.625 124.625H923.625V125.625H924.625V124.625ZM940.75 124.625H941.75V123.625H940.75V124.625ZM940.75 140.75H939.75V141.75H940.75V140.75ZM956.875 140.75H957.875V139.75H956.875V140.75ZM956.875 156.875V157.875H957.875V156.875H956.875ZM908.5 156.875H907.5V157.875H908.5V156.875ZM908.5 140.75H909.5V139.75H908.5V140.75ZM892.375 140.75H891.375V141.75H892.375V140.75ZM892.375 124.625H893.375V123.625H892.375V124.625ZM876.25 124.625V123.625H875.25V124.625H876.25ZM876.25 156.875V157.875H877.25V156.875H876.25ZM876.25 108.5H875.25V109.5H876.25V108.5ZM908.5 108.5V109.5H909.5V108.5H908.5ZM908.5 92.375V91.375H907.5V92.375H908.5ZM924.625 92.375V93.375H925.625V92.375H924.625ZM924.625 60.125H925.625V59.125H924.625V60.125ZM876.25 60.125V59.125H875.25V60.125H876.25ZM845 156.875V44H843V156.875H845ZM844 45H940.75V43H844V45ZM939.75 44V60.125H941.75V44H939.75ZM940.75 61.125H956.875V59.125H940.75V61.125ZM955.875 60.125V108.5H957.875V60.125H955.875ZM956.875 107.5H924.625V109.5H956.875V107.5ZM923.625 108.5V124.625H925.625V108.5H923.625ZM924.625 125.625H940.75V123.625H924.625V125.625ZM939.75 124.625V140.75H941.75V124.625H939.75ZM940.75 141.75H956.875V139.75H940.75V141.75ZM955.875 140.75V156.875H957.875V140.75H955.875ZM956.875 155.875H908.5V157.875H956.875V155.875ZM909.5 156.875V140.75H907.5V156.875H909.5ZM908.5 139.75H892.375V141.75H908.5V139.75ZM893.375 140.75V124.625H891.375V140.75H893.375ZM892.375 123.625H876.25V125.625H892.375V123.625ZM875.25 124.625V156.875H877.25V124.625H875.25ZM876.25 155.875H844V157.875H876.25V155.875ZM876.25 109.5H908.5V107.5H876.25V109.5ZM909.5 108.5V92.375H907.5V108.5H909.5ZM908.5 93.375H924.625V91.375H908.5V93.375ZM925.625 92.375V60.125H923.625V92.375H925.625ZM924.625 59.125H876.25V61.125H924.625V59.125ZM875.25 60.125V108.5H877.25V60.125H875.25Z" fill="#9A7AF2" mask="url(#path-3-outside-2_58_7382)"/>
</g>
<path d="M55.875 130.375V18.625H18.625V0H130.375V18.625H93.125V130.375H55.875ZM149 130.375V0H186.25V55.875H242.125V0H279.375V130.375H242.125V74.5H186.25V130.375H149ZM298 130.375V0H428.375V18.625H335.25V55.875H409.75V74.5H335.25V111.75H428.375V130.375H298ZM614.625 130.375V111.75H596V0H633.25V74.5H651.875V0H670.5V74.5H689.125V0H726.375V111.75H707.75V130.375H689.125V111.75H670.5V93.125H651.875V111.75H633.25V130.375H614.625ZM745 130.375V37.25H763.625V18.625H782.25V0H838.125V18.625H856.75V37.25H875.375V130.375H838.125V93.125H782.25V130.375H745ZM782.25 74.5H838.125V37.25H819.5V18.625H800.875V37.25H782.25V74.5ZM894 130.375V0H1005.75V18.625H1024.38V74.5H987.125V93.125H1005.75V111.75H1024.38V130.375H968.5V111.75H949.875V93.125H931.25V130.375H894ZM931.25 74.5H968.5V55.875H987.125V18.625H931.25V74.5Z" fill="#9A7AF2"/>
<defs>
<filter id="filter0_f_58_7382" x="124.5" y="83" width="793" height="111.5" filterUnits="userSpaceOnUse" color-interpolation-filters="sRGB">
<feFlood flood-opacity="0" result="BackgroundImageFix"/>
<feBlend mode="normal" in="SourceGraphic" in2="BackgroundImageFix" result="shape"/>
<feGaussianBlur stdDeviation="2.5" result="effect1_foregroundBlur_58_7382"/>
</filter>
<filter id="filter1_f_58_7382" x="83.125" y="41" width="876.75" height="118.875" filterUnits="userSpaceOnUse" color-interpolation-filters="sRGB">
<feFlood flood-opacity="0" result="BackgroundImageFix"/>
<feBlend mode="normal" in="SourceGraphic" in2="BackgroundImageFix" result="shape"/>
<feGaussianBlur stdDeviation="1.5" result="effect1_foregroundBlur_58_7382"/>
</filter>
</defs>
</svg>
