<svg width="379" height="118" viewBox="0 0 379 118" fill="none" xmlns="http://www.w3.org/2000/svg">
<rect width="8.82862" height="8.82862" fill="#9A7AF2"/>
<rect y="109.096" width="8.82862" height="8.82862" fill="#9A7AF2"/>
<rect x="370.171" width="8.82862" height="8.82862" fill="#9A7AF2"/>
<rect x="370.171" y="109.096" width="8.82862" height="8.82862" fill="#9A7AF2"/>
<mask id="path-5-inside-1_58_7430" fill="white">
<path fill-rule="evenodd" clip-rule="evenodd" d="M39.723 0H339.907C339.904 0.209752 339.902 0.419949 339.902 0.630577C339.902 20.1342 355.712 35.9451 375.216 35.9451C376.494 35.9451 377.757 35.8771 379 35.7447V82.811C377.757 82.6786 376.494 82.6106 375.216 82.6106C355.712 82.6106 339.902 98.4215 339.902 117.925L39.7286 117.925C39.7286 98.4215 23.9178 82.6106 4.41412 82.6106C2.91923 82.6106 1.44604 82.7035 0 82.8838V35.6719C1.44603 35.8522 2.91921 35.9451 4.41409 35.9451C23.9177 35.9451 39.7286 20.1342 39.7286 0.630577C39.7286 0.419949 39.7267 0.209752 39.723 0Z"/>
</mask>
<path fill-rule="evenodd" clip-rule="evenodd" d="M39.723 0H339.907C339.904 0.209752 339.902 0.419949 339.902 0.630577C339.902 20.1342 355.712 35.9451 375.216 35.9451C376.494 35.9451 377.757 35.8771 379 35.7447V82.811C377.757 82.6786 376.494 82.6106 375.216 82.6106C355.712 82.6106 339.902 98.4215 339.902 117.925L39.7286 117.925C39.7286 98.4215 23.9178 82.6106 4.41412 82.6106C2.91923 82.6106 1.44604 82.7035 0 82.8838V35.6719C1.44603 35.8522 2.91921 35.9451 4.41409 35.9451C23.9177 35.9451 39.7286 20.1342 39.7286 0.630577C39.7286 0.419949 39.7267 0.209752 39.723 0Z" fill="#9A7AF2" fill-opacity="0.13"/>
<path d="M339.907 0L341.907 0.0349132L341.942 -2H339.907V0ZM39.723 0V-2H37.6877L37.7234 0.0350223L39.723 0ZM379 35.7447H381V33.5204L378.788 33.756L379 35.7447ZM379 82.811L378.788 84.7997L381 85.0353V82.811H379ZM339.902 117.925L339.902 119.925L341.902 119.925V117.925H339.902ZM39.7286 117.925H37.7286V119.925L39.7286 119.925L39.7286 117.925ZM0 82.8838H-2V85.1487L0.247472 84.8684L0 82.8838ZM0 35.6719L0.247469 33.6872L-2 33.407V35.6719H0ZM339.907 -2H39.723V2H339.907V-2ZM341.902 0.630577C341.902 0.431733 341.903 0.233175 341.907 0.0349132L337.907 -0.0349132C337.904 0.186328 337.902 0.408165 337.902 0.630577H341.902ZM375.216 33.9451C356.817 33.9451 341.902 19.0297 341.902 0.630577H337.902C337.902 21.2388 354.608 37.9451 375.216 37.9451V33.9451ZM378.788 33.756C377.615 33.8809 376.424 33.9451 375.216 33.9451V37.9451C376.565 37.9451 377.898 37.8734 379.212 37.7335L378.788 33.756ZM381 82.811V35.7447H377V82.811H381ZM375.216 84.6106C376.424 84.6106 377.615 84.6748 378.788 84.7997L379.212 80.8222C377.898 80.6823 376.565 80.6106 375.216 80.6106V84.6106ZM341.902 117.925C341.902 99.526 356.817 84.6106 375.216 84.6106V80.6106C354.608 80.6106 337.902 97.3169 337.902 117.925H341.902ZM39.7286 119.925L339.902 119.925L339.902 115.925L39.7286 115.925L39.7286 119.925ZM4.41412 84.6106C22.8132 84.6106 37.7286 99.526 37.7286 117.925H41.7286C41.7286 97.3169 25.0223 80.6106 4.41412 80.6106V84.6106ZM0.247472 84.8684C1.61161 84.6983 3.00216 84.6106 4.41412 84.6106V80.6106C2.83631 80.6106 1.28047 80.7087 -0.247472 80.8992L0.247472 84.8684ZM-2 35.6719V82.8838H2V35.6719H-2ZM4.41409 33.9451C3.00214 33.9451 1.6116 33.8573 0.247469 33.6872L-0.247469 37.6565C1.28046 37.847 2.83629 37.9451 4.41409 37.9451V33.9451ZM37.7286 0.630577C37.7286 19.0297 22.8132 33.9451 4.41409 33.9451V37.9451C25.0223 37.9451 41.7286 21.2388 41.7286 0.630577H37.7286ZM37.7234 0.0350223C37.7268 0.23309 37.7286 0.431613 37.7286 0.630577H41.7286C41.7286 0.408285 41.7266 0.186413 41.7227 -0.0350223L37.7234 0.0350223Z" fill="#9A7AF2" mask="url(#path-5-inside-1_58_7430)"/>
<path d="M2.40251 19.6662L1.52246 19.7725V20.659V32.2929C1.34789 32.2772 1.17373 32.2601 1 32.2415V19.2624C10.8564 18.759 18.759 10.8564 19.2624 1H36.2042C36.2022 1.1745 36.1988 1.34866 36.1941 1.52246H20.659H19.7725L19.6662 2.40251C18.5764 11.4221 11.4221 18.5764 2.40251 19.6662ZM1.52246 86.2628V97.2661V98.1526L2.40251 98.2589C11.4221 99.3487 18.5764 106.503 19.6662 115.523L19.7725 116.403H20.659H36.1705C36.1787 116.576 36.1855 116.751 36.1909 116.925H19.2624C18.759 107.069 10.8564 99.1661 1 98.6627V86.3142C1.17373 86.2957 1.34789 86.2785 1.52246 86.2628ZM377.478 97.2661V86.2122C377.652 86.2245 377.826 86.2382 378 86.2532V98.6627C368.144 99.1661 360.241 107.069 359.738 116.925H343.44C343.445 116.751 343.452 116.576 343.46 116.403H358.341H359.227L359.334 115.523C360.424 106.503 367.578 99.3487 376.598 98.2589L377.478 98.1526V97.2661ZM378 32.3025C377.826 32.3176 377.652 32.3312 377.478 32.3435V20.659V19.7725L376.598 19.6662C367.578 18.5764 360.424 11.4221 359.334 2.40251L359.227 1.52246H358.341H343.437C343.432 1.34866 343.428 1.1745 343.426 1H359.738C360.241 10.8564 368.144 18.759 378 19.2624V32.3025Z" stroke="#9A7AF2" stroke-width="2"/>
<path d="M168 73.9727V63.4727H173.25V58.2227H178.5V52.9727H173.25V47.7227H168V37.2227H178.5V47.7227H183.75V52.9727H189V47.7227H194.25V37.2227H204.75V47.7227H199.5V52.9727H194.25V58.2227H199.5V63.4727H204.75V73.9727H194.25V63.4727H189V58.2227H183.75V63.4727H178.5V73.9727H168Z" fill="#9A7AF2"/>
</svg>
